<svg xmlns="http://www.w3.org/2000/svg" width="65" height="60" viewBox="0 0 65 60">
  <defs>
    <style>
      .cls-1 {
        fill: #00d46a;
        fill-rule: evenodd;
      }
    </style>
  </defs>
  <path id="icon_users" class="cls-1" d="M1919.5,4121.94a12.426,12.426,0,0,1-9.68-4.63,0.066,0.066,0,0,1-.07-0.06l-18.31-22.75-0.06-.06a20.683,20.683,0,0,1-3.19-5.75,19.046,19.046,0,0,1-1.19-6.75,19.674,19.674,0,0,1,1.57-7.81,20.616,20.616,0,0,1,10.62-10.63,20.16,20.16,0,0,1,20.31,2.81,20.178,20.178,0,0,1,20.32-2.81,20.616,20.616,0,0,1,10.62,10.63,19.839,19.839,0,0,1,1.56,7.81,19.038,19.038,0,0,1-1.18,6.75,20.941,20.941,0,0,1-3.19,5.75l-0.06.06-18.32,22.75a0.059,0.059,0,0,1-.06.06A12.446,12.446,0,0,1,1919.5,4121.94Zm-20.25-33.69,18.25,22.69a0.066,0.066,0,0,0,.07.06,2.307,2.307,0,0,0,1.93.94,2.338,2.338,0,0,0,1.94-.94,0.059,0.059,0,0,0,.06-0.06l18.25-22.69,0.07-.06a9.8,9.8,0,0,0,2.18-6.25,10.029,10.029,0,0,0-10-10,9.865,9.865,0,0,0-8.31,4.5,5.094,5.094,0,0,1-8.37,0,9.883,9.883,0,0,0-8.32-4.5,10.029,10.029,0,0,0-10,10,9.757,9.757,0,0,0,2.19,6.25Z" transform="translate(-1887 -4061.94)"/>
</svg>
