<svg id="logo.svg" xmlns="http://www.w3.org/2000/svg" width="47.97" height="48" viewBox="0 0 47.97 48">
  <defs>
    <style>
      .cls-1 {
        fill: #fff;
      }

      .cls-1, .cls-2 {
        fill-rule: evenodd;
      }

      .cls-2 {
        fill: #0e141a;
        opacity: 0.9;
      }
    </style>
  </defs>
  <path id="circle" class="cls-1" d="M1770.12,432h0a23.993,23.993,0,0,1-23.98-24h0a23.993,23.993,0,0,1,23.98-24h0a23.993,23.993,0,0,1,23.98,24h0A23.993,23.993,0,0,1,1770.12,432Z" transform="translate(-1746.12 -384)"/>
  <path id="We" class="cls-2" d="M1774.05,401.747h-2.86l-2.57,9.242-2.7-9.242h-2.62l-2.7,9.242-2.56-9.242h-2.84l3.9,13.4h2.9l2.62-9.041,2.6,9.041h2.93Zm11.01,8.222a5.156,5.156,0,0,0-1.55-3.67,4.857,4.857,0,0,0-3.51-1.431,5,5,0,0,0-3.67,1.49,5.62,5.62,0,0,0-.01,7.612,4.952,4.952,0,0,0,3.64,1.48,5.462,5.462,0,0,0,2.94-.78,4.768,4.768,0,0,0,1.9-2.3l-2.36-.5a2.661,2.661,0,0,1-2.48,1.32,2.319,2.319,0,0,1-1.61-.63,2.994,2.994,0,0,1-.89-1.69h7.6v-0.9Zm-5.06-2.8a2.454,2.454,0,0,1,1.48.46,2.342,2.342,0,0,1,.88,1.38h-4.82a2.258,2.258,0,0,1,.93-1.36A2.711,2.711,0,0,1,1780,407.169Z" transform="translate(-1746.12 -384)"/>
</svg>
