<svg id="logo.svg" xmlns="http://www.w3.org/2000/svg" width="291.656" height="95.938" viewBox="0 0 291.656 95.938">
  <defs>
    <style>
      .cls-1 {
        fill: #0e141a;
        opacity: 0.9;
      }

      .cls-1, .cls-2, .cls-3 {
        fill-rule: evenodd;
      }

      .cls-2 {
        fill: #00d46a;
      }

      .cls-3 {
        fill: #fff;
      }
    </style>
  </defs>
  <path id="Deploy_" data-name="Deploy™" class="cls-1" d="M382.245,80.017V112.18h12.721q7.922,0,12.769-4.441A15.039,15.039,0,0,0,412.584,96.1a15.04,15.04,0,0,0-4.849-11.641q-4.848-4.44-12.769-4.44H382.245Zm7.921,25.3V86.882h4.512A10.191,10.191,0,0,1,401.9,89.4a9.624,9.624,0,0,1,0,13.393,10.19,10.19,0,0,1-7.225,2.52h-4.512Zm50.175-5.184a12.749,12.749,0,0,0-3.648-9.265,12.018,12.018,0,0,0-8.785-3.5,12.507,12.507,0,0,0-9.073,3.6,13.25,13.25,0,0,0,0,18.361,12.491,12.491,0,0,0,9.025,3.577,13.743,13.743,0,0,0,7.321-1.9,11.492,11.492,0,0,0,4.632-5.641L433,103.971a5.4,5.4,0,0,1-5.137,2.784,4.8,4.8,0,0,1-3.312-1.248,6.246,6.246,0,0,1-1.872-3.408h17.665v-1.968ZM427.908,93.6a4.942,4.942,0,0,1,3.024.96,5.115,5.115,0,0,1,1.825,2.832H422.82a5.04,5.04,0,0,1,1.968-2.784A5.331,5.331,0,0,1,427.908,93.6Zm31.119-6.241A10.757,10.757,0,0,0,451.538,90v-1.92h-7.681V120.34h7.681V110.26a10.757,10.757,0,0,0,7.489,2.64,11.111,11.111,0,0,0,8.328-3.577,13.992,13.992,0,0,0,0-18.361A11.078,11.078,0,0,0,459.027,87.362Zm-1.584,19.009a5.675,5.675,0,0,1-4.153-1.752,6.594,6.594,0,0,1,0-8.953,5.637,5.637,0,0,1,4.153-1.776,5.454,5.454,0,0,1,4.176,1.752,7.021,7.021,0,0,1,0,9A5.491,5.491,0,0,1,457.443,106.371Zm24.618,5.809V77.617H474.38V112.18h7.681Zm16.785-24.722a13.49,13.49,0,0,0-9.48,3.552,12.75,12.75,0,0,0,0,18.289,13.487,13.487,0,0,0,9.48,3.553,13.278,13.278,0,0,0,9.361-3.553,12.806,12.806,0,0,0,0-18.289A13.28,13.28,0,0,0,498.846,87.458Zm0,18.913a5.729,5.729,0,0,1-4.2-1.752,6.592,6.592,0,0,1,.024-8.977,5.753,5.753,0,0,1,4.176-1.752,5.568,5.568,0,0,1,4.057,1.752,6.659,6.659,0,0,1,.024,8.977A5.543,5.543,0,0,1,498.846,106.371Zm41.2-18.337h-8.257l-6.1,14.065-5.713-14.065h-8.256l9.984,23.33-3.888,8.976h8.3Zm12.7-4.464V80.017H540.4v3.552h4.032v9.745h4.225V83.569h4.08Zm16.85,9.745v-13.3h-4.465l-3.216,7.2-3.216-7.2H554.18v13.3h3.985V86.93l2.688,6.337h2.112l2.688-6.337v6.385h3.937Z" transform="translate(-277.938 -48.031)"/>
  <path id="circle" class="cls-2" d="M325.907,143.981h0A47.981,47.981,0,0,1,277.926,96h0a47.981,47.981,0,0,1,47.981-47.981h0A47.981,47.981,0,0,1,373.888,96h0A47.981,47.981,0,0,1,325.907,143.981Z" transform="translate(-277.938 -48.031)"/>
  <path id="We" class="cls-3" d="M337.161,80.017H330.3L324.152,102.2l-6.481-22.178h-6.288L304.9,102.2l-6.144-22.178h-6.817L301.3,112.18h6.96l6.289-21.7,6.24,21.7H327.8Zm22.711,19.73a12.409,12.409,0,0,0-3.72-8.809,11.66,11.66,0,0,0-8.425-3.432,11.969,11.969,0,0,0-8.808,3.576,13.48,13.48,0,0,0-.024,18.265,11.871,11.871,0,0,0,8.736,3.553,13.133,13.133,0,0,0,7.057-1.872,11.533,11.533,0,0,0,4.56-5.521l-5.664-1.2a6.4,6.4,0,0,1-5.953,3.168,5.551,5.551,0,0,1-3.864-1.512,7.086,7.086,0,0,1-2.136-4.056h18.241v-2.16Zm-12.145-6.721a5.934,5.934,0,0,1,3.553,1.1,5.661,5.661,0,0,1,2.112,3.312H341.823a5.357,5.357,0,0,1,2.232-3.264A6.432,6.432,0,0,1,347.727,93.026Z" transform="translate(-277.938 -48.031)"/>
</svg>
