<?xml version="1.0" encoding="UTF-8"?>
<svg viewBox="0 0 10 8" version="1.1" xmlns="http://www.w3.org/2000/svg" xmlns:xlink="http://www.w3.org/1999/xlink">
    <!-- Generator: Sketch 46.2 (44496) - http://www.bohemiancoding.com/sketch -->
    <title>arrow</title>
    <desc>Created with Sketch.</desc>
    <defs></defs>
    <g id="Workflow" stroke="none" stroke-width="1" fill="none" fill-rule="evenodd">
        <g id="01_landing_page_(home)" transform="translate(-398.000000, -9500.000000)" fill="#03ae5a">
            <g id="view_18_(div_1)" transform="translate(0.000000, 9180.000000)">
                <g id="feature_3" transform="translate(168.000000, 198.000000)">
                    <g id="text" transform="translate(54.000000, 0.000000)">
                        <path d="M182.712524,129.715652 C182.512523,129.903153 182.250022,130.003153 182.000021,130.003153 C181.75002,130.003153 181.487519,129.903153 181.287519,129.715652 C180.900017,129.315651 180.900017,128.690649 181.287519,128.290647 L182.587523,127.003143 L177.000004,127.003143 C176.450002,127.003143 176,126.553141 176,126.003139 C176,125.453137 176.450002,125.003136 177.000004,125.003136 L182.587523,125.003136 L181.287519,123.715631 C180.900017,123.31563 180.900017,122.690627 181.287519,122.290626 C181.68752,121.903125 182.312522,121.903125 182.712524,122.290626 L185.712534,125.290637 C186.100036,125.690638 186.100036,126.31564 185.712534,126.715642 L182.712524,129.715652 Z" id="arrow"></path>
                    </g>
                </g>
            </g>
        </g>
    </g>
</svg>
