<?xml version="1.0" encoding="UTF-8"?>
<svg viewBox="0 0 14 13" version="1.1" xmlns="http://www.w3.org/2000/svg" xmlns:xlink="http://www.w3.org/1999/xlink">
    <!-- Generator: Sketch 46.2 (44496) - http://www.bohemiancoding.com/sketch -->
    <title>icon_arrow_(enter)</title>
    <desc>Created with Sketch.</desc>
    <defs></defs>
    <g id="Resource---Svg" stroke="none" stroke-width="1" fill="none" fill-rule="evenodd">
        <g id="icon_arrow_(enter)" fill="#FFFFFF">
            <path d="M3.292895,2.292895 C3.4881575,2.0976325 3.7440825,1.999995 3.999995,1.999995 C4.25592,1.999995 4.511845,2.0976325 4.7071075,2.292895 C5.0976325,2.68342 5.0976325,3.3165825 4.7071075,3.7071075 L3.4142075,4.999995 L7.999995,4.999995 C8.5522825,4.999995 8.999995,5.44772 8.999995,5.999995 C8.999995,6.5522825 8.5522825,6.999995 7.999995,6.999995 L3.4142075,6.999995 L4.7071075,8.292895 C5.0976325,8.68342 5.0976325,9.3165825 4.7071075,9.7071075 C4.3165825,10.0976325 3.68342,10.0976325 3.292895,9.7071075 L0.292895,6.7071075 C-0.09763,6.3165825 -0.09763,5.68342 0.292895,5.292895 L3.292895,2.292895 Z" id="shape_2" transform="translate(4.499998, 5.999998) rotate(180.000000) translate(-4.499998, -5.999998) "></path>
            <path d="M8.016675,0.00010375 C8.015275,0.00010375 8.0139,3.75000002e-06 8.0125,3.75000002e-06 C8.0116625,3.75000002e-06 8.0108375,6.625e-05 8.01,6.625e-05 C8.0066625,6.625e-05 8.0033375,3.75000002e-06 8,3.75000002e-06 L8,0.00031625 C7.4535,0.00704125 7.0125,0.45190375 7.0125,1.00000375 C7.0125,1.54809125 7.4535,1.99295375 8,1.99967875 L8,2.00000375 C10.2091375,2.00000375 12,3.79086625 12,6.00000375 C12,8.20914125 10.2091375,10.0000038 8,10.0000038 C7.4477125,10.0000038 7,10.4477163 7,11.0000038 C7,11.5522788 7.4477125,12.0000038 8,12.0000038 C11.3137125,12.0000038 14,9.31370375 14,6.00000375 C14,2.69185375 11.3227,0.00910375 8.016675,0.00010375" id="shape_1" fill-opacity="0.6"></path>
        </g>
    </g>
</svg>
