<?xml version="1.0" encoding="UTF-8"?>
<svg width="24px" height="24px" viewBox="0 0 24 24" version="1.1" xmlns="http://www.w3.org/2000/svg" xmlns:xlink="http://www.w3.org/1999/xlink">
    <!-- Generator: Sketch 49.1 (51147) - http://www.bohemiancoding.com/sketch -->
    <title>icon_(question)</title>
    <desc>Created with Sketch.</desc>
    <defs></defs>
    <g id="icon_(question)" stroke="none" stroke-width="1" fill="none" fill-rule="evenodd">
        <g id="icon" fill="#00AE55">
            <rect id="container" fill-opacity="0.2" x="0" y="0" width="24" height="24" rx="12"></rect>
            <path d="M13.076,14.036 C13.076,13.226 13.508,12.758 14.138,12.29 L14.822,11.786 C15.902,10.976 16.568,9.986 16.568,8.546 C16.568,6.746 15.11,5 12.194,5 C9.566,5 8,6.782 8,8.888 C8,9.122 8.018,9.392 8.072,9.644 L10.592,9.734 C10.574,9.662 10.538,9.482 10.538,9.068 C10.538,8.222 11.15,7.376 12.194,7.376 C13.274,7.376 13.796,8.06 13.796,8.762 C13.796,9.23 13.634,9.662 13.148,10.022 L12.23,10.706 C11.204,11.48 10.862,12.398 10.862,13.244 C10.862,13.532 10.88,13.784 10.934,14.036 L13.076,14.036 Z M10.52,16.664 C10.52,17.51 11.204,18.212 12.068,18.212 C12.932,18.212 13.634,17.51 13.634,16.664 C13.634,15.8 12.932,15.098 12.068,15.098 C11.204,15.098 10.52,15.8 10.52,16.664 Z" id="?"></path>
        </g>
    </g>
</svg>