<svg viewBox="0 0 24 24" xmlns="http://www.w3.org/2000/svg"><g fill="#00D46A" fill-rule="evenodd"><rect fill-opacity=".2" width="24" height="24" rx="12"/><path d="M13.076 14.036c0-.81.432-1.278 1.062-1.746l.684-.504c1.08-.81 1.746-1.8 1.746-3.24 0-1.8-1.458-3.546-4.374-3.546C9.566 5 8 6.782 8 8.888c0 .234.018.504.072.756l2.52.09c-.018-.072-.054-.252-.054-.666 0-.846.612-1.692 1.656-1.692 1.08 0 1.602.684 1.602 1.386 0 .468-.162.9-.648 1.26l-.918.684c-1.026.774-1.368 1.692-1.368 2.538 0 .288.018.54.072.792h2.142zm-2.556 2.628c0 .846.684 1.548 1.548 1.548s1.566-.702 1.566-1.548c0-.864-.702-1.566-1.566-1.566-.864 0-1.548.702-1.548 1.566z"/></g></svg>
