<?xml version="1.0" encoding="UTF-8"?>
<svg width="42px" height="42px" viewBox="0 0 42 42" version="1.1" xmlns="http://www.w3.org/2000/svg" xmlns:xlink="http://www.w3.org/1999/xlink">
    <!-- Generator: Sketch 49.1 (51147) - http://www.bohemiancoding.com/sketch -->
    <title>icon_wedeploy_feature_(shield)</title>
    <desc>Created with Sketch.</desc>
    <defs>
        <circle id="path-1" cx="21" cy="21" r="21"></circle>
    </defs>
    <g id="icon_wedeploy_feature_(shield)" stroke="none" stroke-width="1" fill="none" fill-rule="evenodd">
        <mask id="mask-2" fill="white">
            <use xlink:href="#path-1"></use>
        </mask>
        <use id="container" fill="#00AE55" xlink:href="#path-1"></use>
        <g id="shield" mask="url(#mask-2)">
            <g transform="translate(9.000000, 6.000000)">
                <path d="M12,26.9935275 L12,16.0249775 L4.446275,16.0249775 C4.154325,14.7385025 4,13.3997775 4,12.0249775 L4,9.0249775 C4,8.6967275 4.158425,8.4057775 4.402725,8.2235025 C4.43505,8.1993775 4.46875,8.1769775 4.503925,8.1568275 L4.50385,8.1567275 C6.24035,7.1644525 9.767375,5.1490025 11.50385,4.1567275 L11.503925,4.1568275 C11.65015,4.0731025 11.8194,4.0249775 12,4.0249775 L12,16.0249775 L19.553725,16.0249775 C18.52045,20.5782025 15.761175,24.4758025 12,26.9935275 M23.470275,6.1424025 C23.236975,6.0151525 22.904775,5.8339525 22.49995,5.6131275 C19.833975,4.1589775 14.013575,0.9841775 12.48385,0.1498025 C12.340475,0.0703525 12.17555,0.0249775 12,0.0249775 C11.82445,0.0249775 11.659525,0.0703525 11.516125,0.1498025 C9.986425,0.9841775 4.166025,4.1589775 1.500025,5.6131275 C1.0952,5.8339525 0.763025,6.0151525 0.529725,6.1424025 C0.228425,6.3032775 0.019575,6.6139525 0.00175,6.9749775 L0,6.9749775 L0,13.0249775 C0,14.0458025 0.080675,15.0477525 0.2357,16.0249775 C1.2987,22.7264275 5.865375,28.2612775 12,30.6937525 C18.13465,28.2612775 22.7013,22.7264275 23.7643,16.0249775 C23.9193,15.0477525 24,14.0458025 24,13.0249775 L24,6.9749775 L23.99825,6.9749775 C23.980425,6.6139525 23.771575,6.3032775 23.470275,6.1424025" id="shield" fill-opacity="0.6" fill="#0E141A"></path>
                <path d="M12,26.9935275 C15.761175,24.4758025 18.52045,20.5782025 19.553725,16.0249775 L12,16.0249775 L12,26.9935275 Z" id="mark_2" fill="#FFFFFF"></path>
                <path d="M11.5039175,4.1568325 L11.5038675,4.1567325 C9.7673675,5.1490075 6.2403425,7.1644575 4.5038675,8.1567325 L4.5039175,8.1568325 C4.4687425,8.1769825 4.4350675,8.1993825 4.4027175,8.2235075 C4.1584175,8.4057825 3.9999925,8.6967325 3.9999925,9.0249825 L3.9999925,12.0249825 C3.9999925,13.3997825 4.1543175,14.7385075 4.4462675,16.0249825 L11.9999925,16.0249825 L11.9999925,4.0249825 C11.8194175,4.0249825 11.6501675,4.0730825 11.5039175,4.1568325" id="mark_1" fill="#FFFFFF"></path>
            </g>
        </g>
    </g>
</svg>