<svg viewBox="0 0 42 42" xmlns="http://www.w3.org/2000/svg" xmlns:xlink="http://www.w3.org/1999/xlink"><defs><circle id="a" cx="21" cy="21" r="21"/></defs><g fill="none" fill-rule="evenodd"><mask id="b" fill="#fff"><use xlink:href="#a"/></mask><use fill="#00D46A" xlink:href="#a"/><g mask="url(#b)"><path d="M29 29h-6a2 2 0 1 1 0-4h6a2 2 0 1 1 0 4m-14.586-.587a2.002 2.002 0 1 1-2.828-2.833l4.583-4.59-4.58-4.567a2.002 2.002 0 1 1 2.822-2.839l6 5.984c.364.363.589.865.589 1.42 0 .553-.224 1.053-.586 1.416l-6 6.01M31 9H11a4 4 0 0 0-4 4v16a4 4 0 0 0 4 4h20a4 4 0 0 0 4-4V13a4 4 0 0 0-4-4" fill-opacity=".6" fill="#0E141A"/><path d="M29 29h-6a2 2 0 1 1 0-4h6a2 2 0 1 1 0 4m-14.586-.587a2.002 2.002 0 1 1-2.828-2.833l4.583-4.59-4.58-4.567a2.002 2.002 0 1 1 2.822-2.839l6 5.984c.364.363.589.865.589 1.42 0 .553-.224 1.053-.586 1.416l-6 6.01" fill="#FFF"/></g></g></svg>
