<?xml version="1.0" encoding="UTF-8"?>
<svg width="42px" height="42px" viewBox="0 0 42 42" version="1.1" xmlns="http://www.w3.org/2000/svg" xmlns:xlink="http://www.w3.org/1999/xlink">
    <!-- Generator: Sketch 49.1 (51147) - http://www.bohemiancoding.com/sketch -->
    <title>icon_wedeploy_feature_(graph)</title>
    <desc>Created with Sketch.</desc>
    <defs>
        <circle id="path-1" cx="21" cy="21" r="21"></circle>
    </defs>
    <g id="icon_wedeploy_feature_(graph)" stroke="none" stroke-width="1" fill="none" fill-rule="evenodd">
        <mask id="mask-2" fill="white">
            <use xlink:href="#path-1"></use>
        </mask>
        <use id="container" fill="#00AE55" xlink:href="#path-1"></use>
        <g id="graph" mask="url(#mask-2)">
            <g transform="translate(7.000000, 8.000000)">
                <path d="M4.00001407,-8.4400177e-05 L24.0000844,-8.4400177e-05 C26.2000921,-8.4400177e-05 28.0000985,1.79992193 28.0000985,3.99992967 L28.0000985,21.999993 C28.0000985,24.2000007 26.2000921,26.000007 24.0000844,26.000007 L4.00001407,26.000007 C1.80000633,26.000007 0,24.2000007 0,21.999993 L0,3.99992967 C0,1.79992193 1.80000633,-8.4400177e-05 4.00001407,-8.4400177e-05 Z" id="box" fill-opacity="0.6" fill="#0E141A"></path>
                <path d="M22.0000774,17.9999789 L22.0000774,7.99994373 C22.0000774,6.89993986 21.1000742,5.9999367 20.0000703,5.9999367 C18.9000665,5.9999367 18.0000633,6.89993986 18.0000633,7.99994373 L18.0000633,17.9999789 C18.0000633,19.0999828 18.9000665,19.9999859 20.0000703,19.9999859 C21.1000742,19.9999859 22.0000774,19.0999828 22.0000774,17.9999789 Z" id="line_3" fill="#FFFFFF"></path>
                <path d="M10.0000352,17.9999789 L10.0000352,11.9999578 C10.0000352,10.8999539 9.100032,9.99995077 8.00002813,9.99995077 C6.90002427,9.99995077 6.0000211,10.8999539 6.0000211,11.9999578 L6.0000211,17.9999789 C6.0000211,19.0999828 6.90002427,19.9999859 8.00002813,19.9999859 C9.100032,19.9999859 10.0000352,19.0999828 10.0000352,17.9999789 Z" id="line_2" fill="#FFFFFF"></path>
                <path d="M16.0000563,17.9999789 L16.0000563,13.9999648 C16.0000563,12.899961 15.1000531,11.9999578 14.0000492,11.9999578 C12.9000454,11.9999578 12.0000422,12.899961 12.0000422,13.9999648 L12.0000422,17.9999789 C12.0000422,19.0999828 12.9000454,19.9999859 14.0000492,19.9999859 C15.1000531,19.9999859 16.0000563,19.0999828 16.0000563,17.9999789 Z" id="line_1" fill="#FFFFFF"></path>
            </g>
        </g>
    </g>
</svg>