<?xml version="1.0" encoding="UTF-8"?>
<svg width="42px" height="42px" viewBox="0 0 42 42" version="1.1" xmlns="http://www.w3.org/2000/svg" xmlns:xlink="http://www.w3.org/1999/xlink">
    <!-- Generator: Sketch 49.1 (51147) - http://www.bohemiancoding.com/sketch -->
    <title>icon_wedeploy_feature_(code)</title>
    <desc>Created with Sketch.</desc>
    <defs>
        <circle id="path-1" cx="21" cy="21" r="21"></circle>
    </defs>
    <g id="icon_wedeploy_feature_(code)" stroke="none" stroke-width="1" fill="none" fill-rule="evenodd">
        <mask id="mask-2" fill="white">
            <use xlink:href="#path-1"></use>
        </mask>
        <use id="container" fill="#00AE55" xlink:href="#path-1"></use>
        <g id="codebox" mask="url(#mask-2)">
            <g transform="translate(7.000000, 9.000000)">
                <path d="M22,20 L16,20 C14.895425,20 14,19.104575 14,18 C14,16.895425 14.895425,16 16,16 L22,16 C23.104575,16 24,16.895425 24,18 C24,19.104575 23.104575,20 22,20 M7.4142,19.4132833 C7.052275,19.7757997 6.552275,20 6,20 C4.895425,20 4,19.1031737 4,17.9968701 C4,17.4437058 4.22385,16.9429233 4.5858,16.580457 C6.858325,14.3043505 7.52675,13.6348795 9.168625,11.9904351 C7.527425,10.3535274 6.865425,9.69327074 4.58875,7.42252269 L4.5888,7.42244757 C4.22515,7.05970579 4,6.55777152 4,6.00312989 C4,4.89682629 4.895425,4 6,4 C6.550775,4 7.0495,4.22304851 7.4112,4.58381221 L7.41125,4.58373709 C10.245575,7.41067919 10.576925,7.74117058 13.41125,10.5680876 L13.4112,10.5681628 C13.77485,10.9309045 14,11.4328388 14,11.9874804 C14,12.5406448 13.77615,13.0414272 13.4142,13.4038936 C10.5858,16.23677 10.24265,16.580457 7.4142,19.4132833 M24,0 L4,0 C1.79085,0 0,1.790875 0,4 L0,20 C0,22.209125 1.79085,24 4,24 L24,24 C26.209125,24 28,22.209125 28,20 L28,4 C28,1.790875 26.209125,0 24,0" id="outline" fill-opacity="0.6" fill="#0E141A"></path>
                <path d="M22,20 L16,20 C14.895425,20 14,19.104575 14,18 C14,16.895425 14.895425,16 16,16 L22,16 C23.104575,16 24,16.895425 24,18 C24,19.104575 23.104575,20 22,20" id="underscore" fill="#FFFFFF"></path>
                <path d="M7.4142,19.4132833 C7.052275,19.7757997 6.552275,20 6,20 C4.895425,20 4,19.1031737 4,17.9968701 C4,17.4437058 4.22385,16.9429233 4.5858,16.580457 C6.858325,14.3043505 7.52675,13.6348795 9.168625,11.9904351 C7.527425,10.3535274 6.865425,9.69327074 4.58875,7.42252269 L4.5888,7.42244757 C4.22515,7.05970579 4,6.55777152 4,6.00312989 C4,4.89682629 4.895425,4 6,4 C6.550775,4 7.0495,4.22304851 7.4112,4.58381221 L7.41125,4.58373709 C10.245575,7.41067919 10.576925,7.74117058 13.41125,10.5680876 L13.4112,10.5681628 C13.77485,10.9309045 14,11.4328388 14,11.9874804 C14,12.5406448 13.77615,13.0414272 13.4142,13.4038936 C10.5858,16.23677 10.24265,16.580457 7.4142,19.4132833" id="arrow" fill="#FFFFFF"></path>
            </g>
        </g>
    </g>
</svg>