<?xml version="1.0" encoding="UTF-8"?>
<svg width="384px" height="427px" viewBox="0 0 384 427" version="1.1" xmlns="http://www.w3.org/2000/svg" xmlns:xlink="http://www.w3.org/1999/xlink">
    <!-- Generator: Sketch 48.2 (47327) - http://www.bohemiancoding.com/sketch -->
    <title>illustration_box</title>
    <desc>Created with Sketch.</desc>
    <defs>
        <radialGradient cx="0%" cy="1.58854167%" fx="0%" fy="1.58854167%" r="140.302584%" gradientTransform="translate(0.000000,0.015885),scale(1.000000,0.581818),rotate(59.408005),translate(-0.000000,-0.015885)" id="radialGradient-1">
            <stop stop-color="#1F7AFF" stop-opacity="0.6" offset="0%"></stop>
            <stop stop-color="#1F7AFF" stop-opacity="0" offset="100%"></stop>
        </radialGradient>
        <radialGradient cx="0%" cy="0%" fx="0%" fy="0%" r="141.421356%" gradientTransform="translate(0.000000,0.000000),scale(1.000000,0.581818),rotate(59.808377),translate(-0.000000,-0.000000)" id="radialGradient-2">
            <stop stop-color="#1F7AFF" stop-opacity="0.7" offset="0%"></stop>
            <stop stop-color="#1F7AFF" stop-opacity="0" offset="100%"></stop>
        </radialGradient>
        <radialGradient cx="100%" cy="50%" fx="100%" fy="50%" r="50%" gradientTransform="translate(1.000000,0.500000),scale(1.000000,0.931507),rotate(90.000000),translate(-1.000000,-0.500000)" id="radialGradient-3">
            <stop stop-color="#FFFFFF" stop-opacity="0.399003623" offset="0%"></stop>
            <stop stop-color="#FFFFFF" stop-opacity="0.196161685" offset="100%"></stop>
        </radialGradient>
        <linearGradient x1="50%" y1="0%" x2="50%" y2="100%" id="linearGradient-4">
            <stop stop-color="#00FF80" offset="0%"></stop>
            <stop stop-color="#00D46A" offset="100%"></stop>
        </linearGradient>
        <linearGradient x1="50%" y1="0%" x2="50%" y2="100%" id="linearGradient-5">
            <stop stop-color="#00A4FF" stop-opacity="0.6" offset="0%"></stop>
            <stop stop-color="#00A4FF" stop-opacity="0" offset="100%"></stop>
        </linearGradient>
        <polygon id="path-6" points="192 1 384 97 192 193 0 97"></polygon>
        <radialGradient cx="100%" cy="8.79455404%" fx="100%" fy="8.79455404%" r="132.367017%" gradientTransform="translate(1.000000,0.087946),scale(1.000000,0.233162),rotate(105.048466),translate(-1.000000,-0.087946)" id="radialGradient-7">
            <stop stop-color="#FFFFFF" stop-opacity="0.803442029" offset="0%"></stop>
            <stop stop-color="#FFFFFF" stop-opacity="0.3" offset="100%"></stop>
        </radialGradient>
        <radialGradient cx="85.8766019%" cy="9.32144702%" fx="85.8766019%" fy="9.32144702%" r="107.072057%" gradientTransform="translate(0.858766,0.093214),scale(1.000000,0.726299),rotate(114.515023),translate(-0.858766,-0.093214)" id="radialGradient-8">
            <stop stop-color="#FFFFFF" offset="0%"></stop>
            <stop stop-color="#FFFFFF" stop-opacity="0.498131793" offset="100%"></stop>
        </radialGradient>
    </defs>
    <g id="Resource---Svg" stroke="none" stroke-width="1" fill="none" fill-rule="evenodd">
        <g id="illustration_box">
            <path d="M384,97 L384,331 L192,427 L0,331 L0,97 L192,1 L384,97 Z" id="container"></path>
            <polygon id="right_green" fill="#00D46A" transform="translate(288.000000, 262.000000) scale(-1, 1) translate(-288.000000, -262.000000) " points="192 97 384 193 384 427 192 331"></polygon>
            <polygon id="right_gradient" fill="url(#radialGradient-1)" transform="translate(288.000000, 262.000000) scale(-1, 1) translate(-288.000000, -262.000000) " points="192 97 384 193 384 427 192 331"></polygon>
            <polygon id="left_green" fill="#00D46A" points="0 97 192 193 192 427 0 331"></polygon>
            <polygon id="left_gradient" fill="url(#radialGradient-2)" points="0 97 192 193 192 427 0 331"></polygon>
            <polygon id="left_mask" fill-opacity="0.239999995" fill="#0E141A" points="0 97 192 193 192 427 0 331"></polygon>
            <path d="M91,142.529412 L91,180.411765 L59,163 L59,127 L91,142.529412 Z M94,143.985294 L127,160 L127,200 L94,182.044118 L94,143.985294 Z" id="stripe_side" fill="url(#radialGradient-3)"></path>
            <g id="container">
                <use fill="url(#linearGradient-4)" xlink:href="#path-6"></use>
                <use fill="url(#linearGradient-5)" xlink:href="#path-6"></use>
            </g>
            <path d="M186.740887,-10.2964919 L186.740887,205.158426 L158.884173,226.110174 L159.212957,10.2469963 L186.740887,-10.2964919 Z M189.740887,-12.5353258 L219.739502,-34.9226317 L219.747185,180.333543 L189.740887,202.902049 L189.740887,-12.5353258 Z" id="stripe" fill="url(#radialGradient-7)" transform="translate(189.315679, 95.593771) rotate(63.500000) translate(-189.315679, -95.593771) "></path>
            <path d="M287.062083,196.543368 C257.932756,210.524643 237.020634,252.541046 240.34816,290.40046 C243.673612,328.255728 269.979311,347.615373 299.108637,333.634099 C328.233125,319.655589 349.148703,277.632274 345.82256,239.777006 C342.495034,201.9169 316.18657,182.564858 287.062083,196.543368 M294.018505,273.460771 L297.167696,241.164973 L305.261172,237.281017 L299.665068,287.93834 L291.522515,291.846489 L281.300777,264.953946 L276.391053,299.109121 L268.100579,303.088466 L254.415837,261.684483 L262.80792,257.656753 L271.240784,284.326724 L275.991529,251.328648 L284.081549,247.446075 L294.018505,273.460771 M322.403389,278.03871 C315.561018,281.322689 308.905967,277.883877 307.953468,267.04419 C307.040368,256.657251 312.404223,247.182029 318.848453,244.088827 C326.541022,240.396338 331.826078,244.289971 332.739178,254.67691 C332.858759,256.037919 332.891937,257.580028 332.855994,257.801909 L315.575533,266.095147 C316.042797,269.657687 318.819421,271.029756 321.766085,269.615523 C324.515752,268.296678 325.914087,265.867737 326.391028,263.000563 L332.93894,262.29552 C332.231132,268.450129 328.696241,275.018777 322.403389,278.03871 M319.631603,251.833238 C316.4361,253.367052 315.104122,257.187416 315.163567,259.659213 L325.103288,254.888423 C324.788092,252.468468 323.228012,250.106574 319.631603,251.833238" id="we" fill="url(#radialGradient-8)"></path>
        </g>
    </g>
</svg>