<?xml version="1.0" encoding="UTF-8"?>
<svg width="42px" height="42px" viewBox="0 0 42 42" version="1.1" xmlns="http://www.w3.org/2000/svg" xmlns:xlink="http://www.w3.org/1999/xlink">
    <!-- Generator: Sketch 49.1 (51147) - http://www.bohemiancoding.com/sketch -->
    <title>icon_wedeploy_feature_(github)</title>
    <desc>Created with Sketch.</desc>
    <defs>
        <circle id="path-1" cx="21" cy="21" r="21"></circle>
        <circle id="path-3" cx="14" cy="14" r="14"></circle>
    </defs>
    <g id="icon_wedeploy_feature_(github)" stroke="none" stroke-width="1" fill="none" fill-rule="evenodd">
        <mask id="mask-2" fill="white">
            <use xlink:href="#path-1"></use>
        </mask>
        <use id="container" fill="#00AE55" xlink:href="#path-1"></use>
        <g id="logo" mask="url(#mask-2)">
            <g transform="translate(7.000000, 7.000000)">
                <mask id="mask-4" fill="white">
                    <use xlink:href="#path-3"></use>
                </mask>
                <use id="container" stroke="none" fill-opacity="0.6" fill="#0E141A" fill-rule="evenodd" xlink:href="#path-3"></use>
                <path d="M21.6529992,11.4984012 C21.7877742,11.1668761 22.2375241,9.83452565 21.5225992,8.03037501 C21.5225992,8.03037501 20.4243495,7.67802489 17.92255,9.37372548 C16.8758002,9.08307538 15.7546754,8.93772533 14.6419006,8.93265033 C13.5274758,8.93772533 12.406451,9.08307538 11.3612262,9.37372548 C8.85790174,7.67802489 7.75762696,8.03037501 7.75762696,8.03037501 C7.0447021,9.83452565 7.49440201,11.1668761 7.62915198,11.4984012 C6.79092715,12.4144516 6.28032725,13.584202 6.28032725,15.0148025 C6.28032725,20.0363792 9.33945164,21.1606296 12.2493511,21.4913298 C11.8749511,21.8189299 11.5364262,22.3963551 11.4173762,23.2432054 C10.6706764,23.5786555 8.77262676,24.1569057 7.60365199,22.15438 C7.60365199,22.15438 6.91150212,20.8966045 5.59645238,20.8039295 C5.59645238,20.8039295 4.31662763,20.7874295 5.5064274,21.6004798 C5.5064274,21.6004798 6.36550223,22.0035549 6.96137711,23.5173805 C6.96137711,23.5173805 7.73052696,26.0659314 11.3757012,25.2740061 C11.3793012,25.8935313 11.3845012,26.9233567 11.3883262,27.756407 C12.2344761,27.916107 13.1074259,28.000007 14.0000007,28.000007 C15.3522005,28.000007 16.6595502,27.808107 17.896475,27.4503568 C17.896475,27.4503568 17.906475,24.8018559 17.906475,23.9078556 C17.906475,22.6854802 17.48735,21.8857049 17.0168251,21.4811297 C19.9361246,21.1567046 22.999999,20.0489292 22.999999,15.0148025 C22.999999,13.584202 22.4928741,12.4144516 21.6529992,11.4984012" id="cat" stroke="none" fill="#FFFFFF" fill-rule="evenodd" mask="url(#mask-4)"></path>
            </g>
        </g>
    </g>
</svg>