<?xml version="1.0" encoding="UTF-8"?>
<svg viewBox="0 0 12 9" version="1.1" xmlns="http://www.w3.org/2000/svg" xmlns:xlink="http://www.w3.org/1999/xlink">
    <!-- Generator: Sketch 46.2 (44496) - http://www.bohemiancoding.com/sketch -->
    <title>checkmark</title>
    <desc>Created with Sketch.</desc>
    <defs></defs>
    <g id="Resource---Data-Demo" stroke="none" stroke-width="1" fill="none" fill-rule="evenodd" fill-opacity="0.8">
        <g id="07_data_demo_(hover_checkbox_year_filter_menu)" transform="translate(-26.000000, -185.000000)" fill="#0E141A">
            <g id="demo">
                <g id="genre" transform="translate(24.000000, 108.000000)">
                    <g id="genre_1" transform="translate(0.000000, 72.000000)">
                        <path d="M13.2500396,6.12500396 C13.2500396,5.50000176 12.7500378,5 12.1250356,5 C11.8125345,5 11.5250335,5.12500044 11.3250328,5.32500114 C9.97502805,6.68750593 7.75002022,8.91251376 6.12501451,10.5250194 L3.92500677,8.32501169 C3.72500607,8.12501099 3.43750506,8.00001055 3.12500396,8.00001055 C2.50000176,8.00001055 2,8.50001231 2,9.12501451 C2,9.43751561 2.12500044,9.72501662 2.32500114,9.92501732 L5.32501169,12.9250279 C5.53751244,13.1250286 5.81251341,13.250029 6.12501451,13.250029 C6.43751561,13.250029 6.72501662,13.1250286 6.92501732,12.9250279 C8.5125229,11.3250222 11.3250328,8.51251235 12.9250384,6.92500677 C13.1250391,6.72500607 13.2500396,6.43750506 13.2500396,6.12500396 Z" id="checkmark"></path>
                    </g>
                </g>
            </g>
        </g>
    </g>
</svg>
