<svg viewBox="0 0 17 17" xmlns="http://www.w3.org/2000/svg">
  <path d="M12.9 10.767l3.667 3.666a1.52 1.52 0 0 1 0 2.134A1.56 1.56 0 0 1 15.5 17a1.56 1.56 0 0 1-1.067-.433L10.767 12.9A6.929 6.929 0 0 1 7 14a7 7 0 0 1-7-7 7 7 0 0 1 7-7 7 7 0 0 1 7 7c0 1.383-.4 2.683-1.1 3.767zm-8.733-.934A4.026 4.026 0 0 0 7 11a4.026 4.026 0 0 0 2.833-1.167A4.026 4.026 0 0 0 11 7a4.026 4.026 0 0 0-1.167-2.833A4.026 4.026 0 0 0 7 3a4.026 4.026 0 0 0-2.833 1.167A4.026 4.026 0 0 0 3 7c0 1.067.417 2.067 1.167 2.833z" fill="#0E141A" fill-rule="evenodd" fill-opacity=".6"/>
</svg>
