<?xml version="1.0" encoding="UTF-8"?>
<svg viewBox="0 0 115 18" version="1.1" xmlns="http://www.w3.org/2000/svg" xmlns:xlink="http://www.w3.org/1999/xlink">
    <!-- Generator: Sketch 46.2 (44496) - http://www.bohemiancoding.com/sketch -->
    <title>ranking_(4&amp;up)</title>
    <desc>Created with Sketch.</desc>
    <defs></defs>
    <g id="Resource---Svg" stroke="none" stroke-width="1" fill="none" fill-rule="evenodd">
        <g id="ranking_(4&amp;up)">
            <path d="M94.768,13 L93.688,11.872 C92.992,12.652 92.248,13.144 91.3,13.144 C89.692,13.144 88.84,12.064 88.84,10.972 C88.84,9.868 89.44,9.268 90.34,8.596 L90.46,8.5 L90.304,8.332 C89.908,7.912 89.284,7.264 89.284,6.436 C89.284,5.056 90.424,4.312 91.48,4.312 C92.764,4.312 93.736,5.116 93.736,6.388 C93.736,7.228 93.136,7.828 92.536,8.272 L92.104,8.596 L93.688,10.24 L95.584,8.128 L95.584,9.676 L94.432,11.008 L96.364,13 L94.768,13 Z M91.312,12.064 C91.96,12.064 92.428,11.644 92.896,11.128 L92.932,11.08 L91.204,9.268 L90.772,9.592 C90.364,9.904 90.052,10.288 90.052,10.876 C90.052,11.452 90.532,12.064 91.312,12.064 Z M90.448,6.364 C90.448,6.844 90.82,7.264 91.096,7.552 L91.36,7.84 L91.936,7.408 C92.44,7.036 92.572,6.712 92.572,6.352 C92.572,5.788 92.116,5.32 91.492,5.32 C91,5.32 90.448,5.692 90.448,6.364 Z M103.384,13.18 C105.112,13.18 106.444,12.1 106.444,10.096 L106.444,4.492 L105.268,4.492 L105.268,10.06 C105.268,11.356 104.584,12.088 103.384,12.088 C102.196,12.088 101.488,11.356 101.488,10.06 L101.488,4.492 L100.324,4.492 L100.324,10.096 C100.324,12.1 101.656,13.18 103.384,13.18 Z M109.48,15.28 L108.364,15.28 L108.364,7.228 L109.456,7.228 L109.456,8.128 C109.768,7.552 110.452,7.096 111.388,7.096 C113.116,7.096 114.04,8.428 114.04,10.108 C114.04,11.824 113.044,13.156 111.352,13.156 C110.464,13.156 109.792,12.736 109.48,12.22 L109.48,15.28 Z M112.888,10.108 C112.888,8.956 112.24,8.092 111.184,8.092 C110.152,8.092 109.468,8.956 109.468,10.108 C109.468,11.296 110.152,12.148 111.184,12.148 C112.228,12.148 112.888,11.296 112.888,10.108 Z" id="&amp;-Up" fill-opacity="0.7" fill="#0E141A"></path>
            <path d="M78.6250374,10.0375283 C79.1875393,11.6000338 79.6875411,12.9625386 79.937542,13.650041 C79.9750421,13.7625414 80.0000422,13.8750418 80.0000422,14.0000422 C80.0000422,14.5500441 79.5500406,15.0000457 79.0000387,15.0000457 C78.800038,15.0000457 78.6000373,14.9375455 78.4500367,14.8375451 L78.4375367,14.8250451 C77.4875334,14.2000429 76.2250289,13.3500399 75.0000246,12.5375371 C73.7750203,13.3500399 72.5125159,14.2000429 71.5625125,14.8250451 L71.5500125,14.8375451 C71.400012,14.9375455 71.2000113,15.0000457 71.0000106,15.0000457 C70.4500086,15.0000457 70.000007,14.5500441 70.000007,14.0000422 C70.000007,13.8750418 70.0250071,13.7625414 70.0625073,13.650041 C70.3125081,12.9625386 70.8125099,11.6000338 71.3750119,10.0375283 C70.3750084,9.28752563 69.6250057,8.71252361 68.4000014,7.8000204 C68.1625006,7.62501978 68,7.32501873 68,7.00001758 C68,6.45001565 68.4500016,6.00001407 69.0000035,6.00001407 L72.8500171,6.00001407 L74.0625213,2.66250233 C74.2000218,2.27500097 74.5625231,2 75.0000246,2 C75.4375262,2 75.8000274,2.27500097 75.9375279,2.66250233 C76.1750287,3.31250462 76.6250303,4.55000897 77.1500322,6.00001407 L81.0000457,6.00001407 C81.5500477,6.00001407 82.0000492,6.45001565 82.0000492,7.00001758 C82.0000492,7.32501873 81.8375487,7.62501978 81.6000478,7.8000204 C80.3750435,8.71252361 79.6250409,9.28752563 78.6250374,10.0375283 Z" id="star_5" fill-opacity="0.3" fill="#0E141A"></path>
            <g id="star_4" transform="translate(51.000000, 2.000000)">
                <path d="M10.6250374,8.03752827 C11.1875393,9.60003376 11.6875411,10.9625386 11.937542,11.650041 C11.9750421,11.7625414 12.0000422,11.8750418 12.0000422,12.0000422 C12.0000422,12.5500441 11.5500406,13.0000457 11.0000387,13.0000457 C10.800038,13.0000457 10.6000373,12.9375455 10.4500367,12.8375451 L10.4375367,12.8250451 C9.48753336,12.2000429 8.22502892,11.3500399 7.00002462,10.5375371 C5.77502031,11.3500399 4.51251587,12.2000429 3.56251253,12.8250451 L3.55001248,12.8375451 C3.40001196,12.9375455 3.20001125,13.0000457 3.00001055,13.0000457 C2.45000862,13.0000457 2.00000703,12.5500441 2.00000703,12.0000422 C2.00000703,11.8750418 2.02500712,11.7625414 2.06250725,11.650041 C2.31250813,10.9625386 2.81250989,9.60003376 3.37501187,8.03752827 C2.37500835,7.28752563 1.62500571,6.71252361 0.400001407,5.8000204 C0.162500571,5.62501978 0,5.32501873 0,5.00001758 C0,4.45001565 0.450001583,4.00001407 1.00000352,4.00001407 L4.85001706,4.00001407 L6.06252132,0.66250233 C6.2000218,0.275000967 6.56252308,0 7.00002462,0 C7.43752616,0 7.80002743,0.275000967 7.93752791,0.66250233 C8.17502875,1.31250462 8.62503033,2.55000897 9.15003218,4.00001407 L13.0000457,4.00001407 C13.5500477,4.00001407 14.0000492,4.45001565 14.0000492,5.00001758 C14.0000492,5.32501873 13.8375487,5.62501978 13.6000478,5.8000204 C12.3750435,6.71252361 11.6250409,7.28752563 10.6250374,8.03752827 Z" id="star_1" fill="#FFB700"></path>
                <path d="M10.7384304,12.4285889 C10.8088459,12.4718807 10.9074278,12.5000457 11.0000387,12.5000457 C11.2738982,12.5000457 11.5000422,12.2739018 11.5000422,12.0000422 C11.5000422,11.9436233 11.4891297,11.8859429 11.4676453,11.8209125 C11.401979,11.6403304 11.035396,10.6359716 10.9286844,10.3430666 C10.6515721,9.5824413 10.4029974,8.89689837 10.1545937,8.206888 L10.0294364,7.85922898 L10.3250374,7.63752827 C10.6189933,7.41706134 10.8825079,7.21847989 11.2894825,6.91106982 L11.2987017,6.904106 C12.3365382,6.12015795 12.6471477,5.88636101 13.3034483,5.39749248 C13.4210553,5.31083473 13.5000492,5.15635761 13.5000492,5.00001758 C13.5000492,4.72615802 13.2739053,4.50001407 13.0000457,4.50001407 L8.79930216,4.50001407 L8.67989925,4.17023461 C8.1972386,2.83717187 7.73333393,1.56056201 7.46631404,0.829707252 C7.39571217,0.630738332 7.21442168,0.5 7.00002462,0.5 C6.78562755,0.5 6.60433707,0.630738332 6.5324694,0.833232531 L5.20034278,4.50001407 L1.00000352,4.50001407 C0.726143957,4.50001407 0.5,4.72615802 0.5,5.00001758 C0.5,5.15635761 0.578993981,5.31083473 0.698690478,5.39904055 C1.3529015,5.88636101 1.66351104,6.12015795 2.70134752,6.904106 L2.71056671,6.91106982 C3.1175413,7.21847989 3.38105596,7.41706134 3.67501187,7.63752827 L3.97061282,7.85922898 L3.84545557,8.206888 C3.59705184,8.89689837 3.34847711,9.5824413 3.07136488,10.3430666 C2.96465325,10.6359716 2.5980702,11.6403304 2.5368489,11.8081549 C2.51091954,11.8859429 2.50000703,11.9436233 2.50000703,12.0000422 C2.50000703,12.2739018 2.72615099,12.5000457 3.00001055,12.5000457 C3.097571,12.5000457 3.20175792,12.4687896 3.19645909,12.4839918 L3.20895914,12.4714917 L3.28770428,12.4073366 C3.64763563,12.1705396 4.05522514,11.8997789 4.6510901,11.5022281 C5.02545413,11.2523652 5.02545413,11.2523652 5.41151591,10.994608 C5.72541816,10.7850689 5.96347228,10.6263155 6.19667643,10.471072 C6.26257219,10.4272107 6.26257219,10.4272107 6.3284898,10.3833574 C6.5262605,10.2518574 6.5262605,10.2518574 6.72365648,10.1208589 L7.00002462,9.93755354 L7.27639275,10.1208589 C7.47378874,10.2518574 7.47378874,10.2518574 7.67155944,10.3833574 C7.73747705,10.4272107 7.73747705,10.4272107 7.8033728,10.471072 C8.03657696,10.6263155 8.27463107,10.7850689 8.58853332,10.994608 C8.9745951,11.2523652 8.9745951,11.2523652 9.34895913,11.5022281 C9.94482409,11.8997789 10.3524136,12.1705396 10.712345,12.4073366 L10.7384304,12.4285889 Z" id="star_1" stroke-opacity="0.06" stroke="#0E141A"></path>
            </g>
            <g id="star_3" transform="translate(34.000000, 2.000000)">
                <path d="M10.6250374,8.03752827 C11.1875393,9.60003376 11.6875411,10.9625386 11.937542,11.650041 C11.9750421,11.7625414 12.0000422,11.8750418 12.0000422,12.0000422 C12.0000422,12.5500441 11.5500406,13.0000457 11.0000387,13.0000457 C10.800038,13.0000457 10.6000373,12.9375455 10.4500367,12.8375451 L10.4375367,12.8250451 C9.48753336,12.2000429 8.22502892,11.3500399 7.00002462,10.5375371 C5.77502031,11.3500399 4.51251587,12.2000429 3.56251253,12.8250451 L3.55001248,12.8375451 C3.40001196,12.9375455 3.20001125,13.0000457 3.00001055,13.0000457 C2.45000862,13.0000457 2.00000703,12.5500441 2.00000703,12.0000422 C2.00000703,11.8750418 2.02500712,11.7625414 2.06250725,11.650041 C2.31250813,10.9625386 2.81250989,9.60003376 3.37501187,8.03752827 C2.37500835,7.28752563 1.62500571,6.71252361 0.400001407,5.8000204 C0.162500571,5.62501978 0,5.32501873 0,5.00001758 C0,4.45001565 0.450001583,4.00001407 1.00000352,4.00001407 L4.85001706,4.00001407 L6.06252132,0.66250233 C6.2000218,0.275000967 6.56252308,0 7.00002462,0 C7.43752616,0 7.80002743,0.275000967 7.93752791,0.66250233 C8.17502875,1.31250462 8.62503033,2.55000897 9.15003218,4.00001407 L13.0000457,4.00001407 C13.5500477,4.00001407 14.0000492,4.45001565 14.0000492,5.00001758 C14.0000492,5.32501873 13.8375487,5.62501978 13.6000478,5.8000204 C12.3750435,6.71252361 11.6250409,7.28752563 10.6250374,8.03752827 Z" id="star_1" fill="#FFB700"></path>
                <path d="M10.7384304,12.4285889 C10.8088459,12.4718807 10.9074278,12.5000457 11.0000387,12.5000457 C11.2738982,12.5000457 11.5000422,12.2739018 11.5000422,12.0000422 C11.5000422,11.9436233 11.4891297,11.8859429 11.4676453,11.8209125 C11.401979,11.6403304 11.035396,10.6359716 10.9286844,10.3430666 C10.6515721,9.5824413 10.4029974,8.89689837 10.1545937,8.206888 L10.0294364,7.85922898 L10.3250374,7.63752827 C10.6189933,7.41706134 10.8825079,7.21847989 11.2894825,6.91106982 L11.2987017,6.904106 C12.3365382,6.12015795 12.6471477,5.88636101 13.3034483,5.39749248 C13.4210553,5.31083473 13.5000492,5.15635761 13.5000492,5.00001758 C13.5000492,4.72615802 13.2739053,4.50001407 13.0000457,4.50001407 L8.79930216,4.50001407 L8.67989925,4.17023461 C8.1972386,2.83717187 7.73333393,1.56056201 7.46631404,0.829707252 C7.39571217,0.630738332 7.21442168,0.5 7.00002462,0.5 C6.78562755,0.5 6.60433707,0.630738332 6.5324694,0.833232531 L5.20034278,4.50001407 L1.00000352,4.50001407 C0.726143957,4.50001407 0.5,4.72615802 0.5,5.00001758 C0.5,5.15635761 0.578993981,5.31083473 0.698690478,5.39904055 C1.3529015,5.88636101 1.66351104,6.12015795 2.70134752,6.904106 L2.71056671,6.91106982 C3.1175413,7.21847989 3.38105596,7.41706134 3.67501187,7.63752827 L3.97061282,7.85922898 L3.84545557,8.206888 C3.59705184,8.89689837 3.34847711,9.5824413 3.07136488,10.3430666 C2.96465325,10.6359716 2.5980702,11.6403304 2.5368489,11.8081549 C2.51091954,11.8859429 2.50000703,11.9436233 2.50000703,12.0000422 C2.50000703,12.2739018 2.72615099,12.5000457 3.00001055,12.5000457 C3.097571,12.5000457 3.20175792,12.4687896 3.19645909,12.4839918 L3.20895914,12.4714917 L3.28770428,12.4073366 C3.64763563,12.1705396 4.05522514,11.8997789 4.6510901,11.5022281 C5.02545413,11.2523652 5.02545413,11.2523652 5.41151591,10.994608 C5.72541816,10.7850689 5.96347228,10.6263155 6.19667643,10.471072 C6.26257219,10.4272107 6.26257219,10.4272107 6.3284898,10.3833574 C6.5262605,10.2518574 6.5262605,10.2518574 6.72365648,10.1208589 L7.00002462,9.93755354 L7.27639275,10.1208589 C7.47378874,10.2518574 7.47378874,10.2518574 7.67155944,10.3833574 C7.73747705,10.4272107 7.73747705,10.4272107 7.8033728,10.471072 C8.03657696,10.6263155 8.27463107,10.7850689 8.58853332,10.994608 C8.9745951,11.2523652 8.9745951,11.2523652 9.34895913,11.5022281 C9.94482409,11.8997789 10.3524136,12.1705396 10.712345,12.4073366 L10.7384304,12.4285889 Z" id="star_1" stroke-opacity="0.06" stroke="#0E141A"></path>
            </g>
            <g id="star_2" transform="translate(17.000000, 2.000000)">
                <path d="M10.6250374,8.03752827 C11.1875393,9.60003376 11.6875411,10.9625386 11.937542,11.650041 C11.9750421,11.7625414 12.0000422,11.8750418 12.0000422,12.0000422 C12.0000422,12.5500441 11.5500406,13.0000457 11.0000387,13.0000457 C10.800038,13.0000457 10.6000373,12.9375455 10.4500367,12.8375451 L10.4375367,12.8250451 C9.48753336,12.2000429 8.22502892,11.3500399 7.00002462,10.5375371 C5.77502031,11.3500399 4.51251587,12.2000429 3.56251253,12.8250451 L3.55001248,12.8375451 C3.40001196,12.9375455 3.20001125,13.0000457 3.00001055,13.0000457 C2.45000862,13.0000457 2.00000703,12.5500441 2.00000703,12.0000422 C2.00000703,11.8750418 2.02500712,11.7625414 2.06250725,11.650041 C2.31250813,10.9625386 2.81250989,9.60003376 3.37501187,8.03752827 C2.37500835,7.28752563 1.62500571,6.71252361 0.400001407,5.8000204 C0.162500571,5.62501978 0,5.32501873 0,5.00001758 C0,4.45001565 0.450001583,4.00001407 1.00000352,4.00001407 L4.85001706,4.00001407 L6.06252132,0.66250233 C6.2000218,0.275000967 6.56252308,0 7.00002462,0 C7.43752616,0 7.80002743,0.275000967 7.93752791,0.66250233 C8.17502875,1.31250462 8.62503033,2.55000897 9.15003218,4.00001407 L13.0000457,4.00001407 C13.5500477,4.00001407 14.0000492,4.45001565 14.0000492,5.00001758 C14.0000492,5.32501873 13.8375487,5.62501978 13.6000478,5.8000204 C12.3750435,6.71252361 11.6250409,7.28752563 10.6250374,8.03752827 Z" id="star_1" fill="#FFB700"></path>
                <path d="M10.7384304,12.4285889 C10.8088459,12.4718807 10.9074278,12.5000457 11.0000387,12.5000457 C11.2738982,12.5000457 11.5000422,12.2739018 11.5000422,12.0000422 C11.5000422,11.9436233 11.4891297,11.8859429 11.4676453,11.8209125 C11.401979,11.6403304 11.035396,10.6359716 10.9286844,10.3430666 C10.6515721,9.5824413 10.4029974,8.89689837 10.1545937,8.206888 L10.0294364,7.85922898 L10.3250374,7.63752827 C10.6189933,7.41706134 10.8825079,7.21847989 11.2894825,6.91106982 L11.2987017,6.904106 C12.3365382,6.12015795 12.6471477,5.88636101 13.3034483,5.39749248 C13.4210553,5.31083473 13.5000492,5.15635761 13.5000492,5.00001758 C13.5000492,4.72615802 13.2739053,4.50001407 13.0000457,4.50001407 L8.79930216,4.50001407 L8.67989925,4.17023461 C8.1972386,2.83717187 7.73333393,1.56056201 7.46631404,0.829707252 C7.39571217,0.630738332 7.21442168,0.5 7.00002462,0.5 C6.78562755,0.5 6.60433707,0.630738332 6.5324694,0.833232531 L5.20034278,4.50001407 L1.00000352,4.50001407 C0.726143957,4.50001407 0.5,4.72615802 0.5,5.00001758 C0.5,5.15635761 0.578993981,5.31083473 0.698690478,5.39904055 C1.3529015,5.88636101 1.66351104,6.12015795 2.70134752,6.904106 L2.71056671,6.91106982 C3.1175413,7.21847989 3.38105596,7.41706134 3.67501187,7.63752827 L3.97061282,7.85922898 L3.84545557,8.206888 C3.59705184,8.89689837 3.34847711,9.5824413 3.07136488,10.3430666 C2.96465325,10.6359716 2.5980702,11.6403304 2.5368489,11.8081549 C2.51091954,11.8859429 2.50000703,11.9436233 2.50000703,12.0000422 C2.50000703,12.2739018 2.72615099,12.5000457 3.00001055,12.5000457 C3.097571,12.5000457 3.20175792,12.4687896 3.19645909,12.4839918 L3.20895914,12.4714917 L3.28770428,12.4073366 C3.64763563,12.1705396 4.05522514,11.8997789 4.6510901,11.5022281 C5.02545413,11.2523652 5.02545413,11.2523652 5.41151591,10.994608 C5.72541816,10.7850689 5.96347228,10.6263155 6.19667643,10.471072 C6.26257219,10.4272107 6.26257219,10.4272107 6.3284898,10.3833574 C6.5262605,10.2518574 6.5262605,10.2518574 6.72365648,10.1208589 L7.00002462,9.93755354 L7.27639275,10.1208589 C7.47378874,10.2518574 7.47378874,10.2518574 7.67155944,10.3833574 C7.73747705,10.4272107 7.73747705,10.4272107 7.8033728,10.471072 C8.03657696,10.6263155 8.27463107,10.7850689 8.58853332,10.994608 C8.9745951,11.2523652 8.9745951,11.2523652 9.34895913,11.5022281 C9.94482409,11.8997789 10.3524136,12.1705396 10.712345,12.4073366 L10.7384304,12.4285889 Z" id="star_1" stroke-opacity="0.06" stroke="#0E141A"></path>
            </g>
            <g id="star_1" transform="translate(0.000000, 2.000000)">
                <path d="M10.6250374,8.03752827 C11.1875393,9.60003376 11.6875411,10.9625386 11.937542,11.650041 C11.9750421,11.7625414 12.0000422,11.8750418 12.0000422,12.0000422 C12.0000422,12.5500441 11.5500406,13.0000457 11.0000387,13.0000457 C10.800038,13.0000457 10.6000373,12.9375455 10.4500367,12.8375451 L10.4375367,12.8250451 C9.48753336,12.2000429 8.22502892,11.3500399 7.00002462,10.5375371 C5.77502031,11.3500399 4.51251587,12.2000429 3.56251253,12.8250451 L3.55001248,12.8375451 C3.40001196,12.9375455 3.20001125,13.0000457 3.00001055,13.0000457 C2.45000862,13.0000457 2.00000703,12.5500441 2.00000703,12.0000422 C2.00000703,11.8750418 2.02500712,11.7625414 2.06250725,11.650041 C2.31250813,10.9625386 2.81250989,9.60003376 3.37501187,8.03752827 C2.37500835,7.28752563 1.62500571,6.71252361 0.400001407,5.8000204 C0.162500571,5.62501978 0,5.32501873 0,5.00001758 C0,4.45001565 0.450001583,4.00001407 1.00000352,4.00001407 L4.85001706,4.00001407 L6.06252132,0.66250233 C6.2000218,0.275000967 6.56252308,0 7.00002462,0 C7.43752616,0 7.80002743,0.275000967 7.93752791,0.66250233 C8.17502875,1.31250462 8.62503033,2.55000897 9.15003218,4.00001407 L13.0000457,4.00001407 C13.5500477,4.00001407 14.0000492,4.45001565 14.0000492,5.00001758 C14.0000492,5.32501873 13.8375487,5.62501978 13.6000478,5.8000204 C12.3750435,6.71252361 11.6250409,7.28752563 10.6250374,8.03752827 Z" fill="#FFB700"></path>
                <path d="M10.7384304,12.4285889 C10.8088459,12.4718807 10.9074278,12.5000457 11.0000387,12.5000457 C11.2738982,12.5000457 11.5000422,12.2739018 11.5000422,12.0000422 C11.5000422,11.9436233 11.4891297,11.8859429 11.4676453,11.8209125 C11.401979,11.6403304 11.035396,10.6359716 10.9286844,10.3430666 C10.6515721,9.5824413 10.4029974,8.89689837 10.1545937,8.206888 L10.0294364,7.85922898 L10.3250374,7.63752827 C10.6189933,7.41706134 10.8825079,7.21847989 11.2894825,6.91106982 L11.2987017,6.904106 C12.3365382,6.12015795 12.6471477,5.88636101 13.3034483,5.39749248 C13.4210553,5.31083473 13.5000492,5.15635761 13.5000492,5.00001758 C13.5000492,4.72615802 13.2739053,4.50001407 13.0000457,4.50001407 L8.79930216,4.50001407 L8.67989925,4.17023461 C8.1972386,2.83717187 7.73333393,1.56056201 7.46631404,0.829707252 C7.39571217,0.630738332 7.21442168,0.5 7.00002462,0.5 C6.78562755,0.5 6.60433707,0.630738332 6.5324694,0.833232531 L5.20034278,4.50001407 L1.00000352,4.50001407 C0.726143957,4.50001407 0.5,4.72615802 0.5,5.00001758 C0.5,5.15635761 0.578993981,5.31083473 0.698690478,5.39904055 C1.3529015,5.88636101 1.66351104,6.12015795 2.70134752,6.904106 L2.71056671,6.91106982 C3.1175413,7.21847989 3.38105596,7.41706134 3.67501187,7.63752827 L3.97061282,7.85922898 L3.84545557,8.206888 C3.59705184,8.89689837 3.34847711,9.5824413 3.07136488,10.3430666 C2.96465325,10.6359716 2.5980702,11.6403304 2.5368489,11.8081549 C2.51091954,11.8859429 2.50000703,11.9436233 2.50000703,12.0000422 C2.50000703,12.2739018 2.72615099,12.5000457 3.00001055,12.5000457 C3.097571,12.5000457 3.20175792,12.4687896 3.19645909,12.4839918 L3.20895914,12.4714917 L3.28770428,12.4073366 C3.64763563,12.1705396 4.05522514,11.8997789 4.6510901,11.5022281 C5.02545413,11.2523652 5.02545413,11.2523652 5.41151591,10.994608 C5.72541816,10.7850689 5.96347228,10.6263155 6.19667643,10.471072 C6.26257219,10.4272107 6.26257219,10.4272107 6.3284898,10.3833574 C6.5262605,10.2518574 6.5262605,10.2518574 6.72365648,10.1208589 L7.00002462,9.93755354 L7.27639275,10.1208589 C7.47378874,10.2518574 7.47378874,10.2518574 7.67155944,10.3833574 C7.73747705,10.4272107 7.73747705,10.4272107 7.8033728,10.471072 C8.03657696,10.6263155 8.27463107,10.7850689 8.58853332,10.994608 C8.9745951,11.2523652 8.9745951,11.2523652 9.34895913,11.5022281 C9.94482409,11.8997789 10.3524136,12.1705396 10.712345,12.4073366 L10.7384304,12.4285889 Z" stroke-opacity="0.06" stroke="#0E141A"></path>
            </g>
        </g>
    </g>
</svg>
