<?xml version="1.0" encoding="UTF-8"?>
<svg viewBox="0 0 12 10" version="1.1" xmlns="http://www.w3.org/2000/svg" xmlns:xlink="http://www.w3.org/1999/xlink">
    <!-- Generator: Sketch 46.2 (44496) - http://www.bohemiancoding.com/sketch -->
    <title>arrow_paginator_right-right</title>
    <desc>Created with Sketch.</desc>
    <defs></defs>
    <g id="Resource---Svg" stroke="none" stroke-width="1" fill="none" fill-rule="evenodd" fill-opacity="0.6">
        <g id="arrow_paginator_right-right" fill="#0E141A">
            <path d="M8.4125,5 C9.525,3.8875 10.5375,2.875 11.7125,1.7125 C11.8875,1.525 12,1.275 12,1 C12,0.45 11.55,0 11,0 C10.725,0 10.475,0.1125 10.2875,0.2875 C8.875,1.7125 7.7125,2.875 6.2875,4.2875 C6.1125,4.475 6,4.725 6,5 C6,5.275 6.1125,5.525 6.2875,5.7125 C7.7125,7.125 8.875,8.2875 10.2875,9.7125 C10.475,9.8875 10.725,10 11,10 C11.55,10 12,9.55 12,9 C12,8.725 11.8875,8.475 11.7125,8.2875 C10.5375,7.125 9.525,6.1125 8.4125,5 Z" id="icon_2" transform="translate(9.000000, 5.000000) rotate(-180.000000) translate(-9.000000, -5.000000) "></path>
            <path d="M2.4125,5 C3.525,3.8875 4.5375,2.875 5.7125,1.7125 C5.8875,1.525 6,1.275 6,1 C6,0.45 5.55,0 5,0 C4.725,0 4.475,0.1125 4.2875,0.2875 C2.875,1.7125 1.7125,2.875 0.2875,4.2875 C0.1125,4.475 0,4.725 0,5 C0,5.275 0.1125,5.525 0.2875,5.7125 C1.7125,7.125 2.875,8.2875 4.2875,9.7125 C4.475,9.8875 4.725,10 5,10 C5.55,10 6,9.55 6,9 C6,8.725 5.8875,8.475 5.7125,8.2875 C4.5375,7.125 3.525,6.1125 2.4125,5 Z" id="icon_1" transform="translate(3.000000, 5.000000) rotate(-180.000000) translate(-3.000000, -5.000000) "></path>
        </g>
    </g>
</svg>
