<?xml version="1.0" encoding="UTF-8"?>
<svg viewBox="0 0 107 107" version="1.1" xmlns="http://www.w3.org/2000/svg" xmlns:xlink="http://www.w3.org/1999/xlink">
    <!-- Generator: Sketch 46.2 (44496) - http://www.bohemiancoding.com/sketch -->
    <title>Group</title>
    <desc>Created with Sketch.</desc>
    <defs></defs>
    <g id="Resource---Data-Demo" stroke="none" stroke-width="1" fill="none" fill-rule="evenodd">
        <g id="08_data_demo_(blank_state_hover_clear)" transform="translate(-400.000000, -186.000000)" fill="#0E141A">
            <g id="demo">
                <g id="series" transform="translate(286.000000, 186.000000)">
                    <g id="Group" transform="translate(114.000000, 0.000000)">
                        <rect id="container" fill-opacity="0.0799999982" x="0" y="0" width="107" height="107" rx="53.5"></rect>
                        <path d="M62.8000907,58.5334091 L70.1334499,65.8667682 C71.3001206,67.0667724 71.3001206,68.9334456 70.1334499,70.1334499 C69.5334477,70.7001185 68.7667784,71.0001196 68.000109,71.0001196 C67.2334397,71.0001196 66.4667703,70.7001185 65.8667682,70.1334499 L58.5334091,62.8000907 C56.3667348,64.2000957 53.7667256,65.0000985 51.0000492,65.0000985 C43.2666887,65.0000985 37,58.7334098 37,51.0000492 C37,43.2666887 43.2666887,37 51.0000492,37 C58.7334098,37 65.0000985,43.2666887 65.0000985,51.0000492 C65.0000985,53.7667256 64.2000957,56.3667348 62.8000907,58.5334091 Z M45.3333626,56.6667358 C46.8667014,58.1667411 48.8667084,59.0000774 51.0000492,59.0000774 C53.1333901,59.0000774 55.1333971,58.1667411 56.6667358,56.6667358 C58.1667411,55.1333971 59.0000774,53.1333901 59.0000774,51.0000492 C59.0000774,48.8667084 58.1667411,46.8667014 56.6667358,45.3333626 C55.1333971,43.8333574 53.1333901,43.0000211 51.0000492,43.0000211 C48.8667084,43.0000211 46.8667014,43.8333574 45.3333626,45.3333626 C43.8333574,46.8667014 43.0000211,48.8667084 43.0000211,51.0000492 C43.0000211,53.1333901 43.8333574,55.1333971 45.3333626,56.6667358 Z" id="icon" fill-opacity="0.6"></path>
                    </g>
                </g>
            </g>
        </g>
    </g>
</svg>
