<svg viewBox="0 0 12 22" xmlns="http://www.w3.org/2000/svg" xmlns:xlink="http://www.w3.org/1999/xlink" version="1.1">
  <g id="arrow_paginator_right-right" fill="#0E141A" fill-opacity="0.2">
    <path d="M8.41250848,5.00001758 C9.5250124,3.88751367 10.537516,2.87501011 11.7125201,1.71250602 C11.8875207,1.52500536 12.0000211,1.27500448 12.0000211,1.00000352 C12.0000211,0.450001583 11.5500195,0 11.0000176,0 C10.7250166,0 10.4750157,0.112500396 10.2875151,0.287501011 C8.87501011,1.71250602 7.71250602,2.87501011 6.28750101,4.28751508 C6.1125004,4.47501574 6,4.72501662 6,5.00001758 C6,5.27501855 6.1125004,5.52501943 6.28750101,5.71252009 C7.71250602,7.12502506 8.87501011,8.28752914 10.2875151,9.71253416 C10.4750157,9.88753477 10.7250166,10.0000352 11.0000176,10.0000352 C11.5500195,10.0000352 12.0000211,9.55003358 12.0000211,9.00003165 C12.0000211,8.72503068 11.8875207,8.4750298 11.7125201,8.28752914 C10.537516,7.12502506 9.5250124,6.1125215 8.41250848,5.00001758 Z" id="icon_2"></path>
    <path d="M2.41250848,5.00001758 C3.5250124,3.88751367 4.53751596,2.87501011 5.71252009,1.71250602 C5.8875207,1.52500536 6.0000211,1.27500448 6.0000211,1.00000352 C6.0000211,0.450001583 5.55001952,0 5.00001758,0 C4.72501662,0 4.47501574,0.112500396 4.28751508,0.287501011 C2.87501011,1.71250602 1.71250602,2.87501011 0.287501011,4.28751508 C0.112500396,4.47501574 0,4.72501662 0,5.00001758 C0,5.27501855 0.112500396,5.52501943 0.287501011,5.71252009 C1.71250602,7.12502506 2.87501011,8.28752914 4.28751508,9.71253416 C4.47501574,9.88753477 4.72501662,10.0000352 5.00001758,10.0000352 C5.55001952,10.0000352 6.0000211,9.55003358 6.0000211,9.00003165 C6.0000211,8.72503068 5.8875207,8.4750298 5.71252009,8.28752914 C4.53751596,7.12502506 3.5250124,6.1125215 2.41250848,5.00001758 Z" id="icon_1"></path>
  </g>
</svg>
