<svg viewBox="-4 -6 28 28" xmlns="http://www.w3.org/2000/svg">
  <g transform="translate(-4 -6)" fill="none" fill-rule="evenodd">
    <circle cx="14" cy="14" r="14"/>
    <path d="M25 8.034a9.031 9.031 0 0 1-2.166 2.21c.022.131.022.306.022.569 0 2.296-.678 4.659-2.034 6.78-1.4 2.1-3.238 3.785-5.906 4.726-1.357.503-2.778.744-4.31.744-2.406 0-4.615-.635-6.606-1.925.306.021.656.043 1.05.043 1.99 0 3.784-.612 5.338-1.837-1.86-.044-3.479-1.269-4.025-2.997.284.044.546.087.809.087.394 0 .766-.065 1.137-.153-1.99-.415-3.456-2.143-3.456-4.222v-.065c.59.328 1.247.525 1.947.547a4.284 4.284 0 0 1-1.925-3.588c0-.787.197-1.51.59-2.165a12.22 12.22 0 0 0 8.882 4.506 5.215 5.215 0 0 1-.11-.985A4.304 4.304 0 0 1 18.548 6c1.225 0 2.275.46 3.128 1.356a8.117 8.117 0 0 0 2.734-1.028 4.134 4.134 0 0 1-1.88 2.363A8.829 8.829 0 0 0 25 8.034z" fill="#FFF"/>
  </g>
</svg>
