<svg viewBox="-5 -8 28 28" xmlns="http://www.w3.org/2000/svg">
  <path fill="#fff" d="M16.653 3.498c.135-.331.585-1.663-.13-3.468 0 0-1.099-.352-3.6 1.344A12.57 12.57 0 0 0 9.642.933a12.56 12.56 0 0 0-3.28.44C3.857-.321 2.757.03 2.757.03c-.713 1.805-.264 3.137-.129 3.468-.838.916-1.349 2.086-1.349 3.517 0 5.021 3.06 6.146 5.97 6.476-.375.328-.714.905-.833 1.752-.746.336-2.644.914-3.813-1.089 0 0-.692-1.257-2.008-1.35 0 0-1.28-.017-.09.796 0 0 .86.404 1.455 1.917 0 0 .77 2.549 4.415 1.757.003.62.009 1.65.012 2.482a14.072 14.072 0 0 0 6.508-.306s.01-2.648.01-3.542c0-1.223-.419-2.022-.89-2.427C14.937 13.157 18 12.05 18 7.015c0-1.43-.507-2.6-1.347-3.517"/>
</svg>
