<svg viewBox="0 0 66 66" xmlns="http://www.w3.org/2000/svg" xmlns:xlink="http://www.w3.org/1999/xlink"><title>icon</title><defs><circle id="a" cx="33" cy="33" r="33"/></defs><g fill="none" fill-rule="evenodd"><mask id="b" fill="#fff"><use xlink:href="#a"/></mask><use fill-opacity=".2" fill="#FF6E02" xlink:href="#a"/><path d="M23 20h20c3.3 0 6 2.7 6 6v14c0 3.3-2.7 6-6 6H23c-3.3 0-6-2.7-6-6V26c0-3.3 2.7-6 6-6zm21.033 9.733c.567-.366.967-1 .967-1.733 0-1.1-.9-2-2-2-.367 0-.733.1-1.033.3-3.1 1.833-5.934 3.533-8.967 5.367a1063.184 1063.184 0 0 0-8.967-5.367c-.3-.2-.666-.3-1.033-.3-1.1 0-2 .9-2 2 0 .733.4 1.367.967 1.733 3.433 2.034 6.566 3.934 10 5.967.3.2.666.3 1.033.3.367 0 .733-.1 1.033-.3 3.434-2.033 6.567-3.933 10-5.967z" fill="#FF6E02" mask="url(#b)"/><path d="M44.033 29.733c.567-.366.967-1 .967-1.733 0-1.1-.9-2-2-2-.367 0-.733.1-1.033.3-3.1 1.833-5.934 3.533-8.967 5.367a1063.184 1063.184 0 0 0-8.967-5.367c-.3-.2-.666-.3-1.033-.3-1.1 0-2 .9-2 2 0 .733.4 1.367.967 1.733 3.433 2.034 6.566 3.934 10 5.967.3.2.666.3 1.033.3.367 0 .733-.1 1.033-.3 3.434-2.033 6.567-3.933 10-5.967z" fill="#FFF" mask="url(#b)"/></g></svg>
