<svg viewBox="0 0 42 42" xmlns="http://www.w3.org/2000/svg"><title>icon</title><g fill="none" fill-rule="evenodd"><circle fill="#FF4040" cx="21" cy="21" r="21"/><path d="M11 9h20c2.2 0 4 1.8 4 4v16c0 2.2-1.8 4-4 4H11c-2.2 0-4-1.8-4-4V13c0-2.2 1.8-4 4-4zm4 4.05c-1.1 0-2 .9-2 2s.9 2 2 2 2-.9 2-2-.9-2-2-2zM31 29l-8-11.95-3.975 6-2.025-2-6 8L31 29z" fill-opacity=".5" fill="#0E141A"/><path fill="#FFF" d="M31 29l-8-11.95-3.975 6-2.025-2-6 8zM15 13.05c-1.1 0-2 .9-2 2s.9 2 2 2 2-.9 2-2-.9-2-2-2z"/></g></svg>