<?xml version="1.0" encoding="UTF-8"?>
<svg width="66px" height="66px" viewBox="0 0 66 66" version="1.1" xmlns="http://www.w3.org/2000/svg" xmlns:xlink="http://www.w3.org/1999/xlink">
    <!-- Generator: Sketch 49.1 (51147) - http://www.bohemiancoding.com/sketch -->
    <title>icon_feature_(build)</title>
    <desc>Created with Sketch.</desc>
    <defs></defs>
    <g id="icon_feature_(build)" stroke="none" stroke-width="1" fill="none" fill-rule="evenodd">
        <circle id="container" fill-opacity="0.200000003" fill="#00AE55" cx="33" cy="33" r="33"></circle>
        <path d="M33,12 C21.4545695,12 12,21.4545695 12,33 C12,44.5454305 21.4545695,54 33,54 C44.5454305,54 54,44.5454305 54,33 C54,21.4545695 44.5454305,12 33,12 Z" id="circle" stroke="#FFFFFF" stroke-width="4"></path>
        <path d="M33,12 C21.45,12 12,21.45 12,33 C12,44.55 21.45,54 33,54 C44.55,54 54,44.55 54,33 C54,21.45 44.55,12 33,12 Z" id="circle_filled" stroke-opacity="0.5" stroke="#00AE55" stroke-width="4" stroke-dasharray="38,150.7200012207031"></path>
        <path d="M42.6854,36.398325 L42.6855,36.398225 C38.67045,32.9698 38.664875,32.965025 35.461625,30.2298 C37.735525,27.70325 39.78065,25.4309 40.604125,24.5159 C40.604075,24.515825 40.604,24.51575 40.603925,24.515675 C40.849975,24.2485 41.0004,23.891875 41.0004,23.5 C41.0004,23.354125 40.979175,23.2133 40.940325,23.079975 C40.75865,22.456075 40.18295,22 39.5004,22 L35.0004,22 C33.005875,22 31.193425,22.7788 29.849925,24.048575 L29.8498,24.048275 C27.24355,26.51055 25.5065,28.151625 24.2906,29.3004 C24.425125,29.588925 24.5004,29.91065 24.5004,30.25 C24.5004,31.49265 23.493025,32.5 22.2504,32.5 C21.86555,32.5 21.5033,32.4033 21.1865,32.233 C20.9622,32.444925 20.7394,32.6554 20.470275,32.909675 L20.470425,32.9101 C20.181175,33.183525 20.0004,33.57055 20.0004,34 C20.0004,34.414225 20.168275,34.789225 20.439725,35.060675 C22.56105,37.182 22.8184,37.43935 24.939725,39.560675 C25.211175,39.832125 25.586175,40 26.0004,40 C26.442975,40 26.840675,39.808225 27.115225,39.50335 L27.115325,39.50345 C27.280725,39.3197 27.497175,39.079175 27.755775,38.79185 C27.592725,38.480325 27.5004,38.125975 27.5004,37.75 C27.5004,36.50735 28.50775,35.5 29.7504,35.5 C30.04235,35.5 30.321325,35.55565 30.577275,35.65685 C30.59545,35.63665 30.61335,35.61675 30.6316,35.5965 C30.89305,35.306025 31.161925,35.00725 31.4362,34.7025 C33.967875,37.667375 34.0585,37.773525 37.3986,41.685125 L37.3987,41.685025 C38.0865,42.48975 39.1088,43 40.2504,43 C42.32145,43 44.0004,41.321075 44.0004,39.25 C44.0004,38.1084 43.490125,37.086125 42.6854,36.398325" id="hammer" fill="#00AE55"></path>
        <path d="M33,8 C30.8,8 29,9.8 29,12 C29,14.2 30.8,16 33,16 C35.2,16 37,14.2 37,12 C37,9.8 35.2,8 33,8 Z" id="dot" fill="#00AE55"></path>
    </g>
</svg>