<svg viewBox="0 0 66 66" xmlns="http://www.w3.org/2000/svg">
  <g fill="none" fill-rule="evenodd">
    <circle fill-opacity=".2" fill="#00D46A" cx="33" cy="33" r="33"/>
    <rect stroke="#FFF" stroke-width="4" x="19" y="19" width="28" height="28" rx="4"/>
    <circle fill-opacity=".5" fill="#00D46A" cx="33" cy="33" r="4"/>
    <path d="M27 19c0-1.1-.9-2-2-2h-6c-1.1 0-2 .9-2 2v6c0 1.1.9 2 2 2s2-.9 2-2v-1.175c.675.675 1.425 1.425 2.575 2.6.375.35.875.575 1.425.575 1.1 0 2-.9 2-2 0-.55-.225-1.05-.575-1.425-1.175-1.15-1.925-1.9-2.6-2.575H25c1.1 0 2-.9 2-2zm14-2c-1.1 0-2 .9-2 2s.9 2 2 2h1.175c-.675.675-1.425 1.425-2.6 2.575A2.09 2.09 0 0 0 39 25c0 1.1.9 2 2 2 .55 0 1.05-.225 1.425-.575 1.15-1.175 1.9-1.925 2.575-2.6V25c0 1.1.9 2 2 2s2-.9 2-2v-6c0-1.1-.9-2-2-2h-6zM26.425 42.425A2.09 2.09 0 0 0 27 41c0-1.1-.9-2-2-2-.55 0-1.05.225-1.425.575-1.15 1.175-1.9 1.925-2.575 2.6V41c0-1.1-.9-2-2-2s-2 .9-2 2v6c0 1.1.9 2 2 2h6c1.1 0 2-.9 2-2s-.9-2-2-2h-1.175c.675-.675 1.425-1.425 2.6-2.575zM47 39c-1.1 0-2 .9-2 2v1.175a304.904 304.904 0 0 1-2.575-2.6A2.09 2.09 0 0 0 41 39c-1.1 0-2 .9-2 2 0 .55.225 1.05.575 1.425 1.175 1.15 1.925 1.9 2.6 2.575H41c-1.1 0-2 .9-2 2s.9 2 2 2h6c1.1 0 2-.9 2-2v-6c0-1.1-.9-2-2-2z" fill="#00D46A"/>
  </g>
</svg>
