<svg viewBox="0 0 36 36" xmlns="http://www.w3.org/2000/svg" xmlns:xlink="http://www.w3.org/1999/xlink"><title>icon</title><defs><circle id="a" cx="18" cy="18" r="18"/></defs><g fill="none" fill-rule="evenodd"><mask id="b" fill="#fff"><use xlink:href="#a"/></mask><use fill="#00D46A" xlink:href="#a"/><g mask="url(#b)"><path d="M11 11h14c1.1 0 2 .9 2 2v13c0 .55-.45 1-1 1a.93.93 0 0 1-.6-.2L23 25H11c-1.1 0-2-.9-2-2V13c0-1.1.9-2 2-2z" fill-opacity=".6" fill="#0E141A"/><path d="M23 15H13c-.55 0-1 .45-1 1s.45 1 1 1h10c.55 0 1-.45 1-1s-.45-1-1-1zm-10 6h5c.55 0 1-.45 1-1s-.45-1-1-1h-5c-.55 0-1 .45-1 1s.45 1 1 1z" fill="#FFF"/></g></g></svg>