<svg viewBox="0 0 42 42" xmlns="http://www.w3.org/2000/svg" xmlns:xlink="http://www.w3.org/1999/xlink"><title>icon</title><defs><circle id="a" cx="21" cy="21" r="21"/></defs><g fill="none" fill-rule="evenodd"><mask id="b" fill="#fff"><use xlink:href="#a"/></mask><use fill="#00D46A" xlink:href="#a"/><g mask="url(#b)"><path d="M35 21.123c0 6.435-4.267 11.865-10.104 13.568.005-1.11.01-2.547.01-3.574 0-1.233-.419-2.04-.89-2.448 2.92-.327 5.984-1.444 5.984-6.523 0-1.443-.507-2.623-1.347-3.547.135-.334.585-1.678-.13-3.498 0 0-1.099-.356-3.6 1.355a12.467 12.467 0 0 0-3.281-.445 12.45 12.45 0 0 0-3.28.445c-2.504-1.71-3.604-1.355-3.604-1.355-.713 1.82-.264 3.164-.129 3.498-.838.924-1.349 2.104-1.349 3.547 0 5.066 3.06 6.2 5.97 6.534-.375.33-.714.913-.833 1.767-.746.338-2.644.922-3.813-1.098 0 0-.693-1.27-2.008-1.363 0 0-1.28-.016-.09.804 0 0 .86.406 1.455 1.934 0 0 .77 2.57 4.415 1.772L18.388 35C11.904 33.766 7 28.022 7 21.123 7 13.323 13.268 7 21 7s14 6.323 14 14.123" fill-opacity=".6" fill="#0E141A"/><path d="M28.653 18.498c.135-.331.585-1.663-.13-3.468 0 0-1.099-.352-3.6 1.344a12.57 12.57 0 0 0-3.281-.441 12.56 12.56 0 0 0-3.28.44c-2.504-1.695-3.604-1.343-3.604-1.343-.713 1.805-.264 3.137-.129 3.468-.838.916-1.349 2.086-1.349 3.517 0 5.021 3.06 6.146 5.97 6.476-.375.328-.714.905-.833 1.752-.746.336-2.644.914-3.813-1.089 0 0-.692-1.257-2.008-1.35 0 0-1.28-.017-.09.796 0 0 .86.404 1.455 1.917 0 0 .77 2.549 4.415 1.757.003.62.009 1.65.012 2.482a14.072 14.072 0 0 0 6.508-.306s.01-2.648.01-3.542c0-1.223-.419-2.022-.89-2.427C26.937 28.157 30 27.05 30 22.015c0-1.43-.507-2.6-1.347-3.517" fill="#FFF"/></g></g></svg>