<svg viewBox="0 0 42 42" xmlns="http://www.w3.org/2000/svg" xmlns:xlink="http://www.w3.org/1999/xlink"><title>icon</title><defs><circle id="a" cx="21" cy="21" r="21"/></defs><g fill="none" fill-rule="evenodd"><mask id="b" fill="#fff"><use xlink:href="#a"/></mask><use fill="#00D46A" xlink:href="#a"/><g mask="url(#b)"><path d="M11 8h20c2.2 0 4 1.8 4 4v18c0 2.2-1.8 4-4 4H11c-2.2 0-4-1.8-4-4V12c0-2.2 1.8-4 4-4z" fill-opacity=".6" fill="#0E141A"/><path d="M29 26V16c0-1.1-.9-2-2-2s-2 .9-2 2v10c0 1.1.9 2 2 2s2-.9 2-2zm-12 0v-6c0-1.1-.9-2-2-2s-2 .9-2 2v6c0 1.1.9 2 2 2s2-.9 2-2zm6 0v-4c0-1.1-.9-2-2-2s-2 .9-2 2v4c0 1.1.9 2 2 2s2-.9 2-2z" fill="#FFF"/></g></g></svg>