<svg viewBox="0 0 42 42" xmlns="http://www.w3.org/2000/svg"><title>icon</title><g fill="none" fill-rule="evenodd"><circle fill="#FFB700" cx="21" cy="21" r="21"/><path d="M5 21c0-.55.225-1.05.575-1.425l4-4A2.09 2.09 0 0 1 11 15c.55 0 1.05.225 1.425.575l4 4c.35.375.575.875.575 1.425 0 1.1-.9 2-2 2a2.09 2.09 0 0 1-1.425-.575c-.175-.2-.375-.375-.525-.55.425 4 3.825 7.125 7.95 7.125 1.45 0 2.8-.375 3.975-1.05l.025-.025a1.998 1.998 0 0 1 2.725.725c.55.975.225 2.2-.725 2.75a11.957 11.957 0 0 1-6 1.6c-6.35 0-11.55-4.95-11.975-11.2-.175.175-.375.375-.6.625A2.09 2.09 0 0 1 7 23c-1.1 0-2-.9-2-2z" fill-opacity=".4" fill="#0E141A"/><path d="M25 21c0-1.1.9-2 2-2 .55 0 1.05.225 1.425.575.175.2.375.375.525.55-.425-4-3.825-7.125-7.95-7.125-1.45 0-2.8.375-3.975 1.05l-.025.025c-.95.55-2.175.225-2.725-.725-.55-.975-.225-2.2.725-2.75A11.957 11.957 0 0 1 21 9c6.35 0 11.55 4.95 11.975 11.2.175-.175.375-.375.6-.625A2.09 2.09 0 0 1 35 19c1.1 0 2 .9 2 2 0 .55-.225 1.05-.575 1.425l-4 4A2.09 2.09 0 0 1 31 27a2.09 2.09 0 0 1-1.425-.575l-4-4A2.09 2.09 0 0 1 25 21z" fill="#FFF"/></g></svg>