<svg viewBox="0 0 42 42" xmlns="http://www.w3.org/2000/svg" xmlns:xlink="http://www.w3.org/1999/xlink"><title>icon</title><defs><circle id="a" cx="21" cy="21" r="21"/></defs><g fill="none" fill-rule="evenodd"><mask id="b" fill="#fff"><use xlink:href="#a"/></mask><use fill="#FF4040" xlink:href="#a"/><path d="M35 24c0 3.325-2.675 6-6 6H14c-3.875 0-7-3.125-7-7a6.98 6.98 0 0 1 4.175-6.4A8.475 8.475 0 0 1 11 15c0-3.875 3.125-7 7-7 2.8 0 5.225 1.65 6.35 4.025.2-.025.425-.025.65-.025 3.325 0 6 2.675 6 6v.35c2.325.8 4 3.025 4 5.65z" fill-opacity=".5" fill="#0E141A" mask="url(#b)"/><path d="M19 23.117l-2.433 2.45a1.52 1.52 0 0 1-2.134 0 1.52 1.52 0 0 1 0-2.134l5-5a1.52 1.52 0 0 1 2.134 0l5 5c.283.3.433.684.433 1.067 0 .383-.15.767-.433 1.067a1.52 1.52 0 0 1-2.134 0L22 23.117V33.5c0 .833-.667 1.5-1.5 1.5s-1.5-.667-1.5-1.5V23.117z" fill="#FFF" mask="url(#b)"/></g></svg>