<?xml version="1.0" encoding="UTF-8"?>
<svg width="66px" height="66px" viewBox="0 0 66 66" version="1.1" xmlns="http://www.w3.org/2000/svg" xmlns:xlink="http://www.w3.org/1999/xlink">
    <!-- Generator: Sketch 49.1 (51147) - http://www.bohemiancoding.com/sketch -->
    <title>icon_feature_(scale)</title>
    <desc>Created with Sketch.</desc>
    <defs></defs>
    <g id="icon_feature_(scale)" stroke="none" stroke-width="1" fill="none" fill-rule="evenodd">
        <circle id="container" fill-opacity="0.200000003" fill="#00AE55" cx="33" cy="33" r="33"></circle>
        <rect id="box" stroke="#FFFFFF" stroke-width="4" x="19" y="19" width="28" height="28" rx="4"></rect>
        <circle id="dot" fill-opacity="0.5" fill="#00AE55" cx="33" cy="33" r="4"></circle>
        <path d="M26.4250331,42.4250613 C26.7750344,42.05006 27.0000352,41.5500582 27.0000352,41.0000563 C27.0000352,39.9000524 26.100032,39.0000492 25.0000281,39.0000492 C24.4500262,39.0000492 23.9500244,39.22505 23.5750231,39.5750513 C22.4250191,40.7500554 21.6750164,41.500058 21.0000141,42.1750604 L21.0000141,41.0000563 C21.0000141,39.9000524 20.1000109,39.0000492 19.000007,39.0000492 C17.9000032,39.0000492 17,39.9000524 17,41.0000563 L17,47.0000774 C17,48.1000812 17.9000032,49.0000844 19.000007,49.0000844 L25.0000281,49.0000844 C26.100032,49.0000844 27.0000352,48.1000812 27.0000352,47.0000774 C27.0000352,45.9000735 26.100032,45.0000703 25.0000281,45.0000703 L23.825024,45.0000703 C24.5000264,44.325068 25.250029,43.5750653 26.4250331,42.4250613 Z" id="arrow_4" fill="#00AE55"></path>
        <path d="M47.0000774,39.0000492 C45.9000735,39.0000492 45.0000703,39.9000524 45.0000703,41.0000563 L45.0000703,42.1750604 C44.325068,41.500058 43.5750653,40.7500554 42.4250613,39.5750513 C42.05006,39.22505 41.5500582,39.0000492 41.0000563,39.0000492 C39.9000524,39.0000492 39.0000492,39.9000524 39.0000492,41.0000563 C39.0000492,41.5500582 39.22505,42.05006 39.5750513,42.4250613 C40.7500554,43.5750653 41.500058,44.325068 42.1750604,45.0000703 L41.0000563,45.0000703 C39.9000524,45.0000703 39.0000492,45.9000735 39.0000492,47.0000774 C39.0000492,48.1000812 39.9000524,49.0000844 41.0000563,49.0000844 L47.0000774,49.0000844 C48.1000812,49.0000844 49.0000844,48.1000812 49.0000844,47.0000774 L49.0000844,41.0000563 C49.0000844,39.9000524 48.1000812,39.0000492 47.0000774,39.0000492 Z" id="arrow_3" fill="#00AE55"></path>
        <path d="M41.0000563,17 C39.9000524,17 39.0000492,17.9000032 39.0000492,19.000007 C39.0000492,20.1000109 39.9000524,21.0000141 41.0000563,21.0000141 L42.1750604,21.0000141 C41.500058,21.6750164 40.7500554,22.4250191 39.5750513,23.5750231 C39.22505,23.9500244 39.0000492,24.4500262 39.0000492,25.0000281 C39.0000492,26.100032 39.9000524,27.0000352 41.0000563,27.0000352 C41.5500582,27.0000352 42.05006,26.7750344 42.4250613,26.4250331 C43.5750653,25.250029 44.325068,24.5000264 45.0000703,23.825024 L45.0000703,25.0000281 C45.0000703,26.100032 45.9000735,27.0000352 47.0000774,27.0000352 C48.1000812,27.0000352 49.0000844,26.100032 49.0000844,25.0000281 L49.0000844,19.000007 C49.0000844,17.9000032 48.1000812,17 47.0000774,17 L41.0000563,17 Z" id="arrow_2" fill="#00AE55"></path>
        <path d="M27.0000352,19.000007 C27.0000352,17.9000032 26.100032,17 25.0000281,17 L19.000007,17 C17.9000032,17 17,17.9000032 17,19.000007 L17,25.0000281 C17,26.100032 17.9000032,27.0000352 19.000007,27.0000352 C20.1000109,27.0000352 21.0000141,26.100032 21.0000141,25.0000281 L21.0000141,23.825024 C21.6750164,24.5000264 22.4250191,25.250029 23.5750231,26.4250331 C23.9500244,26.7750344 24.4500262,27.0000352 25.0000281,27.0000352 C26.100032,27.0000352 27.0000352,26.100032 27.0000352,25.0000281 C27.0000352,24.4500262 26.7750344,23.9500244 26.4250331,23.5750231 C25.250029,22.4250191 24.5000264,21.6750164 23.825024,21.0000141 L25.0000281,21.0000141 C26.100032,21.0000141 27.0000352,20.1000109 27.0000352,19.000007 Z" id="arrow_1" fill="#00AE55"></path>
    </g>
</svg>