<svg viewBox="0 0 66 66" xmlns="http://www.w3.org/2000/svg"><title>icon</title><g fill="none" fill-rule="evenodd"><circle fill-opacity=".2" fill="#00D46A" cx="33" cy="33" r="33"/><path d="M33 12c-11.545 0-21 9.455-21 21s9.455 21 21 21 21-9.455 21-21-9.455-21-21-21z" stroke="#FFF" stroke-width="4"/><path d="M33 12c-11.55 0-21 9.45-21 21s9.45 21 21 21 21-9.45 21-21-9.45-21-21-21z" stroke-opacity=".5" stroke="#00D46A" stroke-width="4" stroke-dasharray="38,150.7200012207031"/><path d="M42.685 36.398l-7.223-6.168 5.142-5.714a1.494 1.494 0 0 0 .336-1.436A1.5 1.5 0 0 0 39.5 22H35a7.474 7.474 0 0 0-5.15 2.049L24.29 29.3a2.25 2.25 0 0 1-3.104 2.933l-.716.677a1.495 1.495 0 0 0-.03 2.15c2.121 2.122 2.378 2.38 4.5 4.5a1.496 1.496 0 0 0 2.175-.057l.64-.711a2.25 2.25 0 0 1 2.822-3.135l.055-.06.804-.895 5.963 6.983a3.75 3.75 0 1 0 5.287-5.287M33 8c-2.2 0-4 1.8-4 4s1.8 4 4 4 4-1.8 4-4-1.8-4-4-4z" fill="#00D46A"/></g></svg>