<svg viewBox="0 0 42 42" xmlns="http://www.w3.org/2000/svg" xmlns:xlink="http://www.w3.org/1999/xlink"><title>icon</title><defs><circle id="a" cx="21" cy="21" r="21"/></defs><g fill="none" fill-rule="evenodd"><mask id="b" fill="#fff"><use xlink:href="#a"/></mask><use fill="#00D46A" xlink:href="#a"/><g mask="url(#b)"><path d="M21 32.994V22.025h-7.554a18.057 18.057 0 0 1-.446-4v-3a.998.998 0 0 1 .504-.868l7-4a.995.995 0 0 1 .496-.132v12h7.554A18.02 18.02 0 0 1 21 32.994m11.47-20.852l-.97-.529L21.484 6.15a.995.995 0 0 0-.968 0L10.5 11.613l-.97.53a1 1 0 0 0-.528.832H9v6.05c0 1.02.08 2.023.236 3 1.063 6.701 5.63 12.236 11.764 14.669 6.135-2.433 10.701-7.968 11.764-14.669.155-.977.236-1.98.236-3v-6.05h-.002a1 1 0 0 0-.528-.833" fill-opacity=".6" fill="#0E141A"/><path d="M21 32.994a18.02 18.02 0 0 0 7.554-10.969H21v10.969zm-.496-22.837l-7 4a1.005 1.005 0 0 0-.504.868v3c0 1.375.154 2.714.446 4H21v-12c-.18 0-.35.048-.496.132" fill="#FFF"/></g></g></svg>