<svg viewBox="0 0 60 96" xmlns="http://www.w3.org/2000/svg"><title>icon</title><g fill="#1F7AFF" fill-rule="evenodd"><path fill-opacity=".4" d="M30 41.985L43 30l13 11.985V96H30z"/><path d="M40 84h6a1 1 0 0 1 1 1v8h-8v-8a1 1 0 0 1 1-1z"/><g transform="translate(35 60)"><rect x="10" y="12" width="6" height="6" rx="1"/><rect y="12" width="6" height="6" rx="1"/><rect x="10" width="6" height="6" rx="1"/><rect width="6" height="6" rx="1"/></g><path d="M42.9 54.425v.025c-.175.325-.512.55-.9.55-.55 0-1-.45-1-1 0-.05 0-.112.013-.162.262-1.588.537-3.225.812-4.838H40c-.55 0-1-.45-1-1 0-.162.038-.312.1-.45.9-1.775 3.1-6.187 4-7.987v-.013c.175-.325.513-.55.9-.55.55 0 1 .45 1 1 0 .05 0 .113-.012.163A979.735 979.735 0 0 1 44.175 45H46c.55 0 1 .45 1 1 0 .163-.037.313-.1.45-.9 1.775-3.1 6.188-4 7.975zM30 9v87H3V9H0V3h34v6h-4zM3 0h16v3H3V0zm17 72a1 1 0 0 0-1 1v4a1 1 0 0 0 1 1h4a1 1 0 0 0 1-1v-4a1 1 0 0 0-1-1h-4zM9 72a1 1 0 0 0-1 1v4a1 1 0 0 0 1 1h4a1 1 0 0 0 1-1v-4a1 1 0 0 0-1-1H9zm11-12a1 1 0 0 0-1 1v4a1 1 0 0 0 1 1h4a1 1 0 0 0 1-1v-4a1 1 0 0 0-1-1h-4zM9 60a1 1 0 0 0-1 1v4a1 1 0 0 0 1 1h4a1 1 0 0 0 1-1v-4a1 1 0 0 0-1-1H9zm11-12a1 1 0 0 0-1 1v4a1 1 0 0 0 1 1h4a1 1 0 0 0 1-1v-4a1 1 0 0 0-1-1h-4zM9 48a1 1 0 0 0-1 1v4a1 1 0 0 0 1 1h4a1 1 0 0 0 1-1v-4a1 1 0 0 0-1-1H9zm11-12a1 1 0 0 0-1 1v4a1 1 0 0 0 1 1h4a1 1 0 0 0 1-1v-4a1 1 0 0 0-1-1h-4zM9 36a1 1 0 0 0-1 1v4a1 1 0 0 0 1 1h4a1 1 0 0 0 1-1v-4a1 1 0 0 0-1-1H9zm11-12a1 1 0 0 0-1 1v4a1 1 0 0 0 1 1h4a1 1 0 0 0 1-1v-4a1 1 0 0 0-1-1h-4zM9 24a1 1 0 0 0-1 1v4a1 1 0 0 0 1 1h4a1 1 0 0 0 1-1v-4a1 1 0 0 0-1-1H9zm11-12a1 1 0 0 0-1 1v4a1 1 0 0 0 1 1h4a1 1 0 0 0 1-1v-4a1 1 0 0 0-1-1h-4zM9 12a1 1 0 0 0-1 1v4a1 1 0 0 0 1 1h4a1 1 0 0 0 1-1v-4a1 1 0 0 0-1-1H9z"/><g transform="translate(8 12)" fill-opacity=".4"><rect x="11" y="60" width="6" height="6" rx="1"/><rect y="60" width="6" height="6" rx="1"/><rect x="11" y="48" width="6" height="6" rx="1"/><rect y="48" width="6" height="6" rx="1"/><rect x="11" y="36" width="6" height="6" rx="1"/><rect y="36" width="6" height="6" rx="1"/><rect x="11" y="24" width="6" height="6" rx="1"/><rect y="24" width="6" height="6" rx="1"/><rect x="11" y="12" width="6" height="6" rx="1"/><rect y="12" width="6" height="6" rx="1"/><rect x="11" width="6" height="6" rx="1"/><rect width="6" height="6" rx="1"/></g><path d="M0 93h60v3H0z"/></g></svg>