<svg viewBox="0 0 66 66" xmlns="http://www.w3.org/2000/svg"><title>icon</title><g fill="none" fill-rule="evenodd"><circle fill-opacity=".2" fill="#00D46A" cx="33" cy="33" r="33"/><g transform="translate(15 15)"><rect fill-opacity=".3" fill="#00D46A" width="36" height="36" rx="8"/><rect fill="#FFF" x="8" y="24" width="20" height="4" rx="2"/><path d="M10 24h10v4H10a2 2 0 1 1 0-4z" fill="#00D46A"/><path d="M20 22c-2.2 0-4 1.8-4 4s1.8 4 4 4 4-1.8 4-4-1.8-4-4-4z" fill="#00D46A"/><rect fill="#FFF" x="8" y="10" width="20" height="4" rx="2"/><path d="M10 10h6v4h-6a2 2 0 1 1 0-4z" fill="#00D46A"/><path d="M16 8c-2.2 0-4 1.8-4 4s1.8 4 4 4 4-1.8 4-4-1.8-4-4-4z" fill="#00D46A"/></g></g></svg>