<?xml version="1.0" encoding="UTF-8"?>
<svg viewBox="0 0 150 150" version="1.1" xmlns="http://www.w3.org/2000/svg" xmlns:xlink="http://www.w3.org/1999/xlink">
    <!-- Generator: Sketch 46.2 (44496) - http://www.bohemiancoding.com/sketch -->
    <title>icon</title>
    <desc>Created with Sketch.</desc>
    <defs></defs>
    <g id="Resource---Auth-Demo" stroke="none" stroke-width="1" fill="none" fill-rule="evenodd">
        <g id="26_auth_demo_(signup_successful)" transform="translate(-138.000000, -192.000000)" fill="#FFFFFF">
            <g id="demo">
                <g id="content" transform="translate(42.000000, 192.000000)">
                    <g id="icon" transform="translate(96.000000, 0.000000)">
                        <rect id="container" fill-opacity="0.1" x="0" y="0" width="150" height="150" rx="75"></rect>
                        <path d="M98.0001583,63.5000158 C98.0001583,61.000007 96.0001512,59 93.5001424,59 C92.250138,59 91.100134,59.5000018 90.3001312,60.3000046 C84.9001122,65.7500237 76.0000809,74.650055 69.500058,81.1000777 L60.7000271,72.3000468 C59.9000243,71.500044 58.7500202,71.0000422 57.5000158,71.0000422 C55.000007,71.0000422 53,73.0000492 53,75.500058 C53,76.7500624 53.5000018,77.9000665 54.3000046,78.7000693 L66.3000468,90.7001115 C67.1500498,91.5001143 68.2500536,92.0001161 69.500058,92.0001161 C70.7500624,92.0001161 71.9000665,91.5001143 72.7000693,90.7001115 C79.0500916,84.300089 90.3001312,73.0500494 96.7001537,66.7000271 C97.5001565,65.9000243 98.0001583,64.7500202 98.0001583,63.5000158 Z" id=""></path>
                    </g>
                </g>
            </g>
        </g>
    </g>
</svg>
