<svg viewBox="0 0 66 66" xmlns="http://www.w3.org/2000/svg" xmlns:xlink="http://www.w3.org/1999/xlink">
  <defs>
    <circle id="a" cx="33" cy="33" r="33"/>
  </defs>
  <g fill="none" fill-rule="evenodd">
    <mask id="b" fill="#fff">
      <use xlink:href="#a"/>
    </mask>
    <use fill-opacity=".2" fill="#9552EF" xlink:href="#a"/>
    <g mask="url(#b)">
      <path d="M35 37h8a6 6 0 0 1 6 6v3a3 3 0 0 1-3 3H32a3 3 0 0 1-3-3v-3a6 6 0 0 1 6-6zm4-4a8 8 0 1 1 0-16 8 8 0 0 1 0 16z" fill="#FFF"/>
      <path d="M23 37h8a6 6 0 0 1 6 6v3a3 3 0 0 1-3 3H20a3 3 0 0 1-3-3v-3a6 6 0 0 1 6-6zm4-4a8 8 0 1 1 0-16 8 8 0 0 1 0 16z" fill="#9552EF"/>
    </g>
  </g>
</svg>
