<?xml version="1.0" encoding="UTF-8"?>
<svg width="66px" height="66px" viewBox="0 0 66 66" version="1.1" xmlns="http://www.w3.org/2000/svg" xmlns:xlink="http://www.w3.org/1999/xlink">
    <!-- Generator: Sketch 49.1 (51147) - http://www.bohemiancoding.com/sketch -->
    <title>icon_feature_(plug)</title>
    <desc>Created with Sketch.</desc>
    <defs>
        <circle id="path-1" cx="33" cy="33" r="33"></circle>
    </defs>
    <g id="icon_feature_(plug)" stroke="none" stroke-width="1" fill="none" fill-rule="evenodd">
        <mask id="mask-2" fill="white">
            <use xlink:href="#path-1"></use>
        </mask>
        <use id="container" fill-opacity="0.200000003" fill="#00AE55" xlink:href="#path-1"></use>
        <path d="M19.0311255,25.8113694 C19.0103658,25.5442423 19,25.273506 19,25 C19,19.4620972 23.4620972,15 29,15 C32.4028986,15 35.4796941,16.7073583 37.3092097,19.4181097 C38.1764592,19.1430484 39.0935989,19 40.0333333,19 C45.0045695,19 49.0333333,23.0287638 49.0333333,28 C49.0333333,28.178627 49.0281444,28.355462 49.0177288,28.5304521 C51.470288,30.1752778 53,32.935187 53,36 C53,40.9617558 49.0178373,44.9571045 44.0333333,45 L23,45 C17.4620972,45 13,40.5379028 13,35 C13,30.9378581 15.4436197,27.3740633 19.0311255,25.8113694 Z" id="cloud_outline" stroke="#FFFFFF" stroke-width="4" mask="url(#mask-2)" transform="translate(33.000000, 30.000000) scale(-1, 1) translate(-33.000000, -30.000000) "></path>
        <path d="M23,43 C18.5666667,43 15,39.4333333 15,35 C15,31.1666667 17.7,27.9666667 21.3,27.1666667 C21.1,26.5 21,25.7666667 21,25 C21,20.5666667 24.5666667,17 29,17 C32.3666667,17 35.2333333,19.0666667 36.4333333,22 C37.4666667,21.3666667 38.7,21 40.0333333,21 C43.9,21 47.0333333,24.1333333 47.0333333,28 C47.0333333,28.5666667 46.9666667,29.1 46.8333333,29.6 C49.3,30.7 51,33.1333333 51,36 C51,39.8666667 47.9,42.9666667 44.0333333,43 L23,43 Z" id="cloud" fill-opacity="0.299999982" fill="#00AE55" mask="url(#mask-2)" transform="translate(33.000000, 30.000000) scale(-1, 1) translate(-33.000000, -30.000000) "></path>
        <path d="M40.4250542,35.5750231 C37.5750442,32.7500132 37.2500431,32.425012 34.4250331,29.575002 C34.0500318,29.2250008 33.5500301,29 33.0000281,29 C32.4500262,29 31.9500244,29.2250008 31.5750231,29.575002 C28.7500132,32.425012 28.425012,32.7500132 25.575002,35.5750231 C25.2250008,35.9500244 25,36.4500262 25,37.0000281 C25,38.100032 25.9000032,39.0000352 27.000007,39.0000352 C27.550009,39.0000352 28.0500107,38.7750344 28.425012,38.4250331 C29.5750161,37.250029 30.3250187,36.5000264 31.0000211,35.825024 L31.0000211,55.0000633 C31.0000211,56.1000672 31.9000243,57.0000703 33.0000281,57.0000703 C34.100032,57.0000703 35.0000352,56.1000672 35.0000352,55.0000633 L35.0000352,35.825024 C35.6750375,36.5000264 36.4250402,37.250029 37.5750442,38.4250331 C37.9500455,38.7750344 38.4500473,39.0000352 39.0000492,39.0000352 C40.1000531,39.0000352 41.0000563,38.100032 41.0000563,37.0000281 C41.0000563,36.4500262 40.7750555,35.9500244 40.4250542,35.5750231 Z" id="arrow" fill="#00AE55" mask="url(#mask-2)"></path>
    </g>
</svg>