<svg viewBox="0 0 66 66" xmlns="http://www.w3.org/2000/svg" xmlns:xlink="http://www.w3.org/1999/xlink"><title>icon_feature_(plug)</title><defs><circle id="a" cx="33" cy="33" r="33"/></defs><g fill="none" fill-rule="evenodd"><mask id="b" fill="#fff"><use xlink:href="#a"/></mask><use fill-opacity=".2" fill="#00D46A" xlink:href="#a"/><path d="M19.031 25.811c-.02-.267-.031-.537-.031-.811a9.98 9.98 0 0 1 10-10c3.403 0 6.48 1.707 8.31 4.418A9.003 9.003 0 0 1 40.032 19a9 9 0 0 1 8.985 9.53A8.963 8.963 0 0 1 53 36c0 4.962-3.982 8.957-8.967 9H23a9.98 9.98 0 0 1-10-10c0-4.062 2.444-7.626 6.031-9.189z" stroke="#FFF" stroke-width="4" mask="url(#b)" transform="matrix(-1 0 0 1 66 0)"/><path d="M23 43a7.98 7.98 0 0 1-8-8c0-3.833 2.7-7.033 6.3-7.833-.2-.667-.3-1.4-.3-2.167 0-4.433 3.567-8 8-8a8.025 8.025 0 0 1 7.433 5 6.865 6.865 0 0 1 3.6-1 7 7 0 0 1 7 7c0 .567-.066 1.1-.2 1.6C49.3 30.7 51 33.133 51 36c0 3.867-3.1 6.967-6.967 7H23z" fill-opacity=".3" fill="#00D46A" mask="url(#b)" transform="matrix(-1 0 0 1 66 0)"/><path d="M40.425 35.575a678.833 678.833 0 0 1-6-6A2.09 2.09 0 0 0 33 29c-.55 0-1.05.225-1.425.575a678.831 678.831 0 0 1-6 6A2.09 2.09 0 0 0 25 37c0 1.1.9 2 2 2 .55 0 1.05-.225 1.425-.575 1.15-1.175 1.9-1.925 2.575-2.6V55c0 1.1.9 2 2 2s2-.9 2-2V35.825c.675.675 1.425 1.425 2.575 2.6.375.35.875.575 1.425.575 1.1 0 2-.9 2-2 0-.55-.225-1.05-.575-1.425z" fill="#00D46A" mask="url(#b)"/></g></svg>