<svg viewBox="0 0 60 60" xmlns="http://www.w3.org/2000/svg" xmlns:xlink="http://www.w3.org/1999/xlink"><title>icon</title><defs><rect id="a" width="60" height="60" rx="30"/></defs><g fill="none" fill-rule="evenodd"><mask id="b" fill="#fff"><use xlink:href="#a"/></mask><use fill-opacity=".2" fill="#9552EF" xlink:href="#a"/><path d="M40 29c3.3 0 6 2.7 6 6v4c0 1.1-.9 2-2 2h-8c-1.1 0-2-.9-2-2v-4c0-3.3 2.7-6 6-6zm0-16c3.3 0 6 2.7 6 6s-2.7 6-6 6-6-2.7-6-6 2.7-6 6-6zM20 29c3.3 0 6 2.7 6 6v4c0 1.1-.9 2-2 2h-8c-1.1 0-2-.9-2-2v-4c0-3.3 2.7-6 6-6zm0-16c3.3 0 6 2.7 6 6s-2.7 6-6 6-6-2.7-6-6 2.7-6 6-6z" fill-opacity=".3" fill="#9552EF" mask="url(#b)"/><path d="M48 32c3.3 0 6 2.7 6 6v4c0 1.1-.9 2-2 2h-8c-1.1 0-2-.9-2-2v-4c0-3.3 2.7-6 6-6zm0-4c-3.3 0-6-2.7-6-6s2.7-6 6-6 6 2.7 6 6-2.7 6-6 6zm-20 6h4a7 7 0 0 1 7 7v5c0 1.1-.9 2-2 2H23c-1.1 0-2-.9-2-2v-5a7 7 0 0 1 7-7zm-5-11a7 7 0 0 1 7-7 7 7 0 0 1 7 7 7 7 0 0 1-7 7 7 7 0 0 1-7-7zm-11 9c3.3 0 6 2.7 6 6v4c0 1.1-.9 2-2 2H8c-1.1 0-2-.9-2-2v-4c0-3.3 2.7-6 6-6zm0-16c3.3 0 6 2.7 6 6s-2.7 6-6 6-6-2.7-6-6 2.7-6 6-6z" fill="#9552EF" mask="url(#b)"/></g></svg>