<svg viewBox="0 0 66 66" xmlns="http://www.w3.org/2000/svg" xmlns:xlink="http://www.w3.org/1999/xlink"><title>icon</title><defs><circle id="a" cx="33" cy="33" r="33"/></defs><g fill="none" fill-rule="evenodd"><mask id="b" fill="#fff"><use xlink:href="#a"/></mask><use fill-opacity=".2" fill="#FFB700" xlink:href="#a"/><path d="M33 18c7.733 0 14 3.567 14 8v14c0 4.433-6.267 8-14 8s-14-3.567-14-8V26c0-4.433 6.267-8 14-8zm0 12c5.533 0 10-1.8 10-4s-4.467-4-10-4-10 1.8-10 4 4.467 4 10 4z" fill="#FFB700" mask="url(#b)"/><path d="M33 30c5.533 0 10-1.8 10-4s-4.467-4-10-4-10 1.8-10 4 4.467 4 10 4z" fill="#FFF" mask="url(#b)"/></g></svg>