<svg viewBox="0 0 42 42" xmlns="http://www.w3.org/2000/svg"><title>icon</title><g fill="none" fill-rule="evenodd"><circle fill="#FF6E02" cx="21" cy="21" r="21"/><path d="M16 21c-1.4 1.85-1.95 2.6-4.2 5.6-.5.65-.8 1.5-.8 2.4 0 2.2 1.8 4 4 4 .75 0 1.425-.2 2.025-.55l13.9-7.95A3.969 3.969 0 0 0 33 20.975V21H16z" fill-opacity=".3" fill="#0E141A"/><path d="M16 21c-1.4-1.85-1.95-2.6-4.2-5.6-.5-.65-.8-1.5-.8-2.4 0-2.2 1.8-4 4-4 .75 0 1.425.2 2.025.55l13.9 7.95A3.969 3.969 0 0 1 33 21.025V21H16z" fill="#FFF"/></g></svg>