<svg viewBox="0 0 81 81" xmlns="http://www.w3.org/2000/svg"><title>ribbon</title><g fill="none" fill-rule="evenodd"><path fill="#0E141A" d="M5.16-28.811L109.81 75.84 92.84 92.81-11.811-11.84z"/><path d="M28.527 17.184l5.515-5.515-1.688-1.688-5.165 2.287 2.209-5.243-1.602-1.602-5.515 5.515 1.167 1.166 3.609-3.609-2.17 5.048.995.996 5.095-2.217-3.656 3.656 1.206 1.206zm3.866 1.92c.45.452 1.182.56 1.835-.092.654-.654.537-1.377.086-1.828-.444-.444-1.175-.568-1.828.085-.646.646-.537 1.392-.093 1.836zm3.01-3.01c1.159 1.16 1.205 2.902.007 4.1-1.197 1.198-2.947 1.159-4.106 0-1.152-1.151-1.198-2.91 0-4.107 1.197-1.198 2.948-1.143 4.099.008zm-.39 5.383c-.396.46-.793 1.634.42 2.847 1.035 1.034 2.186.894 2.848.233.567-.567.66-1.439.023-2.403l-.412-.615c-.14-.202-.18-.427-.016-.59.202-.203.53-.14.755.085.357.358.303.739.077 1.027l1.16.8c.412-.49.723-1.578-.397-2.698-.864-.864-2.062-.91-2.77-.203-.544.545-.684 1.338-.038 2.342l.342.544c.226.35.202.56.062.7-.17.171-.482.187-.785-.116-.405-.405-.335-.848-.086-1.128l-1.182-.825zm9.257 1.462l-1.058-1.057-.498.497c-.358.358-.824.436-1.229.032l-.194-.195-1.035 1.035.685.684-1.657 1.657c-.77.77-.754 1.734.047 2.536.373.373.653.482.723.505l.98-.98a2.062 2.062 0 0 1-.35-.272c-.257-.257-.342-.514-.023-.832l1.446-1.447.755.754 1.034-1.034-.754-.755 1.128-1.128zm2.831 6.736l.716.716c.466.467 1.057.513 1.485.086.444-.444.39-1.027-.077-1.494l-.716-.715-1.408 1.407zm-.218 1.898l-.848-.848-1.983 1.984-1.229-1.23 5.515-5.514 2.077 2.077c1.12 1.12 1.15 2.629.124 3.656-1.042 1.042-2.536.995-3.656-.125zm3.376 5.398c.451.451 1.182.56 1.836-.093.653-.653.536-1.377.085-1.828-.443-.443-1.174-.568-1.828.086-.645.645-.536 1.392-.093 1.835zm3.01-3.01c1.16 1.16 1.206 2.901.008 4.1-1.198 1.197-2.948 1.158-4.107 0-1.151-1.152-1.198-2.91 0-4.108 1.198-1.197 2.948-1.143 4.1.008zm-1.462 9.458l-1.182-1.182 5.343-5.343 1.144 1.143-.397.397c.412-.086 1.073.093 1.626.645 1.12 1.12.94 2.653-.218 3.812-1.183 1.182-2.793 1.267-3.874.186-.498-.498-.7-1.042-.66-1.439l-1.782 1.781zm5.149-1.68c.646-.645.544-1.369.078-1.835-.46-.46-1.182-.56-1.828.085-.638.638-.552 1.377-.093 1.836.466.467 1.197.56 1.843-.086zm2.481 6.355l1.136 1.136c.054-.07.303-.381.653-.731l3.174-3.174-1.183-1.182-2.2 2.201c-.39.389-.91.412-1.308.016-.42-.42-.326-.918.047-1.292l2.194-2.193-1.183-1.182-2.442 2.442c-.825.824-.98 2.038-.039 2.98.389.388.972.691 1.509.56a3.98 3.98 0 0 0-.358.42zm3.322 3.321l5.63-5.631-1.181-1.182-5.632 5.631 1.183 1.182zm1.874-.256c.685-.685 1.579-.568 2.31-.024l1.05.77c.241.18.412.148.545.016.225-.226.225-.615-.148-.988-.412-.412-.918-.358-1.229-.093l-.817-1.237c.6-.506 1.844-.723 2.98.412 1.252 1.253 1.01 2.412.217 3.205l-1.89 1.89a5.372 5.372 0 0 0-.552.646l-1.066-1.066c.023-.039.132-.21.397-.474-.53.124-1.12-.032-1.634-.545-.847-.848-.777-1.898-.163-2.512zm1.307 1.944c.35.35.879.537 1.478-.062l.17-.171-.847-.615c-.288-.21-.591-.28-.863-.007-.203.202-.265.529.062.855zm8.431 2.194a1.652 1.652 0 0 0-.272-.35c-.311-.311-.925-.677-1.563-.444l.52-.52-1.143-1.144-3.865 3.866 1.182 1.182 1.688-1.688c.77-.77 1.478-.622 1.952-.148.117.117.234.25.335.412l1.166-1.166z" fill="#FFF"/></g></svg>