<svg viewBox="0 0 1188 733" xmlns="http://www.w3.org/2000/svg" xmlns:xlink="http://www.w3.org/1999/xlink"><title>illustration_(laptop)</title><defs><path d="M172 21h814c17.673 0 32 14.327 32 32v563c0 6.075-4.925 11-11 11H151c-6.075 0-11-4.925-11-11V53c0-17.673 14.327-32 32-32z" id="b"/><filter x="-7.5%" y="-8.9%" width="118.5%" height="126.7%" filterUnits="objectBoundingBox" id="a"><feOffset dx="12" dy="24" in="SourceAlpha" result="shadowOffsetOuter1"/><feGaussianBlur stdDeviation="21" in="shadowOffsetOuter1" result="shadowBlurOuter1"/><feColorMatrix values="0 0 0 0 0.0549019608 0 0 0 0 0.0784313725 0 0 0 0 0.101960784 0 0 0 0.16 0" in="shadowBlurOuter1" result="shadowMatrixOuter1"/><feOffset dx="3" dy="3" in="SourceAlpha" result="shadowOffsetOuter2"/><feGaussianBlur stdDeviation="3" in="shadowOffsetOuter2" result="shadowBlurOuter2"/><feColorMatrix values="0 0 0 0 0.0549019608 0 0 0 0 0.0784313725 0 0 0 0 0.101960784 0 0 0 0.06 0" in="shadowBlurOuter2" result="shadowMatrixOuter2"/><feMerge><feMergeNode in="shadowMatrixOuter1"/><feMergeNode in="shadowMatrixOuter2"/></feMerge></filter><filter x="-4.6%" y="-4.7%" width="112.6%" height="118.3%" filterUnits="objectBoundingBox" id="c"><feGaussianBlur stdDeviation="3" in="SourceAlpha" result="shadowBlurInner1"/><feOffset dy="-3" in="shadowBlurInner1" result="shadowOffsetInner1"/><feComposite in="shadowOffsetInner1" in2="SourceAlpha" operator="arithmetic" k2="-1" k3="1" result="shadowInnerInner1"/><feColorMatrix values="0 0 0 0 0.0549019608 0 0 0 0 0.0784313725 0 0 0 0 0.101960784 0 0 0 0.16 0" in="shadowInnerInner1" result="shadowMatrixInner1"/><feGaussianBlur stdDeviation=".5" in="SourceAlpha" result="shadowBlurInner2"/><feOffset dy="1" in="shadowBlurInner2" result="shadowOffsetInner2"/><feComposite in="shadowOffsetInner2" in2="SourceAlpha" operator="arithmetic" k2="-1" k3="1" result="shadowInnerInner2"/><feColorMatrix values="0 0 0 0 0.0549019608 0 0 0 0 0.0784313725 0 0 0 0 0.101960784 0 0 0 0.1 0" in="shadowInnerInner2" result="shadowMatrixInner2"/><feGaussianBlur stdDeviation="3" in="SourceAlpha" result="shadowBlurInner3"/><feOffset dy="-9" in="shadowBlurInner3" result="shadowOffsetInner3"/><feComposite in="shadowOffsetInner3" in2="SourceAlpha" operator="arithmetic" k2="-1" k3="1" result="shadowInnerInner3"/><feColorMatrix values="0 0 0 0 0.0549019608 0 0 0 0 0.0784313725 0 0 0 0 0.101960784 0 0 0 0.1 0" in="shadowInnerInner3" result="shadowMatrixInner3"/><feMerge><feMergeNode in="shadowMatrixInner1"/><feMergeNode in="shadowMatrixInner2"/><feMergeNode in="shadowMatrixInner3"/></feMerge></filter><rect id="d" width="794" height="498" rx="4"/><rect id="f" width="126" height="282" rx="3"/><rect id="h" width="127" height="204" rx="3"/><rect id="j" width="126" height="198" rx="3"/><rect id="l" width="127" height="270" rx="3"/><rect id="n" width="127" height="252" rx="3"/><rect id="p" width="127" height="312" rx="3"/><rect id="r" width="126" height="282" rx="3"/><rect id="t" width="127" height="204" rx="3"/><path d="M0 4h1074l-1.81 1.569A100 100 0 0 1 1006.697 30H67.303A100 100 0 0 1 1.81 5.569L0 4z" id="w"/><filter x="-7%" y="-230.8%" width="116.8%" height="796.2%" filterUnits="objectBoundingBox" id="v"><feOffset dx="12" dy="24" in="SourceAlpha" result="shadowOffsetOuter1"/><feGaussianBlur stdDeviation="21" in="shadowOffsetOuter1" result="shadowBlurOuter1"/><feColorMatrix values="0 0 0 0 0.0549019608 0 0 0 0 0.0784313725 0 0 0 0 0.101960784 0 0 0 0.16 0" in="shadowBlurOuter1" result="shadowMatrixOuter1"/><feOffset dx="3" dy="3" in="SourceAlpha" result="shadowOffsetOuter2"/><feGaussianBlur stdDeviation="3" in="shadowOffsetOuter2" result="shadowBlurOuter2"/><feColorMatrix values="0 0 0 0 0.0549019608 0 0 0 0 0.0784313725 0 0 0 0 0.101960784 0 0 0 0.06 0" in="shadowBlurOuter2" result="shadowMatrixOuter2"/><feOffset dy="1" in="SourceAlpha" result="shadowOffsetOuter3"/><feColorMatrix values="0 0 0 0 0.0549019608 0 0 0 0 0.0784313725 0 0 0 0 0.101960784 0 0 0 0.04 0" in="shadowOffsetOuter3" result="shadowMatrixOuter3"/><feOffset dy="3" in="SourceAlpha" result="shadowOffsetOuter4"/><feGaussianBlur stdDeviation="4.5" in="shadowOffsetOuter4" result="shadowBlurOuter4"/><feColorMatrix values="0 0 0 0 0.0549019608 0 0 0 0 0.0784313725 0 0 0 0 0.101960784 0 0 0 0.1 0" in="shadowBlurOuter4" result="shadowMatrixOuter4"/><feMerge><feMergeNode in="shadowMatrixOuter1"/><feMergeNode in="shadowMatrixOuter2"/><feMergeNode in="shadowMatrixOuter3"/><feMergeNode in="shadowMatrixOuter4"/></feMerge></filter><filter x="-5.3%" y="-161.5%" width="113.4%" height="657.7%" filterUnits="objectBoundingBox" id="x"><feGaussianBlur stdDeviation="9" in="SourceAlpha" result="shadowBlurInner1"/><feOffset dy="-12" in="shadowBlurInner1" result="shadowOffsetInner1"/><feComposite in="shadowOffsetInner1" in2="SourceAlpha" operator="arithmetic" k2="-1" k3="1" result="shadowInnerInner1"/><feColorMatrix values="0 0 0 0 0.0549019608 0 0 0 0 0.0784313725 0 0 0 0 0.101960784 0 0 0 0.16 0" in="shadowInnerInner1" result="shadowMatrixInner1"/><feOffset dy="1" in="SourceAlpha" result="shadowOffsetInner2"/><feComposite in="shadowOffsetInner2" in2="SourceAlpha" operator="arithmetic" k2="-1" k3="1" result="shadowInnerInner2"/><feColorMatrix values="0 0 0 0 0.0549019608 0 0 0 0 0.0784313725 0 0 0 0 0.101960784 0 0 0 0.1 0" in="shadowInnerInner2" result="shadowMatrixInner2"/><feMerge><feMergeNode in="shadowMatrixInner1"/><feMergeNode in="shadowMatrixInner2"/></feMerge></filter><path d="M4 0h1066a4 4 0 0 1 4 4H0a4 4 0 0 1 4-4z" id="y"/><filter x="-.4%" y="-112.5%" width="100.8%" height="325%" filterUnits="objectBoundingBox" id="z"><feGaussianBlur stdDeviation="1" in="SourceAlpha" result="shadowBlurInner1"/><feOffset dy="1" in="shadowBlurInner1" result="shadowOffsetInner1"/><feComposite in="shadowOffsetInner1" in2="SourceAlpha" operator="arithmetic" k2="-1" k3="1" result="shadowInnerInner1"/><feColorMatrix values="0 0 0 0 0.0549019608 0 0 0 0 0.0784313725 0 0 0 0 0.101960784 0 0 0 0.08 0" in="shadowInnerInner1" result="shadowMatrixInner1"/><feGaussianBlur stdDeviation="3" in="SourceAlpha" result="shadowBlurInner2"/><feOffset dx="-3" in="shadowBlurInner2" result="shadowOffsetInner2"/><feComposite in="shadowOffsetInner2" in2="SourceAlpha" operator="arithmetic" k2="-1" k3="1" result="shadowInnerInner2"/><feColorMatrix values="0 0 0 0 0.0549019608 0 0 0 0 0.0784313725 0 0 0 0 0.101960784 0 0 0 0.04 0" in="shadowInnerInner2" result="shadowMatrixInner2"/><feMerge><feMergeNode in="shadowMatrixInner1"/><feMergeNode in="shadowMatrixInner2"/></feMerge></filter><path d="M447 5h180a35.06 35.06 0 0 1-23.454 9H470.454A35.06 35.06 0 0 1 447 5z" id="B"/><filter x="-1.1%" y="-11.1%" width="102.2%" height="144.4%" filterUnits="objectBoundingBox" id="A"><feOffset dy="1" in="SourceAlpha" result="shadowOffsetOuter1"/><feGaussianBlur stdDeviation=".5" in="shadowOffsetOuter1" result="shadowBlurOuter1"/><feColorMatrix values="0 0 0 0 1 0 0 0 0 1 0 0 0 0 1 0 0 0 1 0" in="shadowBlurOuter1"/></filter><filter x="-1.7%" y="-22.2%" width="103.3%" height="166.7%" filterUnits="objectBoundingBox" id="C"><feGaussianBlur stdDeviation="1.5" in="SourceAlpha" result="shadowBlurInner1"/><feOffset dy="-1" in="shadowBlurInner1" result="shadowOffsetInner1"/><feComposite in="shadowOffsetInner1" in2="SourceAlpha" operator="arithmetic" k2="-1" k3="1" result="shadowInnerInner1"/><feColorMatrix values="0 0 0 0 0.0549019608 0 0 0 0 0.0784313725 0 0 0 0 0.101960784 0 0 0 0.1 0" in="shadowInnerInner1"/></filter></defs><g fill="none" fill-rule="evenodd"><use fill="#000" filter="url(#a)" xlink:href="#b"/><use fill="#FFF" xlink:href="#b"/><use fill="#000" filter="url(#c)" xlink:href="#b"/><g transform="translate(182 69)"><mask id="e" fill="#fff"><use xlink:href="#d"/></mask><use fill-opacity=".06" fill="#0E141A" xlink:href="#d"/><g mask="url(#e)"><g transform="translate(644 366)"><mask id="g" fill="#fff"><use xlink:href="#f"/></mask><use fill="#FFF" xlink:href="#f"/><rect fill-opacity=".1" fill="#0E141A" mask="url(#g)" x="30" y="255" width="66" height="3" rx="1.5"/><rect fill-opacity=".1" fill="#0E141A" mask="url(#g)" x="18" y="246" width="90" height="3" rx="1.5"/><rect fill-opacity=".1" fill="#0E141A" mask="url(#g)" x="30" y="237" width="66" height="3" rx="1.5"/><rect fill-opacity=".1" fill="#0E141A" mask="url(#g)" x="36" y="228" width="54" height="3" rx="1.5"/><rect fill-opacity=".1" fill="#0E141A" mask="url(#g)" x="24" y="219" width="78" height="3" rx="1.5"/><rect fill-opacity=".1" fill="#0E141A" mask="url(#g)" x="18" y="210" width="90" height="3" rx="1.5"/><rect fill-opacity=".1" fill="#0E141A" mask="url(#g)" x="24" y="201" width="78" height="3" rx="1.5"/><rect fill-opacity=".1" fill="#0E141A" mask="url(#g)" x="30" y="192" width="66" height="3" rx="1.5"/><rect fill-opacity=".1" fill="#0E141A" mask="url(#g)" x="18" y="183" width="90" height="3" rx="1.5"/><rect fill-opacity=".1" fill="#0E141A" mask="url(#g)" x="12" y="174" width="102" height="3" rx="1.5"/><rect fill-opacity=".1" fill="#0E141A" mask="url(#g)" x="31" y="152" width="65" height="3" rx="1.5"/><path d="M21 120h84a3 3 0 0 1 0 6H21a3 3 0 0 1 0-6zm17.802 12h48.396a3 3 0 0 1 0 6H38.802a3 3 0 0 1 0-6z" fill-opacity=".1" fill="#0E141A" mask="url(#g)"/><path fill-opacity=".6" fill="#0E141A" mask="url(#g)" d="M0 0h126v90H0z"/><g mask="url(#g)"><g transform="translate(45 72)"><rect fill="#00D46A" width="36" height="36" rx="18"/><rect fill-opacity=".5" fill="#0E141A" x="6" y="6" width="24" height="24" rx="12"/><path d="M14.613 14a37.28 37.28 0 0 0-.713-1.425v-.025A1.028 1.028 0 0 0 13 12h-1c-.55 0-1 .45-1 1s.45 1 1 1h.388c.237.475.325.663.675 1.35.45 1.838.487 1.988.962 3.888.113.437.5.762.975.762h7c.475 0 .863-.325.975-.762l.988-3.975A.952.952 0 0 0 24 15c0-.55-.45-1-1-1h-8.387zM17 22.5c0-.825-.675-1.5-1.5-1.5s-1.5.675-1.5 1.5.675 1.5 1.5 1.5 1.5-.675 1.5-1.5zm4.5-1.5c-.825 0-1.5.675-1.5 1.5s.675 1.5 1.5 1.5 1.5-.675 1.5-1.5-.675-1.5-1.5-1.5z" fill="#FFF"/></g></g></g><g transform="translate(481 426)"><mask id="i" fill="#fff"><use xlink:href="#h"/></mask><use fill="#FFF" xlink:href="#h"/><rect fill-opacity=".1" fill="#0E141A" mask="url(#i)" x="24" y="177" width="79" height="3" rx="1.5"/><rect fill-opacity=".1" fill="#0E141A" mask="url(#i)" x="30" y="168" width="67" height="3" rx="1.5"/><rect fill-opacity=".1" fill="#0E141A" mask="url(#i)" x="18" y="159" width="91" height="3" rx="1.5"/><rect fill-opacity=".1" fill="#0E141A" mask="url(#i)" x="12" y="150" width="103" height="3" rx="1.5"/><rect fill-opacity=".1" fill="#0E141A" mask="url(#i)" x="31" y="128" width="66" height="3" rx="1.5"/><path d="M21 96h85a3 3 0 0 1 0 6H21a3 3 0 0 1 0-6zm18 12h49a3 3 0 0 1 0 6H39a3 3 0 0 1 0-6z" fill-opacity=".1" fill="#0E141A" mask="url(#i)"/><path fill-opacity=".6" fill="#0E141A" mask="url(#i)" d="M0 0h127v66H0z"/><g mask="url(#i)"><g transform="translate(46 48)"><rect fill="#00D46A" width="36" height="36" rx="18"/><rect fill-opacity=".5" fill="#0E141A" x="6" y="6" width="24" height="24" rx="12"/><path d="M15 14.5c0-.2-.112-.362-.275-.45h-.012l-1.988-1a.501.501 0 0 0-.725.45v8c0 .2.113.363.275.45h.013l1.987 1A.501.501 0 0 0 15 22.5v-8zm4.5-1.5a.732.732 0 0 0-.162.025c-.938.313-2.038.688-2.988 1h-.012A.488.488 0 0 0 16 14.5v8a.501.501 0 0 0 .663.475c.937-.312 2.037-.687 2.987-1h.013c.2-.062.337-.25.337-.475v-8c0-.275-.225-.5-.5-.5zm4.225 1.05h-.012l-1.988-1a.501.501 0 0 0-.725.45v8c0 .2.113.363.275.45h.013l1.987 1A.501.501 0 0 0 24 22.5v-8c0-.2-.112-.362-.275-.45z" fill="#FFF"/></g></g></g><g transform="translate(319 396)"><mask id="k" fill="#fff"><use xlink:href="#j"/></mask><use fill="#FFF" xlink:href="#j"/><rect fill-opacity=".1" fill="#0E141A" mask="url(#k)" x="24" y="171" width="78" height="3" rx="1.5"/><rect fill-opacity=".1" fill="#0E141A" mask="url(#k)" x="30" y="162" width="66" height="3" rx="1.5"/><rect fill-opacity=".1" fill="#0E141A" mask="url(#k)" x="18" y="153" width="90" height="3" rx="1.5"/><rect fill-opacity=".1" fill="#0E141A" mask="url(#k)" x="12" y="144" width="102" height="3" rx="1.5"/><rect fill-opacity=".1" fill="#0E141A" mask="url(#k)" x="31" y="122" width="65" height="3" rx="1.5"/><path d="M21 90h84a3 3 0 0 1 0 6H21a3 3 0 0 1 0-6zm17.802 12h48.396a3 3 0 0 1 0 6H38.802a3 3 0 0 1 0-6z" fill-opacity=".1" fill="#0E141A" mask="url(#k)"/><path fill-opacity=".6" fill="#0E141A" mask="url(#k)" d="M0 0h127v60H0z"/><g mask="url(#k)"><g transform="translate(45 42)"><rect fill="#00D46A" width="36" height="36" rx="18"/><rect fill-opacity=".5" fill="#0E141A" x="6" y="6" width="24" height="24" rx="12"/><path d="M18 12a4.999 4.999 0 0 1 4.438 7.3l-2.625 5.563H19.8c-.312.675-1 1.137-1.8 1.137s-1.487-.462-1.8-1.137h-.012L13.563 19.3A4.999 4.999 0 0 1 18 12zm0 7c1.1 0 2-.9 2-2s-.9-2-2-2-2 .9-2 2 .9 2 2 2z" fill="#FFF"/></g></g></g><g transform="translate(156 318)"><mask id="m" fill="#fff"><use xlink:href="#l"/></mask><use fill="#FFF" xlink:href="#l"/><rect fill-opacity=".1" fill="#0E141A" mask="url(#m)" x="30" y="243" width="67" height="3" rx="1.5"/><rect fill-opacity=".1" fill="#0E141A" mask="url(#m)" x="36" y="234" width="55" height="3" rx="1.5"/><rect fill-opacity=".1" fill="#0E141A" mask="url(#m)" x="24" y="225" width="79" height="3" rx="1.5"/><rect fill-opacity=".1" fill="#0E141A" mask="url(#m)" x="18" y="216" width="91" height="3" rx="1.5"/><rect fill-opacity=".1" fill="#0E141A" mask="url(#m)" x="24" y="207" width="79" height="3" rx="1.5"/><rect fill-opacity=".1" fill="#0E141A" mask="url(#m)" x="30" y="198" width="67" height="3" rx="1.5"/><rect fill-opacity=".1" fill="#0E141A" mask="url(#m)" x="18" y="189" width="91" height="3" rx="1.5"/><rect fill-opacity=".1" fill="#0E141A" mask="url(#m)" x="12" y="180" width="103" height="3" rx="1.5"/><rect fill-opacity=".1" fill="#0E141A" mask="url(#m)" x="31" y="158" width="66" height="3" rx="1.5"/><path d="M21 126h85a3 3 0 0 1 0 6H21a3 3 0 0 1 0-6zm18 12h49a3 3 0 0 1 0 6H39a3 3 0 0 1 0-6z" fill-opacity=".1" fill="#0E141A" mask="url(#m)"/><path fill-opacity=".6" fill="#0E141A" mask="url(#m)" d="M0 0h127v96H0z"/><g mask="url(#m)"><g transform="translate(46 78)"><rect fill="#00D46A" width="36" height="36" rx="18"/><rect fill-opacity=".5" fill="#0E141A" x="6" y="6" width="24" height="24" rx="12"/><path d="M21 14h1c1.1 0 2 .9 2 2v5c0 1.1-.9 2-2 2h-8c-1.1 0-2-.9-2-2v-5c0-1.1.9-2 2-2h1c0-1.1.9-2 2-2h2c1.1 0 2 .9 2 2zm-3 7c1.663 0 3-1.337 3-3 0-1.662-1.337-3-3-3-1.662 0-3 1.338-3 3 0 1.663 1.338 3 3 3zm0-1c-1.1 0-2-.9-2-2s.9-2 2-2 2 .9 2 2-.9 2-2 2z" fill="#FFF"/></g></g></g><g transform="translate(644 90)"><mask id="o" fill="#fff"><use xlink:href="#n"/></mask><use fill="#FFF" xlink:href="#n"/><rect fill-opacity=".1" fill="#0E141A" mask="url(#o)" x="24" y="225" width="79" height="3" rx="1.5"/><rect fill-opacity=".1" fill="#0E141A" mask="url(#o)" x="30" y="216" width="67" height="3" rx="1.5"/><rect fill-opacity=".1" fill="#0E141A" mask="url(#o)" x="18" y="207" width="91" height="3" rx="1.5"/><rect fill-opacity=".1" fill="#0E141A" mask="url(#o)" x="12" y="198" width="103" height="3" rx="1.5"/><rect fill-opacity=".1" fill="#0E141A" mask="url(#o)" x="31" y="176" width="66" height="3" rx="1.5"/><path d="M21 144h85a3 3 0 0 1 0 6H21a3 3 0 0 1 0-6zm18 12h49a3 3 0 0 1 0 6H39a3 3 0 0 1 0-6z" fill-opacity=".1" fill="#0E141A" mask="url(#o)"/><path fill-opacity=".6" fill="#0E141A" mask="url(#o)" d="M0 0h127v114H0z"/><g mask="url(#o)"><g transform="translate(46 96)"><rect fill="#00D46A" width="36" height="36" rx="18"/><rect fill-opacity=".5" fill="#0E141A" x="6" y="6" width="24" height="24" rx="12"/><path d="M18 11a4.999 4.999 0 0 1 4.438 7.3l-2.625 5.563H19.8c-.312.675-1 1.137-1.8 1.137s-1.487-.462-1.8-1.137h-.012L13.563 18.3A4.999 4.999 0 0 1 18 11zm0 7c1.1 0 2-.9 2-2s-.9-2-2-2-2 .9-2 2 .9 2 2 2z" fill="#FFF"/></g></g></g><g transform="translate(481 90)"><mask id="q" fill="#fff"><use xlink:href="#p"/></mask><use fill="#FFF" xlink:href="#p"/><rect fill-opacity=".1" fill="#0E141A" mask="url(#q)" x="30" y="285" width="67" height="3" rx="1.5"/><rect fill-opacity=".1" fill="#0E141A" mask="url(#q)" x="36" y="276" width="55" height="3" rx="1.5"/><rect fill-opacity=".1" fill="#0E141A" mask="url(#q)" x="24" y="267" width="79" height="3" rx="1.5"/><rect fill-opacity=".1" fill="#0E141A" mask="url(#q)" x="18" y="258" width="91" height="3" rx="1.5"/><rect fill-opacity=".1" fill="#0E141A" mask="url(#q)" x="24" y="249" width="79" height="3" rx="1.5"/><rect fill-opacity=".1" fill="#0E141A" mask="url(#q)" x="30" y="240" width="67" height="3" rx="1.5"/><rect fill-opacity=".1" fill="#0E141A" mask="url(#q)" x="18" y="231" width="91" height="3" rx="1.5"/><rect fill-opacity=".1" fill="#0E141A" mask="url(#q)" x="12" y="222" width="103" height="3" rx="1.5"/><rect fill-opacity=".1" fill="#0E141A" mask="url(#q)" x="31" y="200" width="66" height="3" rx="1.5"/><path d="M21 168h85a3 3 0 0 1 0 6H21a3 3 0 0 1 0-6zm18 12h49a3 3 0 0 1 0 6H39a3 3 0 0 1 0-6z" fill-opacity=".1" fill="#0E141A" mask="url(#q)"/><path fill-opacity=".6" fill="#0E141A" mask="url(#q)" d="M0 0h127v138H0z"/><g mask="url(#q)"><g transform="translate(46 120)"><rect fill="#00D46A" width="36" height="36" rx="18"/><rect fill-opacity=".5" fill="#0E141A" x="6" y="6" width="24" height="24" rx="12"/><path d="M21 14h1c1.1 0 2 .9 2 2v5c0 1.1-.9 2-2 2h-8c-1.1 0-2-.9-2-2v-5c0-1.1.9-2 2-2h1c0-1.1.9-2 2-2h2c1.1 0 2 .9 2 2zm-3 7c1.663 0 3-1.337 3-3 0-1.662-1.337-3-3-3-1.662 0-3 1.338-3 3 0 1.663 1.338 3 3 3zm0-1c-1.1 0-2-.9-2-2s.9-2 2-2 2 .9 2 2-.9 2-2 2z" fill="#FFF"/></g></g></g><g transform="translate(319 90)"><mask id="s" fill="#fff"><use xlink:href="#r"/></mask><use fill="#FFF" xlink:href="#r"/><rect fill-opacity=".1" fill="#0E141A" mask="url(#s)" x="30" y="255" width="66" height="3" rx="1.5"/><rect fill-opacity=".1" fill="#0E141A" mask="url(#s)" x="18" y="246" width="90" height="3" rx="1.5"/><rect fill-opacity=".1" fill="#0E141A" mask="url(#s)" x="30" y="237" width="66" height="3" rx="1.5"/><rect fill-opacity=".1" fill="#0E141A" mask="url(#s)" x="36" y="228" width="54" height="3" rx="1.5"/><rect fill-opacity=".1" fill="#0E141A" mask="url(#s)" x="24" y="219" width="78" height="3" rx="1.5"/><rect fill-opacity=".1" fill="#0E141A" mask="url(#s)" x="18" y="210" width="90" height="3" rx="1.5"/><rect fill-opacity=".1" fill="#0E141A" mask="url(#s)" x="24" y="201" width="78" height="3" rx="1.5"/><rect fill-opacity=".1" fill="#0E141A" mask="url(#s)" x="30" y="192" width="66" height="3" rx="1.5"/><rect fill-opacity=".1" fill="#0E141A" mask="url(#s)" x="18" y="183" width="90" height="3" rx="1.5"/><rect fill-opacity=".1" fill="#0E141A" mask="url(#s)" x="12" y="174" width="102" height="3" rx="1.5"/><rect fill-opacity=".1" fill="#0E141A" mask="url(#s)" x="31" y="152" width="65" height="3" rx="1.5"/><path d="M21 120h84a3 3 0 0 1 0 6H21a3 3 0 0 1 0-6zm17.802 12h48.396a3 3 0 0 1 0 6H38.802a3 3 0 0 1 0-6z" fill-opacity=".1" fill="#0E141A" mask="url(#s)"/><path fill-opacity=".6" fill="#0E141A" mask="url(#s)" d="M0 0h126v90H0z"/><g mask="url(#s)"><g transform="translate(45 72)"><rect fill="#00D46A" width="36" height="36" rx="18"/><rect fill-opacity=".5" fill="#0E141A" x="6" y="6" width="24" height="24" rx="12"/><path d="M14.613 14a37.28 37.28 0 0 0-.713-1.425v-.025A1.028 1.028 0 0 0 13 12h-1c-.55 0-1 .45-1 1s.45 1 1 1h.388c.237.475.325.663.675 1.35.45 1.838.487 1.988.962 3.888.113.437.5.762.975.762h7c.475 0 .863-.325.975-.762l.988-3.975A.952.952 0 0 0 24 15c0-.55-.45-1-1-1h-8.387zM17 22.5c0-.825-.675-1.5-1.5-1.5s-1.5.675-1.5 1.5.675 1.5 1.5 1.5 1.5-.675 1.5-1.5zm4.5-1.5c-.825 0-1.5.675-1.5 1.5s.675 1.5 1.5 1.5 1.5-.675 1.5-1.5-.675-1.5-1.5-1.5z" fill="#FFF"/></g></g></g><g transform="translate(156 90)"><mask id="u" fill="#fff"><use xlink:href="#t"/></mask><use fill="#FFF" xlink:href="#t"/><rect fill-opacity=".1" fill="#0E141A" mask="url(#u)" x="24" y="177" width="79" height="3" rx="1.5"/><rect fill-opacity=".1" fill="#0E141A" mask="url(#u)" x="30" y="168" width="67" height="3" rx="1.5"/><rect fill-opacity=".1" fill="#0E141A" mask="url(#u)" x="18" y="159" width="91" height="3" rx="1.5"/><rect fill-opacity=".1" fill="#0E141A" mask="url(#u)" x="12" y="150" width="103" height="3" rx="1.5"/><rect fill-opacity=".1" fill="#0E141A" mask="url(#u)" x="31" y="128" width="66" height="3" rx="1.5"/><path d="M21 96h85a3 3 0 0 1 0 6H21a3 3 0 0 1 0-6zm18 12h49a3 3 0 0 1 0 6H39a3 3 0 0 1 0-6z" fill-opacity=".1" fill="#0E141A" mask="url(#u)"/><path fill-opacity=".6" fill="#0E141A" mask="url(#u)" d="M0 0h127v66H0z"/><g mask="url(#u)"><g transform="translate(46 48)"><rect fill="#00D46A" width="36" height="36" rx="18"/><rect fill-opacity=".5" fill="#0E141A" x="6" y="6" width="24" height="24" rx="12"/><path d="M15 14.5c0-.2-.112-.362-.275-.45h-.012l-1.988-1a.501.501 0 0 0-.725.45v8c0 .2.113.363.275.45h.013l1.987 1A.501.501 0 0 0 15 22.5v-8zm4.5-1.5a.732.732 0 0 0-.162.025c-.938.313-2.038.688-2.988 1h-.012A.488.488 0 0 0 16 14.5v8a.501.501 0 0 0 .663.475c.937-.312 2.037-.687 2.987-1h.013c.2-.062.337-.25.337-.475v-8c0-.275-.225-.5-.5-.5zm4.225 1.05h-.012l-1.988-1a.501.501 0 0 0-.725.45v8c0 .2.113.363.275.45h.013l1.987 1A.501.501 0 0 0 24 22.5v-8c0-.2-.112-.362-.275-.45z" fill="#FFF"/></g></g></g></g><g mask="url(#e)"><g transform="translate(24 111)"><rect fill-opacity=".1" fill="#0E141A" x="9" y="129" width="48" height="6" rx="3"/><rect fill-opacity=".1" fill="#0E141A" x="9" y="111" width="38" height="6" rx="3"/><rect fill-opacity=".1" fill="#0E141A" x="9" y="93" width="31" height="6" rx="3"/><rect fill-opacity=".1" fill="#0E141A" x="9" y="75" width="62" height="6" rx="3"/><rect fill-opacity=".1" fill="#0E141A" x="9" y="57" width="75" height="6" rx="3"/><rect fill-opacity=".1" fill="#0E141A" x="9" y="39" width="50" height="6" rx="3"/><rect fill-opacity=".1" fill="#0E141A" x="9" y="21" width="40" height="6" rx="3"/><rect fill-opacity=".4" fill="#00D46A" x="9" y="3" width="60" height="6" rx="3"/><path fill="#00D46A" d="M0 0h3v12H0z"/></g></g><g mask="url(#e)"><path fill="#00D46A" d="M0 0h794v66H0z"/><path d="M769.713 34.288c.175.187.287.437.287.712 0 .55-.45 1-1 1-.275 0-.525-.112-.712-.287-.9-.913-1.7-1.713-2.525-2.538A4.99 4.99 0 0 1 763 34c-2.762 0-5-2.237-5-5a5 5 0 0 1 5-5c2.763 0 5 2.238 5 5a4.99 4.99 0 0 1-.825 2.763c.825.825 1.625 1.625 2.538 2.525zM763 32c1.663 0 3-1.337 3-3 0-1.662-1.337-3-3-3-1.662 0-3 1.338-3 3 0 1.663 1.338 3 3 3z" fill="#FFF"/><rect fill-opacity=".4" fill="#FFF" x="734" y="24" width="12" height="12" rx="6"/><rect fill-opacity=".4" fill="#FFF" x="716" y="24" width="12" height="12" rx="6"/><rect fill-opacity=".4" fill="#FFF" x="698" y="24" width="12" height="12" rx="6"/><rect fill-opacity=".4" fill="#FFF" x="337" y="36" width="120" height="6" rx="3"/><rect fill-opacity=".4" fill="#FFF" x="307" y="24" width="180" height="6" rx="3"/><rect fill-opacity=".6" fill="#FFF" x="42" y="29" width="30" height="3" rx="1.5"/><path d="M24 26c0 .55.45 1 1 1h10c.55 0 1-.45 1-1s-.45-1-1-1H25c-.55 0-1 .45-1 1zm1 3c-.55 0-1 .45-1 1s.45 1 1 1h10c.55 0 1-.45 1-1s-.45-1-1-1H25zm0 4c-.55 0-1 .45-1 1s.45 1 1 1h10c.55 0 1-.45 1-1s-.45-1-1-1H25z" fill="#FFF"/></g></g><rect stroke-opacity=".06" stroke="#0E141A" stroke-width="2" x="183" y="70" width="792" height="496" rx="4"/><g stroke="#0E141A"><path stroke-opacity=".04" stroke-width="2" d="M173 28c-14.36 0-26 11.64-26 26v561c0 6.075 4.925 11 11 11h842c6.075 0 11-4.925 11-11V54c0-14.36-11.64-26-26-26H173z"/><path stroke-opacity=".02" stroke-width="4" d="M173 29c-13.807 0-25 11.193-25 25v561c0 5.523 4.477 10 10 10h842c5.523 0 10-4.477 10-10V54c0-13.807-11.193-25-25-25H173z"/></g><g transform="translate(42 615)"><use fill="#000" filter="url(#v)" xlink:href="#w"/><use fill="#FFF" xlink:href="#w"/><use fill="#000" filter="url(#x)" xlink:href="#w"/></g><g transform="translate(42 615)"><use fill="#FFF" xlink:href="#y"/><use fill="#000" filter="url(#z)" xlink:href="#y"/></g><g transform="translate(42 615)"><use fill="#000" filter="url(#A)" xlink:href="#B"/><use fill="#FFF" xlink:href="#B"/><use fill="#000" filter="url(#C)" xlink:href="#B"/></g></g></svg>