<?xml version="1.0" encoding="UTF-8"?>
<svg viewBox="0 0 33 33" version="1.1" xmlns="http://www.w3.org/2000/svg" xmlns:xlink="http://www.w3.org/1999/xlink">
    <!-- Generator: Sketch 46.2 (44496) - http://www.bohemiancoding.com/sketch -->
    <title>logo</title>
    <desc>Created with Sketch.</desc>
    <defs></defs>
    <g id="Home" stroke="none" stroke-width="1" fill="none" fill-rule="evenodd">
        <g id="01_landing_page_(home)" transform="translate(-1189.000000, -5624.000000)" fill="#FFFFFF">
            <g id="view_11_(div_2)" transform="translate(720.000000, 4968.000000)">
                <g id="demo" transform="translate(154.000000, 54.000000)">
                    <g id="buttons_social" transform="translate(42.000000, 588.000000)">
                        <g id="button_3" transform="translate(236.000000, 0.000000)">
                            <path d="M53.5000663,14 C44.3885,14 37,21.3872146 37,30.5000663 C37,37.7903476 41.7277585,43.9752454 48.2837854,46.1570452 C49.1083739,46.3097399 49.4111926,45.7991011 49.4111926,45.3632659 C49.4111926,44.9698613 49.3957813,43.669962 49.3887979,42.2912571 C44.7983361,43.2893847 43.8297192,40.3444559 43.8297192,40.3444559 C43.0791657,38.4372627 41.9977007,37.9302416 41.9977007,37.9302416 C40.500728,36.906115 42.1105488,36.9270785 42.1105488,36.9270785 C43.7674779,37.0435442 44.6399433,38.6274851 44.6399433,38.6274851 C46.1115663,41.1500155 48.4999008,40.4206773 49.4414718,39.9992065 C49.5895153,38.9326228 50.017201,38.2048482 50.4890135,37.7928123 C46.8242079,37.3754759 42.9714989,35.9606613 42.9714989,29.6383476 C42.9714989,27.8369926 43.6160685,26.3649853 44.6716537,25.2095119 C44.5003144,24.7938584 43.9355838,23.1157007 44.8314644,20.8429175 C44.8314644,20.8429175 46.2170334,20.3994495 49.3701666,22.5342735 C50.6862325,22.1685774 52.0978139,21.9853252 53.5000663,21.9791236 C54.9023187,21.9853252 56.3149336,22.1685774 57.6335968,22.5342735 C60.7829799,20.3994495 62.1666009,20.8429175 62.1666009,20.8429175 C63.0646812,23.1157007 62.4996856,24.7938584 62.3283595,25.2095119 C63.3862637,26.3649853 64.0264339,27.8368601 64.0264339,29.6383476 C64.0264339,35.975675 60.1664765,37.3711958 56.4923552,37.779614 C57.0841317,38.2916707 57.6114671,39.2958806 57.6114671,40.8351779 C57.6114671,43.0428575 57.5923057,44.8197506 57.5923057,45.3632659 C57.5923057,45.8023344 57.8892938,46.3168691 58.725782,46.1548454 C65.2781913,43.9705809 70,37.7878961 70,30.5000663 C70,21.3872146 62.6125336,14 53.5000663,14" id="logo"></path>
                        </g>
                    </g>
                </g>
            </g>
        </g>
    </g>
</svg>
