<?xml version="1.0" encoding="UTF-8"?>
<svg viewBox="0 0 33 33" version="1.1" xmlns="http://www.w3.org/2000/svg" xmlns:xlink="http://www.w3.org/1999/xlink">
    <!-- Generator: Sketch 46.2 (44496) - http://www.bohemiancoding.com/sketch -->
    <title>logo</title>
    <desc>Created with Sketch.</desc>
    <defs></defs>
    <g id="Home" stroke="none" stroke-width="1" fill="none" fill-rule="evenodd">
        <g id="01_landing_page_(home)" transform="translate(-1070.000000, -5624.000000)" fill="#FFFFFF">
            <g id="view_11_(div_2)" transform="translate(720.000000, 4968.000000)">
                <g id="demo" transform="translate(154.000000, 54.000000)">
                    <g id="buttons_social" transform="translate(42.000000, 588.000000)">
                        <g id="button_2" transform="translate(118.000000, 0.000000)">
                            <path d="M57.5972328,30.3639608 L54.459606,30.3639608 L54.459606,41.9353052 L49.7058636,41.9353052 L49.7058636,30.4398212 L47.1188748,30.4398212 L47.1188748,26.4467024 L49.628208,26.4467024 C49.628208,25.2658832 49.6387944,24.2166548 49.628208,23.1211076 C49.628208,19.9769204 52.0408512,19.0646288 54.2099412,19.0646288 L57.8651004,19.0646288 L57.8668956,19.0646288 L57.8668956,23.0091056 C57.5598108,23.0109008 56.363574,23.0091056 55.7483484,23.0091056 C55.670574,23.0091056 54.3777,22.9379576 54.3777,24.1804736 C54.3855276,24.6879608 54.3777,26.4355088 54.3777,26.4355088 L57.8811252,26.4355088 L57.5972328,30.3639608 Z M52.5,14 C43.3873008,14 36,21.3873008 36,30.5 C36,39.612686 43.3873008,47 52.5,47 C61.612686,47 69,39.612686 69,30.5 C69,21.3873008 61.612686,14 52.5,14 L52.5,14 Z" id="logo"></path>
                        </g>
                    </g>
                </g>
            </g>
        </g>
    </g>
</svg>
