<?xml version="1.0" encoding="UTF-8"?>
<svg viewBox="0 0 30 31" version="1.1" xmlns="http://www.w3.org/2000/svg" xmlns:xlink="http://www.w3.org/1999/xlink">
    <!-- Generator: Sketch 46.2 (44496) - http://www.bohemiancoding.com/sketch -->
    <title>logo</title>
    <desc>Created with Sketch.</desc>
    <defs></defs>
    <g id="Home" stroke="none" stroke-width="1" fill="none" fill-rule="evenodd">
        <g id="01_landing_page_(home)" transform="translate(-954.000000, -5625.000000)" fill="#FFFFFF">
            <g id="view_11_(div_2)" transform="translate(720.000000, 4968.000000)">
                <g id="demo" transform="translate(154.000000, 54.000000)">
                    <g id="buttons_social" transform="translate(42.000000, 588.000000)">
                        <g id="button_1">
                            <path d="M68,30.3518124 C68,40.1066098 61.0277186,45.7036247 53.3518124,45.7036247 C44.8443497,45.7036247 38,38.8592751 38,30.3518124 C38,21.8443497 44.8443497,15 53.3518124,15 C57.2537313,15 60.7398721,16.4712154 63.4584222,18.8379531 L59.0127932,23.315565 C57.4776119,22.0362473 55.5266525,21.2686567 53.3518124,21.2686567 C48.3304904,21.2686567 44.2686567,25.3304904 44.2686567,30.3518124 C44.2686567,35.3731343 48.3304904,39.434968 53.3518124,39.434968 C57.6055437,39.434968 60.803838,37.2601279 61.5714286,33.4861407 L53.3518124,33.4861407 L53.3518124,27.5692964 L67.6481876,27.5692964 C67.8720682,28.4648188 68,29.45629 68,30.3518124 Z" id="logo"></path>
                        </g>
                    </g>
                </g>
            </g>
        </g>
    </g>
</svg>
