<svg viewBox="0 0 24 24" xmlns="http://www.w3.org/2000/svg"><path d="M11.633 8.59c.541 0 1.545-.743 2.851-.743 2.25 0 3.134 1.6 3.134 1.6s-1.73.885-1.73 3.032c0 2.421 2.155 3.256 2.155 3.256s-1.507 4.24-3.542 4.24c-.935 0-1.661-.63-2.646-.63-1.004 0-2 .654-2.649.654C7.348 20 5 15.976 5 12.743 5 9.56 6.987 7.892 8.851 7.892c1.212 0 2.153.699 2.782.699zm.564-3.198C13.247 4.007 14.709 4 14.709 4s.218 1.303-.827 2.558c-1.115 1.34-2.382 1.12-2.382 1.12s-.238-1.054.697-2.286z" fill="#FFF" fill-rule="evenodd"/></svg>
