<svg viewBox="0 0 24 24" xmlns="http://www.w3.org/2000/svg"><g fill="none" fill-rule="evenodd"><path d="M8.845 5.487A4.98 4.98 0 0 1 11 5h2c.668 0 1.306.131 1.889.369l.69-1.9a.5.5 0 0 1 .94.342l-.739 2.033A4.995 4.995 0 0 1 18 10H6c0-1.624.775-3.068 1.974-3.981l-.803-2.207a.5.5 0 0 1 .94-.342l.734 2.017zM10 18v2a1 1 0 0 1-2 0v-2.17A3.001 3.001 0 0 1 6 15v-4h12v4a3.001 3.001 0 0 1-2 2.83V20a1 1 0 0 1-2 0v-2h-4zm-6-8a1 1 0 0 1 1 1v4a1 1 0 0 1-2 0v-4a1 1 0 0 1 1-1zm16 0a1 1 0 0 1 1 1v4a1 1 0 0 1-2 0v-4a1 1 0 0 1 1-1zm-6-3a1 1 0 1 0 0 2 1 1 0 0 0 0-2zm-4 0a1 1 0 1 0 0 2 1 1 0 0 0 0-2z" fill="#FFF"/></g></svg>
