<svg viewBox="0 0 42 42" xmlns="http://www.w3.org/2000/svg">
  <g fill="none" fill-rule="evenodd">
    <circle fill="#9552EF" cx="21" cy="21" r="21"/>
    <path d="M35 21c0 6.419-4.32 11.829-10.21 13.481v-9.29h3.537l.53-4.107h-4.068v-2.623c0-1.189.33-2 2.036-2H29v-3.674c-.376-.05-1.667-.162-3.17-.162-3.136 0-5.283 1.914-5.283 5.43v3.03H17v4.107h3.547v9.8C13.025 34.754 7 28.58 7 21c0-7.732 6.268-14 14-14s14 6.268 14 14" fill-opacity=".5" fill="#0E141A"/>
    <path d="M26.825 16.462L29 16.46v-3.674c-.376-.05-1.667-.162-3.17-.162-3.136 0-5.283 1.914-5.283 5.43v3.03H17v4.107h3.547v9.8L21 35c1.313 0 2.584-.182 3.79-.52v-9.288h3.537l.53-4.108h-4.068v-2.623c0-1.189.33-2 2.036-2" fill="#FFF"/>
  </g>
</svg>
