<svg viewBox="0 0 42 42" xmlns="http://www.w3.org/2000/svg">
  <g fill="none" fill-rule="evenodd">
    <circle fill="#FFB700" cx="21" cy="21" r="21"/>
    <path d="M32.425 28.575c.35.375.575.875.575 1.425 0 1.1-.9 2-2 2a2.09 2.09 0 0 1-1.425-.575 998.02 998.02 0 0 0-5.05-5.075A9.976 9.976 0 0 1 19 28c-5.525 0-10-4.475-10-10S13.475 8 19 8s10 4.475 10 10c0 2.05-.6 3.925-1.65 5.525 1.65 1.65 3.25 3.25 5.075 5.05zM19 24c3.325 0 6-2.675 6-6s-2.675-6-6-6-6 2.675-6 6 2.675 6 6 6z" fill="#FFF"/>
    <path d="M19 24c3.325 0 6-2.675 6-6s-2.675-6-6-6-6 2.675-6 6 2.675 6 6 6z" fill-opacity=".3" fill="#0E141A"/>
  </g>
</svg>
