<?xml version="1.0" encoding="UTF-8"?>
<svg width="24px" height="24px" viewBox="0 0 24 24" version="1.1" xmlns="http://www.w3.org/2000/svg" xmlns:xlink="http://www.w3.org/1999/xlink">
    <!-- Generator: Sketch 46.2 (44496) - http://www.bohemiancoding.com/sketch -->
    <title>icon</title>
    <desc>Created with Sketch.</desc>
    <defs></defs>
    <g id="Home" stroke="none" stroke-width="1" fill="none" fill-rule="evenodd">
        <g id="01_landing_page_(home)" transform="translate(-54.000000, -5070.000000)">
            <g id="view_10_(div_1)" transform="translate(48.000000, 5070.000000)">
                <g id="tabs">
                    <g id="tab_1">
                        <g id="icon" transform="translate(6.000000, 0.000000)">
                            <rect id="rectangle" fill-opacity="0.9" fill="#0E141A" x="0" y="0" width="24" height="24" rx="2"></rect>
                            <path d="M13.2857187,18.8144374 L15.1220931,17.7512182 C15.6055587,18.5406838 16.2338787,19.1206294 17.3453763,19.1206294 C18.2799651,19.1206294 18.8758467,18.6533782 18.8758467,18.0089398 C18.8758467,17.2356886 18.2636547,16.9617526 17.2325955,16.5108118 L16.6688739,16.2689398 C15.0416547,15.5764054 13.9623171,14.7064054 13.9623171,12.869839 C13.9623171,11.178223 15.2510979,9.88934624 17.2649379,9.88934624 C18.6987459,9.88934624 19.7298147,10.3888438 20.4708099,11.6937526 L18.7146915,12.8215606 C18.3279651,12.1288438 17.9092803,11.8550038 17.2648419,11.8550038 C16.6042851,11.8550038 16.1854083,12.273871 16.1854083,12.8215606 C16.1854083,13.498159 16.6042851,13.772191 17.5708419,14.1910582 L18.1346595,14.4326518 C20.0518467,15.2543734 21.1311843,16.092031 21.1311843,17.9767798 C21.1311843,20.0068438 19.5363171,21.1183414 17.3936547,21.1183414 C15.2993763,21.1183414 13.9460931,20.1195286 13.2856227,18.8145334 M5.31049952,19.056127 L7.14706592,17.9446294 C7.50144032,18.5728438 7.82375072,19.1044054 8.59690592,19.1044054 C9.33799712,19.1044054 9.80534432,18.8145334 9.80534432,17.6869078 L9.80534432,10.0183414 L12.0606915,10.0183414 L12.0606915,17.7187798 C12.0606915,20.0547478 10.6913763,21.118063 8.69355872,21.118063 C6.88934432,21.118063 5.84206112,20.1836566 5.31040352,19.055935" id="js" fill="#FFFFFF"></path>
                        </g>
                    </g>
                </g>
            </g>
        </g>
    </g>
</svg>