<svg viewBox="0 0 490 778" xmlns="http://www.w3.org/2000/svg" xmlns:xlink="http://www.w3.org/1999/xlink"><title>illustration_(phone)</title><defs><path d="M68 28h324c13.255 0 24 10.745 24 24v612c0 13.255-10.745 24-24 24H68c-13.255 0-24-10.745-24-24V52c0-13.255 10.745-24 24-24z" id="b"/><filter x="-20.7%" y="-9.2%" width="149.5%" height="127.9%" filterUnits="objectBoundingBox" id="a"><feOffset dx="12" dy="24" in="SourceAlpha" result="shadowOffsetOuter1"/><feGaussianBlur stdDeviation="21" in="shadowOffsetOuter1" result="shadowBlurOuter1"/><feColorMatrix values="0 0 0 0 0.0549019608 0 0 0 0 0.0784313725 0 0 0 0 0.101960784 0 0 0 0.18 0" in="shadowBlurOuter1" result="shadowMatrixOuter1"/><feOffset dx="3" dy="3" in="SourceAlpha" result="shadowOffsetOuter2"/><feGaussianBlur stdDeviation="3" in="shadowOffsetOuter2" result="shadowBlurOuter2"/><feColorMatrix values="0 0 0 0 0.0549019608 0 0 0 0 0.0784313725 0 0 0 0 0.101960784 0 0 0 0.06 0" in="shadowBlurOuter2" result="shadowMatrixOuter2"/><feOffset dy="1" in="SourceAlpha" result="shadowOffsetOuter3"/><feGaussianBlur stdDeviation="1" in="shadowOffsetOuter3" result="shadowBlurOuter3"/><feColorMatrix values="0 0 0 0 0 0 0 0 0 0 0 0 0 0 0 0 0 0 0.04 0" in="shadowBlurOuter3" result="shadowMatrixOuter3"/><feOffset dy="3" in="SourceAlpha" result="shadowOffsetOuter4"/><feGaussianBlur stdDeviation="4.5" in="shadowOffsetOuter4" result="shadowBlurOuter4"/><feColorMatrix values="0 0 0 0 1 0 0 0 0 1 0 0 0 0 1 0 0 0 0.1 0" in="shadowBlurOuter4" result="shadowMatrixOuter4"/><feMerge><feMergeNode in="shadowMatrixOuter1"/><feMergeNode in="shadowMatrixOuter2"/><feMergeNode in="shadowMatrixOuter3"/><feMergeNode in="shadowMatrixOuter4"/></feMerge></filter><filter x="-13.4%" y="-5.2%" width="134.9%" height="119.7%" filterUnits="objectBoundingBox" id="c"><feGaussianBlur stdDeviation="4.5" in="SourceAlpha" result="shadowBlurInner1"/><feOffset dy="-3" in="shadowBlurInner1" result="shadowOffsetInner1"/><feComposite in="shadowOffsetInner1" in2="SourceAlpha" operator="arithmetic" k2="-1" k3="1" result="shadowInnerInner1"/><feColorMatrix values="0 0 0 0 0.0549019608 0 0 0 0 0.0784313725 0 0 0 0 0.101960784 0 0 0 0.200000003 0" in="shadowInnerInner1" result="shadowMatrixInner1"/><feGaussianBlur stdDeviation=".5" in="SourceAlpha" result="shadowBlurInner2"/><feOffset dy="1" in="shadowBlurInner2" result="shadowOffsetInner2"/><feComposite in="shadowOffsetInner2" in2="SourceAlpha" operator="arithmetic" k2="-1" k3="1" result="shadowInnerInner2"/><feColorMatrix values="0 0 0 0 0 0 0 0 0 0 0 0 0 0 0 0 0 0 0.1 0" in="shadowInnerInner2" result="shadowMatrixInner2"/><feMerge><feMergeNode in="shadowMatrixInner1"/><feMergeNode in="shadowMatrixInner2"/></feMerge></filter><rect id="d" width="24" height="24" rx="12"/><rect id="e" width="24" height="24" rx="12"/></defs><g fill="none" fill-rule="evenodd"><use fill="#000" filter="url(#a)" xlink:href="#b"/><use fill="#FFF" xlink:href="#b"/><use fill="#000" filter="url(#c)" xlink:href="#b"/><path d="M68 28h324c13.255 0 24 10.745 24 24v612c0 13.255-10.745 24-24 24H68c-13.255 0-24-10.745-24-24V52c0-13.255 10.745-24 24-24z" fill-opacity=".02" fill="#00A4FF"/><g transform="translate(62 88)"><rect fill="#FFF" width="336" height="492" rx="4"/><path d="M0 450h336v38a4 4 0 0 1-4 4H4a4 4 0 0 1-4-4v-38z" fill-opacity=".04" fill="#0E141A"/><path fill="#00D46A" d="M19 489h30v3H19z"/><path d="M302 471a3.99 3.99 0 0 1-4-4c0-2.217 1.783-4 4-4s4 1.783 4 4-1.783 4-4 4zm6 6c0 1.1-.9 2-2 2h-8c-1.1 0-2-.9-2-2 0-2.767 2.233-5 5-5h2c2.767 0 5 2.233 5 5zm-80-14h13c1.1 0 2 .9 2 2v13c0 .55-.45 1-1 1a.93.93 0 0 1-.6-.2L239 477h-11c-1.1 0-2-.9-2-2v-10c0-1.1.9-2 2-2zm11 4h-9c-.55 0-1 .45-1 1s.45 1 1 1h9c.55 0 1-.45 1-1s-.45-1-1-1zm-9 6h4c.55 0 1-.45 1-1s-.45-1-1-1h-4c-.55 0-1 .45-1 1s.45 1 1 1zm-63-6.5a3.5 3.5 0 1 0-7 0 3.5 3.5 0 0 0 7 0zm5.5-3.5a3.5 3.5 0 1 0 0 7 3.5 3.5 0 0 0 0-7zm-9 9a3.5 3.5 0 1 0 0 7 3.5 3.5 0 0 0 0-7zm9 0a3.5 3.5 0 1 0 0 7 3.5 3.5 0 0 0 0-7zm-78-8c.833 0 1.5.667 1.5 1.5s-.667 1.5-1.5 1.5-1.5-.667-1.5-1.5.667-1.5 1.5-1.5zm3.5 1.5c0-.833.667-1.5 1.5-1.5h8c.833 0 1.5.667 1.5 1.5s-.667 1.5-1.5 1.5h-8c-.833 0-1.5-.667-1.5-1.5zm-3.5 3.5c.833 0 1.5.667 1.5 1.5s-.667 1.5-1.5 1.5-1.5-.667-1.5-1.5.667-1.5 1.5-1.5zm14.5 1.5c0 .833-.667 1.5-1.5 1.5h-8c-.833 0-1.5-.667-1.5-1.5s.667-1.5 1.5-1.5h8c.833 0 1.5.667 1.5 1.5zM94.5 474c.833 0 1.5.667 1.5 1.5s-.667 1.5-1.5 1.5-1.5-.667-1.5-1.5.667-1.5 1.5-1.5zm14.5 1.5c0 .833-.667 1.5-1.5 1.5h-8c-.833 0-1.5-.667-1.5-1.5s.667-1.5 1.5-1.5h8c.833 0 1.5.667 1.5 1.5z" fill-opacity=".16" fill="#0E141A"/><path d="M41 476c0 1.1-.9 2-2 2h-3v-5h-4v5h-3c-1.1 0-2-.9-2-2v-7c0-.633.3-1.2.75-1.567l5-4c.35-.266.783-.433 1.25-.433.467 0 .9.167 1.25.433l5 4c.45.367.75.934.75 1.567v7z" fill="#00D46A"/><path fill-opacity=".06" fill="#0E141A" d="M25 168h4v282h-4z"/><g transform="translate(29 348)"><path d="M185 84h85a3 3 0 0 1 0 6h-85a3 3 0 0 1 0-6zm0-18h95a3 3 0 0 1 0 6h-95a3 3 0 0 1 0-6zm0-18h71a3 3 0 0 1 0 6h-71a3 3 0 0 1 0-6zm0-18h101a3 3 0 0 1 0 6H185a3 3 0 0 1 0-6zm-26 36a3 3 0 1 1 0 6 3 3 0 0 1 0-6zm0-36a3 3 0 1 1-3 3 3 3 0 0 1 3-3z" fill-opacity=".06" fill="#0E141A"/><rect fill-opacity=".08" fill="#0E141A" x="145" y="6" width="77" height="12" rx="6"/><rect fill-opacity=".08" fill="#0E141A" x="39" y="66" width="59" height="6" rx="3"/><rect fill-opacity=".08" fill="#0E141A" x="39" y="54" width="41" height="6" rx="3"/><rect fill-opacity=".08" fill="#0E141A" x="39" y="24" width="88" height="18" rx="9"/><rect fill-opacity=".08" fill="#0E141A" x="39" y="6" width="77" height="6" rx="3"/><g transform="translate(6)"><use fill="#FFF" xlink:href="#d"/><use fill-opacity=".08" fill="#0E141A" xlink:href="#d"/></g><path d="M14 13c-.55 0-1-.45-1-1s.45-1 1-1h8c.55 0 1 .45 1 1s-.45 1-1 1h-8z" fill-opacity=".3" fill="#0E141A"/><path fill-opacity=".06" fill="#0E141A" d="M0 10h6v4H0z"/></g><g transform="translate(29 192)"><rect width="55" height="18" rx="9" transform="translate(195 120)" fill="#0E141A" fill-opacity=".08"/><path d="M185 102h85a3 3 0 0 1 0 6h-85a3 3 0 0 1 0-6zm0-18h85a3 3 0 0 1 0 6h-85a3 3 0 0 1 0-6zm0-18h95a3 3 0 0 1 0 6h-95a3 3 0 0 1 0-6zm0-18h71a3 3 0 0 1 0 6h-71a3 3 0 0 1 0-6zm0-18h101a3 3 0 0 1 0 6H185a3 3 0 0 1 0-6zm-26 72a3 3 0 1 1 0 6 3 3 0 0 1 0-6zm0-36a3 3 0 1 1 0 6 3 3 0 0 1 0-6zm0-36a3 3 0 1 1-3 3 3 3 0 0 1 3-3z" fill-opacity=".06" fill="#0E141A"/><rect fill-opacity=".08" fill="#0E141A" x="145" y="6" width="77" height="12" rx="6"/><rect fill-opacity=".08" fill="#0E141A" x="39" y="66" width="59" height="6" rx="3"/><rect fill-opacity=".08" fill="#0E141A" x="39" y="54" width="41" height="6" rx="3"/><rect fill-opacity=".08" fill="#0E141A" x="39" y="24" width="88" height="18" rx="9"/><rect fill-opacity=".08" fill="#0E141A" x="39" y="6" width="77" height="6" rx="3"/><g transform="translate(6)"><use fill="#FFF" xlink:href="#e"/><use fill-opacity=".08" fill="#0E141A" xlink:href="#e"/></g><path d="M14 13c-.55 0-1-.45-1-1s.45-1 1-1h8c.55 0 1 .45 1 1s-.45 1-1 1h-8z" fill-opacity=".3" fill="#0E141A"/><path fill-opacity=".06" fill="#0E141A" d="M0 10h6v4H0z"/></g><path d="M4 0h328a4 4 0 0 1 4 4v164H0V4a4 4 0 0 1 4-4z" fill="#00D46A"/><path fill="#FFF" d="M12 165h30v3H12z"/><rect fill-opacity=".6" fill="#FFF" x="194" y="144" width="66" height="12" rx="6"/><rect fill-opacity=".6" fill="#FFF" x="129" y="144" width="41" height="12" rx="6"/><rect fill-opacity=".6" fill="#FFF" x="59" y="144" width="46" height="12" rx="6"/><rect fill="#FFF" x="20" y="144" width="15" height="12" rx="6"/><rect fill-opacity=".4" fill="#FFF" x="12" y="90" width="164" height="18" rx="9"/><rect fill-opacity=".3" fill="#FFF" x="12" y="72" width="80" height="6" rx="3"/><g transform="translate(300 15)" fill="#FFF"><rect fill-opacity=".3" width="24" height="24" rx="4"/><path d="M18.213 16.287c.175.188.287.438.287.713 0 .55-.45 1-1 1-.275 0-.525-.112-.712-.287-.9-.913-1.7-1.713-2.525-2.538A4.99 4.99 0 0 1 11.5 16a5 5 0 0 1-5-5c0-2.763 2.238-5 5-5 2.763 0 5 2.237 5 5 0 1.025-.3 1.962-.825 2.762a499.01 499.01 0 0 0 2.538 2.525zM11.5 14c1.663 0 3-1.338 3-3 0-1.663-1.337-3-3-3-1.662 0-3 1.337-3 3 0 1.662 1.338 3 3 3z"/></g><g transform="translate(270 15)" fill="#FFF"><rect fill-opacity=".3" width="24" height="24" rx="4"/><path d="M14 12c0-.55.45-1 1-1 .275 0 .525.112.713.287.087.1.187.188.262.275A3.997 3.997 0 0 0 12 8c-.725 0-1.4.187-1.987.525L10 8.537a1 1 0 0 1-1.362-.362A1.01 1.01 0 0 1 9 6.8a5.979 5.979 0 0 1 3-.8c3.175 0 5.775 2.475 5.988 5.6.087-.088.187-.188.3-.313.187-.175.437-.287.712-.287.55 0 1 .45 1 1 0 .275-.112.525-.287.712l-2 2A1.045 1.045 0 0 1 17 15c-.275 0-.525-.113-.712-.288l-2-2A1.045 1.045 0 0 1 14 12zM4 12c0-.275.113-.525.288-.713l2-2C6.475 9.112 6.725 9 7 9c.275 0 .525.112.713.287l2 2c.175.188.287.438.287.713 0 .55-.45 1-1 1-.275 0-.525-.113-.712-.288-.088-.1-.188-.187-.263-.275A3.997 3.997 0 0 0 12 16c.725 0 1.4-.188 1.988-.525l.012-.013a1 1 0 0 1 1.363.363A1.01 1.01 0 0 1 15 17.2a5.97 5.97 0 0 1-3 .8c-3.175 0-5.775-2.475-5.987-5.6a7.838 7.838 0 0 0-.3.312A1.045 1.045 0 0 1 5 13c-.55 0-1-.45-1-1z"/></g><path d="M135.5 30a.995.995 0 0 1-.65-.238l-3.5-3c-.412-.362-.463-1-.1-1.412a.992.992 0 0 1 1.4-.113l2.85 2.45 2.85-2.45a1.007 1.007 0 0 1 1.413.113.996.996 0 0 1-.113 1.412l-3.5 3a.972.972 0 0 1-.65.238z" fill="#FFF"/><rect fill-opacity=".4" fill="#FFF" x="48" y="24" width="77" height="6" rx="3"/><g transform="translate(12 12)" fill="#FFF"><rect fill-opacity=".3" width="30" height="30" rx="15"/><path d="M12 12c0-1.663 1.338-3 3-3 1.663 0 3 1.337 3 3 0 1.662-1.337 3-3 3-1.662 0-3-1.338-3-3zm5.5 4c1.375 0 2.5 1.125 2.5 2.5v1c0 .825-.675 1.5-1.5 1.5h-7c-.825 0-1.5-.675-1.5-1.5v-1c0-1.375 1.125-2.5 2.5-2.5h5z"/></g></g><rect stroke-opacity=".12" stroke="#0E141A" stroke-width="2" x="63" y="89" width="334" height="490" rx="4"/></g></svg>