<svg viewBox="0 0 60 60" xmlns="http://www.w3.org/2000/svg">
  <g fill="#00A4FF" fill-rule="evenodd">
    <rect fill-opacity=".2" width="60" height="60" rx="30"/>
    <path d="M47 40c0 2.2-1.8 4-4 4H27c-2.2 0-4-1.8-4-4 0-5.533 4.467-10 10-10h4c5.533 0 10 4.467 10 10zM35 28a7.98 7.98 0 0 1-8-8c0-4.433 3.567-8 8-8s8 3.567 8 8-3.567 8-8 8z" fill-opacity=".4"/>
    <path d="M37 43c0 2.2-1.8 4-4 4H17c-2.2 0-4-1.8-4-4 0-5.533 4.467-10 10-10h4c5.533 0 10 4.467 10 10zM25 31a7.98 7.98 0 0 1-8-8c0-4.433 3.567-8 8-8s8 3.567 8 8-3.567 8-8 8z"/>
  </g>
</svg>
