<svg viewBox="0 0 60 60" xmlns="http://www.w3.org/2000/svg" xmlns:xlink="http://www.w3.org/1999/xlink">
  <defs>
    <rect id="a" width="60" height="60" rx="30"/>
  </defs>
  <g fill="none" fill-rule="evenodd">
    <mask id="b" fill="#fff">
      <use xlink:href="#a"/>
    </mask>
    <use fill-opacity=".2" fill="#FFB700" xlink:href="#a"/>
    <g fill="#FFB700" mask="url(#b)">
      <g transform="translate(29 13)">
        <path d="M3.803 3A5.998 5.998 0 0 1 9 0c2.22 0 4.16 1.207 5.197 3H16a2 2 0 0 1 2 2v25a1 1 0 0 1-1 1H0V5a2 2 0 0 1 2-2h1.803zM9 24a2 2 0 0 0-2 2v3h4v-3a2 2 0 0 0-2-2zm-3 5a1 1 0 0 0 0 2h6a1 1 0 0 0 0-2H6zm6.5-13a1.5 1.5 0 0 0-1.5 1.5v2a1.5 1.5 0 0 0 3 0v-2a1.5 1.5 0 0 0-1.5-1.5zm-7 0A1.5 1.5 0 0 0 4 17.5v2a1.5 1.5 0 0 0 3 0v-2A1.5 1.5 0 0 0 5.5 16zm7-9A1.5 1.5 0 0 0 11 8.5v2a1.5 1.5 0 0 0 3 0v-2A1.5 1.5 0 0 0 12.5 7zm-7 0A1.5 1.5 0 0 0 4 8.5v2a1.5 1.5 0 0 0 3 0v-2A1.5 1.5 0 0 0 5.5 7z"/>
        <path d="M9 24a2 2 0 0 1 2 2v3H7v-3a2 2 0 0 1 2-2z" fill-opacity=".4"/>
        <rect fill-opacity=".4" x="11" y="16" width="3" height="5" rx="1.5"/>
        <rect fill-opacity=".4" x="4" y="16" width="3" height="5" rx="1.5"/>
        <rect fill-opacity=".4" x="11" y="7" width="3" height="5" rx="1.5"/>
        <rect fill-opacity=".4" x="4" y="7" width="3" height="5" rx="1.5"/>
      </g>
      <g transform="translate(13 22)">
        <path d="M2 0h14v22H1a1 1 0 0 1-1-1V2a2 2 0 0 1 2-2z" fill-opacity=".5"/>
        <path d="M7 17h2a1 1 0 0 1 1 1v4H6v-4a1 1 0 0 1 1-1z"/>
        <rect x="9" y="10" width="3" height="4" rx="1"/>
        <rect x="4" y="10" width="3" height="4" rx="1"/>
        <rect x="9" y="4" width="3" height="4" rx="1"/>
        <rect x="4" y="4" width="3" height="4" rx="1"/>
      </g>
    </g>
  </g>
</svg>
