<svg width="504" height="336" viewBox="0 0 504 336" xmlns="http://www.w3.org/2000/svg" xmlns:xlink="http://www.w3.org/1999/xlink"><title>console</title><defs><path id="a" d="M0 0h504v336H0z"/><rect id="d" width="82" height="102" rx="3"/><filter x="-11.6%" y="-7.4%" width="123.2%" height="118.6%" filterUnits="objectBoundingBox" id="c"><feMorphology radius=".5" operator="dilate" in="SourceAlpha" result="shadowSpreadOuter1"/><feOffset dy="1" in="shadowSpreadOuter1" result="shadowOffsetOuter1"/><feGaussianBlur stdDeviation="1.5" in="shadowOffsetOuter1" result="shadowBlurOuter1"/><feColorMatrix values="0 0 0 0 0.0549019608 0 0 0 0 0.0784313725 0 0 0 0 0.101960784 0 0 0 0.04 0" in="shadowBlurOuter1" result="shadowMatrixOuter1"/><feOffset dy="1" in="SourceAlpha" result="shadowOffsetOuter2"/><feGaussianBlur stdDeviation="1.5" in="shadowOffsetOuter2" result="shadowBlurOuter2"/><feColorMatrix values="0 0 0 0 0.0549019608 0 0 0 0 0.0784313725 0 0 0 0 0.101960784 0 0 0 0.06 0" in="shadowBlurOuter2" result="shadowMatrixOuter2"/><feMerge><feMergeNode in="shadowMatrixOuter1"/><feMergeNode in="shadowMatrixOuter2"/></feMerge></filter><circle id="e" cx="16.5" cy="16.5" r="16.5"/><rect id="h" width="83" height="102" rx="3"/><filter x="-11.4%" y="-7.4%" width="122.9%" height="118.6%" filterUnits="objectBoundingBox" id="g"><feMorphology radius=".5" operator="dilate" in="SourceAlpha" result="shadowSpreadOuter1"/><feOffset dy="1" in="shadowSpreadOuter1" result="shadowOffsetOuter1"/><feGaussianBlur stdDeviation="1.5" in="shadowOffsetOuter1" result="shadowBlurOuter1"/><feColorMatrix values="0 0 0 0 0.0549019608 0 0 0 0 0.0784313725 0 0 0 0 0.101960784 0 0 0 0.04 0" in="shadowBlurOuter1" result="shadowMatrixOuter1"/><feOffset dy="1" in="SourceAlpha" result="shadowOffsetOuter2"/><feGaussianBlur stdDeviation="1.5" in="shadowOffsetOuter2" result="shadowBlurOuter2"/><feColorMatrix values="0 0 0 0 0.0549019608 0 0 0 0 0.0784313725 0 0 0 0 0.101960784 0 0 0 0.06 0" in="shadowBlurOuter2" result="shadowMatrixOuter2"/><feMerge><feMergeNode in="shadowMatrixOuter1"/><feMergeNode in="shadowMatrixOuter2"/></feMerge></filter><circle id="i" cx="16.5" cy="16.5" r="16.5"/><rect id="l" width="82" height="102" rx="3"/><filter x="-11.6%" y="-7.4%" width="123.2%" height="118.6%" filterUnits="objectBoundingBox" id="k"><feMorphology radius=".5" operator="dilate" in="SourceAlpha" result="shadowSpreadOuter1"/><feOffset dy="1" in="shadowSpreadOuter1" result="shadowOffsetOuter1"/><feGaussianBlur stdDeviation="1.5" in="shadowOffsetOuter1" result="shadowBlurOuter1"/><feColorMatrix values="0 0 0 0 0.0549019608 0 0 0 0 0.0784313725 0 0 0 0 0.101960784 0 0 0 0.04 0" in="shadowBlurOuter1" result="shadowMatrixOuter1"/><feOffset dy="1" in="SourceAlpha" result="shadowOffsetOuter2"/><feGaussianBlur stdDeviation="1.5" in="shadowOffsetOuter2" result="shadowBlurOuter2"/><feColorMatrix values="0 0 0 0 0.0549019608 0 0 0 0 0.0784313725 0 0 0 0 0.101960784 0 0 0 0.06 0" in="shadowBlurOuter2" result="shadowMatrixOuter2"/><feMerge><feMergeNode in="shadowMatrixOuter1"/><feMergeNode in="shadowMatrixOuter2"/></feMerge></filter><circle id="m" cx="16.5" cy="16.5" r="16.5"/><rect id="p" width="83" height="102" rx="3"/><filter x="-16.9%" y="-11.8%" width="133.7%" height="127.5%" filterUnits="objectBoundingBox" id="o"><feMorphology radius=".5" operator="dilate" in="SourceAlpha" result="shadowSpreadOuter1"/><feOffset dy="1" in="shadowSpreadOuter1" result="shadowOffsetOuter1"/><feGaussianBlur stdDeviation="3" in="shadowOffsetOuter1" result="shadowBlurOuter1"/><feColorMatrix values="0 0 0 0 0.0549019608 0 0 0 0 0.0784313725 0 0 0 0 0.101960784 0 0 0 0.09 0" in="shadowBlurOuter1" result="shadowMatrixOuter1"/><feOffset dy="1" in="SourceAlpha" result="shadowOffsetOuter2"/><feGaussianBlur stdDeviation="1.5" in="shadowOffsetOuter2" result="shadowBlurOuter2"/><feColorMatrix values="0 0 0 0 0.0549019608 0 0 0 0 0.0784313725 0 0 0 0 0.101960784 0 0 0 0.09 0" in="shadowBlurOuter2" result="shadowMatrixOuter2"/><feMerge><feMergeNode in="shadowMatrixOuter1"/><feMergeNode in="shadowMatrixOuter2"/></feMerge></filter><circle id="q" cx="16.5" cy="16.5" r="16.5"/><path id="t" d="M0 0h90v300H0z"/><filter x="-10.6%" y="-2.5%" width="121.1%" height="106.3%" filterUnits="objectBoundingBox" id="s"><feMorphology radius=".5" operator="dilate" in="SourceAlpha" result="shadowSpreadOuter1"/><feOffset dy="1" in="shadowSpreadOuter1" result="shadowOffsetOuter1"/><feGaussianBlur stdDeviation="1.5" in="shadowOffsetOuter1" result="shadowBlurOuter1"/><feColorMatrix values="0 0 0 0 0.0549019608 0 0 0 0 0.0784313725 0 0 0 0 0.101960784 0 0 0 0.04 0" in="shadowBlurOuter1" result="shadowMatrixOuter1"/><feOffset dy="1" in="SourceAlpha" result="shadowOffsetOuter2"/><feGaussianBlur stdDeviation="1.5" in="shadowOffsetOuter2" result="shadowBlurOuter2"/><feColorMatrix values="0 0 0 0 0.0549019608 0 0 0 0 0.0784313725 0 0 0 0 0.101960784 0 0 0 0.06 0" in="shadowBlurOuter2" result="shadowMatrixOuter2"/><feMerge><feMergeNode in="shadowMatrixOuter1"/><feMergeNode in="shadowMatrixOuter2"/></feMerge></filter><path id="v" d="M0 0h504v36H0z"/><filter x="-1.7%" y="-18.1%" width="103.4%" height="147.2%" filterUnits="objectBoundingBox" id="u"><feMorphology radius=".5" operator="dilate" in="SourceAlpha" result="shadowSpreadOuter1"/><feOffset dy="1" in="shadowSpreadOuter1" result="shadowOffsetOuter1"/><feGaussianBlur stdDeviation="1.5" in="shadowOffsetOuter1" result="shadowBlurOuter1"/><feColorMatrix values="0 0 0 0 0.0549019608 0 0 0 0 0.0784313725 0 0 0 0 0.101960784 0 0 0 0.04 0" in="shadowBlurOuter1" result="shadowMatrixOuter1"/><feOffset dy="1" in="SourceAlpha" result="shadowOffsetOuter2"/><feGaussianBlur stdDeviation="1" in="shadowOffsetOuter2" result="shadowBlurOuter2"/><feColorMatrix values="0 0 0 0 0.0549019608 0 0 0 0 0.0784313725 0 0 0 0 0.101960784 0 0 0 0.06 0" in="shadowBlurOuter2" result="shadowMatrixOuter2"/><feMerge><feMergeNode in="shadowMatrixOuter1"/><feMergeNode in="shadowMatrixOuter2"/></feMerge></filter></defs><g fill="none" fill-rule="evenodd"><mask id="b" fill="#fff"><use xlink:href="#a"/></mask><use fill="#FFF" xlink:href="#a"/><g mask="url(#b)"><g transform="translate(0 36)"><path fill="#FFF" d="M90 0h414v300H90z"/><g transform="translate(398 60)"><use fill="#000" filter="url(#c)" xlink:href="#d"/><use fill="#FFF" xlink:href="#d"/><path d="M24.5 81h35a1.5 1.5 0 0 1 0 3h-35a1.5 1.5 0 0 1 0-3zm-12-9h59a1.5 1.5 0 0 1 0 3h-59a1.5 1.5 0 0 1 0-3z" fill-opacity=".1" fill="#0E141A"/><rect fill-opacity=".1" fill="#0E141A" x="21" y="57" width="42" height="6" rx="3"/><g transform="translate(25 12)"><mask id="f" fill="#fff"><use xlink:href="#e"/></mask><use fill-opacity=".2" fill="#FF4040" xlink:href="#e"/><path d="M24.5 22c0 1.1-.9 2-2 2h-12c-1.1 0-2-.9-2-2V11c0-1.1.9-2 2-2h4c1.1 0 2 .9 2 2v2h6c1.1 0 2 .9 2 2v7z" fill="#FF4040" mask="url(#f)"/></g></g><g transform="translate(303 60)"><use fill="#000" filter="url(#g)" xlink:href="#h"/><use fill="#FFF" xlink:href="#h"/><path d="M24.5 81h35a1.5 1.5 0 0 1 0 3h-35a1.5 1.5 0 0 1 0-3zm-12-9h59a1.5 1.5 0 0 1 0 3h-59a1.5 1.5 0 0 1 0-3z" fill-opacity=".1" fill="#0E141A"/><rect fill-opacity=".1" fill="#0E141A" x="21" y="57" width="42" height="6" rx="3"/><g transform="translate(25 12)"><mask id="j" fill="#fff"><use xlink:href="#i"/></mask><use fill-opacity=".2" fill="#9552EF" xlink:href="#i"/><g mask="url(#j)"><path d="M17.5 18.5h4a3 3 0 0 1 3 3v2a1 1 0 0 1-1 1h-8a1 1 0 0 1-1-1v-2a3 3 0 0 1 3-3zm2-2a4 4 0 1 1 0-8 4 4 0 0 1 0 8z" fill="#FFF"/><path d="M11.5 18.5h4a3 3 0 0 1 3 3v2a1 1 0 0 1-1 1h-8a1 1 0 0 1-1-1v-2a3 3 0 0 1 3-3zm2-2a4 4 0 1 1 0-8 4 4 0 0 1 0 8z" fill="#9552EF"/></g></g></g><g transform="translate(209 60)"><use fill="#000" filter="url(#k)" xlink:href="#l"/><use fill="#FFF" xlink:href="#l"/><path d="M24.5 81h35a1.5 1.5 0 0 1 0 3h-35a1.5 1.5 0 0 1 0-3zm-12-9h59a1.5 1.5 0 0 1 0 3h-59a1.5 1.5 0 0 1 0-3z" fill-opacity=".1" fill="#0E141A"/><rect fill-opacity=".1" fill="#0E141A" x="21" y="57" width="42" height="6" rx="3"/><g transform="translate(25 12)"><mask id="n" fill="#fff"><use xlink:href="#m"/></mask><use fill-opacity=".2" fill="#FF6E02" xlink:href="#m"/><path d="M11.5 10h10c1.65 0 3 1.35 3 3v7c0 1.65-1.35 3-3 3h-10c-1.65 0-3-1.35-3-3v-7c0-1.65 1.35-3 3-3zm10.517 4.867c.283-.184.483-.5.483-.867 0-.55-.45-1-1-1a.936.936 0 0 0-.517.15 565.52 565.52 0 0 0-4.483 2.683 531.595 531.595 0 0 0-4.483-2.683.936.936 0 0 0-.517-.15c-.55 0-1 .45-1 1 0 .367.2.683.483.867 1.717 1.016 3.284 1.966 5 2.983.15.1.334.15.517.15s.367-.05.517-.15c1.716-1.017 3.283-1.967 5-2.983z" fill="#FF6E02" mask="url(#n)"/><path d="M22.017 14.867c.283-.184.483-.5.483-.867 0-.55-.45-1-1-1a.936.936 0 0 0-.517.15 565.52 565.52 0 0 0-4.483 2.683 531.595 531.595 0 0 0-4.483-2.683.936.936 0 0 0-.517-.15c-.55 0-1 .45-1 1 0 .367.2.683.483.867 1.717 1.016 3.284 1.966 5 2.983.15.1.334.15.517.15s.367-.05.517-.15c1.716-1.017 3.283-1.967 5-2.983z" fill="#FFF" mask="url(#n)"/></g></g><g transform="translate(114 60)"><use fill="#000" filter="url(#o)" xlink:href="#p"/><use fill="#FFF" xlink:href="#p"/><path d="M24.5 81h35a1.5 1.5 0 0 1 0 3h-35a1.5 1.5 0 0 1 0-3zm-12-9h59a1.5 1.5 0 0 1 0 3h-59a1.5 1.5 0 0 1 0-3z" fill-opacity=".1" fill="#0E141A"/><rect fill-opacity=".1" fill="#0E141A" x="21" y="57" width="42" height="6" rx="3"/><g transform="translate(25 12)"><mask id="r" fill="#fff"><use xlink:href="#q"/></mask><use fill-opacity=".2" fill="#FFB700" xlink:href="#q"/><path d="M16.5 9c3.867 0 7 1.783 7 4v7c0 2.217-3.133 4-7 4s-7-1.783-7-4v-7c0-2.217 3.133-4 7-4zm0 6c2.767 0 5-.9 5-2s-2.233-2-5-2-5 .9-5 2 2.233 2 5 2z" fill="#FFB700" mask="url(#r)"/><path d="M16.5 15c2.767 0 5-.9 5-2s-2.233-2-5-2-5 .9-5 2 2.233 2 5 2z" fill="#FFF" mask="url(#r)"/></g></g><rect fill-opacity=".1" fill="#0E141A" x="246" y="30" width="102" height="6" rx="3"/><use fill="#000" filter="url(#s)" xlink:href="#t"/><use fill="#FFF" xlink:href="#t"/><g transform="translate(0 66)"><rect fill-opacity=".1" fill="#0E141A" x="12" y="125" width="27" height="6" rx="3"/><rect fill-opacity=".1" fill="#0E141A" x="12" y="107" width="39" height="6" rx="3"/><rect fill-opacity=".1" fill="#0E141A" x="12" y="89" width="43" height="6" rx="3"/><rect fill-opacity=".1" fill="#0E141A" x="12" y="71" width="25" height="6" rx="3"/><rect fill-opacity=".1" fill="#0E141A" x="12" y="53" width="17" height="6" rx="3"/><rect fill-opacity=".1" fill="#0E141A" x="12" y="36" width="33" height="6" rx="3"/><rect fill-opacity=".4" fill="#00D46A" x="12" y="18" width="36" height="6" rx="3"/><path fill-opacity=".8" fill="#00D46A" d="M0 15h2v12H0z"/><rect fill-opacity=".1" fill="#0E141A" x="12" width="32" height="6" rx="3"/></g><g transform="translate(12 21)" fill="#0E141A" fill-opacity=".1"><rect y="9" width="52" height="6" rx="3"/><rect width="22" height="3" rx="1.5"/></g></g></g><g mask="url(#b)"><use fill="#000" filter="url(#u)" xlink:href="#v"/><use fill="#FFF" xlink:href="#v"/><g transform="translate(471 6)" fill="#0E141A"><rect fill-opacity=".1" width="24" height="24" rx="12"/><path d="M9 9c0-1.662 1.338-3 3-3 1.663 0 3 1.338 3 3 0 1.663-1.337 3-3 3-1.662 0-3-1.337-3-3zm5.5 4c1.375 0 2.5 1.125 2.5 2.5v1c0 .825-.675 1.5-1.5 1.5h-7c-.825 0-1.5-.675-1.5-1.5v-1C7 14.125 8.125 13 9.5 13h5z" fill-opacity=".3"/></g><rect fill-opacity=".08" fill="#0E141A" x="425" y="15" width="40" height="6" rx="3"/><rect fill-opacity=".08" fill="#0E141A" x="387" y="15" width="32" height="6" rx="3"/><rect fill-opacity=".1" fill="#0E141A" x="39" y="15" width="52" height="6" rx="3"/><g transform="translate(9 6)"><rect fill="#00D46A" width="24" height="24" rx="12"/><path d="M11.52 13.46l-1.47-4.55H8.43l-1.47 4.54-1.17-4.54H4.11L6.04 16H7.7l1.52-4.7 1.51 4.7h1.63l1.93-7.09h-1.62l-1.15 4.55zm4.69-.54h1.99c-.02-.38-.28-.84-1-.84-.64 0-.96.47-.99.84zm2.1 1.29l1.27.36c-.24.86-1.03 1.58-2.29 1.58-1.37 0-2.59-.98-2.59-2.65 0-1.6 1.19-2.62 2.48-2.62 1.54 0 2.49.95 2.49 2.55 0 .21-.02.44-.03.47h-3.46c.03.56.54.96 1.13.96.55 0 .86-.26 1-.65z" fill="#FFF"/></g></g><g mask="url(#b)"><path d="M189.332 201.38c-.284-.36-.63-1.093-1.243-1.984-.348-.504-1.211-1.453-1.468-1.935-.223-.426-.2-.617-.146-.97.094-.628.738-1.117 1.425-1.051.519.049.959.392 1.355.716.239.195.533.574.71.788.163.196.203.277.377.509.23.307.302.459.214.12-.071-.495-.187-1.342-.355-2.091-.128-.568-.16-.657-.281-1.093-.13-.464-.195-.79-.316-1.281-.084-.348-.235-1.06-.276-1.46-.057-.546-.087-1.438.264-1.848.275-.321.906-.418 1.297-.22.512.259.803 1.003.936 1.3.239.534.387 1.15.516 1.96.164 1.032.466 2.463.476 2.764.024-.37-.068-1.146-.004-1.5.058-.321.328-.694.666-.795.286-.085.62-.116.916-.055.313.064.643.288.766.499.362.624.369 1.899.384 1.83.086-.375.07-1.228.284-1.583.14-.234.497-.445.687-.48.294-.051.655-.067.964-.007.249.049.586.345.677.487.218.344.342 1.317.379 1.658.015.14.074-.392.293-.736.406-.64 1.843-.763 1.898.639.025.654.02.624.02 1.064 0 .517-.012.828-.04 1.202-.031.4-.117 1.304-.242 1.742-.086.3-.371.978-.652 1.384 0 0-1.074 1.25-1.191 1.813-.118.562-.08.566-.102.965-.023.398.12.922.12.922s-.801.104-1.233.035c-.391-.063-.875-.841-1-1.08-.172-.327-.54-.264-.682-.022-.225.383-.71 1.07-1.051 1.113-.668.084-2.054.03-3.14.02 0 0 .186-1.011-.226-1.358-.305-.26-.83-.784-1.144-1.06l-.832-.921z" fill="#FFF"/><path d="M189.332 201.38c-.284-.36-.63-1.093-1.243-1.984-.348-.504-1.211-1.453-1.468-1.935-.223-.426-.2-.617-.146-.97.094-.628.738-1.117 1.425-1.051.519.049.959.392 1.355.716.239.195.533.574.71.788.163.196.203.277.377.509.23.307.302.459.214.12-.071-.495-.187-1.342-.355-2.091-.128-.568-.16-.657-.281-1.093-.13-.464-.195-.79-.316-1.281-.084-.348-.235-1.06-.276-1.46-.057-.546-.087-1.438.264-1.848.275-.321.906-.418 1.297-.22.512.259.803 1.003.936 1.3.239.534.387 1.15.516 1.96.164 1.032.466 2.463.476 2.764.024-.37-.068-1.146-.004-1.5.058-.321.328-.694.666-.795.286-.085.62-.116.916-.055.313.064.643.288.766.499.362.624.369 1.899.384 1.83.086-.375.07-1.228.284-1.583.14-.234.497-.445.687-.48.294-.051.655-.067.964-.007.249.049.586.345.677.487.218.344.342 1.317.379 1.658.015.14.074-.392.293-.736.406-.64 1.843-.763 1.898.639.025.654.02.624.02 1.064 0 .517-.012.828-.04 1.202-.031.4-.117 1.304-.242 1.742-.086.3-.371.978-.652 1.384 0 0-1.074 1.25-1.191 1.813-.118.562-.08.566-.102.965-.023.398.12.922.12.922s-.801.104-1.233.035c-.391-.063-.875-.841-1-1.08-.172-.327-.54-.264-.682-.022-.225.383-.71 1.07-1.051 1.113-.668.084-2.054.03-3.14.02 0 0 .186-1.011-.226-1.358-.305-.26-.83-.784-1.144-1.06l-.832-.921z" stroke="#000" stroke-width=".75" stroke-linecap="round" stroke-linejoin="round"/><path d="M197.566 201.734v-3.459m-2.016 3.471l-.015-3.473m-1.98.032l.02 3.426" stroke="#000" stroke-width=".75" stroke-linecap="round"/></g></g></svg>