<?xml version="1.0" encoding="UTF-8"?>
<svg width="490px" height="778px" viewBox="0 0 490 778" version="1.1" xmlns="http://www.w3.org/2000/svg" xmlns:xlink="http://www.w3.org/1999/xlink">
    <!-- Generator: Sketch 49.1 (51147) - http://www.bohemiancoding.com/sketch -->
    <title>illustration_(phone)</title>
    <desc>Created with Sketch.</desc>
    <defs>
        <path d="M68,28 L392,28 C405.254834,28 416,38.745166 416,52 L416,664 C416,677.254834 405.254834,688 392,688 L68,688 C54.745166,688 44,677.254834 44,664 L44,52 C44,38.745166 54.745166,28 68,28 Z" id="path-1"></path>
        <filter x="-20.7%" y="-9.2%" width="149.5%" height="127.9%" filterUnits="objectBoundingBox" id="filter-2">
            <feOffset dx="12" dy="24" in="SourceAlpha" result="shadowOffsetOuter1"></feOffset>
            <feGaussianBlur stdDeviation="21" in="shadowOffsetOuter1" result="shadowBlurOuter1"></feGaussianBlur>
            <feColorMatrix values="0 0 0 0 0.0549019608   0 0 0 0 0.0784313725   0 0 0 0 0.101960784  0 0 0 0.18 0" type="matrix" in="shadowBlurOuter1" result="shadowMatrixOuter1"></feColorMatrix>
            <feOffset dx="3" dy="3" in="SourceAlpha" result="shadowOffsetOuter2"></feOffset>
            <feGaussianBlur stdDeviation="3" in="shadowOffsetOuter2" result="shadowBlurOuter2"></feGaussianBlur>
            <feColorMatrix values="0 0 0 0 0.0549019608   0 0 0 0 0.0784313725   0 0 0 0 0.101960784  0 0 0 0.06 0" type="matrix" in="shadowBlurOuter2" result="shadowMatrixOuter2"></feColorMatrix>
            <feOffset dx="0" dy="1" in="SourceAlpha" result="shadowOffsetOuter3"></feOffset>
            <feGaussianBlur stdDeviation="1" in="shadowOffsetOuter3" result="shadowBlurOuter3"></feGaussianBlur>
            <feColorMatrix values="0 0 0 0 0   0 0 0 0 0   0 0 0 0 0  0 0 0 0.04 0" type="matrix" in="shadowBlurOuter3" result="shadowMatrixOuter3"></feColorMatrix>
            <feOffset dx="0" dy="3" in="SourceAlpha" result="shadowOffsetOuter4"></feOffset>
            <feGaussianBlur stdDeviation="4.5" in="shadowOffsetOuter4" result="shadowBlurOuter4"></feGaussianBlur>
            <feColorMatrix values="0 0 0 0 1   0 0 0 0 1   0 0 0 0 1  0 0 0 0.1 0" type="matrix" in="shadowBlurOuter4" result="shadowMatrixOuter4"></feColorMatrix>
            <feMerge>
                <feMergeNode in="shadowMatrixOuter1"></feMergeNode>
                <feMergeNode in="shadowMatrixOuter2"></feMergeNode>
                <feMergeNode in="shadowMatrixOuter3"></feMergeNode>
                <feMergeNode in="shadowMatrixOuter4"></feMergeNode>
            </feMerge>
        </filter>
        <filter x="-13.4%" y="-5.2%" width="134.9%" height="119.7%" filterUnits="objectBoundingBox" id="filter-3">
            <feGaussianBlur stdDeviation="4.5" in="SourceAlpha" result="shadowBlurInner1"></feGaussianBlur>
            <feOffset dx="0" dy="-3" in="shadowBlurInner1" result="shadowOffsetInner1"></feOffset>
            <feComposite in="shadowOffsetInner1" in2="SourceAlpha" operator="arithmetic" k2="-1" k3="1" result="shadowInnerInner1"></feComposite>
            <feColorMatrix values="0 0 0 0 0.0549019608   0 0 0 0 0.0784313725   0 0 0 0 0.101960784  0 0 0 0.200000003 0" type="matrix" in="shadowInnerInner1" result="shadowMatrixInner1"></feColorMatrix>
            <feGaussianBlur stdDeviation="0.5" in="SourceAlpha" result="shadowBlurInner2"></feGaussianBlur>
            <feOffset dx="0" dy="1" in="shadowBlurInner2" result="shadowOffsetInner2"></feOffset>
            <feComposite in="shadowOffsetInner2" in2="SourceAlpha" operator="arithmetic" k2="-1" k3="1" result="shadowInnerInner2"></feComposite>
            <feColorMatrix values="0 0 0 0 0   0 0 0 0 0   0 0 0 0 0  0 0 0 0.1 0" type="matrix" in="shadowInnerInner2" result="shadowMatrixInner2"></feColorMatrix>
            <feMerge>
                <feMergeNode in="shadowMatrixInner1"></feMergeNode>
                <feMergeNode in="shadowMatrixInner2"></feMergeNode>
            </feMerge>
        </filter>
        <rect id="path-4" x="0" y="0" width="24" height="24" rx="12"></rect>
        <rect id="path-5" x="0" y="0" width="24" height="24" rx="12"></rect>
    </defs>
    <g id="illustration_(phone)" stroke="none" stroke-width="1" fill="none" fill-rule="evenodd">
        <g id="container">
            <use fill="black" fill-opacity="1" filter="url(#filter-2)" xlink:href="#path-1"></use>
            <use fill="#FFFFFF" fill-rule="evenodd" xlink:href="#path-1"></use>
            <use fill="black" fill-opacity="1" filter="url(#filter-3)" xlink:href="#path-1"></use>
        </g>
        <path d="M68,28 L392,28 C405.254834,28 416,38.745166 416,52 L416,664 C416,677.254834 405.254834,688 392,688 L68,688 C54.745166,688 44,677.254834 44,664 L44,52 C44,38.745166 54.745166,28 68,28 Z" id="container_color" fill-opacity="0.02" fill="#00A4FF"></path>
        <g id="screen" transform="translate(62.000000, 88.000000)">
            <rect id="container_screen" fill="#FFFFFF" x="0" y="0" width="336" height="492" rx="4"></rect>
            <g id="footer" transform="translate(0.000000, 450.000000)">
                <path d="M0,0 L336,0 L336,38 C336,40.209139 334.209139,42 332,42 L4,42 C1.790861,42 2.705415e-16,40.209139 0,38 L0,0 Z" id="container" fill-opacity="0.0399999991" fill="#0E141A"></path>
                <rect id="selector" fill="#00AE55" x="19" y="39" width="30" height="3"></rect>
                <path d="M302.000021,21.0000281 C299.783347,21.0000281 298.000007,19.2166885 298.000007,17.0000141 C298.000007,14.7833396 299.783347,13 302.000021,13 C304.216696,13 306.000035,14.7833396 306.000035,17.0000141 C306.000035,19.2166885 304.216696,21.0000281 302.000021,21.0000281 Z M308.000042,27.0000492 C308.000042,28.1000531 307.100039,29.0000563 306.000035,29.0000563 L298.000007,29.0000563 C296.900003,29.0000563 296,28.1000531 296,27.0000492 C296,24.2333728 298.233341,22.0000317 301.000018,22.0000317 L303.000025,22.0000317 C305.766701,22.0000317 308.000042,24.2333728 308.000042,27.0000492 Z" id="icon_5" fill-opacity="0.16" fill="#0E141A"></path>
                <path d="M228.000007,13 L241.000053,13 C242.100057,13 243.00006,13.9000032 243.00006,15.000007 L243.00006,28.0000528 C243.00006,28.5500547 242.550058,29.0000563 242.000056,29.0000563 C241.766722,29.0000563 241.566721,28.9333894 241.400054,28.8000556 L239.000046,27.0000492 L228.000007,27.0000492 C226.900003,27.0000492 226,26.1000461 226,25.0000422 L226,15.000007 C226,13.9000032 226.900003,13 228.000007,13 Z M239.000046,17.0000141 L230.000014,17.0000141 C229.450012,17.0000141 229.000011,17.4500156 229.000011,18.0000176 C229.000011,18.5500195 229.450012,19.0000211 230.000014,19.0000211 L239.000046,19.0000211 C239.550048,19.0000211 240.000049,18.5500195 240.000049,18.0000176 C240.000049,17.4500156 239.550048,17.0000141 239.000046,17.0000141 Z M230.000014,23.0000352 L234.000028,23.0000352 C234.55003,23.0000352 235.000032,22.5500336 235.000032,22.0000317 C235.000032,21.4500297 234.55003,21.0000281 234.000028,21.0000281 L230.000014,21.0000281 C229.450012,21.0000281 229.000011,21.4500297 229.000011,22.0000317 C229.000011,22.5500336 229.450012,23.0000352 230.000014,23.0000352 Z" id="icon_4" fill-opacity="0.16" fill="#0E141A"></path>
                <path d="M167.000025,16.5000123 C167.000025,14.5666722 165.433352,13 163.500012,13 C161.566672,13 160,14.5666722 160,16.5000123 C160,18.4333524 161.566672,20.0000246 163.500012,20.0000246 C165.433352,20.0000246 167.000025,18.4333524 167.000025,16.5000123 Z M172.500044,13 C170.566704,13 169.000032,14.5666722 169.000032,16.5000123 C169.000032,18.4333524 170.566704,20.0000246 172.500044,20.0000246 C174.433384,20.0000246 176.000056,18.4333524 176.000056,16.5000123 C176.000056,14.5666722 174.433384,13 172.500044,13 Z M163.500012,22.0000317 C161.566672,22.0000317 160,23.5667038 160,25.500044 C160,27.4333841 161.566672,29.0000563 163.500012,29.0000563 C165.433352,29.0000563 167.000025,27.4333841 167.000025,25.500044 C167.000025,23.5667038 165.433352,22.0000317 163.500012,22.0000317 Z M172.500044,22.0000317 C170.566704,22.0000317 169.000032,23.5667038 169.000032,25.500044 C169.000032,27.4333841 170.566704,29.0000563 172.500044,29.0000563 C174.433384,29.0000563 176.000056,27.4333841 176.000056,25.500044 C176.000056,23.5667038 174.433384,22.0000317 172.500044,22.0000317 Z" id="icon_3" fill-opacity="0.16" fill="#0E141A"></path>
                <path d="M94.5000053,14 C95.3333415,14 96.0000106,14.666669 96.0000106,15.5000053 C96.0000106,16.3333415 95.3333415,17.0000106 94.5000053,17.0000106 C93.666669,17.0000106 93,16.3333415 93,15.5000053 C93,14.666669 93.666669,14 94.5000053,14 Z M98.0000176,15.5000053 C98.0000176,14.666669 98.6666866,14 99.5000229,14 L107.500051,14 C108.333387,14 109.000056,14.666669 109.000056,15.5000053 C109.000056,16.3333415 108.333387,17.0000106 107.500051,17.0000106 L99.5000229,17.0000106 C98.6666866,17.0000106 98.0000176,16.3333415 98.0000176,15.5000053 Z M94.5000053,19.0000176 C95.3333415,19.0000176 96.0000106,19.6666866 96.0000106,20.5000229 C96.0000106,21.3333591 95.3333415,22.0000281 94.5000053,22.0000281 C93.666669,22.0000281 93,21.3333591 93,20.5000229 C93,19.6666866 93.666669,19.0000176 94.5000053,19.0000176 Z M109.000056,20.5000229 C109.000056,21.3333591 108.333387,22.0000281 107.500051,22.0000281 L99.5000229,22.0000281 C98.6666866,22.0000281 98.0000176,21.3333591 98.0000176,20.5000229 C98.0000176,19.6666866 98.6666866,19.0000176 99.5000229,19.0000176 L107.500051,19.0000176 C108.333387,19.0000176 109.000056,19.6666866 109.000056,20.5000229 Z M94.5000053,24.0000352 C95.3333415,24.0000352 96.0000106,24.6667042 96.0000106,25.5000404 C96.0000106,26.3333767 95.3333415,27.0000457 94.5000053,27.0000457 C93.666669,27.0000457 93,26.3333767 93,25.5000404 C93,24.6667042 93.666669,24.0000352 94.5000053,24.0000352 Z M109.000056,25.5000404 C109.000056,26.3333767 108.333387,27.0000457 107.500051,27.0000457 L99.5000229,27.0000457 C98.6666866,27.0000457 98.0000176,26.3333767 98.0000176,25.5000404 C98.0000176,24.6667042 98.6666866,24.0000352 99.5000229,24.0000352 L107.500051,24.0000352 C108.333387,24.0000352 109.000056,24.6667042 109.000056,25.5000404 Z" id="icon_2" fill-opacity="0.16" fill="#0E141A"></path>
                <path d="M41.0000492,26.0000457 C41.0000492,27.1000496 40.1000461,28.0000528 39.0000422,28.0000528 L36.0000317,28.0000528 L36.0000317,23.0000352 L32.0000176,23.0000352 L32.0000176,28.0000528 L29.000007,28.0000528 C27.9000032,28.0000528 27,27.1000496 27,26.0000457 L27,19.0000211 C27,18.3666855 27.3000011,17.8000169 27.7500026,17.4333489 L32.7500202,13.4333349 C33.1000215,13.1666673 33.5333563,13 34.0000246,13 C34.4666929,13 34.9000278,13.1666673 35.250029,13.4333349 L40.2500466,17.4333489 C40.7000482,17.8000169 41.0000492,18.3666855 41.0000492,19.0000211 L41.0000492,26.0000457 Z" id="icon_1" fill="#00AE55"></path>
            </g>
            <g id="body" transform="translate(25.000000, 168.000000)">
                <rect id="line" fill-opacity="0.0600000024" fill="#0E141A" x="0" y="0" width="4" height="282"></rect>
                <g id="item_2" transform="translate(4.000000, 180.000000)">
                    <path d="M185,84 L270,84 C271.656854,84 273,85.3431458 273,87 C273,88.6568542 271.656854,90 270,90 L185,90 C183.343146,90 182,88.6568542 182,87 C182,85.3431458 183.343146,84 185,84 Z M185,66 L280,66 C281.656854,66 283,67.3431458 283,69 C283,70.6568542 281.656854,72 280,72 L185,72 C183.343146,72 182,70.6568542 182,69 C182,67.3431458 183.343146,66 185,66 Z M185,48 L256,48 C257.656854,48 259,49.3431458 259,51 C259,52.6568542 257.656854,54 256,54 L185,54 C183.343146,54 182,52.6568542 182,51 C182,49.3431458 183.343146,48 185,48 Z M185,30 L286,30 C287.656854,30 289,31.3431458 289,33 C289,34.6568542 287.656854,36 286,36 L185,36 C183.343146,36 182,34.6568542 182,33 C182,31.3431458 183.343146,30 185,30 Z M159,66 C160.656854,66 162,67.3431458 162,69 C162,70.6568542 160.656854,72 159,72 C157.343146,72 156,70.6568542 156,69 C156,67.3431458 157.343146,66 159,66 Z M159,30 C160.656854,30 162,31.3431458 162,33 C162,34.6568542 160.656854,36 159,36 C157.343146,36 156,34.6568542 156,33 C156,31.3431458 157.343146,30 159,30 Z" id="text" fill-opacity="0.06" fill="#0E141A"></path>
                    <rect id="line" fill-opacity="0.0800000057" fill="#0E141A" x="145" y="6" width="77" height="12" rx="6"></rect>
                    <rect id="line" fill-opacity="0.0800000057" fill="#0E141A" x="39" y="66" width="59" height="6" rx="3"></rect>
                    <rect id="line" fill-opacity="0.0800000057" fill="#0E141A" x="39" y="54" width="41" height="6" rx="3"></rect>
                    <rect id="line" fill-opacity="0.0800000057" fill="#0E141A" x="39" y="24" width="88" height="18" rx="9"></rect>
                    <rect id="line" fill-opacity="0.0800000057" fill="#0E141A" x="39" y="6" width="77" height="6" rx="3"></rect>
                    <g id="avatar" transform="translate(6.000000, 0.000000)">
                        <g id="container">
                            <use fill="#FFFFFF" xlink:href="#path-4"></use>
                            <use fill-opacity="0.0800000057" fill="#0E141A" xlink:href="#path-4"></use>
                        </g>
                        <path d="M8.00000352,12.9999859 C7.45000158,12.9999859 7,12.5499844 7,11.9999824 C7,11.4499805 7.45000158,10.9999789 8.00000352,10.9999789 L16.0000317,10.9999789 C16.5500336,10.9999789 17.0000352,11.4499805 17.0000352,11.9999824 C17.0000352,12.5499844 16.5500336,12.9999859 16.0000317,12.9999859 L8.00000352,12.9999859 Z" id="icon" fill-opacity="0.3" fill="#0E141A"></path>
                    </g>
                    <rect id="pointer" fill-opacity="0.0600000024" fill="#0E141A" x="0" y="10" width="6" height="4"></rect>
                </g>
                <g id="item_1" transform="translate(4.000000, 24.000000)">
                    <g id="button_view" transform="translate(195.000000, 120.000000)" fill="#0E141A" fill-opacity="0.0800000057">
                        <rect id="container" x="0" y="0" width="55" height="18" rx="9"></rect>
                    </g>
                    <path d="M185,102 L270,102 C271.656854,102 273,103.343146 273,105 L273,105 C273,106.656854 271.656854,108 270,108 L185,108 C183.343146,108 182,106.656854 182,105 L182,105 C182,103.343146 183.343146,102 185,102 Z M185,84 L270,84 C271.656854,84 273,85.3431458 273,87 C273,88.6568542 271.656854,90 270,90 L185,90 C183.343146,90 182,88.6568542 182,87 C182,85.3431458 183.343146,84 185,84 Z M185,66 L280,66 C281.656854,66 283,67.3431458 283,69 C283,70.6568542 281.656854,72 280,72 L185,72 C183.343146,72 182,70.6568542 182,69 C182,67.3431458 183.343146,66 185,66 Z M185,48 L256,48 C257.656854,48 259,49.3431458 259,51 C259,52.6568542 257.656854,54 256,54 L185,54 C183.343146,54 182,52.6568542 182,51 C182,49.3431458 183.343146,48 185,48 Z M185,30 L286,30 C287.656854,30 289,31.3431458 289,33 C289,34.6568542 287.656854,36 286,36 L185,36 C183.343146,36 182,34.6568542 182,33 C182,31.3431458 183.343146,30 185,30 Z M159,102 C160.656854,102 162,103.343146 162,105 C162,106.656854 160.656854,108 159,108 C157.343146,108 156,106.656854 156,105 C156,103.343146 157.343146,102 159,102 Z M159,66 C160.656854,66 162,67.3431458 162,69 C162,70.6568542 160.656854,72 159,72 C157.343146,72 156,70.6568542 156,69 C156,67.3431458 157.343146,66 159,66 Z M159,30 C160.656854,30 162,31.3431458 162,33 C162,34.6568542 160.656854,36 159,36 C157.343146,36 156,34.6568542 156,33 C156,31.3431458 157.343146,30 159,30 Z" id="text" fill-opacity="0.06" fill="#0E141A"></path>
                    <rect id="line" fill-opacity="0.0800000057" fill="#0E141A" x="145" y="6" width="77" height="12" rx="6"></rect>
                    <rect id="line" fill-opacity="0.0800000057" fill="#0E141A" x="39" y="66" width="59" height="6" rx="3"></rect>
                    <rect id="line" fill-opacity="0.0800000057" fill="#0E141A" x="39" y="54" width="41" height="6" rx="3"></rect>
                    <rect id="line" fill-opacity="0.0799999982" fill="#0E141A" x="39" y="24" width="88" height="18" rx="9"></rect>
                    <rect id="line" fill-opacity="0.0800000057" fill="#0E141A" x="39" y="6" width="77" height="6" rx="3"></rect>
                    <g id="avatar" transform="translate(6.000000, 0.000000)">
                        <g id="container">
                            <use fill="#FFFFFF" xlink:href="#path-5"></use>
                            <use fill-opacity="0.0800000057" fill="#0E141A" xlink:href="#path-5"></use>
                        </g>
                        <path d="M8.00000352,12.9999859 C7.45000158,12.9999859 7,12.5499844 7,11.9999824 C7,11.4499805 7.45000158,10.9999789 8.00000352,10.9999789 L16.0000317,10.9999789 C16.5500336,10.9999789 17.0000352,11.4499805 17.0000352,11.9999824 C17.0000352,12.5499844 16.5500336,12.9999859 16.0000317,12.9999859 L8.00000352,12.9999859 Z" id="icon" fill-opacity="0.3" fill="#0E141A"></path>
                    </g>
                    <rect id="pointer" fill-opacity="0.0600000024" fill="#0E141A" x="0" y="10" width="6" height="4"></rect>
                </g>
            </g>
            <g id="header">
                <path d="M4,0 L332,0 C334.209139,-4.05812251e-16 336,1.790861 336,4 L336,168 L0,168 L0,4 C-2.705415e-16,1.790861 1.790861,4.05812251e-16 4,0 Z" id="container" fill="#00AE55"></path>
                <rect id="selector" fill="#FFFFFF" x="12" y="165" width="30" height="3"></rect>
                <rect id="line" fill-opacity="0.6" fill="#FFFFFF" x="194" y="144" width="66" height="12" rx="6"></rect>
                <rect id="line" fill-opacity="0.6" fill="#FFFFFF" x="129" y="144" width="41" height="12" rx="6"></rect>
                <rect id="line" fill-opacity="0.6" fill="#FFFFFF" x="59" y="144" width="46" height="12" rx="6"></rect>
                <rect id="line" fill="#FFFFFF" x="20" y="144" width="15" height="12" rx="6"></rect>
                <rect id="line" fill-opacity="0.4" fill="#FFFFFF" x="12" y="90" width="164" height="18" rx="9"></rect>
                <rect id="line" fill-opacity="0.3" fill="#FFFFFF" x="12" y="72" width="80" height="6" rx="3"></rect>
                <g id="icon_2" transform="translate(300.000000, 15.000000)" fill="#FFFFFF">
                    <rect id="container" fill-opacity="0.3" x="0" y="0" width="24" height="24" rx="4"></rect>
                    <path d="M18.2125412,16.2874975 C18.3875418,16.4749982 18.5000422,16.724999 18.5000422,17 C18.5000422,17.5500019 18.0500406,18.0000035 17.5000387,18.0000035 C17.2250377,18.0000035 16.9750368,17.8875031 16.7875362,17.7125025 C15.887533,16.7999993 15.0875302,15.9999965 14.2625273,15.1749936 C13.4625245,15.6999954 12.5250212,15.9999965 11.5000176,15.9999965 C8.73750787,15.9999965 6.5,13.7624886 6.5,10.9999789 C6.5,8.23746919 8.73750787,5.99996132 11.5000176,5.99996132 C14.2625273,5.99996132 16.5000352,8.23746919 16.5000352,10.9999789 C16.5000352,12.0249825 16.2000341,12.9624858 15.6750323,13.7624886 C16.5000352,14.5874915 17.300038,15.3874943 18.2125412,16.2874975 Z M11.5000176,13.9999894 C13.1625234,13.9999894 14.5000281,12.6624847 14.5000281,10.9999789 C14.5000281,9.33747305 13.1625234,7.99996835 11.5000176,7.99996835 C9.83751174,7.99996835 8.50000703,9.33747305 8.50000703,10.9999789 C8.50000703,12.6624847 9.83751174,13.9999894 11.5000176,13.9999894 Z" id="icon"></path>
                </g>
                <g id="icon_1" transform="translate(270.000000, 15.000000)" fill="#FFFFFF">
                    <rect id="container" fill-opacity="0.3" x="0" y="0" width="24" height="24" rx="4"></rect>
                    <path d="M14.0000352,11.9999824 C14.0000352,11.4499805 14.4500367,10.9999789 15.0000387,10.9999789 C15.2750397,10.9999789 15.5250405,11.1124793 15.7125412,11.2874799 C15.8000415,11.3874803 15.9000418,11.4749806 15.9750421,11.5624809 C15.7625414,9.56247384 14.0625354,7.99996835 12.0000281,7.99996835 C11.2750256,7.99996835 10.6000232,8.18746901 10.0125211,8.5249702 L10.0000211,8.53747024 C9.52501943,8.81247121 8.91251728,8.64997064 8.63751631,8.17496897 C8.36251534,7.68746725 8.52501591,7.0749651 9.00001758,6.79996413 C9.8875207,6.28746233 10.9125243,5.99996132 12.0000281,5.99996132 C15.1750393,5.99996132 17.7750484,8.47497002 17.9875492,11.599981 C18.0750495,11.5124807 18.1750498,11.4124804 18.2875502,11.2874799 C18.4750509,11.1124793 18.7250518,10.9999789 19.0000528,10.9999789 C19.5500547,10.9999789 20.0000563,11.4499805 20.0000563,11.9999824 C20.0000563,12.2749834 19.8875559,12.5249843 19.7125553,12.7124849 L17.7125482,14.712492 C17.5250476,14.8874926 17.2750467,14.999993 17.0000457,14.999993 C16.7250447,14.999993 16.4750439,14.8874926 16.2875432,14.712492 L14.2875362,12.7124849 C14.1125356,12.5249843 14.0000352,12.2749834 14.0000352,11.9999824 Z M4,11.9999824 C4,11.7249814 4.1125004,11.4749806 4.28750101,11.2874799 L6.28750804,9.28747288 C6.4750087,9.11247226 6.72500958,8.99997187 7.00001055,8.99997187 C7.27501152,8.99997187 7.5250124,9.11247226 7.71251306,9.28747288 L9.71252009,11.2874799 C9.8875207,11.4749806 10.0000211,11.7249814 10.0000211,11.9999824 C10.0000211,12.5499844 9.55001952,12.9999859 9.00001758,12.9999859 C8.72501662,12.9999859 8.47501574,12.8874855 8.28751508,12.7124849 C8.20001477,12.6124846 8.10001442,12.5249843 8.02501415,12.437484 C8.2375149,14.437491 9.93752088,15.9999965 12.0000281,15.9999965 C12.7250307,15.9999965 13.4000331,15.8124958 13.9875351,15.4749946 L14.0000352,15.4624946 C14.4750368,15.1874936 15.087539,15.3499942 15.36254,15.8249959 C15.6375409,16.3124976 15.4750404,16.9249997 15.0000387,17.2000007 C14.1125356,17.7125025 13.087532,18.0000035 12.0000281,18.0000035 C8.82501697,18.0000035 6.22500782,15.5249948 6.01250708,12.3999838 C5.92500677,12.4874841 5.82500642,12.5874845 5.71250602,12.7124849 C5.52500536,12.8874855 5.27500448,12.9999859 5.00000352,12.9999859 C4.45000158,12.9999859 4,12.5499844 4,11.9999824 Z" id="icon"></path>
                </g>
                <path d="M135.500016,29.9999965 C135.275015,29.9999965 135.037514,29.9249962 134.850014,29.7624956 L131.350001,26.7624851 C130.9375,26.3999838 130.8875,25.7624816 131.250001,25.3499801 C131.600002,24.9249786 132.237504,24.8874785 132.650006,25.2374797 L135.500016,27.6874884 L138.350026,25.2374797 C138.775027,24.8874785 139.40003,24.9249786 139.762531,25.3499801 C140.125032,25.7624816 140.075032,26.3999838 139.65003,26.7624851 L136.150018,29.7624956 C135.962517,29.9249962 135.737517,29.9999965 135.500016,29.9999965 Z" id="arrow" fill="#FFFFFF"></path>
                <rect id="line" fill-opacity="0.4" fill="#FFFFFF" x="48" y="24" width="77" height="6" rx="3"></rect>
                <g id="avatar" transform="translate(12.000000, 12.000000)" fill="#FFFFFF">
                    <rect id="container" fill-opacity="0.3" x="0" y="0" width="30" height="30" rx="15"></rect>
                    <path d="M12.000007,11.9999719 C12.000007,10.337466 13.3375117,8.99996132 15.0000176,8.99996132 C16.6625234,8.99996132 18.0000281,10.337466 18.0000281,11.9999719 C18.0000281,13.6624777 16.6625234,14.9999824 15.0000176,14.9999824 C13.3375117,14.9999824 12.000007,13.6624777 12.000007,11.9999719 Z M17.5000264,15.9999859 C18.8750312,15.9999859 20.0000352,17.1249899 20.0000352,18.4999947 L20.0000352,19.4999982 C20.0000352,20.3250011 19.3250328,21.0000035 18.5000299,21.0000035 L11.5000053,21.0000035 C10.6750024,21.0000035 10,20.3250011 10,19.4999982 L10,18.4999947 C10,17.1249899 11.125004,15.9999859 12.5000088,15.9999859 L17.5000264,15.9999859 Z" id="icon"></path>
                </g>
            </g>
        </g>
        <rect id="border" stroke-opacity="0.12" stroke="#0E141A" stroke-width="2" x="63" y="89" width="334" height="490" rx="4"></rect>
    </g>
</svg>