<svg width="432" height="704" viewBox="0 0 432 704" xmlns="http://www.w3.org/2000/svg" xmlns:xlink="http://www.w3.org/1999/xlink"><defs><path d="M64 492h208l-11.523 132.52a6 6 0 0 1-5.978 5.48H81.501a6 6 0 0 1-5.978-5.48L64 492z" id="b"/><filter x="-22.4%" y="-20.7%" width="144.7%" height="167.4%" filterUnits="objectBoundingBox" id="a"><feOffset dy="18" in="SourceAlpha" result="shadowOffsetOuter1"/><feGaussianBlur stdDeviation="12.5" in="shadowOffsetOuter1" result="shadowBlurOuter1"/><feColorMatrix values="0 0 0 0 0 0 0 0 0 0 0 0 0 0 0 0 0 0 0.2 0" in="shadowBlurOuter1"/></filter><path d="M64 492h208l-11.523 132.52a6 6 0 0 1-5.978 5.48H81.501a6 6 0 0 1-5.978-5.48L64 492z" id="d"/><filter x="-9.4%" y="-12%" width="118.8%" height="128.3%" filterUnits="objectBoundingBox" id="c"><feOffset dy="3" in="SourceAlpha" result="shadowOffsetOuter1"/><feGaussianBlur stdDeviation="6" in="shadowOffsetOuter1" result="shadowBlurOuter1"/><feColorMatrix values="0 0 0 0 0 0 0 0 0 0 0 0 0 0 0 0 0 0 0.1 0" in="shadowBlurOuter1"/></filter><path d="M81.402 0h173.196a6 6 0 0 1 5.967 5.372L272 114H64L75.435 5.372A6 6 0 0 1 81.402 0z" id="f"/><filter x="-22.4%" y="-25%" width="144.7%" height="181.6%" filterUnits="objectBoundingBox" id="e"><feOffset dy="18" in="SourceAlpha" result="shadowOffsetOuter1"/><feGaussianBlur stdDeviation="12.5" in="shadowOffsetOuter1" result="shadowBlurOuter1"/><feColorMatrix values="0 0 0 0 0 0 0 0 0 0 0 0 0 0 0 0 0 0 0.2 0" in="shadowBlurOuter1"/></filter><path d="M81.402 0h173.196a6 6 0 0 1 5.967 5.372L272 114H64L75.435 5.372A6 6 0 0 1 81.402 0z" id="h"/><filter x="-9.4%" y="-14.5%" width="118.8%" height="134.2%" filterUnits="objectBoundingBox" id="g"><feOffset dy="3" in="SourceAlpha" result="shadowOffsetOuter1"/><feGaussianBlur stdDeviation="6" in="shadowOffsetOuter1" result="shadowBlurOuter1"/><feColorMatrix values="0 0 0 0 0 0 0 0 0 0 0 0 0 0 0 0 0 0 0.1 0" in="shadowBlurOuter1"/></filter><path d="M272.488 114C311.012 114 336 138.138 336 175.35v255.3c0 37.212-24.988 61.35-63.512 61.35H63.512C24.988 492 0 467.862 0 430.65v-255.3C0 138.139 24.988 114 63.512 114h208.976z" id="j"/><filter x="-18.8%" y="-13.5%" width="144.6%" height="139.7%" filterUnits="objectBoundingBox" id="i"><feOffset dx="12" dy="24" in="SourceAlpha" result="shadowOffsetOuter1"/><feGaussianBlur stdDeviation="21" in="shadowOffsetOuter1" result="shadowBlurOuter1"/><feColorMatrix values="0 0 0 0 0 0 0 0 0 0 0 0 0 0 0 0 0 0 0.4 0" in="shadowBlurOuter1"/></filter><path d="M272.488 114C311.012 114 336 138.138 336 175.35v255.3c0 37.212-24.988 61.35-63.512 61.35H63.512C24.988 492 0 467.862 0 430.65v-255.3C0 138.139 24.988 114 63.512 114h208.976z" id="l"/><filter x="-2.2%" y="-2%" width="106.2%" height="105.6%" filterUnits="objectBoundingBox" id="k"><feOffset dx="3" dy="3" in="SourceAlpha" result="shadowOffsetOuter1"/><feGaussianBlur stdDeviation="3" in="shadowOffsetOuter1" result="shadowBlurOuter1"/><feColorMatrix values="0 0 0 0 0 0 0 0 0 0 0 0 0 0 0 0 0 0 0.3 0" in="shadowBlurOuter1"/></filter><path d="M272.488 114C311.012 114 336 138.138 336 175.35v255.3c0 37.212-24.988 61.35-63.512 61.35H63.512C24.988 492 0 467.862 0 430.65v-255.3C0 138.139 24.988 114 63.512 114h208.976z" id="n"/><filter x="-.1%" y="-.1%" width="100.3%" height="100.5%" filterUnits="objectBoundingBox" id="m"><feOffset dy="1" in="SourceAlpha" result="shadowOffsetOuter1"/><feColorMatrix values="0 0 0 0 0 0 0 0 0 0 0 0 0 0 0 0 0 0 0.2 0" in="shadowOffsetOuter1"/></filter><path d="M255.497 0C286.737 0 307 19.505 307 49.575v248.85c0 30.07-20.263 49.575-51.503 49.575H51.503C20.263 348 0 328.495 0 298.425V49.575C0 19.505 20.263 0 51.503 0h203.994z" id="o"/><linearGradient x1="50%" y1="100%" x2="50%" y2="50%" id="p"><stop stop-color="#FFF" stop-opacity=".01" offset="0%"/><stop stop-color="#FFF" stop-opacity=".121" offset="100%"/></linearGradient><linearGradient x1="50%" y1="70.217%" x2="50%" y2="0%" id="r"><stop stop-color="#0E141A" stop-opacity="0" offset="0%"/><stop stop-color="#0E141A" stop-opacity=".483" offset="100%"/></linearGradient><linearGradient x1="50%" y1="59.999%" x2="50%" y2="0%" id="s"><stop stop-color="#0E141A" stop-opacity="0" offset="0%"/><stop stop-color="#0E141A" stop-opacity="0" offset="50.602%"/><stop stop-color="#0E141A" stop-opacity=".796" offset="100%"/></linearGradient><linearGradient x1="0%" y1="100%" y2="0%" id="t"><stop stop-color="#FFF" stop-opacity=".299" offset="0%"/><stop stop-color="#FFF" offset="100%"/></linearGradient><linearGradient x1="100%" y1="0%" x2="0%" y2="100%" id="u"><stop stop-color="#FFF" offset="0%"/><stop stop-color="#FFF" stop-opacity=".3" offset="99.538%"/></linearGradient><path d="M255.497 0C286.737 0 307 19.505 307 49.575v248.85c0 30.07-20.263 49.575-51.503 49.575H51.503C20.263 348 0 328.495 0 298.425V49.575C0 19.505 20.263 0 51.503 0h203.994z" id="w"/><filter x="-.3%" y="-.3%" width="100.7%" height="100.6%" filterUnits="objectBoundingBox" id="v"><feGaussianBlur stdDeviation=".5" in="SourceAlpha" result="shadowBlurInner1"/><feOffset dy="1" in="shadowBlurInner1" result="shadowOffsetInner1"/><feComposite in="shadowOffsetInner1" in2="SourceAlpha" operator="arithmetic" k2="-1" k3="1" result="shadowInnerInner1"/><feColorMatrix values="0 0 0 0 1 0 0 0 0 1 0 0 0 0 1 0 0 0 0.06 0" in="shadowInnerInner1"/></filter><path d="M255.497 0C286.737 0 307 19.505 307 49.575v248.85c0 30.07-20.263 49.575-51.503 49.575H51.503C20.263 348 0 328.495 0 298.425V49.575C0 19.505 20.263 0 51.503 0h203.994z" id="y"/><filter x="-.3%" y="-.3%" width="100.7%" height="100.6%" filterUnits="objectBoundingBox" id="x"><feGaussianBlur stdDeviation=".5" in="SourceAlpha" result="shadowBlurInner1"/><feOffset dy="-1" in="shadowBlurInner1" result="shadowOffsetInner1"/><feComposite in="shadowOffsetInner1" in2="SourceAlpha" operator="arithmetic" k2="-1" k3="1" result="shadowInnerInner1"/><feColorMatrix values="0 0 0 0 1 0 0 0 0 1 0 0 0 0 1 0 0 0 0.02 0" in="shadowInnerInner1"/></filter><path d="M255.497 0C286.737 0 307 19.505 307 49.575v248.85c0 30.07-20.263 49.575-51.503 49.575H51.503C20.263 348 0 328.495 0 298.425V49.575C0 19.505 20.263 0 51.503 0h203.994z" id="A"/><filter x="-4.9%" y="-4.3%" width="109.8%" height="108.6%" filterUnits="objectBoundingBox" id="z"><feGaussianBlur stdDeviation="6" in="SourceAlpha" result="shadowBlurInner1"/><feOffset dx="18" dy="-6" in="shadowBlurInner1" result="shadowOffsetInner1"/><feComposite in="shadowOffsetInner1" in2="SourceAlpha" operator="arithmetic" k2="-1" k3="1" result="shadowInnerInner1"/><feColorMatrix values="0 0 0 0 1 0 0 0 0 1 0 0 0 0 1 0 0 0 0.02 0" in="shadowInnerInner1"/></filter></defs><g fill="none" fill-rule="evenodd"><use filter="url(#a)" xlink:href="#b" fill="#000" transform="translate(33 16)"/><use filter="url(#c)" xlink:href="#d" fill="#000" transform="translate(33 16)"/><use filter="url(#e)" xlink:href="#f" fill="#000" transform="translate(33 16)"/><use filter="url(#g)" xlink:href="#h" fill="#000" transform="translate(33 16)"/><use filter="url(#i)" xlink:href="#j" fill="#000" transform="translate(33 16)"/><use filter="url(#k)" xlink:href="#l" fill="#000" transform="translate(33 16)"/><use filter="url(#m)" xlink:href="#n" fill="#000" transform="translate(33 16)"/><path d="M305.488 130C344.012 130 369 154.138 369 191.35v255.3c0 37.212-24.988 61.35-63.512 61.35H96.512C57.988 508 33 483.862 33 446.65v-255.3C33 154.139 57.988 130 96.512 130h208.976z" fill="#0E141A"/><path d="M97 508h208l-11.523 132.52a6 6 0 0 1-5.978 5.48H114.501a6 6 0 0 1-5.978-5.48L97 508zm17.402-492h173.196a6 6 0 0 1 5.967 5.372L305 130H97l11.435-108.628A6 6 0 0 1 114.402 16z" fill-opacity=".8" fill="#0E141A"/><g transform="translate(48 145)"><mask id="q" fill="#fff"><use xlink:href="#o"/></mask><use fill="#0E141A" xlink:href="#o"/><path d="M285-33.72C285 3.11 269.159 27 244.737 27H61.263C36.841 27 21 3.11 21-33.72h264z" fill="url(#p)" mask="url(#q)"/><g mask="url(#q)"><g transform="translate(57 231)"><rect fill="#00AE55" width="192" height="72" rx="12"/><rect fill="url(#r)" width="192" height="72" rx="12"/><rect fill="url(#s)" width="192" height="72" rx="12"/><path d="M44.23 34.318h1.656c1.962 0 3.564-1.134 3.564-3.69s-1.602-3.708-3.564-3.708H44.23v7.398zM45.994 37h-4.608V24.238h4.626c3.834 0 6.408 2.448 6.408 6.39 0 3.942-2.574 6.372-6.426 6.372zm10.35-5.544h3.582c-.036-.684-.504-1.512-1.8-1.512-1.152 0-1.728.846-1.782 1.512zm3.78 2.322l2.286.648c-.432 1.548-1.854 2.844-4.122 2.844-2.466 0-4.662-1.764-4.662-4.77 0-2.88 2.142-4.716 4.464-4.716 2.772 0 4.482 1.71 4.482 4.59 0 .378-.036.792-.054.846H56.29c.054 1.008.972 1.728 2.034 1.728.99 0 1.548-.468 1.8-1.17zm6.948 6.642h-2.736V28.054h2.646v.918c.378-.576 1.35-1.134 2.628-1.134 2.592 0 4.158 1.98 4.158 4.662 0 2.736-1.764 4.698-4.266 4.698-1.152 0-2.016-.396-2.43-.9v4.122zm4.014-7.902c0-1.494-.954-2.214-2.034-2.214-1.062 0-2.016.72-2.016 2.214 0 1.476.954 2.232 2.016 2.232 1.08 0 2.034-.738 2.034-2.232zm3.906 2.016c0-1.584 1.17-2.484 2.646-2.7l2.106-.324c.486-.072.648-.306.648-.612 0-.522-.45-.972-1.314-.972-.954 0-1.476.648-1.53 1.314l-2.376-.486c.108-1.278 1.296-2.97 3.924-2.97 2.898 0 3.96 1.62 3.96 3.456v4.374c0 .702.09 1.296.108 1.386h-2.466c-.018-.072-.09-.396-.09-1.008-.468.756-1.332 1.26-2.52 1.26-1.962 0-3.096-1.296-3.096-2.718zm3.762.738c.81 0 1.638-.396 1.638-1.782v-.396l-1.692.27c-.576.09-1.008.36-1.008.99 0 .468.306.918 1.062.918zm12.294-7.218c-.18-.054-.45-.09-.72-.09-.72 0-1.854.288-2.322 1.296v-1.206H85.36V37h2.736v-3.906c0-1.782.99-2.43 2.088-2.43.27 0 .558.018.864.09v-2.7zm4.842-2.61h-2.448v1.152c0 .828-.45 1.458-1.386 1.458h-.45v2.394h1.584v3.834c0 1.782 1.134 2.88 2.988 2.88.864 0 1.314-.198 1.422-.252v-2.268c-.162.036-.432.09-.72.09-.594 0-.99-.198-.99-.936v-3.348h1.746v-2.394H95.89v-2.61zM105.268 37h2.628a14.03 14.03 0 0 1-.09-1.602v-7.344h-2.736v5.094c0 .9-.576 1.53-1.494 1.53-.972 0-1.44-.684-1.44-1.548v-5.076H99.4v5.652c0 1.908 1.224 3.492 3.402 3.492.9 0 1.926-.324 2.394-1.098 0 .234.036.738.072.9zm10.638-8.946c-.18-.054-.45-.09-.72-.09-.72 0-1.854.288-2.322 1.296v-1.206h-2.646V37h2.736v-3.906c0-1.782.99-2.43 2.088-2.43.27 0 .558.018.864.09v-2.7zm3.636 3.402h3.582c-.036-.684-.504-1.512-1.8-1.512-1.152 0-1.728.846-1.782 1.512zm3.78 2.322l2.286.648c-.432 1.548-1.854 2.844-4.122 2.844-2.466 0-4.662-1.764-4.662-4.77 0-2.88 2.142-4.716 4.464-4.716 2.772 0 4.482 1.71 4.482 4.59 0 .378-.036.792-.054.846h-6.228c.054 1.008.972 1.728 2.034 1.728.99 0 1.548-.468 1.8-1.17zm11.916-8.334h-2.448v1.152c0 .828-.45 1.458-1.386 1.458h-.45v2.394h1.584v3.834c0 1.782 1.134 2.88 2.988 2.88.864 0 1.314-.198 1.422-.252v-2.268c-.162.036-.432.09-.72.09-.594 0-.99-.198-.99-.936v-3.348h1.746v-2.394h-1.746v-2.61zm7.704 9.306c1.044 0 2.016-.72 2.016-2.232 0-1.512-.972-2.214-2.016-2.214-1.026 0-2.016.702-2.016 2.214 0 1.494.99 2.232 2.016 2.232zm0-6.966c2.682 0 4.752 1.962 4.752 4.734 0 2.772-2.07 4.752-4.752 4.752-2.664 0-4.752-1.98-4.752-4.752s2.088-4.734 4.752-4.734zM49.738 61v-2.718H44.23V48.238h-2.844V61h8.352zm4.392 0v-8.946h-2.736V61h2.736zm-2.97-11.682c0 .882.72 1.602 1.584 1.602.9 0 1.62-.72 1.62-1.602a1.61 1.61 0 0 0-1.62-1.602c-.864 0-1.584.72-1.584 1.602zm10.458 5.04v-2.304h-1.944v-.684c0-.99.684-1.206 1.17-1.206.432 0 .666.054.81.09v-2.232c-.252-.126-.738-.198-1.296-.198-2.178 0-3.42 1.404-3.42 3.456v.774h-1.422v2.304h1.422V61h2.736v-6.642h1.944zm3.51 1.098h3.582c-.036-.684-.504-1.512-1.8-1.512-1.152 0-1.728.846-1.782 1.512zm3.78 2.322l2.286.648c-.432 1.548-1.854 2.844-4.122 2.844-2.466 0-4.662-1.764-4.662-4.77 0-2.88 2.142-4.716 4.464-4.716 2.772 0 4.482 1.71 4.482 4.59 0 .378-.036.792-.054.846h-6.228c.054 1.008.972 1.728 2.034 1.728.99 0 1.548-.468 1.8-1.17zm9.9-5.724c-.18-.054-.45-.09-.72-.09-.72 0-1.854.288-2.322 1.296v-1.206H73.12V61h2.736v-3.906c0-1.782.99-2.43 2.088-2.43.27 0 .558.018.864.09v-2.7zm1.026 6.48c0-1.584 1.17-2.484 2.646-2.7l2.106-.324c.486-.072.648-.306.648-.612 0-.522-.45-.972-1.314-.972-.954 0-1.476.648-1.53 1.314l-2.376-.486c.108-1.278 1.296-2.97 3.924-2.97 2.898 0 3.96 1.62 3.96 3.456v4.374c0 .702.09 1.296.108 1.386H85.54c-.018-.072-.09-.396-.09-1.008-.468.756-1.332 1.26-2.52 1.26-1.962 0-3.096-1.296-3.096-2.718zm3.762.738c.81 0 1.638-.396 1.638-1.782v-.396l-1.692.27c-.576.09-1.008.36-1.008.99 0 .468.306.918 1.062.918zm10.116 5.166l5.508-12.384h-2.898l-1.98 4.788-2.178-4.788h-3.06l3.762 7.74-2.034 4.644h2.88zM111.352 61l-2.286-4.752h-1.008V61h-2.844V48.238h5.058c2.52 0 4.14 1.728 4.14 3.996 0 1.728-.954 3.042-2.52 3.6L114.484 61h-3.132zm-3.294-7.2h1.674c1.17 0 1.8-.648 1.8-1.548 0-.954-.63-1.548-1.8-1.548h-1.674V53.8zm10.35 1.656h3.582c-.036-.684-.504-1.512-1.8-1.512-1.152 0-1.728.846-1.782 1.512zm3.78 2.322l2.286.648c-.432 1.548-1.854 2.844-4.122 2.844-2.466 0-4.662-1.764-4.662-4.77 0-2.88 2.142-4.716 4.464-4.716 2.772 0 4.482 1.71 4.482 4.59 0 .378-.036.792-.054.846h-6.228c.054 1.008.972 1.728 2.034 1.728.99 0 1.548-.468 1.8-1.17zm7.488-8.334h-2.448v1.152c0 .828-.45 1.458-1.386 1.458h-.45v2.394h1.584v3.834c0 1.782 1.134 2.88 2.988 2.88.864 0 1.314-.198 1.422-.252v-2.268c-.162.036-.432.09-.72.09-.594 0-.99-.198-.99-.936v-3.348h1.746v-2.394h-1.746v-2.61zm9.288 2.61c-.18-.054-.45-.09-.72-.09-.72 0-1.854.288-2.322 1.296v-1.206h-2.646V61h2.736v-3.906c0-1.782.99-2.43 2.088-2.43.27 0 .558.018.864.09v-2.7zm3.636 3.402h3.582c-.036-.684-.504-1.512-1.8-1.512-1.152 0-1.728.846-1.782 1.512zm3.78 2.322l2.286.648c-.432 1.548-1.854 2.844-4.122 2.844-2.466 0-4.662-1.764-4.662-4.77 0-2.88 2.142-4.716 4.464-4.716 2.772 0 4.482 1.71 4.482 4.59 0 .378-.036.792-.054.846h-6.228c.054 1.008.972 1.728 2.034 1.728.99 0 1.548-.468 1.8-1.17zm3.672.756c0-1.584 1.17-2.484 2.646-2.7l2.106-.324c.486-.072.648-.306.648-.612 0-.522-.45-.972-1.314-.972-.954 0-1.476.648-1.53 1.314l-2.376-.486c.108-1.278 1.296-2.97 3.924-2.97 2.898 0 3.96 1.62 3.96 3.456v4.374c0 .702.09 1.296.108 1.386h-2.466c-.018-.072-.09-.396-.09-1.008-.468.756-1.332 1.26-2.52 1.26-1.962 0-3.096-1.296-3.096-2.718zm3.762.738c.81 0 1.638-.396 1.638-1.782v-.396l-1.692.27c-.576.09-1.008.36-1.008.99 0 .468.306.918 1.062.918zm9.882-9.828h-2.448v1.152c0 .828-.45 1.458-1.386 1.458h-.45v2.394h1.584v3.834c0 1.782 1.134 2.88 2.988 2.88.864 0 1.314-.198 1.422-.252v-2.268c-.162.036-.432.09-.72.09-.594 0-.99-.198-.99-.936v-3.348h1.746v-2.394h-1.746v-2.61zM27.867 32.483A.911.911 0 0 0 28 32c0-.55-.433-1-1-1h-2.85c.233-1.567.85-5.85.85-5.85V25c0-.55-.45-1-1-1-.4 0-.717.233-.883.55l-4.984 8.967A.911.911 0 0 0 18 34c0 .55.433 1 1 1h2.85c-.267 1.883-.85 5.85-.85 5.85V41c0 .55.45 1 1 1 .4 0 .717-.233.883-.55l4.984-8.967z" fill-opacity=".6" fill="#0E141A"/></g></g><g mask="url(#q)"><g transform="translate(45 141)"><rect fill="#00AE55" width="216" height="102" rx="12"/><path d="M60.48 62V47.111h-4.557L52.038 57.17l-4.095-10.059h-4.326V62h3.15v-9.744L50.652 62h2.688l3.885-9.87V62h3.255zm5.439-6.468h4.179c-.042-.798-.588-1.764-2.1-1.764-1.344 0-2.016.987-2.079 1.764zm4.41 2.709l2.667.756c-.504 1.806-2.163 3.318-4.809 3.318-2.877 0-5.439-2.058-5.439-5.565 0-3.36 2.499-5.502 5.208-5.502 3.234 0 5.229 1.995 5.229 5.355 0 .441-.042.924-.063.987h-7.266c.063 1.176 1.134 2.016 2.373 2.016 1.155 0 1.806-.546 2.1-1.365zm7.329-2.709h4.179c-.042-.798-.588-1.764-2.1-1.764-1.344 0-2.016.987-2.079 1.764zm4.41 2.709l2.667.756c-.504 1.806-2.163 3.318-4.809 3.318-2.877 0-5.439-2.058-5.439-5.565 0-3.36 2.499-5.502 5.208-5.502 3.234 0 5.229 1.995 5.229 5.355 0 .441-.042.924-.063.987h-7.266c.063 1.176 1.134 2.016 2.373 2.016 1.155 0 1.806-.546 2.1-1.365zm8.736-9.723h-2.856v1.344c0 .966-.525 1.701-1.617 1.701h-.525v2.793h1.848v4.473c0 2.079 1.323 3.36 3.486 3.36 1.008 0 1.533-.231 1.659-.294v-2.646a3.937 3.937 0 0 1-.84.105c-.693 0-1.155-.231-1.155-1.092v-3.906h2.037v-2.793h-2.037v-3.045zm15.309 3.045l-2.058 6.174-1.743-6.174h-3.318L102.27 62h3.234l2.226-6.741L109.998 62h3.171l3.234-10.437h-3.129l-1.743 6.195-2.037-6.195h-3.381zM121.233 62V51.563h-3.192V62h3.192zm-3.465-13.629c0 1.029.84 1.869 1.848 1.869 1.05 0 1.89-.84 1.89-1.869s-.84-1.869-1.89-1.869c-1.008 0-1.848.84-1.848 1.869zm10.08.147h-2.856v1.344c0 .966-.525 1.701-1.617 1.701h-.525v2.793h1.848v4.473c0 2.079 1.323 3.36 3.486 3.36 1.008 0 1.533-.231 1.659-.294v-2.646a3.937 3.937 0 0 1-.84.105c-.693 0-1.155-.231-1.155-1.092v-3.906h2.037v-2.793h-2.037v-3.045zm7.392 7.35c.063-.966.714-1.68 1.722-1.68 1.155 0 1.701.777 1.701 1.806V62h3.192v-6.552c0-2.289-1.218-4.158-3.948-4.158-.924 0-2.016.294-2.667.945v-5.439h-3.192V62h3.192v-6.132zm25.956-5.586v-3.171h-12.495v3.171h4.578V62h3.318V50.282h4.599zm1.176 8.841c0-1.848 1.365-2.898 3.087-3.15l2.457-.378c.567-.084.756-.357.756-.714 0-.609-.525-1.134-1.533-1.134-1.113 0-1.722.756-1.785 1.533l-2.772-.567c.126-1.491 1.512-3.465 4.578-3.465 3.381 0 4.62 1.89 4.62 4.032v5.103c0 .819.105 1.512.126 1.617h-2.877c-.021-.084-.105-.462-.105-1.176-.546.882-1.554 1.47-2.94 1.47-2.289 0-3.612-1.512-3.612-3.171zm4.389.861c.945 0 1.911-.462 1.911-2.079v-.462l-1.974.315c-.672.105-1.176.42-1.176 1.155 0 .546.357 1.071 1.239 1.071zm11.529-11.466h-2.856v1.344c0 .966-.525 1.701-1.617 1.701h-.525v2.793h1.848v4.473c0 2.079 1.323 3.36 3.486 3.36 1.008 0 1.533-.231 1.659-.294v-2.646a3.937 3.937 0 0 1-.84.105c-.693 0-1.155-.231-1.155-1.092v-3.906h2.037v-2.793h-2.037v-3.045zM185.682 62V51.563h-3.192V62h3.192zm-3.465-13.629c0 1.029.84 1.869 1.848 1.869 1.05 0 1.89-.84 1.89-1.869s-.84-1.869-1.89-1.869c-1.008 0-1.848.84-1.848 1.869zM60.48 86V71.111h-4.557L52.038 81.17l-4.095-10.059h-4.326V86h3.15v-9.744L50.652 86h2.688l3.885-9.87V86h3.255zm9.66-10.437a3.154 3.154 0 0 0-.84-.105c-.84 0-2.163.336-2.709 1.512v-1.407h-3.087V86h3.192v-4.557c0-2.079 1.155-2.835 2.436-2.835.315 0 .651.021 1.008.105v-3.15zm1.701 8.463c0 1.155.966 2.163 2.142 2.163s2.163-1.008 2.163-2.163c0-1.176-.987-2.142-2.163-2.142a2.151 2.151 0 0 0-2.142 2.142zm19.236 2.289c4.62 0 6.594-3.15 7.077-5.208l-3.171-.903c-.294 1.071-1.323 2.793-3.906 2.793-2.226 0-4.284-1.617-4.284-4.41 0-3.129 2.247-4.557 4.242-4.557 2.625 0 3.57 1.743 3.801 2.772l3.129-.987c-.483-2.142-2.457-5.019-6.93-5.019-4.158 0-7.686 3.15-7.686 7.791s3.444 7.728 7.728 7.728zM105 83.375c1.218 0 2.352-.84 2.352-2.604 0-1.764-1.134-2.583-2.352-2.583-1.197 0-2.352.819-2.352 2.583 0 1.743 1.155 2.604 2.352 2.604zm0-8.127c3.129 0 5.544 2.289 5.544 5.523 0 3.234-2.415 5.544-5.544 5.544-3.108 0-5.544-2.31-5.544-5.544 0-3.234 2.436-5.523 5.544-5.523zm20.412 3.003v-2.688h-2.268v-.903c0-1.05.798-1.302 1.365-1.302.462 0 .777.063.945.105v-2.625c-.294-.147-.987-.21-1.533-.21-2.52 0-3.969 1.638-3.969 4.032v.903h-3.675v-.903c0-1.05.819-1.302 1.365-1.302.483 0 .777.063.945.105v-2.604c-.294-.147-.987-.231-1.512-.231-2.541 0-3.99 1.638-3.99 4.032v.903h-1.659v2.688h1.659V86h3.192v-7.749h3.675V86h3.192v-7.749h2.268zm4.095 1.281h4.179c-.042-.798-.588-1.764-2.1-1.764-1.344 0-2.016.987-2.079 1.764zm4.41 2.709l2.667.756c-.504 1.806-2.163 3.318-4.809 3.318-2.877 0-5.439-2.058-5.439-5.565 0-3.36 2.499-5.502 5.208-5.502 3.234 0 5.229 1.995 5.229 5.355 0 .441-.042.924-.063.987h-7.266c.063 1.176 1.134 2.016 2.373 2.016 1.155 0 1.806-.546 2.1-1.365zm7.329-2.709h4.179c-.042-.798-.588-1.764-2.1-1.764-1.344 0-2.016.987-2.079 1.764zm4.41 2.709l2.667.756c-.504 1.806-2.163 3.318-4.809 3.318-2.877 0-5.439-2.058-5.439-5.565 0-3.36 2.499-5.502 5.208-5.502 3.234 0 5.229 1.995 5.229 5.355 0 .441-.042.924-.063.987h-7.266c.063 1.176 1.134 2.016 2.373 2.016 1.155 0 1.806-.546 2.1-1.365z" fill-opacity=".6" fill="#0E141A"/><rect fill-opacity=".6" fill="#0E141A" x="24" y="42" width="6" height="48" rx="3"/><path d="M26.65 30V13.775h-3.375c-.275 1.65-2 3.025-4.425 3.05v2.625h3.875V30h3.925zm6.65-8.1c0 1.3.15 2.575.6 3.525.45.9 1.175 1.5 2.375 1.5 1.225 0 1.925-.6 2.375-1.5.475-.95.625-2.225.625-3.525 0-1.3-.15-2.575-.625-3.525-.45-.9-1.15-1.5-2.375-1.5-1.2 0-1.925.6-2.375 1.5-.45.95-.6 2.225-.6 3.525zm-3.95 0c0-2 .3-4.025 1.425-5.725 1.075-1.625 2.875-2.775 5.5-2.775 2.65 0 4.45 1.15 5.525 2.775 1.125 1.7 1.425 3.725 1.425 5.725 0 2-.3 4.025-1.425 5.725-1.075 1.6-2.875 2.775-5.525 2.775-2.625 0-4.425-1.175-5.5-2.775-1.125-1.7-1.425-3.725-1.425-5.725zm16.3 5.825c0 1.325 1.125 2.5 2.5 2.5 1.35 0 2.5-1.175 2.5-2.5 0-1.375-1.15-2.5-2.5-2.5a2.507 2.507 0 0 0-2.5 2.5zm0-7.875c0 1.325 1.125 2.5 2.5 2.5 1.35 0 2.5-1.175 2.5-2.5 0-1.375-1.15-2.5-2.5-2.5a2.507 2.507 0 0 0-2.5 2.5zm11.75 3.1a3.27 3.27 0 0 1 1.45-.375c1.15 0 2.35.65 2.35 2.2 0 1.2-.9 2.225-2.425 2.225s-2.55-1.125-2.6-2.55l-3.8.7c.25 2.775 2.65 5.2 6.425 5.2 4 0 6.375-2.6 6.375-5.475 0-2.775-2.05-4.775-4.55-4.95l4-3.1v-3.05h-11.7v3.3H59.7l-4 3.275 1.7 2.6zm13.325-1.05c0 1.3.15 2.575.6 3.525.45.9 1.175 1.5 2.375 1.5 1.225 0 1.925-.6 2.375-1.5.475-.95.625-2.225.625-3.525 0-1.3-.15-2.575-.625-3.525-.45-.9-1.15-1.5-2.375-1.5-1.2 0-1.925.6-2.375 1.5-.45.95-.6 2.225-.6 3.525zm-3.95 0c0-2 .3-4.025 1.425-5.725 1.075-1.625 2.875-2.775 5.5-2.775 2.65 0 4.45 1.15 5.525 2.775 1.125 1.7 1.425 3.725 1.425 5.725 0 2-.3 4.025-1.425 5.725-1.075 1.6-2.875 2.775-5.525 2.775-2.625 0-4.425-1.175-5.5-2.775-1.125-1.7-1.425-3.725-1.425-5.725zM96 24.1v-3.3H83.075v3.3H96zm10.15 5.9V13.775h-3.375c-.275 1.65-2 3.025-4.425 3.05v2.625h3.875V30h3.925zm10.425 0V13.775H113.2c-.275 1.65-2 3.025-4.425 3.05v2.625h3.875V30h3.925zm11.711 0l-.918-2.592h-4.932L121.518 30h-2.988l4.806-12.762h3.294L131.382 30h-3.096zm-3.348-9.594l-1.566 4.41h3.096l-1.53-4.41zM147.402 30V17.238h-3.906l-3.33 8.622-3.51-8.622h-3.708V30h2.7v-8.352l3.33 8.352h2.304l3.33-8.46V30h2.79z" fill="#FFF"/></g></g><path d="M135.896 116V79.656h-7.56c-.616 3.696-4.48 6.776-9.912 6.832v5.88h8.68V116h8.792zm14.896-18.144c0 2.912.336 5.768 1.344 7.896 1.008 2.016 2.632 3.36 5.32 3.36 2.744 0 4.312-1.344 5.32-3.36 1.064-2.128 1.4-4.984 1.4-7.896s-.336-5.768-1.4-7.896c-1.008-2.016-2.576-3.36-5.32-3.36-2.688 0-4.312 1.344-5.32 3.36-1.008 2.128-1.344 4.984-1.344 7.896zm-8.848 0c0-4.48.672-9.016 3.192-12.824 2.408-3.64 6.44-6.216 12.32-6.216 5.936 0 9.968 2.576 12.376 6.216 2.52 3.808 3.192 8.344 3.192 12.824s-.672 9.016-3.192 12.824c-2.408 3.584-6.44 6.216-12.376 6.216-5.88 0-9.912-2.632-12.32-6.216-2.52-3.808-3.192-8.344-3.192-12.824zm36.512 13.048c0 2.968 2.52 5.6 5.6 5.6 3.024 0 5.6-2.632 5.6-5.6 0-3.08-2.576-5.6-5.6-5.6-3.08 0-5.6 2.52-5.6 5.6zm0-17.64c0 2.968 2.52 5.6 5.6 5.6 3.024 0 5.6-2.632 5.6-5.6 0-3.08-2.576-5.6-5.6-5.6-3.08 0-5.6 2.52-5.6 5.6zm25.536 4.592c0 2.912.336 5.768 1.344 7.896 1.008 2.016 2.632 3.36 5.32 3.36 2.744 0 4.312-1.344 5.32-3.36 1.064-2.128 1.4-4.984 1.4-7.896s-.336-5.768-1.4-7.896c-1.008-2.016-2.576-3.36-5.32-3.36-2.688 0-4.312 1.344-5.32 3.36-1.008 2.128-1.344 4.984-1.344 7.896zm-8.848 0c0-4.48.672-9.016 3.192-12.824 2.408-3.64 6.44-6.216 12.32-6.216 5.936 0 9.968 2.576 12.376 6.216 2.52 3.808 3.192 8.344 3.192 12.824s-.672 9.016-3.192 12.824c-2.408 3.584-6.44 6.216-12.376 6.216-5.88 0-9.912-2.632-12.32-6.216-2.52-3.808-3.192-8.344-3.192-12.824zm35.952 17.08l1.904-7.112c1.176.616 3.808 1.456 6.384 1.456 5.544 0 10.472-2.52 11.032-8.96-1.512 2.24-4.648 3.528-7.896 3.528-7 0-12.544-4.928-12.544-12.208 0-7.392 5.712-12.824 14.224-12.824 8.288 0 14.728 5.88 14.728 17.472 0 12.88-6.888 20.552-19.376 20.552-3.248 0-6.552-.784-8.456-1.904zM249.24 91.36c0-3.024-2.352-5.152-5.432-5.152-3.08 0-5.432 2.128-5.432 5.152s2.352 5.152 5.432 5.152c3.08 0 5.432-2.184 5.432-5.152z" fill="url(#t)" mask="url(#q)"/><g mask="url(#q)"><g transform="translate(45 69)" fill="#FFF"><rect fill-opacity=".3" width="48" height="48" rx="24"/><path d="M8 24c0-.55.225-1.05.575-1.425l4-4A2.09 2.09 0 0 1 14 18c.55 0 1.05.225 1.425.575l4 4c.35.375.575.875.575 1.425 0 1.1-.9 2-2 2a2.09 2.09 0 0 1-1.425-.575c-.175-.2-.375-.375-.525-.55.425 4 3.825 7.125 7.95 7.125 1.45 0 2.8-.375 3.975-1.05l.025-.025a1.998 1.998 0 0 1 2.725.725c.55.975.225 2.2-.725 2.75a11.957 11.957 0 0 1-6 1.6c-6.35 0-11.55-4.95-11.975-11.2-.175.175-.375.375-.6.625A2.09 2.09 0 0 1 10 26c-1.1 0-2-.9-2-2z" fill-opacity=".5"/><path d="M28 24c0-1.1.9-2 2-2 .55 0 1.05.225 1.425.575.175.2.375.375.525.55-.425-4-3.825-7.125-7.95-7.125-1.45 0-2.8.375-3.975 1.05l-.025.025c-.95.55-2.175.225-2.725-.725-.55-.975-.225-2.2.725-2.75a11.957 11.957 0 0 1 6-1.6c6.35 0 11.55 4.95 11.975 11.2.175-.175.375-.375.6-.625A2.09 2.09 0 0 1 38 22c1.1 0 2 .9 2 2 0 .55-.225 1.05-.575 1.425l-4 4A2.09 2.09 0 0 1 34 30a2.09 2.09 0 0 1-1.425-.575l-4-4A2.09 2.09 0 0 1 28 24z"/></g></g><path d="M198 49.05v-3.775h-14.875v3.775h5.45V63h3.95V49.05H198zm9.275 14.35c3.9 0 7.025-2.35 7.025-6.8V45.275h-3.95v11c0 2.15-1.2 3.225-3.075 3.225-1.875 0-3.075-1.075-3.075-3.225v-11h-3.95V56.6c0 4.45 3.125 6.8 7.025 6.8zm21.975-.4v-3.75h-7.3v-3.4h6.6v-3.475h-6.6V49h7.275v-3.725H218V63h11.25zm16.2 0V46.775h-3.375c-.275 1.65-2 3.025-4.425 3.05v2.625h3.875V63h3.925zm6.5-9.725c-.1-.325-.15-.675-.15-1 0-1.35.75-2.4 2.275-2.4 1.45 0 2.175.9 2.175 1.925 0 1.075-.5 1.75-1.775 2.5l-2.65 1.55C248.85 57.575 248 60.025 248 63h12.325v-3.3h-7.5c.225-.475.625-.8 1.1-1.1L257 56.775c2.075-1.225 3.2-2.95 3.2-5.05 0-2.9-2.3-5.325-6.025-5.325-3.9 0-6.075 2.6-6.075 5.5 0 .5.075 1.15.15 1.35l3.7.025z" fill="url(#u)" mask="url(#q)"/><use filter="url(#v)" xlink:href="#w" fill="#000"/><use filter="url(#x)" xlink:href="#y" fill="#000"/><use filter="url(#z)" xlink:href="#A" fill="#000"/></g></g></svg>