<?xml version="1.0" encoding="UTF-8"?>
<svg width="1188px" height="733px" viewBox="0 0 1188 733" version="1.1" xmlns="http://www.w3.org/2000/svg" xmlns:xlink="http://www.w3.org/1999/xlink">
    <!-- Generator: Sketch 49.1 (51147) - http://www.bohemiancoding.com/sketch -->
    <title>illustration_(laptop)</title>
    <desc>Created with Sketch.</desc>
    <defs>
        <path d="M172,21 L986,21 C1003.67311,21 1018,35.326888 1018,53 L1018,616 C1018,622.075132 1013.07513,627 1007,627 L151,627 C144.924868,627 140,622.075132 140,616 L140,53 C140,35.326888 154.326888,21 172,21 Z" id="path-1"></path>
        <filter x="-7.5%" y="-8.9%" width="118.5%" height="126.7%" filterUnits="objectBoundingBox" id="filter-2">
            <feOffset dx="12" dy="24" in="SourceAlpha" result="shadowOffsetOuter1"></feOffset>
            <feGaussianBlur stdDeviation="21" in="shadowOffsetOuter1" result="shadowBlurOuter1"></feGaussianBlur>
            <feColorMatrix values="0 0 0 0 0.0549019608   0 0 0 0 0.0784313725   0 0 0 0 0.101960784  0 0 0 0.16 0" type="matrix" in="shadowBlurOuter1" result="shadowMatrixOuter1"></feColorMatrix>
            <feOffset dx="3" dy="3" in="SourceAlpha" result="shadowOffsetOuter2"></feOffset>
            <feGaussianBlur stdDeviation="3" in="shadowOffsetOuter2" result="shadowBlurOuter2"></feGaussianBlur>
            <feColorMatrix values="0 0 0 0 0.0549019608   0 0 0 0 0.0784313725   0 0 0 0 0.101960784  0 0 0 0.06 0" type="matrix" in="shadowBlurOuter2" result="shadowMatrixOuter2"></feColorMatrix>
            <feMerge>
                <feMergeNode in="shadowMatrixOuter1"></feMergeNode>
                <feMergeNode in="shadowMatrixOuter2"></feMergeNode>
            </feMerge>
        </filter>
        <filter x="-4.6%" y="-4.7%" width="112.6%" height="118.3%" filterUnits="objectBoundingBox" id="filter-3">
            <feGaussianBlur stdDeviation="3" in="SourceAlpha" result="shadowBlurInner1"></feGaussianBlur>
            <feOffset dx="0" dy="-3" in="shadowBlurInner1" result="shadowOffsetInner1"></feOffset>
            <feComposite in="shadowOffsetInner1" in2="SourceAlpha" operator="arithmetic" k2="-1" k3="1" result="shadowInnerInner1"></feComposite>
            <feColorMatrix values="0 0 0 0 0.0549019608   0 0 0 0 0.0784313725   0 0 0 0 0.101960784  0 0 0 0.16 0" type="matrix" in="shadowInnerInner1" result="shadowMatrixInner1"></feColorMatrix>
            <feGaussianBlur stdDeviation="0.5" in="SourceAlpha" result="shadowBlurInner2"></feGaussianBlur>
            <feOffset dx="0" dy="1" in="shadowBlurInner2" result="shadowOffsetInner2"></feOffset>
            <feComposite in="shadowOffsetInner2" in2="SourceAlpha" operator="arithmetic" k2="-1" k3="1" result="shadowInnerInner2"></feComposite>
            <feColorMatrix values="0 0 0 0 0.0549019608   0 0 0 0 0.0784313725   0 0 0 0 0.101960784  0 0 0 0.1 0" type="matrix" in="shadowInnerInner2" result="shadowMatrixInner2"></feColorMatrix>
            <feGaussianBlur stdDeviation="3" in="SourceAlpha" result="shadowBlurInner3"></feGaussianBlur>
            <feOffset dx="0" dy="-9" in="shadowBlurInner3" result="shadowOffsetInner3"></feOffset>
            <feComposite in="shadowOffsetInner3" in2="SourceAlpha" operator="arithmetic" k2="-1" k3="1" result="shadowInnerInner3"></feComposite>
            <feColorMatrix values="0 0 0 0 0.0549019608   0 0 0 0 0.0784313725   0 0 0 0 0.101960784  0 0 0 0.1 0" type="matrix" in="shadowInnerInner3" result="shadowMatrixInner3"></feColorMatrix>
            <feMerge>
                <feMergeNode in="shadowMatrixInner1"></feMergeNode>
                <feMergeNode in="shadowMatrixInner2"></feMergeNode>
                <feMergeNode in="shadowMatrixInner3"></feMergeNode>
            </feMerge>
        </filter>
        <rect id="path-4" x="0" y="0" width="794" height="498" rx="4"></rect>
        <rect id="path-6" x="0" y="0" width="126" height="282" rx="3"></rect>
        <rect id="path-8" x="0" y="0" width="127" height="204" rx="3"></rect>
        <rect id="path-10" x="0" y="0" width="126" height="198" rx="3"></rect>
        <rect id="path-12" x="0" y="0" width="127" height="270" rx="3"></rect>
        <rect id="path-14" x="0" y="0" width="127" height="252" rx="3"></rect>
        <rect id="path-16" x="0" y="0" width="127" height="312" rx="3"></rect>
        <rect id="path-18" x="0" y="0" width="126" height="282" rx="3"></rect>
        <rect id="path-20" x="0" y="0" width="127" height="204" rx="3"></rect>
        <path d="M173,27 L985,27 C999.911688,27 1012,39.0883118 1012,54 L1012,615 C1012,621.627417 1006.62742,627 1000,627 L158,627 C151.372583,627 146,621.627417 146,615 L146,54 C146,39.0883118 158.088312,27 173,27 Z" id="path-22"></path>
        <path d="M0,4 L1074,4 L1072.18972,5.56890828 C1054.00848,21.3259864 1030.75583,30 1006.69667,30 L67.3033326,30 C43.2441734,30 19.9915228,21.3259864 1.81027878,5.56890828 L0,4 Z" id="path-23"></path>
        <filter x="-7.0%" y="-230.8%" width="116.8%" height="796.2%" filterUnits="objectBoundingBox" id="filter-24">
            <feOffset dx="12" dy="24" in="SourceAlpha" result="shadowOffsetOuter1"></feOffset>
            <feGaussianBlur stdDeviation="21" in="shadowOffsetOuter1" result="shadowBlurOuter1"></feGaussianBlur>
            <feColorMatrix values="0 0 0 0 0.0549019608   0 0 0 0 0.0784313725   0 0 0 0 0.101960784  0 0 0 0.16 0" type="matrix" in="shadowBlurOuter1" result="shadowMatrixOuter1"></feColorMatrix>
            <feOffset dx="3" dy="3" in="SourceAlpha" result="shadowOffsetOuter2"></feOffset>
            <feGaussianBlur stdDeviation="3" in="shadowOffsetOuter2" result="shadowBlurOuter2"></feGaussianBlur>
            <feColorMatrix values="0 0 0 0 0.0549019608   0 0 0 0 0.0784313725   0 0 0 0 0.101960784  0 0 0 0.06 0" type="matrix" in="shadowBlurOuter2" result="shadowMatrixOuter2"></feColorMatrix>
            <feOffset dx="0" dy="1" in="SourceAlpha" result="shadowOffsetOuter3"></feOffset>
            <feColorMatrix values="0 0 0 0 0.0549019608   0 0 0 0 0.0784313725   0 0 0 0 0.101960784  0 0 0 0.04 0" type="matrix" in="shadowOffsetOuter3" result="shadowMatrixOuter3"></feColorMatrix>
            <feOffset dx="0" dy="3" in="SourceAlpha" result="shadowOffsetOuter4"></feOffset>
            <feGaussianBlur stdDeviation="4.5" in="shadowOffsetOuter4" result="shadowBlurOuter4"></feGaussianBlur>
            <feColorMatrix values="0 0 0 0 0.0549019608   0 0 0 0 0.0784313725   0 0 0 0 0.101960784  0 0 0 0.1 0" type="matrix" in="shadowBlurOuter4" result="shadowMatrixOuter4"></feColorMatrix>
            <feMerge>
                <feMergeNode in="shadowMatrixOuter1"></feMergeNode>
                <feMergeNode in="shadowMatrixOuter2"></feMergeNode>
                <feMergeNode in="shadowMatrixOuter3"></feMergeNode>
                <feMergeNode in="shadowMatrixOuter4"></feMergeNode>
            </feMerge>
        </filter>
        <filter x="-5.3%" y="-161.5%" width="113.4%" height="657.7%" filterUnits="objectBoundingBox" id="filter-25">
            <feGaussianBlur stdDeviation="9" in="SourceAlpha" result="shadowBlurInner1"></feGaussianBlur>
            <feOffset dx="0" dy="-12" in="shadowBlurInner1" result="shadowOffsetInner1"></feOffset>
            <feComposite in="shadowOffsetInner1" in2="SourceAlpha" operator="arithmetic" k2="-1" k3="1" result="shadowInnerInner1"></feComposite>
            <feColorMatrix values="0 0 0 0 0.0549019608   0 0 0 0 0.0784313725   0 0 0 0 0.101960784  0 0 0 0.16 0" type="matrix" in="shadowInnerInner1" result="shadowMatrixInner1"></feColorMatrix>
            <feOffset dx="0" dy="1" in="SourceAlpha" result="shadowOffsetInner2"></feOffset>
            <feComposite in="shadowOffsetInner2" in2="SourceAlpha" operator="arithmetic" k2="-1" k3="1" result="shadowInnerInner2"></feComposite>
            <feColorMatrix values="0 0 0 0 0.0549019608   0 0 0 0 0.0784313725   0 0 0 0 0.101960784  0 0 0 0.1 0" type="matrix" in="shadowInnerInner2" result="shadowMatrixInner2"></feColorMatrix>
            <feMerge>
                <feMergeNode in="shadowMatrixInner1"></feMergeNode>
                <feMergeNode in="shadowMatrixInner2"></feMergeNode>
            </feMerge>
        </filter>
        <path d="M4,0 L1070,0 C1072.20914,-4.05812251e-16 1074,1.790861 1074,4 L0,4 L0,4 C-2.705415e-16,1.790861 1.790861,4.05812251e-16 4,0 Z" id="path-26"></path>
        <filter x="-0.4%" y="-112.5%" width="100.8%" height="325.0%" filterUnits="objectBoundingBox" id="filter-27">
            <feGaussianBlur stdDeviation="1" in="SourceAlpha" result="shadowBlurInner1"></feGaussianBlur>
            <feOffset dx="0" dy="1" in="shadowBlurInner1" result="shadowOffsetInner1"></feOffset>
            <feComposite in="shadowOffsetInner1" in2="SourceAlpha" operator="arithmetic" k2="-1" k3="1" result="shadowInnerInner1"></feComposite>
            <feColorMatrix values="0 0 0 0 0.0549019608   0 0 0 0 0.0784313725   0 0 0 0 0.101960784  0 0 0 0.08 0" type="matrix" in="shadowInnerInner1" result="shadowMatrixInner1"></feColorMatrix>
            <feGaussianBlur stdDeviation="3" in="SourceAlpha" result="shadowBlurInner2"></feGaussianBlur>
            <feOffset dx="-3" dy="0" in="shadowBlurInner2" result="shadowOffsetInner2"></feOffset>
            <feComposite in="shadowOffsetInner2" in2="SourceAlpha" operator="arithmetic" k2="-1" k3="1" result="shadowInnerInner2"></feComposite>
            <feColorMatrix values="0 0 0 0 0.0549019608   0 0 0 0 0.0784313725   0 0 0 0 0.101960784  0 0 0 0.04 0" type="matrix" in="shadowInnerInner2" result="shadowMatrixInner2"></feColorMatrix>
            <feMerge>
                <feMergeNode in="shadowMatrixInner1"></feMergeNode>
                <feMergeNode in="shadowMatrixInner2"></feMergeNode>
            </feMerge>
        </filter>
        <path d="M447,5 L627,5 L627,5 C620.562194,10.794025 612.207557,14 603.546376,14 L470.453624,14 C461.792443,14 453.437806,10.794025 447,5 Z" id="path-28"></path>
        <filter x="-1.1%" y="-11.1%" width="102.2%" height="144.4%" filterUnits="objectBoundingBox" id="filter-29">
            <feOffset dx="0" dy="1" in="SourceAlpha" result="shadowOffsetOuter1"></feOffset>
            <feGaussianBlur stdDeviation="0.5" in="shadowOffsetOuter1" result="shadowBlurOuter1"></feGaussianBlur>
            <feColorMatrix values="0 0 0 0 1   0 0 0 0 1   0 0 0 0 1  0 0 0 1 0" type="matrix" in="shadowBlurOuter1"></feColorMatrix>
        </filter>
        <filter x="-1.7%" y="-22.2%" width="103.3%" height="166.7%" filterUnits="objectBoundingBox" id="filter-30">
            <feGaussianBlur stdDeviation="1.5" in="SourceAlpha" result="shadowBlurInner1"></feGaussianBlur>
            <feOffset dx="0" dy="-1" in="shadowBlurInner1" result="shadowOffsetInner1"></feOffset>
            <feComposite in="shadowOffsetInner1" in2="SourceAlpha" operator="arithmetic" k2="-1" k3="1" result="shadowInnerInner1"></feComposite>
            <feColorMatrix values="0 0 0 0 0.0549019608   0 0 0 0 0.0784313725   0 0 0 0 0.101960784  0 0 0 0.1 0" type="matrix" in="shadowInnerInner1"></feColorMatrix>
        </filter>
    </defs>
    <g id="illustration_(laptop)" stroke="none" stroke-width="1" fill="none" fill-rule="evenodd">
        <g id="container_lid">
            <use fill="black" fill-opacity="1" filter="url(#filter-2)" xlink:href="#path-1"></use>
            <use fill="#FFFFFF" fill-rule="evenodd" xlink:href="#path-1"></use>
            <use fill="black" fill-opacity="1" filter="url(#filter-3)" xlink:href="#path-1"></use>
        </g>
        <g id="screen" transform="translate(182.000000, 69.000000)">
            <mask id="mask-5" fill="white">
                <use xlink:href="#path-4"></use>
            </mask>
            <use id="container" fill-opacity="0.0600000024" fill="#0E141A" xlink:href="#path-4"></use>
            <g id="cards" mask="url(#mask-5)">
                <g transform="translate(156.000000, 90.000000)">
                    <g id="card_2" transform="translate(488.000000, 276.000000)">
                        <mask id="mask-7" fill="white">
                            <use xlink:href="#path-6"></use>
                        </mask>
                        <use id="container" fill="#FFFFFF" xlink:href="#path-6"></use>
                        <rect id="line_10" fill-opacity="0.1" fill="#0E141A" mask="url(#mask-7)" x="30" y="255" width="66" height="3" rx="1.5"></rect>
                        <rect id="line_9" fill-opacity="0.1" fill="#0E141A" mask="url(#mask-7)" x="18" y="246" width="90" height="3" rx="1.5"></rect>
                        <rect id="line_8" fill-opacity="0.1" fill="#0E141A" mask="url(#mask-7)" x="30" y="237" width="66" height="3" rx="1.5"></rect>
                        <rect id="line_7" fill-opacity="0.1" fill="#0E141A" mask="url(#mask-7)" x="36" y="228" width="54" height="3" rx="1.5"></rect>
                        <rect id="line_6" fill-opacity="0.1" fill="#0E141A" mask="url(#mask-7)" x="24" y="219" width="78" height="3" rx="1.5"></rect>
                        <rect id="line_5" fill-opacity="0.1" fill="#0E141A" mask="url(#mask-7)" x="18" y="210" width="90" height="3" rx="1.5"></rect>
                        <rect id="line_4" fill-opacity="0.1" fill="#0E141A" mask="url(#mask-7)" x="24" y="201" width="78" height="3" rx="1.5"></rect>
                        <rect id="line_3" fill-opacity="0.1" fill="#0E141A" mask="url(#mask-7)" x="30" y="192" width="66" height="3" rx="1.5"></rect>
                        <rect id="line_2" fill-opacity="0.1" fill="#0E141A" mask="url(#mask-7)" x="18" y="183" width="90" height="3" rx="1.5"></rect>
                        <rect id="line_1" fill-opacity="0.1" fill="#0E141A" mask="url(#mask-7)" x="12" y="174" width="102" height="3" rx="1.5"></rect>
                        <rect id="subtitle" fill-opacity="0.1" fill="#0E141A" mask="url(#mask-7)" x="31" y="152" width="65" height="3" rx="1.5"></rect>
                        <path d="M21,120 L105,120 C106.656854,120 108,121.343146 108,123 C108,124.656854 106.656854,126 105,126 L21,126 C19.3431458,126 18,124.656854 18,123 C18,121.343146 19.3431458,120 21,120 Z M38.8021978,132 L87.1978022,132 C88.8546564,132 90.1978022,133.343146 90.1978022,135 C90.1978022,136.656854 88.8546564,138 87.1978022,138 L38.8021978,138 C37.1453436,138 35.8021978,136.656854 35.8021978,135 C35.8021978,133.343146 37.1453436,132 38.8021978,132 Z" id="title" fill-opacity="0.1" fill="#0E141A" mask="url(#mask-7)"></path>
                        <rect id="image" fill-opacity="0.6" fill="#0E141A" mask="url(#mask-7)" x="0" y="0" width="126" height="90"></rect>
                        <g id="avatar" mask="url(#mask-7)">
                            <g transform="translate(45.000000, 72.000000)">
                                <rect id="container" fill="#00AE55" x="0" y="0" width="36" height="36" rx="18"></rect>
                                <rect id="container" fill-opacity="0.5" fill="#0E141A" x="6" y="6" width="24" height="24" rx="12"></rect>
                                <path d="M14.6125127,14.000007 C14.3750119,13.5000053 14.2875116,13.3250047 13.9000102,12.575002 L13.9000102,12.5500019 C13.7250096,12.2250008 13.3875084,12 13.000007,12 L12.0000035,12 C11.4500016,12 11,12.4500016 11,13.0000035 C11,13.5500055 11.4500016,14.000007 12.0000035,14.000007 L12.3875049,14.000007 C12.6250057,14.4750087 12.712506,14.6625094 13.0625073,15.3500118 C13.5125088,17.1875182 13.550009,17.3375188 14.0250106,19.2375255 C14.137511,19.675027 14.5250124,20.0000281 15.0000141,20.0000281 L22.0000387,20.0000281 C22.4750404,20.0000281 22.8625417,19.675027 22.9750421,19.2375255 L23.9625456,15.2625115 C23.9875457,15.1750112 24.0000457,15.0875109 24.0000457,15.0000106 C24.0000457,14.4500086 23.5500441,14.000007 23.0000422,14.000007 L14.6125127,14.000007 Z M17.0000211,22.5000369 C17.0000211,21.675034 16.3250187,21.0000317 15.5000158,21.0000317 C14.6750129,21.0000317 14.0000106,21.675034 14.0000106,22.5000369 C14.0000106,23.3250398 14.6750129,24.0000422 15.5000158,24.0000422 C16.3250187,24.0000422 17.0000211,23.3250398 17.0000211,22.5000369 Z M21.5000369,21.0000317 C20.675034,21.0000317 20.0000317,21.675034 20.0000317,22.5000369 C20.0000317,23.3250398 20.675034,24.0000422 21.5000369,24.0000422 C22.3250398,24.0000422 23.0000422,23.3250398 23.0000422,22.5000369 C23.0000422,21.675034 22.3250398,21.0000317 21.5000369,21.0000317 Z" id="cart" fill="#FFFFFF"></path>
                            </g>
                        </g>
                    </g>
                    <g id="card_7" transform="translate(325.000000, 336.000000)">
                        <mask id="mask-9" fill="white">
                            <use xlink:href="#path-8"></use>
                        </mask>
                        <use id="container" fill="#FFFFFF" xlink:href="#path-8"></use>
                        <rect id="line_4" fill-opacity="0.1" fill="#0E141A" mask="url(#mask-9)" x="24" y="177" width="79" height="3" rx="1.5"></rect>
                        <rect id="line_3" fill-opacity="0.1" fill="#0E141A" mask="url(#mask-9)" x="30" y="168" width="67" height="3" rx="1.5"></rect>
                        <rect id="line_2" fill-opacity="0.1" fill="#0E141A" mask="url(#mask-9)" x="18" y="159" width="91" height="3" rx="1.5"></rect>
                        <rect id="line_1" fill-opacity="0.1" fill="#0E141A" mask="url(#mask-9)" x="12" y="150" width="103" height="3" rx="1.5"></rect>
                        <rect id="subtitle" fill-opacity="0.1" fill="#0E141A" mask="url(#mask-9)" x="31" y="128" width="66" height="3" rx="1.5"></rect>
                        <path d="M21,96 L106,96 C107.656854,96 109,97.3431458 109,99 C109,100.656854 107.656854,102 106,102 L21,102 C19.3431458,102 18,100.656854 18,99 C18,97.3431458 19.3431458,96 21,96 Z M39,108 L88,108 C89.6568542,108 91,109.343146 91,111 C91,112.656854 89.6568542,114 88,114 L39,114 C37.3431458,114 36,112.656854 36,111 C36,109.343146 37.3431458,108 39,108 Z" id="title" fill-opacity="0.1" fill="#0E141A" mask="url(#mask-9)"></path>
                        <rect id="image" fill-opacity="0.6" fill="#0E141A" mask="url(#mask-9)" x="0" y="0" width="127" height="66"></rect>
                        <g id="avatar" mask="url(#mask-9)">
                            <g transform="translate(46.000000, 48.000000)">
                                <rect id="container" fill="#00AE55" x="0" y="0" width="36" height="36" rx="18"></rect>
                                <rect id="container" fill-opacity="0.5" fill="#0E141A" x="6" y="6" width="24" height="24" rx="12"></rect>
                                <path d="M15.0000106,14.5000053 C15.0000106,14.3000046 14.8875102,14.137504 14.7250096,14.0500037 L14.7125095,14.0500037 L12.7250025,13.0500002 C12.6625023,13.0250001 12.575002,13 12.5000018,13 C12.2250008,13 12,13.2250008 12,13.5000018 L12,21.5000299 C12,21.7000306 12.1125004,21.8625312 12.275001,21.9500315 L12.287501,21.9500315 L14.275008,22.950035 C14.3375082,22.9750351 14.4250085,23.0000352 14.5000088,23.0000352 C14.7750098,23.0000352 15.0000106,22.7750344 15.0000106,22.5000334 L15.0000106,14.5000053 Z M19.5000264,13 C19.4500262,13 19.387526,13.0125 19.3375258,13.0250001 C18.4000225,13.3375012 17.3000186,13.7125025 16.3500153,14.0250036 L16.3375153,14.0250036 C16.1375146,14.0875038 16.0000141,14.2750045 16.0000141,14.5000053 L16.0000141,22.5000334 C16.0000141,22.7750344 16.2250149,23.0000352 16.5000158,23.0000352 C16.550016,23.0000352 16.6125162,22.9875351 16.6625164,22.9750351 C17.6000197,22.662534 18.7000236,22.2875327 19.6500269,21.9750316 L19.6625269,21.9750316 C19.8625276,21.9125313 20.0000281,21.7250307 20.0000281,21.5000299 L20.0000281,13.5000018 C20.0000281,13.2250008 19.7750273,13 19.5000264,13 Z M23.7250412,14.0500037 L23.7125412,14.0500037 L21.7250342,13.0500002 C21.662534,13.0250001 21.5750337,13 21.5000334,13 C21.2250324,13 21.0000317,13.2250008 21.0000317,13.5000018 L21.0000317,21.5000299 C21.0000317,21.7000306 21.112532,21.8625312 21.2750326,21.9500315 L21.2875327,21.9500315 L23.2750397,22.950035 C23.3375399,22.9750351 23.4250402,23.0000352 23.5000404,23.0000352 C23.7750414,23.0000352 24.0000422,22.7750344 24.0000422,22.5000334 L24.0000422,14.5000053 C24.0000422,14.3000046 23.8875418,14.137504 23.7250412,14.0500037 Z" id="map" fill="#FFFFFF"></path>
                            </g>
                        </g>
                    </g>
                    <g id="card_6" transform="translate(163.000000, 306.000000)">
                        <mask id="mask-11" fill="white">
                            <use xlink:href="#path-10"></use>
                        </mask>
                        <use id="container" fill="#FFFFFF" xlink:href="#path-10"></use>
                        <rect id="line_4" fill-opacity="0.1" fill="#0E141A" mask="url(#mask-11)" x="24" y="171" width="78" height="3" rx="1.5"></rect>
                        <rect id="line_3" fill-opacity="0.1" fill="#0E141A" mask="url(#mask-11)" x="30" y="162" width="66" height="3" rx="1.5"></rect>
                        <rect id="line_2" fill-opacity="0.1" fill="#0E141A" mask="url(#mask-11)" x="18" y="153" width="90" height="3" rx="1.5"></rect>
                        <rect id="line_1" fill-opacity="0.1" fill="#0E141A" mask="url(#mask-11)" x="12" y="144" width="102" height="3" rx="1.5"></rect>
                        <rect id="subtitle" fill-opacity="0.1" fill="#0E141A" mask="url(#mask-11)" x="31" y="122" width="65" height="3" rx="1.5"></rect>
                        <path d="M21,90 L105,90 C106.656854,90 108,91.3431458 108,93 C108,94.6568542 106.656854,96 105,96 L21,96 C19.3431458,96 18,94.6568542 18,93 C18,91.3431458 19.3431458,90 21,90 Z M38.8021978,102 L87.1978022,102 C88.8546564,102 90.1978022,103.343146 90.1978022,105 C90.1978022,106.656854 88.8546564,108 87.1978022,108 L38.8021978,108 C37.1453436,108 35.8021978,106.656854 35.8021978,105 C35.8021978,103.343146 37.1453436,102 38.8021978,102 Z" id="title" fill-opacity="0.1" fill="#0E141A" mask="url(#mask-11)"></path>
                        <rect id="image" fill-opacity="0.6" fill="#0E141A" mask="url(#mask-11)" x="0" y="0" width="127" height="60"></rect>
                        <g id="avatar" mask="url(#mask-11)">
                            <g transform="translate(45.000000, 42.000000)">
                                <rect id="container" fill="#00AE55" x="0" y="0" width="36" height="36" rx="18"></rect>
                                <rect id="container" fill-opacity="0.5" fill="#0E141A" x="6" y="6" width="24" height="24" rx="12"></rect>
                                <path d="M18.0000176,12 C20.7625273,12 23.0000352,14.2375079 23.0000352,17.0000176 C23.0000352,17.8250205 22.8000345,18.6125233 22.4375332,19.3000257 L19.812524,24.8625452 L19.8000239,24.8625452 C19.4875228,25.5375476 18.8000204,26.0000492 18.0000176,26.0000492 C17.2000148,26.0000492 16.5125124,25.5375476 16.2000113,24.8625452 L16.1875112,24.8625452 L13.562502,19.3000257 C13.2000007,18.6125233 13,17.8250205 13,17.0000176 C13,14.2375079 15.2375079,12 18.0000176,12 Z M18.0000176,19.0000246 C19.1000215,19.0000246 20.0000246,18.1000215 20.0000246,17.0000176 C20.0000246,15.9000137 19.1000215,15.0000106 18.0000176,15.0000106 C16.9000137,15.0000106 16.0000106,15.9000137 16.0000106,17.0000176 C16.0000106,18.1000215 16.9000137,19.0000246 18.0000176,19.0000246 Z" id="pin" fill="#FFFFFF"></path>
                            </g>
                        </g>
                    </g>
                    <g id="card_5" transform="translate(0.000000, 228.000000)">
                        <mask id="mask-13" fill="white">
                            <use xlink:href="#path-12"></use>
                        </mask>
                        <use id="container" fill="#FFFFFF" xlink:href="#path-12"></use>
                        <rect id="line_8" fill-opacity="0.1" fill="#0E141A" mask="url(#mask-13)" x="30" y="243" width="67" height="3" rx="1.5"></rect>
                        <rect id="line_7" fill-opacity="0.1" fill="#0E141A" mask="url(#mask-13)" x="36" y="234" width="55" height="3" rx="1.5"></rect>
                        <rect id="line_6" fill-opacity="0.1" fill="#0E141A" mask="url(#mask-13)" x="24" y="225" width="79" height="3" rx="1.5"></rect>
                        <rect id="line_5" fill-opacity="0.1" fill="#0E141A" mask="url(#mask-13)" x="18" y="216" width="91" height="3" rx="1.5"></rect>
                        <rect id="line_4" fill-opacity="0.1" fill="#0E141A" mask="url(#mask-13)" x="24" y="207" width="79" height="3" rx="1.5"></rect>
                        <rect id="line_3" fill-opacity="0.1" fill="#0E141A" mask="url(#mask-13)" x="30" y="198" width="67" height="3" rx="1.5"></rect>
                        <rect id="line_2" fill-opacity="0.1" fill="#0E141A" mask="url(#mask-13)" x="18" y="189" width="91" height="3" rx="1.5"></rect>
                        <rect id="line_1" fill-opacity="0.1" fill="#0E141A" mask="url(#mask-13)" x="12" y="180" width="103" height="3" rx="1.5"></rect>
                        <rect id="subtitle" fill-opacity="0.1" fill="#0E141A" mask="url(#mask-13)" x="31" y="158" width="66" height="3" rx="1.5"></rect>
                        <path d="M21,126 L106,126 C107.656854,126 109,127.343146 109,129 C109,130.656854 107.656854,132 106,132 L21,132 C19.3431458,132 18,130.656854 18,129 C18,127.343146 19.3431458,126 21,126 Z M39,138 L88,138 C89.6568542,138 91,139.343146 91,141 C91,142.656854 89.6568542,144 88,144 L39,144 C37.3431458,144 36,142.656854 36,141 C36,139.343146 37.3431458,138 39,138 Z" id="title" fill-opacity="0.1" fill="#0E141A" mask="url(#mask-13)"></path>
                        <rect id="image" fill-opacity="0.6" fill="#0E141A" mask="url(#mask-13)" x="0" y="0" width="127" height="96"></rect>
                        <g id="avatar" mask="url(#mask-13)">
                            <g transform="translate(46.000000, 78.000000)">
                                <rect id="container" fill="#00AE55" x="0" y="0" width="36" height="36" rx="18"></rect>
                                <rect id="container" fill-opacity="0.5" fill="#0E141A" x="6" y="6" width="24" height="24" rx="12"></rect>
                                <path d="M21.0000317,14.000007 L22.0000352,14.000007 C23.100039,14.000007 24.0000422,14.9000102 24.0000422,16.0000141 L24.0000422,21.0000317 C24.0000422,22.1000355 23.100039,23.0000387 22.0000352,23.0000387 L14.000007,23.0000387 C12.9000032,23.0000387 12,22.1000355 12,21.0000317 L12,16.0000141 C12,14.9000102 12.9000032,14.000007 14.000007,14.000007 L15.0000106,14.000007 C15.0000106,12.9000032 15.9000137,12 17.0000176,12 L19.0000246,12 C20.1000285,12 21.0000317,12.9000032 21.0000317,14.000007 Z M18.0000211,21.0000317 C19.6625269,21.0000317 21.0000317,19.6625269 21.0000317,18.0000211 C21.0000317,16.3375153 19.6625269,15.0000106 18.0000211,15.0000106 C16.3375153,15.0000106 15.0000106,16.3375153 15.0000106,18.0000211 C15.0000106,19.6625269 16.3375153,21.0000317 18.0000211,21.0000317 Z M18.0000211,20.0000281 C16.9000172,20.0000281 16.0000141,19.100025 16.0000141,18.0000211 C16.0000141,16.9000172 16.9000172,16.0000141 18.0000211,16.0000141 C19.100025,16.0000141 20.0000281,16.9000172 20.0000281,18.0000211 C20.0000281,19.100025 19.100025,20.0000281 18.0000211,20.0000281 Z" id="camera" fill="#FFFFFF"></path>
                            </g>
                        </g>
                    </g>
                    <g id="card_4" transform="translate(488.000000, 0.000000)">
                        <mask id="mask-15" fill="white">
                            <use xlink:href="#path-14"></use>
                        </mask>
                        <use id="container" fill="#FFFFFF" xlink:href="#path-14"></use>
                        <rect id="line_4" fill-opacity="0.1" fill="#0E141A" mask="url(#mask-15)" x="24" y="225" width="79" height="3" rx="1.5"></rect>
                        <rect id="line_3" fill-opacity="0.1" fill="#0E141A" mask="url(#mask-15)" x="30" y="216" width="67" height="3" rx="1.5"></rect>
                        <rect id="line_2" fill-opacity="0.1" fill="#0E141A" mask="url(#mask-15)" x="18" y="207" width="91" height="3" rx="1.5"></rect>
                        <rect id="line_1" fill-opacity="0.1" fill="#0E141A" mask="url(#mask-15)" x="12" y="198" width="103" height="3" rx="1.5"></rect>
                        <rect id="subtitle" fill-opacity="0.1" fill="#0E141A" mask="url(#mask-15)" x="31" y="176" width="66" height="3" rx="1.5"></rect>
                        <path d="M21,144 L106,144 C107.656854,144 109,145.343146 109,147 C109,148.656854 107.656854,150 106,150 L21,150 C19.3431458,150 18,148.656854 18,147 C18,145.343146 19.3431458,144 21,144 Z M39,156 L88,156 C89.6568542,156 91,157.343146 91,159 C91,160.656854 89.6568542,162 88,162 L39,162 C37.3431458,162 36,160.656854 36,159 C36,157.343146 37.3431458,156 39,156 Z" id="title" fill-opacity="0.1" fill="#0E141A" mask="url(#mask-15)"></path>
                        <rect id="image" fill-opacity="0.6" fill="#0E141A" mask="url(#mask-15)" x="0" y="0" width="127" height="114"></rect>
                        <g id="avatar" mask="url(#mask-15)">
                            <g transform="translate(46.000000, 96.000000)">
                                <rect id="container" fill="#00AE55" x="0" y="0" width="36" height="36" rx="18"></rect>
                                <rect id="container" fill-opacity="0.5" fill="#0E141A" x="6" y="6" width="24" height="24" rx="12"></rect>
                                <path d="M18.0000176,11 C20.7625273,11 23.0000352,13.2375079 23.0000352,16.0000176 C23.0000352,16.8250205 22.8000345,17.6125233 22.4375332,18.3000257 L19.812524,23.8625452 L19.8000239,23.8625452 C19.4875228,24.5375476 18.8000204,25.0000492 18.0000176,25.0000492 C17.2000148,25.0000492 16.5125124,24.5375476 16.2000113,23.8625452 L16.1875112,23.8625452 L13.562502,18.3000257 C13.2000007,17.6125233 13,16.8250205 13,16.0000176 C13,13.2375079 15.2375079,11 18.0000176,11 Z M18.0000176,18.0000246 C19.1000215,18.0000246 20.0000246,17.1000215 20.0000246,16.0000176 C20.0000246,14.9000137 19.1000215,14.0000106 18.0000176,14.0000106 C16.9000137,14.0000106 16.0000106,14.9000137 16.0000106,16.0000176 C16.0000106,17.1000215 16.9000137,18.0000246 18.0000176,18.0000246 Z" id="pin" fill="#FFFFFF"></path>
                            </g>
                        </g>
                    </g>
                    <g id="card_3" transform="translate(325.000000, 0.000000)">
                        <mask id="mask-17" fill="white">
                            <use xlink:href="#path-16"></use>
                        </mask>
                        <use id="container" fill="#FFFFFF" xlink:href="#path-16"></use>
                        <rect id="line_8" fill-opacity="0.1" fill="#0E141A" mask="url(#mask-17)" x="30" y="285" width="67" height="3" rx="1.5"></rect>
                        <rect id="line_7" fill-opacity="0.1" fill="#0E141A" mask="url(#mask-17)" x="36" y="276" width="55" height="3" rx="1.5"></rect>
                        <rect id="line_6" fill-opacity="0.1" fill="#0E141A" mask="url(#mask-17)" x="24" y="267" width="79" height="3" rx="1.5"></rect>
                        <rect id="line_5" fill-opacity="0.1" fill="#0E141A" mask="url(#mask-17)" x="18" y="258" width="91" height="3" rx="1.5"></rect>
                        <rect id="line_4" fill-opacity="0.1" fill="#0E141A" mask="url(#mask-17)" x="24" y="249" width="79" height="3" rx="1.5"></rect>
                        <rect id="line_3" fill-opacity="0.1" fill="#0E141A" mask="url(#mask-17)" x="30" y="240" width="67" height="3" rx="1.5"></rect>
                        <rect id="line_2" fill-opacity="0.1" fill="#0E141A" mask="url(#mask-17)" x="18" y="231" width="91" height="3" rx="1.5"></rect>
                        <rect id="line_1" fill-opacity="0.1" fill="#0E141A" mask="url(#mask-17)" x="12" y="222" width="103" height="3" rx="1.5"></rect>
                        <rect id="subtitle" fill-opacity="0.1" fill="#0E141A" mask="url(#mask-17)" x="31" y="200" width="66" height="3" rx="1.5"></rect>
                        <path d="M21,168 L106,168 C107.656854,168 109,169.343146 109,171 C109,172.656854 107.656854,174 106,174 L21,174 C19.3431458,174 18,172.656854 18,171 C18,169.343146 19.3431458,168 21,168 Z M39,180 L88,180 C89.6568542,180 91,181.343146 91,183 C91,184.656854 89.6568542,186 88,186 L39,186 C37.3431458,186 36,184.656854 36,183 C36,181.343146 37.3431458,180 39,180 Z" id="title" fill-opacity="0.1" fill="#0E141A" mask="url(#mask-17)"></path>
                        <rect id="image" fill-opacity="0.6" fill="#0E141A" mask="url(#mask-17)" x="0" y="0" width="127" height="138"></rect>
                        <g id="avatar" mask="url(#mask-17)">
                            <g transform="translate(46.000000, 120.000000)">
                                <rect id="container" fill="#00AE55" x="0" y="0" width="36" height="36" rx="18"></rect>
                                <rect id="container" fill-opacity="0.5" fill="#0E141A" x="6" y="6" width="24" height="24" rx="12"></rect>
                                <path d="M21.0000317,14.000007 L22.0000352,14.000007 C23.100039,14.000007 24.0000422,14.9000102 24.0000422,16.0000141 L24.0000422,21.0000317 C24.0000422,22.1000355 23.100039,23.0000387 22.0000352,23.0000387 L14.000007,23.0000387 C12.9000032,23.0000387 12,22.1000355 12,21.0000317 L12,16.0000141 C12,14.9000102 12.9000032,14.000007 14.000007,14.000007 L15.0000106,14.000007 C15.0000106,12.9000032 15.9000137,12 17.0000176,12 L19.0000246,12 C20.1000285,12 21.0000317,12.9000032 21.0000317,14.000007 Z M18.0000211,21.0000317 C19.6625269,21.0000317 21.0000317,19.6625269 21.0000317,18.0000211 C21.0000317,16.3375153 19.6625269,15.0000106 18.0000211,15.0000106 C16.3375153,15.0000106 15.0000106,16.3375153 15.0000106,18.0000211 C15.0000106,19.6625269 16.3375153,21.0000317 18.0000211,21.0000317 Z M18.0000211,20.0000281 C16.9000172,20.0000281 16.0000141,19.100025 16.0000141,18.0000211 C16.0000141,16.9000172 16.9000172,16.0000141 18.0000211,16.0000141 C19.100025,16.0000141 20.0000281,16.9000172 20.0000281,18.0000211 C20.0000281,19.100025 19.100025,20.0000281 18.0000211,20.0000281 Z" id="camera" fill="#FFFFFF"></path>
                            </g>
                        </g>
                    </g>
                    <g id="card_2" transform="translate(163.000000, 0.000000)">
                        <mask id="mask-19" fill="white">
                            <use xlink:href="#path-18"></use>
                        </mask>
                        <use id="container" fill="#FFFFFF" xlink:href="#path-18"></use>
                        <rect id="line_10" fill-opacity="0.1" fill="#0E141A" mask="url(#mask-19)" x="30" y="255" width="66" height="3" rx="1.5"></rect>
                        <rect id="line_9" fill-opacity="0.1" fill="#0E141A" mask="url(#mask-19)" x="18" y="246" width="90" height="3" rx="1.5"></rect>
                        <rect id="line_8" fill-opacity="0.1" fill="#0E141A" mask="url(#mask-19)" x="30" y="237" width="66" height="3" rx="1.5"></rect>
                        <rect id="line_7" fill-opacity="0.1" fill="#0E141A" mask="url(#mask-19)" x="36" y="228" width="54" height="3" rx="1.5"></rect>
                        <rect id="line_6" fill-opacity="0.1" fill="#0E141A" mask="url(#mask-19)" x="24" y="219" width="78" height="3" rx="1.5"></rect>
                        <rect id="line_5" fill-opacity="0.1" fill="#0E141A" mask="url(#mask-19)" x="18" y="210" width="90" height="3" rx="1.5"></rect>
                        <rect id="line_4" fill-opacity="0.1" fill="#0E141A" mask="url(#mask-19)" x="24" y="201" width="78" height="3" rx="1.5"></rect>
                        <rect id="line_3" fill-opacity="0.1" fill="#0E141A" mask="url(#mask-19)" x="30" y="192" width="66" height="3" rx="1.5"></rect>
                        <rect id="line_2" fill-opacity="0.1" fill="#0E141A" mask="url(#mask-19)" x="18" y="183" width="90" height="3" rx="1.5"></rect>
                        <rect id="line_1" fill-opacity="0.1" fill="#0E141A" mask="url(#mask-19)" x="12" y="174" width="102" height="3" rx="1.5"></rect>
                        <rect id="subtitle" fill-opacity="0.1" fill="#0E141A" mask="url(#mask-19)" x="31" y="152" width="65" height="3" rx="1.5"></rect>
                        <path d="M21,120 L105,120 C106.656854,120 108,121.343146 108,123 C108,124.656854 106.656854,126 105,126 L21,126 C19.3431458,126 18,124.656854 18,123 C18,121.343146 19.3431458,120 21,120 Z M38.8021978,132 L87.1978022,132 C88.8546564,132 90.1978022,133.343146 90.1978022,135 C90.1978022,136.656854 88.8546564,138 87.1978022,138 L38.8021978,138 C37.1453436,138 35.8021978,136.656854 35.8021978,135 C35.8021978,133.343146 37.1453436,132 38.8021978,132 Z" id="title" fill-opacity="0.1" fill="#0E141A" mask="url(#mask-19)"></path>
                        <rect id="image" fill-opacity="0.6" fill="#0E141A" mask="url(#mask-19)" x="0" y="0" width="126" height="90"></rect>
                        <g id="avatar" mask="url(#mask-19)">
                            <g transform="translate(45.000000, 72.000000)">
                                <rect id="container" fill="#00AE55" x="0" y="0" width="36" height="36" rx="18"></rect>
                                <rect id="container" fill-opacity="0.5" fill="#0E141A" x="6" y="6" width="24" height="24" rx="12"></rect>
                                <path d="M14.6125127,14.000007 C14.3750119,13.5000053 14.2875116,13.3250047 13.9000102,12.575002 L13.9000102,12.5500019 C13.7250096,12.2250008 13.3875084,12 13.000007,12 L12.0000035,12 C11.4500016,12 11,12.4500016 11,13.0000035 C11,13.5500055 11.4500016,14.000007 12.0000035,14.000007 L12.3875049,14.000007 C12.6250057,14.4750087 12.712506,14.6625094 13.0625073,15.3500118 C13.5125088,17.1875182 13.550009,17.3375188 14.0250106,19.2375255 C14.137511,19.675027 14.5250124,20.0000281 15.0000141,20.0000281 L22.0000387,20.0000281 C22.4750404,20.0000281 22.8625417,19.675027 22.9750421,19.2375255 L23.9625456,15.2625115 C23.9875457,15.1750112 24.0000457,15.0875109 24.0000457,15.0000106 C24.0000457,14.4500086 23.5500441,14.000007 23.0000422,14.000007 L14.6125127,14.000007 Z M17.0000211,22.5000369 C17.0000211,21.675034 16.3250187,21.0000317 15.5000158,21.0000317 C14.6750129,21.0000317 14.0000106,21.675034 14.0000106,22.5000369 C14.0000106,23.3250398 14.6750129,24.0000422 15.5000158,24.0000422 C16.3250187,24.0000422 17.0000211,23.3250398 17.0000211,22.5000369 Z M21.5000369,21.0000317 C20.675034,21.0000317 20.0000317,21.675034 20.0000317,22.5000369 C20.0000317,23.3250398 20.675034,24.0000422 21.5000369,24.0000422 C22.3250398,24.0000422 23.0000422,23.3250398 23.0000422,22.5000369 C23.0000422,21.675034 22.3250398,21.0000317 21.5000369,21.0000317 Z" id="cart" fill="#FFFFFF"></path>
                            </g>
                        </g>
                    </g>
                    <g id="card_1">
                        <mask id="mask-21" fill="white">
                            <use xlink:href="#path-20"></use>
                        </mask>
                        <use id="container" fill="#FFFFFF" xlink:href="#path-20"></use>
                        <rect id="line_4" fill-opacity="0.1" fill="#0E141A" mask="url(#mask-21)" x="24" y="177" width="79" height="3" rx="1.5"></rect>
                        <rect id="line_3" fill-opacity="0.1" fill="#0E141A" mask="url(#mask-21)" x="30" y="168" width="67" height="3" rx="1.5"></rect>
                        <rect id="line_2" fill-opacity="0.1" fill="#0E141A" mask="url(#mask-21)" x="18" y="159" width="91" height="3" rx="1.5"></rect>
                        <rect id="line_1" fill-opacity="0.1" fill="#0E141A" mask="url(#mask-21)" x="12" y="150" width="103" height="3" rx="1.5"></rect>
                        <rect id="subtitle" fill-opacity="0.1" fill="#0E141A" mask="url(#mask-21)" x="31" y="128" width="66" height="3" rx="1.5"></rect>
                        <path d="M21,96 L106,96 C107.656854,96 109,97.3431458 109,99 C109,100.656854 107.656854,102 106,102 L21,102 C19.3431458,102 18,100.656854 18,99 C18,97.3431458 19.3431458,96 21,96 Z M39,108 L88,108 C89.6568542,108 91,109.343146 91,111 C91,112.656854 89.6568542,114 88,114 L39,114 C37.3431458,114 36,112.656854 36,111 C36,109.343146 37.3431458,108 39,108 Z" id="title" fill-opacity="0.1" fill="#0E141A" mask="url(#mask-21)"></path>
                        <rect id="image" fill-opacity="0.6" fill="#0E141A" mask="url(#mask-21)" x="0" y="0" width="127" height="66"></rect>
                        <g id="avatar" mask="url(#mask-21)">
                            <g transform="translate(46.000000, 48.000000)">
                                <rect id="container" fill="#00AE55" x="0" y="0" width="36" height="36" rx="18"></rect>
                                <rect id="container" fill-opacity="0.5" fill="#0E141A" x="6" y="6" width="24" height="24" rx="12"></rect>
                                <path d="M15.0000106,14.5000053 C15.0000106,14.3000046 14.8875102,14.137504 14.7250096,14.0500037 L14.7125095,14.0500037 L12.7250025,13.0500002 C12.6625023,13.0250001 12.575002,13 12.5000018,13 C12.2250008,13 12,13.2250008 12,13.5000018 L12,21.5000299 C12,21.7000306 12.1125004,21.8625312 12.275001,21.9500315 L12.287501,21.9500315 L14.275008,22.950035 C14.3375082,22.9750351 14.4250085,23.0000352 14.5000088,23.0000352 C14.7750098,23.0000352 15.0000106,22.7750344 15.0000106,22.5000334 L15.0000106,14.5000053 Z M19.5000264,13 C19.4500262,13 19.387526,13.0125 19.3375258,13.0250001 C18.4000225,13.3375012 17.3000186,13.7125025 16.3500153,14.0250036 L16.3375153,14.0250036 C16.1375146,14.0875038 16.0000141,14.2750045 16.0000141,14.5000053 L16.0000141,22.5000334 C16.0000141,22.7750344 16.2250149,23.0000352 16.5000158,23.0000352 C16.550016,23.0000352 16.6125162,22.9875351 16.6625164,22.9750351 C17.6000197,22.662534 18.7000236,22.2875327 19.6500269,21.9750316 L19.6625269,21.9750316 C19.8625276,21.9125313 20.0000281,21.7250307 20.0000281,21.5000299 L20.0000281,13.5000018 C20.0000281,13.2250008 19.7750273,13 19.5000264,13 Z M23.7250412,14.0500037 L23.7125412,14.0500037 L21.7250342,13.0500002 C21.662534,13.0250001 21.5750337,13 21.5000334,13 C21.2250324,13 21.0000317,13.2250008 21.0000317,13.5000018 L21.0000317,21.5000299 C21.0000317,21.7000306 21.112532,21.8625312 21.2750326,21.9500315 L21.2875327,21.9500315 L23.2750397,22.950035 C23.3375399,22.9750351 23.4250402,23.0000352 23.5000404,23.0000352 C23.7750414,23.0000352 24.0000422,22.7750344 24.0000422,22.5000334 L24.0000422,14.5000053 C24.0000422,14.3000046 23.8875418,14.137504 23.7250412,14.0500037 Z" id="map" fill="#FFFFFF"></path>
                            </g>
                        </g>
                    </g>
                </g>
            </g>
            <g id="menu" mask="url(#mask-5)">
                <g transform="translate(24.000000, 111.000000)">
                    <rect id="item_8" fill-opacity="0.1" fill="#0E141A" x="9" y="129" width="48" height="6" rx="3"></rect>
                    <rect id="item_7" fill-opacity="0.1" fill="#0E141A" x="9" y="111" width="38" height="6" rx="3"></rect>
                    <rect id="item_6" fill-opacity="0.1" fill="#0E141A" x="9" y="93" width="31" height="6" rx="3"></rect>
                    <rect id="item_5" fill-opacity="0.1" fill="#0E141A" x="9" y="75" width="62" height="6" rx="3"></rect>
                    <rect id="item_4" fill-opacity="0.1" fill="#0E141A" x="9" y="57" width="75" height="6" rx="3"></rect>
                    <rect id="item_3" fill-opacity="0.1" fill="#0E141A" x="9" y="39" width="50" height="6" rx="3"></rect>
                    <rect id="item_2" fill-opacity="0.1" fill="#0E141A" x="9" y="21" width="40" height="6" rx="3"></rect>
                    <rect id="item_1" fill-opacity="0.4" fill="#00AE55" x="9" y="3" width="60" height="6" rx="3"></rect>
                    <rect id="selector" fill-opacity="0.4" fill="#00AE55" x="0" y="0" width="3" height="12"></rect>
                </g>
            </g>
            <g id="bar_top" mask="url(#mask-5)">
                <rect id="container" fill="#00AE55" x="0" y="0" width="794" height="66"></rect>
                <path d="M769.712541,34.2875362 C769.887542,34.4750368 770.000042,34.7250377 770.000042,35.0000387 C770.000042,35.5500406 769.550041,36.0000422 769.000039,36.0000422 C768.725038,36.0000422 768.475037,35.8875418 768.287536,35.7125412 C767.387533,34.800038 766.58753,34.0000352 765.762527,33.1750323 C764.962524,33.7000341 764.025021,34.0000352 763.000018,34.0000352 C760.237508,34.0000352 758,31.7625273 758,29.0000176 C758,26.2375079 760.237508,24 763.000018,24 C765.762527,24 768.000035,26.2375079 768.000035,29.0000176 C768.000035,30.0250212 767.700034,30.9625245 767.175032,31.7625273 C768.000035,32.5875302 768.800038,33.387533 769.712541,34.2875362 Z M763.000018,32.0000281 C764.662523,32.0000281 766.000028,30.6625234 766.000028,29.0000176 C766.000028,27.3375117 764.662523,26.000007 763.000018,26.000007 C761.337512,26.000007 760.000007,27.3375117 760.000007,29.0000176 C760.000007,30.6625234 761.337512,32.0000281 763.000018,32.0000281 Z" id="magnifier" fill="#FFFFFF"></path>
                <rect id="icon_3" fill-opacity="0.4" fill="#FFFFFF" x="734" y="24" width="12" height="12" rx="6"></rect>
                <rect id="icon_2" fill-opacity="0.4" fill="#FFFFFF" x="716" y="24" width="12" height="12" rx="6"></rect>
                <rect id="icon_1" fill-opacity="0.4" fill="#FFFFFF" x="698" y="24" width="12" height="12" rx="6"></rect>
                <rect id="title" fill-opacity="0.4" fill="#FFFFFF" x="337" y="36" width="120" height="6" rx="3"></rect>
                <rect id="title" fill-opacity="0.4" fill="#FFFFFF" x="307" y="24" width="180" height="6" rx="3"></rect>
                <rect id="section" fill-opacity="0.6" fill="#FFFFFF" x="42" y="29" width="30" height="3" rx="1.5"></rect>
                <path d="M24,26.0000035 C24,26.5500055 24.4500016,27.000007 25.0000035,27.000007 L35.0000387,27.000007 C35.5500406,27.000007 36.0000422,26.5500055 36.0000422,26.0000035 C36.0000422,25.4500016 35.5500406,25 35.0000387,25 L25.0000035,25 C24.4500016,25 24,25.4500016 24,26.0000035 Z M25.0000035,29.0000141 C24.4500016,29.0000141 24,29.4500156 24,30.0000176 C24,30.5500195 24.4500016,31.0000211 25.0000035,31.0000211 L35.0000387,31.0000211 C35.5500406,31.0000211 36.0000422,30.5500195 36.0000422,30.0000176 C36.0000422,29.4500156 35.5500406,29.0000141 35.0000387,29.0000141 L25.0000035,29.0000141 Z M25.0000035,33.0000281 C24.4500016,33.0000281 24,33.4500297 24,34.0000317 C24,34.5500336 24.4500016,35.0000352 25.0000035,35.0000352 L35.0000387,35.0000352 C35.5500406,35.0000352 36.0000422,34.5500336 36.0000422,34.0000317 C36.0000422,33.4500297 35.5500406,33.0000281 35.0000387,33.0000281 L25.0000035,33.0000281 Z" id="menu" fill="#FFFFFF"></path>
            </g>
        </g>
        <rect id="border_screen" stroke-opacity="0.06" stroke="#0E141A" stroke-width="2" x="183" y="70" width="792" height="496" rx="4"></rect>
        <g id="border_lid" stroke="#0E141A">
            <path stroke-opacity="0.04" stroke-width="2" d="M173,28 C158.640597,28 147,39.6405965 147,54 L147,615 C147,621.075132 151.924868,626 158,626 L1000,626 C1006.07513,626 1011,621.075132 1011,615 L1011,54 C1011,39.6405965 999.359403,28 985,28 L173,28 Z"></path>
            <path stroke-opacity="0.02" stroke-width="4" d="M173,29 C159.192881,29 148,40.1928813 148,54 L148,615 C148,620.522847 152.477153,625 158,625 L1000,625 C1005.52285,625 1010,620.522847 1010,615 L1010,54 C1010,40.1928813 998.807119,29 985,29 L173,29 Z"></path>
        </g>
        <g id="keyboard" transform="translate(42.000000, 615.000000)">
            <g id="container_keyboard_2">
                <use fill="black" fill-opacity="1" filter="url(#filter-24)" xlink:href="#path-23"></use>
                <use fill="#FFFFFF" fill-rule="evenodd" xlink:href="#path-23"></use>
                <use fill="black" fill-opacity="1" filter="url(#filter-25)" xlink:href="#path-23"></use>
            </g>
            <g id="container_keyboard_1">
                <use fill="#FFFFFF" fill-rule="evenodd" xlink:href="#path-26"></use>
                <use fill="black" fill-opacity="1" filter="url(#filter-27)" xlink:href="#path-26"></use>
            </g>
            <g id="gap">
                <use fill="black" fill-opacity="1" filter="url(#filter-29)" xlink:href="#path-28"></use>
                <use fill="#FFFFFF" fill-rule="evenodd" xlink:href="#path-28"></use>
                <use fill="black" fill-opacity="1" filter="url(#filter-30)" xlink:href="#path-28"></use>
            </g>
        </g>
    </g>
</svg>