<svg viewBox="0 0 36 36" xmlns="http://www.w3.org/2000/svg" xmlns:xlink="http://www.w3.org/1999/xlink">
  <defs>
    <circle id="a" cx="18" cy="18" r="18"/>
  </defs>
  <g fill="none" fill-rule="evenodd">
    <mask id="b" fill="#fff">
      <use xlink:href="#a"/>
    </mask>
    <use fill="#00D46A" xlink:href="#a"/>
    <g mask="url(#b)">
      <path d="M21.583 11.85l4.95 8.9A3.5 3.5 0 0 1 23.5 26h-10a3.5 3.5 0 0 1-3.5-3.5c0-.633.167-1.233.467-1.75l4.95-8.9A3.491 3.491 0 0 1 18.5 10c1.333 0 2.5.75 3.083 1.85z" fill-opacity=".6" fill="#0E141A"/>
      <path d="M18.5 24c-.833 0-1.5-.667-1.5-1.5s.667-1.5 1.5-1.5 1.5.667 1.5 1.5-.667 1.5-1.5 1.5zm1.5-6.283c0 .7-.667 1.283-1.5 1.283s-1.5-.583-1.5-1.283v-3.434c0-.7.667-1.283 1.5-1.283s1.5.583 1.5 1.283v3.434z" fill="#FFF"/>
    </g>
  </g>
</svg>
