<svg viewBox="0 0 36 36" xmlns="http://www.w3.org/2000/svg" xmlns:xlink="http://www.w3.org/1999/xlink">
  <defs>
    <circle id="a" cx="18" cy="18" r="18"/>
  </defs>
  <g fill="none" fill-rule="evenodd">
    <mask id="b" fill="#fff">
      <use xlink:href="#a"/>
    </mask>
    <use fill="#00D46A" xlink:href="#a"/>
    <g mask="url(#b)">
      <path d="M26.983 25.833c.017.05.017.117.017.167 0 .55-.45 1-1 1-.05 0-.117 0-.167-.017-1.4-.233-2.85-.466-4.283-.716A8.955 8.955 0 0 1 18 27c-4.967 0-9-4.033-9-9s4.033-9 9-9 9 4.033 9 9a8.955 8.955 0 0 1-.733 3.55c.25 1.433.483 2.883.716 4.283z" fill-opacity=".6" fill="#0E141A"/>
      <path d="M19 19c0 .55-.45 1-1 1s-1-.45-1-1v-1c0-.55.45-1 1-1s1-.45 1-1-.45-1-1-1-1 .45-1 1-.45 1-1 1-1-.45-1-1c0-1.65 1.35-3 3-3s3 1.35 3 3c0 1.3-.833 2.417-2 2.833V19zm-1 4c-.55 0-1-.45-1-1s.45-1 1-1 1 .45 1 1-.45 1-1 1z" fill="#FFF"/>
    </g>
  </g>
</svg>
