<?xml version="1.0" encoding="UTF-8"?>
<svg width="36px" height="36px" viewBox="0 0 36 36" version="1.1" xmlns="http://www.w3.org/2000/svg" xmlns:xlink="http://www.w3.org/1999/xlink">
    <!-- Generator: Sketch 49.1 (51147) - http://www.bohemiancoding.com/sketch -->
    <title>icon_support_feature_(balloon)</title>
    <desc>Created with Sketch.</desc>
    <defs>
        <circle id="path-1" cx="18" cy="18" r="18"></circle>
    </defs>
    <g id="icon_support_feature_(balloon)" stroke="none" stroke-width="1" fill="none" fill-rule="evenodd">
        <mask id="mask-2" fill="white">
            <use xlink:href="#path-1"></use>
        </mask>
        <use id="container" fill="#00AE55" xlink:href="#path-1"></use>
        <g id="balloon" mask="url(#mask-2)">
            <g transform="translate(9.000000, 11.000000)">
                <path d="M2.00000703,0 L16.0000528,0 C17.1000566,0 18.0000598,0.900003165 18.0000598,2.00000703 L18.0000598,15.0000528 C18.0000598,15.5500547 17.5500582,16.0000563 17.0000563,16.0000563 C16.7667221,16.0000563 16.5667214,15.9333894 16.4000542,15.8000556 L14.0000457,14.0000492 L2.00000703,14.0000492 C0.900003165,14.0000492 0,13.1000461 0,12.0000422 L0,2.00000703 C0,0.900003165 0.900003165,0 2.00000703,0 Z" id="outline" fill-opacity="0.6" fill="#0E141A"></path>
                <path d="M14.0000457,4.00001407 L4.00001407,4.00001407 C3.45001213,4.00001407 3.00001055,4.45001565 3.00001055,5.00001758 C3.00001055,5.55001952 3.45001213,6.0000211 4.00001407,6.0000211 L14.0000457,6.0000211 C14.5500477,6.0000211 15.0000492,5.55001952 15.0000492,5.00001758 C15.0000492,4.45001565 14.5500477,4.00001407 14.0000457,4.00001407 Z" id="text_2" fill="#FFFFFF"></path>
                <path d="M4.00001407,10.0000352 L9.00002813,10.0000352 C9.55003007,10.0000352 10.0000317,9.55003358 10.0000317,9.00003165 C10.0000317,8.45002972 9.55003007,8.00002813 9.00002813,8.00002813 L4.00001407,8.00002813 C3.45001213,8.00002813 3.00001055,8.45002972 3.00001055,9.00003165 C3.00001055,9.55003358 3.45001213,10.0000352 4.00001407,10.0000352 Z" id="text_1" fill="#FFFFFF"></path>
            </g>
        </g>
    </g>
</svg>