<?xml version="1.0" encoding="UTF-8"?>
<svg width="36px" height="36px" viewBox="0 0 36 36" version="1.1" xmlns="http://www.w3.org/2000/svg" xmlns:xlink="http://www.w3.org/1999/xlink">
    <!-- Generator: Sketch 49.1 (51147) - http://www.bohemiancoding.com/sketch -->
    <title>icon_support_feature_(question)</title>
    <desc>Created with Sketch.</desc>
    <defs>
        <circle id="path-1" cx="18" cy="18" r="18"></circle>
    </defs>
    <g id="icon_support_feature_(question)" stroke="none" stroke-width="1" fill="none" fill-rule="evenodd">
        <mask id="mask-2" fill="white">
            <use xlink:href="#path-1"></use>
        </mask>
        <use id="container" fill="#00AE55" xlink:href="#path-1"></use>
        <g id="balloon" mask="url(#mask-2)">
            <g transform="translate(9.000000, 9.000000)">
                <path d="M17.9833966,16.8333925 C18.0000633,16.8833927 18.0000633,16.9500596 18.0000633,17.0000598 C18.0000633,17.5500617 17.5500617,18.0000633 17.0000598,18.0000633 C16.9500596,18.0000633 16.8833927,18.0000633 16.8333925,17.9833966 C15.4333876,17.7500624 13.9833825,17.5167283 12.5500441,17.2667274 C11.466707,17.7333957 10.2667028,18.0000633 9.00003165,18.0000633 C4.03334752,18.0000633 0,13.9667158 0,9.00003165 C0,4.03334752 4.03334752,0 9.00003165,0 C13.9667158,0 18.0000633,4.03334752 18.0000633,9.00003165 C18.0000633,10.2667028 17.7333957,11.466707 17.2667274,12.5500441 C17.5167283,13.9833825 17.7500624,15.4333876 17.9833966,16.8333925 Z" id="outline" fill-opacity="0.6" fill="#0E141A"></path>
                <path d="M10.0000352,10.0000352 C10.0000352,10.5500371 9.55003358,11.0000387 9.00003165,11.0000387 C8.45002972,11.0000387 8.00002813,10.5500371 8.00002813,10.0000352 L8.00002813,9.00003165 C8.00002813,8.45002972 8.45002972,8.00002813 9.00003165,8.00002813 C9.55003358,8.00002813 10.0000352,7.55002655 10.0000352,7.00002462 C10.0000352,6.45002268 9.55003358,6.0000211 9.00003165,6.0000211 C8.45002972,6.0000211 8.00002813,6.45002268 8.00002813,7.00002462 C8.00002813,7.55002655 7.55002655,8.00002813 7.00002462,8.00002813 C6.45002268,8.00002813 6.0000211,7.55002655 6.0000211,7.00002462 C6.0000211,5.35001881 7.35002585,4.00001407 9.00003165,4.00001407 C10.6500375,4.00001407 12.0000422,5.35001881 12.0000422,7.00002462 C12.0000422,8.30002919 11.1667059,9.41669978 10.0000352,9.83336791 L10.0000352,10.0000352 Z M9.00003165,14.0000492 C8.45002972,14.0000492 8.00002813,13.5500477 8.00002813,13.0000457 C8.00002813,12.4500438 8.45002972,12.0000422 9.00003165,12.0000422 C9.55003358,12.0000422 10.0000352,12.4500438 10.0000352,13.0000457 C10.0000352,13.5500477 9.55003358,14.0000492 9.00003165,14.0000492 Z" id="question_mark" fill="#FFFFFF"></path>
            </g>
        </g>
    </g>
</svg>