<svg viewBox="0 0 376 376" xmlns="http://www.w3.org/2000/svg" xmlns:xlink="http://www.w3.org/1999/xlink">
  <defs>
    <path d="M108.732 35c28.483-10.667 60.053-10.667 88.536 0C184.415 21.689 169.246 14 153 14c-16.246 0-31.415 7.689-44.268 21zM80.958 49.6C98.864 19.103 124.512 0 153 0s54.136 19.104 72.042 49.601a126.772 126.772 0 0 1 17.054 14.304l-49.498 49.497c-21.87-21.87-57.327-21.87-79.196 0L63.904 63.905A126.772 126.772 0 0 1 80.958 49.6zM35 197.268c-10.667-28.483-10.667-60.053 0-88.536C21.689 121.586 14 136.754 14 153c0 16.246 7.689 31.415 21 44.268zm14.6 27.774C19.103 207.136 0 181.488 0 153s19.104-54.136 49.601-72.042a126.772 126.772 0 0 1 14.303-17.053l49.498 49.497c-21.87 21.87-21.87 57.327 0 79.196l-49.498 49.498a126.772 126.772 0 0 1-14.303-17.054zM256.399 80.958C286.896 98.864 306 124.512 306 153s-19.103 54.136-49.601 72.042a126.772 126.772 0 0 1-14.303 17.054l-49.498-49.498c21.87-21.87 21.87-57.327 0-79.196l49.498-49.497a126.772 126.772 0 0 1 14.303 17.053zM271 197.268c13.311-12.853 21-28.022 21-44.268 0-16.246-7.689-31.415-21-44.268 10.667 28.483 10.667 60.053 0 88.537zM197.268 271c-28.483 10.667-60.053 10.667-88.536 0 12.853 13.311 28.022 21 44.268 21 16.246 0 31.415-7.689 44.268-21zm27.774-14.601C207.136 286.897 181.488 306 153 306s-54.136-19.103-72.042-49.601a126.772 126.772 0 0 1-17.054-14.303l49.498-49.498c21.87 21.87 57.327 21.87 79.196 0l49.498 49.498a126.772 126.772 0 0 1-17.054 14.303z" id="b"/>
    <filter x="-24.5%" y="-18.6%" width="149%" height="149%" filterUnits="objectBoundingBox" id="a">
      <feOffset dy="6" in="SourceAlpha" result="shadowOffsetOuter1"/>
      <feGaussianBlur stdDeviation="18" in="shadowOffsetOuter1" result="shadowBlurOuter1"/>
      <feColorMatrix values="0 0 0 0 0.0549019608 0 0 0 0 0.0784313725 0 0 0 0 0.101960784 0 0 0 0.04 0" in="shadowBlurOuter1" result="shadowMatrixOuter1"/>
      <feOffset dy="12" in="SourceAlpha" result="shadowOffsetOuter2"/>
      <feGaussianBlur stdDeviation="9" in="shadowOffsetOuter2" result="shadowBlurOuter2"/>
      <feColorMatrix values="0 0 0 0 0.0549019608 0 0 0 0 0.0784313725 0 0 0 0 0.101960784 0 0 0 0.09 0" in="shadowBlurOuter2" result="shadowMatrixOuter2"/>
      <feMerge>
      <feMergeNode in="shadowMatrixOuter1"/>
      <feMergeNode in="shadowMatrixOuter2"/>
      </feMerge>
    </filter>
    <linearGradient x1="0%" y1="0%" y2="100%" id="d">
      <stop stop-color="#0E141A" stop-opacity=".1" offset="0%"/>
      <stop stop-color="#0E141A" stop-opacity=".4" offset="100%"/>
    </linearGradient>
    <path d="M14 153c0 16.871 8.292 32.58 22.56 45.741a125.717 125.717 0 0 0 14.753 27.291C19.82 208.088 0 182.017 0 153c0-29.017 19.82-55.088 51.313-73.032a125.723 125.723 0 0 0-14.753 27.29C22.292 120.42 14 136.13 14 153zm139 139c16.871 0 32.58-8.292 45.741-22.56a125.717 125.717 0 0 0 27.291-14.753C208.088 286.18 182.017 306 153 306c-29.017 0-55.088-19.82-73.032-51.313a125.717 125.717 0 0 0 27.29 14.753C120.42 283.708 136.13 292 153 292zM254.687 79.968C286.18 97.912 306 123.982 306 153c0 29.018-19.82 55.088-51.313 73.032a125.721 125.721 0 0 0 14.753-27.29C283.708 185.58 292 169.871 292 153s-8.292-32.58-22.56-45.741a125.723 125.723 0 0 0-14.753-27.291zM153 14c-16.871 0-32.58 8.292-45.741 22.56a125.71 125.71 0 0 0-27.291 14.753C97.912 19.82 123.983 0 153 0c29.017 0 55.088 19.82 73.032 51.313a125.71 125.71 0 0 0-27.29-14.753C185.58 22.292 169.871 14 153 14z" id="c"/>
    <radialGradient cx="0%" cy="15.028%" fx="0%" fy="15.028%" r="122.361%" gradientTransform="matrix(.7081 .4993 -.70612 .5007 .106 .075)" id="g">
      <stop stop-color="#1F7AFF" offset="0%"/>
      <stop stop-color="#1F7AFF" stop-opacity="0" offset="100%"/>
    </radialGradient>
    <path d="M113.402 192.598c21.87 21.87 57.327 21.87 79.196 0l49.498 49.498c-49.207 49.206-128.985 49.206-178.192 0l49.498-49.498zm79.196-79.196c-21.87-21.87-57.327-21.87-79.196 0L63.904 63.905c49.207-49.207 128.985-49.207 178.192 0l-49.498 49.497z" id="f"/>
    <filter x="-10.9%" y="-6.5%" width="121.9%" height="115.5%" filterUnits="objectBoundingBox" id="e">
      <feOffset dy="3" in="SourceAlpha" result="shadowOffsetOuter1"/>
      <feGaussianBlur stdDeviation="6" in="shadowOffsetOuter1" result="shadowBlurOuter1"/>
      <feColorMatrix values="0 0 0 0 0.0549019608 0 0 0 0 0.0784313725 0 0 0 0 0.101960784 0 0 0 0.06 0" in="shadowBlurOuter1"/>
    </filter>
  </defs>
  <g fill="none" fill-rule="evenodd">
    <use filter="url(#a)" xlink:href="#b" fill="#000" transform="translate(35 29)"/>
    <g transform="translate(35 29)">
      <use fill-opacity=".2" fill="#0E141A" xlink:href="#c"/>
      <use fill="url(#d)" xlink:href="#c"/>
    </g>
    <g transform="translate(35 29)">
      <use fill="#000" filter="url(#e)" xlink:href="#f"/>
      <use fill="#00D46A" xlink:href="#f"/>
      <use fill="url(#g)" xlink:href="#f"/>
    </g>
    <path d="M277.096 92.905c49.205 49.206 49.205 128.984 0 178.19l-49.498-49.497c21.87-21.87 21.87-57.327 0-79.196l49.498-49.497zm-128.694 49.497c-21.87 21.87-21.87 57.327 0 79.196l-49.498 49.498c-49.206-49.207-49.206-128.985 0-178.191l49.498 49.497z" fill="#FFF"/>
  </g>
</svg>
