<?xml version="1.0" encoding="UTF-8"?>
<svg width="36px" height="36px" viewBox="0 0 36 36" version="1.1" xmlns="http://www.w3.org/2000/svg" xmlns:xlink="http://www.w3.org/1999/xlink">
    <!-- Generator: Sketch 49.1 (51147) - http://www.bohemiancoding.com/sketch -->
    <title>icon_support_feature_(exclamation)</title>
    <desc>Created with Sketch.</desc>
    <defs>
        <circle id="path-1" cx="18" cy="18" r="18"></circle>
    </defs>
    <g id="icon_support_feature_(exclamation)" stroke="none" stroke-width="1" fill="none" fill-rule="evenodd">
        <mask id="mask-2" fill="white">
            <use xlink:href="#path-1"></use>
        </mask>
        <use id="container" fill="#00AE55" xlink:href="#path-1"></use>
        <g id="warning" mask="url(#mask-2)">
            <g transform="translate(10.000000, 10.000000)">
                <path d="M11.5833741,1.84995727 L16.5333915,10.7499886 C16.8333925,11.2666571 17.0000598,11.8666592 17.0000598,12.4999947 C17.0000598,14.4333349 15.4333876,16.000007 13.5000475,16.000007 L3.50001231,16.000007 C1.56667218,16.000007 0,14.4333349 0,12.4999947 C0,11.8666592 0.166667253,11.2666571 0.466668308,10.7499886 L5.41668572,1.84995727 C6.0000211,0.749953404 7.16669187,-4.92334366e-05 8.50002989,-4.92334366e-05 C9.83336791,-4.92334366e-05 11.0000387,0.749953404 11.5833741,1.84995727 Z" id="outline" fill-opacity="0.6" fill="#0E141A"></path>
                <path d="M8.50002989,14 C7.66669363,14 7.00002462,13.333331 7.00002462,12.4999947 C7.00002462,11.6666585 7.66669363,10.9999894 8.50002989,10.9999894 C9.33336616,10.9999894 10.0000352,11.6666585 10.0000352,12.4999947 C10.0000352,13.333331 9.33336616,14 8.50002989,14 Z M10.0000352,7.71664457 C10.0000352,8.41664703 9.33336616,8.99998242 8.50002989,8.99998242 C7.66669363,8.99998242 7.00002462,8.41664703 7.00002462,7.71664457 L7.00002462,4.28329916 C7.00002462,3.5832967 7.66669363,2.99996132 8.50002989,2.99996132 C9.33336616,2.99996132 10.0000352,3.5832967 10.0000352,4.28329916 L10.0000352,7.71664457 Z" id="exclamation_mark" fill="#FFFFFF"></path>
            </g>
        </g>
    </g>
</svg>