<?xml version="1.0" encoding="UTF-8"?>
<svg width="10px" height="8px" viewBox="0 0 10 8" version="1.1" xmlns="http://www.w3.org/2000/svg" xmlns:xlink="http://www.w3.org/1999/xlink">
    <!-- Generator: Sketch 49.1 (51147) - http://www.bohemiancoding.com/sketch -->
    <title>icon_arrow_right_(@green)</title>
    <desc>Created with Sketch.</desc>
    <defs></defs>
    <g id="icon_arrow_right_(@green)" stroke="none" stroke-width="1" fill="none" fill-rule="evenodd">
        <path d="M6.71252361,7.71565213 C6.5125229,7.90315279 6.25002198,8.00315314 6.0000211,8.00315314 C5.75002022,8.00315314 5.4875193,7.90315279 5.28751859,7.71565213 C4.90001723,7.31565073 4.90001723,6.69064853 5.28751859,6.29064712 L6.58752317,5.00314259 L1.00000352,5.00314259 C0.450001583,5.00314259 0,4.55314101 0,4.00313908 C0,3.45313714 0.450001583,3.00313556 1.00000352,3.00313556 L6.58752317,3.00313556 L5.28751859,1.71563103 C4.90001723,1.31562963 4.90001723,0.690627429 5.28751859,0.290626022 C5.68752,-0.0968753407 6.3125222,-0.0968753407 6.71252361,0.290626022 L9.71253416,3.29063657 C10.1000355,3.69063798 10.1000355,4.31564018 9.71253416,4.71564158 L6.71252361,7.71565213 Z" id="arrow" fill="#00AE55"></path>
    </g>
</svg>