<?xml version="1.0" encoding="UTF-8"?>
<svg viewBox="0 0 115 14" version="1.1" xmlns="http://www.w3.org/2000/svg" xmlns:xlink="http://www.w3.org/1999/xlink">
    <!-- Generator: Sketch 46.2 (44496) - http://www.bohemiancoding.com/sketch -->
    <title>rating_line_1</title>
    <desc>Created with Sketch.</desc>
    <defs>
        <path d="M61.6250374,13.0375283 C62.1875393,14.6000338 62.6875411,15.9625386 62.937542,16.650041 C62.9750421,16.7625414 63.0000422,16.8750418 63.0000422,17.0000422 C63.0000422,17.5500441 62.5500406,18.0000457 62.0000387,18.0000457 C61.800038,18.0000457 61.6000373,17.9375455 61.4500367,17.8375451 L61.4375367,17.8250451 C60.4875334,17.2000429 59.2250289,16.3500399 58.0000246,15.5375371 C56.7750203,16.3500399 55.5125159,17.2000429 54.5625125,17.8250451 L54.5500125,17.8375451 C54.400012,17.9375455 54.2000113,18.0000457 54.0000106,18.0000457 C53.4500086,18.0000457 53.000007,17.5500441 53.000007,17.0000422 C53.000007,16.8750418 53.0250071,16.7625414 53.0625073,16.650041 C53.3125081,15.9625386 53.8125099,14.6000338 54.3750119,13.0375283 C53.3750084,12.2875256 52.6250057,11.7125236 51.4000014,10.8000204 C51.1625006,10.6250198 51,10.3250187 51,10.0000176 C51,9.45001565 51.4500016,9.00001407 52.0000035,9.00001407 L55.8500171,9.00001407 L57.0625213,5.66250233 C57.2000218,5.27500097 57.5625231,5 58.0000246,5 C58.4375262,5 58.8000274,5.27500097 58.9375279,5.66250233 C59.1750287,6.31250462 59.6250303,7.55000897 60.1500322,9.00001407 L64.0000457,9.00001407 C64.5500477,9.00001407 65.0000492,9.45001565 65.0000492,10.0000176 C65.0000492,10.3250187 64.8375487,10.6250198 64.6000478,10.8000204 C63.3750435,11.7125236 62.6250409,12.2875256 61.6250374,13.0375283 Z" id="path-1"></path>
        <path d="M44.6250374,13.0375283 C45.1875393,14.6000338 45.6875411,15.9625386 45.937542,16.650041 C45.9750421,16.7625414 46.0000422,16.8750418 46.0000422,17.0000422 C46.0000422,17.5500441 45.5500406,18.0000457 45.0000387,18.0000457 C44.800038,18.0000457 44.6000373,17.9375455 44.4500367,17.8375451 L44.4375367,17.8250451 C43.4875334,17.2000429 42.2250289,16.3500399 41.0000246,15.5375371 C39.7750203,16.3500399 38.5125159,17.2000429 37.5625125,17.8250451 L37.5500125,17.8375451 C37.400012,17.9375455 37.2000113,18.0000457 37.0000106,18.0000457 C36.4500086,18.0000457 36.000007,17.5500441 36.000007,17.0000422 C36.000007,16.8750418 36.0250071,16.7625414 36.0625073,16.650041 C36.3125081,15.9625386 36.8125099,14.6000338 37.3750119,13.0375283 C36.3750084,12.2875256 35.6250057,11.7125236 34.4000014,10.8000204 C34.1625006,10.6250198 34,10.3250187 34,10.0000176 C34,9.45001565 34.4500016,9.00001407 35.0000035,9.00001407 L38.8500171,9.00001407 L40.0625213,5.66250233 C40.2000218,5.27500097 40.5625231,5 41.0000246,5 C41.4375262,5 41.8000274,5.27500097 41.9375279,5.66250233 C42.1750287,6.31250462 42.6250303,7.55000897 43.1500322,9.00001407 L47.0000457,9.00001407 C47.5500477,9.00001407 48.0000492,9.45001565 48.0000492,10.0000176 C48.0000492,10.3250187 47.8375487,10.6250198 47.6000478,10.8000204 C46.3750435,11.7125236 45.6250409,12.2875256 44.6250374,13.0375283 Z" id="path-2"></path>
        <path d="M27.6250374,13.0375283 C28.1875393,14.6000338 28.6875411,15.9625386 28.937542,16.650041 C28.9750421,16.7625414 29.0000422,16.8750418 29.0000422,17.0000422 C29.0000422,17.5500441 28.5500406,18.0000457 28.0000387,18.0000457 C27.800038,18.0000457 27.6000373,17.9375455 27.4500367,17.8375451 L27.4375367,17.8250451 C26.4875334,17.2000429 25.2250289,16.3500399 24.0000246,15.5375371 C22.7750203,16.3500399 21.5125159,17.2000429 20.5625125,17.8250451 L20.5500125,17.8375451 C20.400012,17.9375455 20.2000113,18.0000457 20.0000106,18.0000457 C19.4500086,18.0000457 19.000007,17.5500441 19.000007,17.0000422 C19.000007,16.8750418 19.0250071,16.7625414 19.0625073,16.650041 C19.3125081,15.9625386 19.8125099,14.6000338 20.3750119,13.0375283 C19.3750084,12.2875256 18.6250057,11.7125236 17.4000014,10.8000204 C17.1625006,10.6250198 17,10.3250187 17,10.0000176 C17,9.45001565 17.4500016,9.00001407 18.0000035,9.00001407 L21.8500171,9.00001407 L23.0625213,5.66250233 C23.2000218,5.27500097 23.5625231,5 24.0000246,5 C24.4375262,5 24.8000274,5.27500097 24.9375279,5.66250233 C25.1750287,6.31250462 25.6250303,7.55000897 26.1500322,9.00001407 L30.0000457,9.00001407 C30.5500477,9.00001407 31.0000492,9.45001565 31.0000492,10.0000176 C31.0000492,10.3250187 30.8375487,10.6250198 30.6000478,10.8000204 C29.3750435,11.7125236 28.6250409,12.2875256 27.6250374,13.0375283 Z" id="path-3"></path>
        <path d="M10.6250374,13.0375283 C11.1875393,14.6000338 11.6875411,15.9625386 11.937542,16.650041 C11.9750421,16.7625414 12.0000422,16.8750418 12.0000422,17.0000422 C12.0000422,17.5500441 11.5500406,18.0000457 11.0000387,18.0000457 C10.800038,18.0000457 10.6000373,17.9375455 10.4500367,17.8375451 L10.4375367,17.8250451 C9.48753336,17.2000429 8.22502892,16.3500399 7.00002462,15.5375371 C5.77502031,16.3500399 4.51251587,17.2000429 3.56251253,17.8250451 L3.55001248,17.8375451 C3.40001196,17.9375455 3.20001125,18.0000457 3.00001055,18.0000457 C2.45000862,18.0000457 2.00000703,17.5500441 2.00000703,17.0000422 C2.00000703,16.8750418 2.02500712,16.7625414 2.06250725,16.650041 C2.31250813,15.9625386 2.81250989,14.6000338 3.37501187,13.0375283 C2.37500835,12.2875256 1.62500571,11.7125236 0.400001407,10.8000204 C0.162500571,10.6250198 0,10.3250187 0,10.0000176 C0,9.45001565 0.450001583,9.00001407 1.00000352,9.00001407 L4.85001706,9.00001407 L6.06252132,5.66250233 C6.2000218,5.27500097 6.56252308,5 7.00002462,5 C7.43752616,5 7.80002743,5.27500097 7.93752791,5.66250233 C8.17502875,6.31250462 8.62503033,7.55000897 9.15003218,9.00001407 L13.0000457,9.00001407 C13.5500477,9.00001407 14.0000492,9.45001565 14.0000492,10.0000176 C14.0000492,10.3250187 13.8375487,10.6250198 13.6000478,10.8000204 C12.3750435,11.7125236 11.6250409,12.2875256 10.6250374,13.0375283 Z" id="path-4"></path>
    </defs>
    <g id="Resource---Data-Demo" stroke="none" stroke-width="1" fill="none" fill-rule="evenodd">
        <g id="03_data_demo_(focus_field_search_top)" transform="translate(-24.000000, -461.000000)">
            <g id="demo">
                <g id="rating" transform="translate(24.000000, 426.000000)">
                    <g id="rating_line_1" transform="translate(0.000000, 30.000000)">
                        <rect id="container" x="0" y="0" width="115" height="24" rx="3"></rect>
                        <path d="M94.768,16 L93.688,14.872 C92.992,15.652 92.248,16.144 91.3,16.144 C89.692,16.144 88.84,15.064 88.84,13.972 C88.84,12.868 89.44,12.268 90.34,11.596 L90.46,11.5 L90.304,11.332 C89.908,10.912 89.284,10.264 89.284,9.436 C89.284,8.056 90.424,7.312 91.48,7.312 C92.764,7.312 93.736,8.116 93.736,9.388 C93.736,10.228 93.136,10.828 92.536,11.272 L92.104,11.596 L93.688,13.24 L95.584,11.128 L95.584,12.676 L94.432,14.008 L96.364,16 L94.768,16 Z M91.312,15.064 C91.96,15.064 92.428,14.644 92.896,14.128 L92.932,14.08 L91.204,12.268 L90.772,12.592 C90.364,12.904 90.052,13.288 90.052,13.876 C90.052,14.452 90.532,15.064 91.312,15.064 Z M90.448,9.364 C90.448,9.844 90.82,10.264 91.096,10.552 L91.36,10.84 L91.936,10.408 C92.44,10.036 92.572,9.712 92.572,9.352 C92.572,8.788 92.116,8.32 91.492,8.32 C91,8.32 90.448,8.692 90.448,9.364 Z M103.384,16.18 C105.112,16.18 106.444,15.1 106.444,13.096 L106.444,7.492 L105.268,7.492 L105.268,13.06 C105.268,14.356 104.584,15.088 103.384,15.088 C102.196,15.088 101.488,14.356 101.488,13.06 L101.488,7.492 L100.324,7.492 L100.324,13.096 C100.324,15.1 101.656,16.18 103.384,16.18 Z M109.48,18.28 L108.364,18.28 L108.364,10.228 L109.456,10.228 L109.456,11.128 C109.768,10.552 110.452,10.096 111.388,10.096 C113.116,10.096 114.04,11.428 114.04,13.108 C114.04,14.824 113.044,16.156 111.352,16.156 C110.464,16.156 109.792,15.736 109.48,15.22 L109.48,18.28 Z M112.888,13.108 C112.888,11.956 112.24,11.092 111.184,11.092 C110.152,11.092 109.468,11.956 109.468,13.108 C109.468,14.296 110.152,15.148 111.184,15.148 C112.228,15.148 112.888,14.296 112.888,13.108 Z" id="&amp;-Up" fill-opacity="0.7" fill="#0E141A"></path>
                        <path d="M78.6250374,13.0375283 C79.1875393,14.6000338 79.6875411,15.9625386 79.937542,16.650041 C79.9750421,16.7625414 80.0000422,16.8750418 80.0000422,17.0000422 C80.0000422,17.5500441 79.5500406,18.0000457 79.0000387,18.0000457 C78.800038,18.0000457 78.6000373,17.9375455 78.4500367,17.8375451 L78.4375367,17.8250451 C77.4875334,17.2000429 76.2250289,16.3500399 75.0000246,15.5375371 C73.7750203,16.3500399 72.5125159,17.2000429 71.5625125,17.8250451 L71.5500125,17.8375451 C71.400012,17.9375455 71.2000113,18.0000457 71.0000106,18.0000457 C70.4500086,18.0000457 70.000007,17.5500441 70.000007,17.0000422 C70.000007,16.8750418 70.0250071,16.7625414 70.0625073,16.650041 C70.3125081,15.9625386 70.8125099,14.6000338 71.3750119,13.0375283 C70.3750084,12.2875256 69.6250057,11.7125236 68.4000014,10.8000204 C68.1625006,10.6250198 68,10.3250187 68,10.0000176 C68,9.45001565 68.4500016,9.00001407 69.0000035,9.00001407 L72.8500171,9.00001407 L74.0625213,5.66250233 C74.2000218,5.27500097 74.5625231,5 75.0000246,5 C75.4375262,5 75.8000274,5.27500097 75.9375279,5.66250233 C76.1750287,6.31250462 76.6250303,7.55000897 77.1500322,9.00001407 L81.0000457,9.00001407 C81.5500477,9.00001407 82.0000492,9.45001565 82.0000492,10.0000176 C82.0000492,10.3250187 81.8375487,10.6250198 81.6000478,10.8000204 C80.3750435,11.7125236 79.6250409,12.2875256 78.6250374,13.0375283 Z" id="star_5" fill-opacity="0.3" fill="#0E141A"></path>
                        <g id="star_4">
                            <use fill="#FFB700" fill-rule="evenodd" xlink:href="#path-1"></use>
                            <use fill="black" fill-opacity="1" xlink:href="#path-1"></use>
                        </g>
                        <g id="star_3">
                            <use fill="#FFB700" fill-rule="evenodd" xlink:href="#path-2"></use>
                            <use fill="black" fill-opacity="1" xlink:href="#path-2"></use>
                        </g>
                        <g id="star_2">
                            <use fill="#FFB700" fill-rule="evenodd" xlink:href="#path-3"></use>
                            <use fill="black" fill-opacity="1" xlink:href="#path-3"></use>
                        </g>
                        <g id="star_1">
                            <use fill="#FFB700" fill-rule="evenodd" xlink:href="#path-4"></use>
                            <use fill="black" fill-opacity="1" xlink:href="#path-4"></use>
                        </g>
                    </g>
                </g>
            </g>
        </g>
    </g>
</svg>
