<?xml version="1.0" encoding="UTF-8"?>
<svg viewBox="0 0 41 17" version="1.1" xmlns="http://www.w3.org/2000/svg" xmlns:xlink="http://www.w3.org/1999/xlink">
    <!-- Generator: Sketch 46.2 (44496) - http://www.bohemiancoding.com/sketch -->
    <title>arrow_curve_(@green)</title>
    <desc>Created with Sketch.</desc>
    <defs></defs>
    <g id="Resource---Svg" stroke="none" stroke-width="1" fill="none" fill-rule="evenodd">
        <g id="arrow_curve_(@green)">
            <path d="M4.830527,14.2420585 C13.9640691,17.6518472 21.6104856,17.4402989 27.7697763,13.6074134 C33.9290671,9.77452801 36.865984,3.40013888 36.580527,-5.51575397" id="Line" stroke="#00D46A" stroke-width="2" stroke-linecap="round" stroke-linejoin="round" transform="translate(20.715010, 5.567127) rotate(23.000000) translate(-20.715010, -5.567127) "></path>
            <path d="M2.87628106,8.1741786 C3.98878498,7.06167469 5.00128854,6.04917113 6.17629267,4.88666704 C6.35129328,4.69916638 6.46379368,4.4491655 6.46379368,4.17416454 C6.46379368,3.6241626 6.0137921,3.17416102 5.46379016,3.17416102 C5.1887892,3.17416102 4.93878832,3.28666141 4.75128766,3.46166203 C3.33878269,4.88666704 2.1762786,6.04917113 0.75127359,7.4616761 C0.576272975,7.64917676 0.463772579,7.89917763 0.463772579,8.1741786 C0.463772579,8.44917957 0.576272975,8.69918045 0.75127359,8.88668111 C2.1762786,10.2991861 3.33878269,11.4616902 4.75128766,12.8866952 C4.93878832,13.0616958 5.1887892,13.1741962 5.46379016,13.1741962 C6.0137921,13.1741962 6.46379368,12.7241946 6.46379368,12.1741927 C6.46379368,11.8991917 6.35129328,11.6491908 6.17629267,11.4616902 C5.00128854,10.2991861 3.98878498,9.28668251 2.87628106,8.1741786 Z" id="arrowhead" fill="#00D46A" transform="translate(3.463783, 8.174179) rotate(38.000000) translate(-3.463783, -8.174179) "></path>
        </g>
    </g>
</svg>
