<?xml version="1.0" encoding="UTF-8"?>
<svg viewBox="0 0 41 18" version="1.1" xmlns="http://www.w3.org/2000/svg" xmlns:xlink="http://www.w3.org/1999/xlink">
    <!-- Generator: Sketch 46.2 (44496) - http://www.bohemiancoding.com/sketch -->
    <title>arrow_curve_(@yellow)</title>
    <desc>Created with Sketch.</desc>
    <defs></defs>
    <g id="Resource---Svg" stroke="none" stroke-width="1" fill="none" fill-rule="evenodd">
        <g id="arrow_curve_(@yellow)">
            <path d="M4.53112606,14.441804 C13.6646682,17.8515927 21.3110846,17.6400443 27.4703754,13.8071589 C33.6296662,9.97427348 36.5665831,3.59988434 36.2811261,-5.3160085" id="Line" stroke="#FFB700" stroke-width="2" stroke-linecap="round" stroke-linejoin="round" transform="translate(20.415609, 5.766872) scale(-1, 1) rotate(23.000000) translate(-20.415609, -5.766872) "></path>
            <path d="M37.0793335,8.37392407 C38.1918374,7.26142016 39.2043409,6.24891659 40.3793451,5.08641251 C40.5543457,4.89891185 40.6668461,4.64891097 40.6668461,4.37391 C40.6668461,3.82390807 40.2168445,3.37390648 39.6668426,3.37390648 C39.3918416,3.37390648 39.1418407,3.48640688 38.9543401,3.6614075 C37.5418351,5.08641251 36.379331,6.24891659 34.954326,7.66142156 C34.7793254,7.84892222 34.666825,8.0989231 34.666825,8.37392407 C34.666825,8.64892503 34.7793254,8.89892591 34.954326,9.08642657 C36.379331,10.4989315 37.5418351,11.6614356 38.9543401,13.0864406 C39.1418407,13.2614413 39.3918416,13.3739417 39.6668426,13.3739417 C40.2168445,13.3739417 40.6668461,12.9239401 40.6668461,12.3739381 C40.6668461,12.0989372 40.5543457,11.8489363 40.3793451,11.6614356 C39.2043409,10.4989315 38.1918374,9.48642798 37.0793335,8.37392407 Z" id="arrowhead" fill="#FFB700" transform="translate(37.666836, 8.373924) scale(-1, 1) rotate(38.000000) translate(-37.666836, -8.373924) "></path>
        </g>
    </g>
</svg>
