<svg viewBox="0 0 41 18" xmlns="http://www.w3.org/2000/svg">
  <g fill="none" fill-rule="evenodd">
      <path d="M38.427 7.546c-7.075 6.707-14.196 9.5-21.364 8.379-7.167-1.122-12.361-5.842-15.582-14.16" stroke="#FFB700" stroke-width="2" stroke-linecap="round" stroke-linejoin="round"/>
      <path d="M38.13 8.012a840.429 840.429 0 0 0-4.625-.559 1.045 1.045 0 0 1-.665-.384 1.003 1.003 0 0 1 .172-1.404c.217-.17.483-.234.739-.212 1.99.253 3.622.454 5.615.69.253.04.496.167.665.384.17.217.234.483.212.738a623.25 623.25 0 0 0-.69 5.615c-.04.253-.167.496-.384.665a1.003 1.003 0 0 1-1.404-.172 1.045 1.045 0 0 1-.212-.738c.21-1.64.385-3.061.577-4.623z" fill="#FFB700"/>
  </g>
</svg>
