<?xml version="1.0" encoding="UTF-8"?>
<svg viewBox="0 0 30 35" version="1.1" xmlns="http://www.w3.org/2000/svg" xmlns:xlink="http://www.w3.org/1999/xlink">
    <!-- Generator: Sketch 46.2 (44496) - http://www.bohemiancoding.com/sketch -->
    <title>arrow</title>
    <desc>Created with Sketch.</desc>
    <defs></defs>
    <g id="Home" stroke="none" stroke-width="1" fill="none" fill-rule="evenodd">
        <g id="01_landing_page_(home)" transform="translate(-1321.000000, -4992.000000)">
            <g id="view_11_(div_2)" transform="translate(720.000000, 4968.000000)">
                <g id="arrow" transform="translate(597.130619, 25.199745)">
                    <path d="M3.10461844,23.9996137 C12.2381606,27.4094023 19.884577,27.197854 26.0438678,23.3649686 C32.2031585,19.5320831 35.1400754,13.157694 34.8546184,4.24180116" id="Line" stroke="#9552EF" stroke-width="2" stroke-linecap="round" stroke-linejoin="round" transform="translate(18.989101, 15.324682) rotate(-15.000000) translate(-18.989101, -15.324682) "></path>
                    <path d="M6.41250848,27.9999824 C7.5250124,26.8874785 8.53751596,25.8749749 9.71252009,24.7124709 C9.8875207,24.5249702 10.0000211,24.2749693 10.0000211,23.9999683 C10.0000211,23.4499664 9.55001952,22.9999648 9.00001758,22.9999648 C8.72501662,22.9999648 8.47501574,23.1124652 8.28751508,23.2874658 C6.87501011,24.7124709 5.71250602,25.8749749 4.28750101,27.2874799 C4.1125004,27.4749806 4,27.7249814 4,27.9999824 C4,28.2749834 4.1125004,28.5249843 4.28750101,28.7124849 C5.71250602,30.1249899 6.87501011,31.287494 8.28751508,32.712499 C8.47501574,32.8874996 8.72501662,33 9.00001758,33 C9.55001952,33 10.0000211,32.5499984 10.0000211,31.9999965 C10.0000211,31.7249955 9.8875207,31.4749946 9.71252009,31.287494 C8.53751596,30.1249899 7.5250124,29.1124863 6.41250848,27.9999824 Z" id="arrowhead" fill="#9552EF"></path>
                </g>
            </g>
        </g>
    </g>
</svg>
