<svg viewBox="0 0 30 35" xmlns="http://www.w3.org/2000/svg">
  <g fill="none" fill-rule="evenodd">
    <path d="M2.022 29.015c9.705.93 17.036-1.254 21.993-6.55 4.957-5.297 6.145-12.214 3.561-20.752" stroke="#9552EF" stroke-width="2" stroke-linecap="round" stroke-linejoin="round"/>
    <path d="M2.543 29.2c1.113-1.113 2.125-2.125 3.3-3.288.175-.187.288-.437.288-.712 0-.55-.45-1-1-1-.275 0-.525.112-.713.287a603.402 603.402 0 0 1-4 4 1.045 1.045 0 0 0-.287.713c0 .275.112.525.287.712a603.404 603.404 0 0 1 4 4c.188.175.438.288.713.288.55 0 1-.45 1-1 0-.275-.113-.525-.288-.713-1.175-1.162-2.187-2.175-3.3-3.287z" fill="#9552EF"/>
  </g>
</svg>
