<?xml version="1.0" encoding="UTF-8"?>
<svg viewBox="0 0 80 30" version="1.1" xmlns="http://www.w3.org/2000/svg" xmlns:xlink="http://www.w3.org/1999/xlink">
    <!-- Generator: Sketch 46.2 (44496) - http://www.bohemiancoding.com/sketch -->
    <title>Artboard Copy 2</title>
    <desc>Created with Sketch.</desc>
    <defs></defs>
    <g id="Resource---Svg" stroke="none" stroke-width="1" fill="none" fill-rule="evenodd">
        <g id="Artboard-Copy-2">
            <g id="cell_bar">
                <rect id="container" x="0" y="0" width="80" height="30"></rect>
                <g id="icon_wifi" transform="translate(46.000000, 7.000000)" fill="#FFFFFF">
                    <path d="M7.07106667,11.4644667 L10.6066,15 L14.1421333,11.4644667 C13.2373167,10.55965 11.9873167,10 10.6066,10 C9.22588333,10 7.97588333,10.55965 7.07106667,11.4644667" id="wifi"></path>
                    <path d="M3.53553333,7.92893333 L5.65685,10.05025 C6.9236,8.7835 8.6736,8 10.6066,8 C12.5395833,8 14.2895833,8.7835 15.5563333,10.05025 L17.6776667,7.92893333 C15.8680167,6.11928333 13.3680167,5 10.6066,5 C7.84516667,5 5.34516667,6.11928333 3.53553333,7.92893333" id="bandwidth_2"></path>
                    <path d="M21.2132,4.3934 L19.0918833,6.51471667 C16.9203,4.34315 13.9203,3 10.6066,3 C7.2929,3 4.2929,4.34315 2.12131667,6.51471667 L0,4.3934 C5.85786667,-1.46446667 15.3553333,-1.46446667 21.2132,4.3934" id="bandwidth_1" fill-opacity="0.4"></path>
                </g>
                <g id="icon_network" transform="translate(12.000000, 7.000000)" fill="#FFFFFF">
                    <rect id="signal_4" fill-opacity="0.4" x="18" y="0" width="4" height="16" rx="1"></rect>
                    <rect id="signal_3" fill-opacity="0.4" x="12" y="4" width="4" height="12" rx="1"></rect>
                    <rect id="signal_2" x="6" y="7" width="4" height="9" rx="1"></rect>
                    <rect id="signal_1" x="0" y="10" width="4" height="6" rx="1"></rect>
                </g>
            </g>
        </g>
    </g>
</svg>