<?xml version="1.0" encoding="UTF-8"?>
<svg viewBox="0 0 98 30" version="1.1" xmlns="http://www.w3.org/2000/svg" xmlns:xlink="http://www.w3.org/1999/xlink">
    <!-- Generator: Sketch 46.2 (44496) - http://www.bohemiancoding.com/sketch -->
    <title>Artboard Copy</title>
    <desc>Created with Sketch.</desc>
    <defs></defs>
    <g id="Resource---Svg" stroke="none" stroke-width="1" fill="none" fill-rule="evenodd">
        <g id="Artboard-Copy">
            <g id="cell_bar">
                <rect id="container" x="0" y="0" width="98" height="30"></rect>
                <g id="icon_battery" transform="translate(61.000000, 9.000000)">
                    <path d="M23,3 L23,3 L23,3 C24.1045695,3 25,3.8954305 25,5 L25,7 L25,7 C25,8.1045695 24.1045695,9 23,9 L23,9 L23,3 Z" id="input" fill-opacity="0.4" fill="#0E141A"></path>
                    <rect id="battery" stroke-opacity="0.4" stroke="#0E141A" x="0.5" y="0.5" width="21" height="11" rx="2"></rect>
                    <rect id="bar_charged" fill="#0E141A" x="2" y="2" width="16" height="8"></rect>
                </g>
                <path d="M43.5507255,14.5394848 L40.0004007,10.9800592 L41.0294729,9.95127321 L43.85769,12.780864 L43.85769,6 L49.0013911,11.1432432 L45.6051495,14.5394848 L49.0020207,17.9366422 L43.8580906,23.0799999 L43.8580906,16.298678 L41.0291294,19.1286122 L40,18.0991966 L43.5507255,14.5394848 Z M45.3042522,19.5662498 L46.9465665,17.9242217 L45.3052252,16.2828805 L45.3042522,19.5662498 L45.3042522,19.5662498 Z M45.3042522,9.5126626 L45.3042522,9.5126626 L45.3052252,12.796032 L46.9465665,11.1550341 L45.3042522,9.5126626 Z" id="bluetooth" fill="#0E141A" fill-rule="nonzero"></path>
                <path d="M20.0000281,6.99995077 C24.4167103,6.99995077 28.0000563,10.5832967 28.0000563,14.9999789 C28.0000563,19.4166611 24.4167103,23.000007 20.0000281,23.000007 C15.5833459,23.000007 12,19.4166611 12,14.9999789 C12,10.5832967 15.5833459,6.99995077 20.0000281,6.99995077 Z M19.0000246,16.9999859 L22.0000352,16.9999859 C22.5500371,16.9999859 23.0000387,16.5499844 23.0000387,15.9999824 C23.0000387,15.4499805 22.5500371,14.9999789 22.0000352,14.9999789 L20.0000281,14.9999789 L20.0000281,11.9999683 C20.0000281,11.4499664 19.5500266,10.9999648 19.0000246,10.9999648 C18.4500227,10.9999648 18.0000211,11.4499664 18.0000211,11.9999683 L18.0000211,15.9999824 C18.0000211,16.5499844 18.4500227,16.9999859 19.0000246,16.9999859 Z" id="clock" fill-opacity="0.8" fill="#0E141A"></path>
            </g>
        </g>
    </g>
</svg>