<?xml version="1.0" encoding="UTF-8"?>
<svg viewBox="0 0 376 376" version="1.1" xmlns="http://www.w3.org/2000/svg" xmlns:xlink="http://www.w3.org/1999/xlink">
    <!-- Generator: Sketch 46.2 (44496) - http://www.bohemiancoding.com/sketch -->
    <title>icon</title>
    <desc>Created with Sketch.</desc>
    <defs>
        <path d="M108.731556,34.9996986 C137.215368,24.3334503 168.784656,24.3334571 197.268464,34.9997191 C184.41463,21.6888924 169.24624,14 153,14 C136.753768,14 121.585386,21.6888845 108.731556,34.9996986 Z M80.9578231,49.6012523 C98.8638637,19.1034838 124.511868,0 153,0 C181.488145,0 207.136159,19.1035011 225.042201,49.6012937 C231.035595,53.787536 236.74623,58.5553147 242.095545,63.90463 C228.84612,77.15388 211.862895,94.137105 192.59802,113.40198 C170.72862,91.532755 135.271345,91.53258 113.401945,113.40198 C93.182095,93.18213 76.06692,76.06713 63.90442,63.90463 C69.2537529,58.5552971 74.9644075,53.7875045 80.9578231,49.6012523 Z M34.9995835,197.268333 C24.3334197,168.784566 24.3334372,137.215353 34.9996358,108.731634 C21.6888603,121.585596 14,136.753794 14,153 C14,169.246185 21.6888402,184.414527 34.9995835,197.268333 Z M49.6010416,225.042053 C19.1033958,207.136018 0,181.488067 0,153 C0,124.511813 19.1035564,98.8637663 49.6014261,80.9575555 C53.7875917,74.9643106 58.555268,69.253817 63.904455,63.90463 C76.066955,76.06713 93.18213,93.18213 113.40198,113.40198 C91.53258,135.27138 91.53258,170.728655 113.40198,192.598055 L63.904455,242.09558 C58.5551042,236.74621 53.7872997,231.035514 49.6010416,225.042053 Z M256.398635,80.9576407 C286.89649,98.8638447 306.000035,124.51172 306.000035,153.00007 C306.000035,181.488219 286.896529,207.136236 256.39873,225.042278 C252.212518,231.035637 247.444778,236.74624 242.09551,242.095527 L192.597985,192.598002 C214.467385,170.728602 214.467385,135.271327 192.597985,113.401927 C211.86286,94.1370525 228.846085,77.1538275 242.09551,63.9045775 C247.444738,69.2538055 252.212446,74.9643455 256.398635,80.9576407 Z M271.00027,197.268578 C284.311125,184.414735 292.000035,169.246329 292.000035,153.00007 C292.000035,136.753675 284.311156,121.585454 271.00035,108.731639 C281.666565,137.215442 281.666538,168.784753 271.00027,197.268578 Z M197.268335,271.000415 C168.784587,281.66657 137.215389,281.666563 108.731645,271.000394 C121.585456,284.311151 136.753806,292 153,292 C169.246186,292 184.414529,284.311159 197.268335,271.000415 Z M225.042053,256.398958 C207.136018,286.896604 181.488067,306 153,306 C124.51192,306 98.8639585,286.896587 80.9579224,256.398917 C74.9644833,252.212669 69.253807,247.444878 63.904455,242.095545 L113.40198,192.59802 C135.27138,214.46742 170.728655,214.46742 192.598055,192.59802 L242.09558,242.095545 C236.74621,247.444896 231.035514,252.2127 225.042053,256.398958 Z" id="path-1"></path>
        <filter x="-24.5%" y="-18.6%" width="149.0%" height="149.0%" filterUnits="objectBoundingBox" id="filter-2">
            <feOffset dx="0" dy="6" in="SourceAlpha" result="shadowOffsetOuter1"></feOffset>
            <feGaussianBlur stdDeviation="18" in="shadowOffsetOuter1" result="shadowBlurOuter1"></feGaussianBlur>
            <feColorMatrix values="0 0 0 0 0.0549019608   0 0 0 0 0.0784313725   0 0 0 0 0.101960784  0 0 0 0.04 0" type="matrix" in="shadowBlurOuter1" result="shadowMatrixOuter1"></feColorMatrix>
            <feOffset dx="0" dy="12" in="SourceAlpha" result="shadowOffsetOuter2"></feOffset>
            <feGaussianBlur stdDeviation="9" in="shadowOffsetOuter2" result="shadowBlurOuter2"></feGaussianBlur>
            <feColorMatrix values="0 0 0 0 0.0549019608   0 0 0 0 0.0784313725   0 0 0 0 0.101960784  0 0 0 0.09 0" type="matrix" in="shadowBlurOuter2" result="shadowMatrixOuter2"></feColorMatrix>
            <feMerge>
                <feMergeNode in="shadowMatrixOuter1"></feMergeNode>
                <feMergeNode in="shadowMatrixOuter2"></feMergeNode>
            </feMerge>
        </filter>
        <linearGradient x1="0%" y1="0%" x2="100%" y2="100%" id="linearGradient-3">
            <stop stop-color="#0E141A" stop-opacity="0.1" offset="0%"></stop>
            <stop stop-color="#0E141A" stop-opacity="0.4" offset="100%"></stop>
        </linearGradient>
        <path d="M14,153 C14,169.87105 22.291675,185.57975 36.5603,198.74115 C40.3585,208.4855 45.334275,217.640975 51.312975,226.032225 C19.819975,208.08825 0,182.01745 0,153 C0,123.98255 19.819975,97.91175 51.312975,79.9676 C45.334275,88.359025 40.3585,97.5145 36.5603,107.25885 C22.291675,120.420425 14,136.12895 14,153 Z M153,292 C169.87105,292 185.57975,283.708325 198.74115,269.4397 C208.4855,265.6415 217.640975,260.665725 226.032225,254.687025 C208.08825,286.180025 182.01745,306 153,306 C123.98255,306 97.91175,286.180025 79.967775,254.687025 C88.359025,260.665725 97.5145,265.6415 107.25885,269.4397 C120.42025,283.708325 136.12895,292 153,292 Z M254.68706,79.96767 C286.18006,97.91182 306.000035,123.982445 306.000035,153.00007 C306.000035,182.01752 286.18006,208.08832 254.68706,226.032295 C260.66576,217.641045 265.641535,208.485395 269.439735,198.74122 C283.70836,185.57982 292.000035,169.87112 292.000035,153.00007 C292.000035,136.128845 283.70836,120.42032 269.439735,107.25892 C265.641535,97.51457 260.66576,88.359095 254.68706,79.96767 Z M153,14 C136.12895,14 120.42025,22.291675 107.25885,36.5603 C97.5145,40.3585 88.359025,45.3341 79.967775,51.312975 C97.91175,19.819975 123.98255,0 153,0 C182.01745,0 208.08825,19.819975 226.032225,51.312975 C217.640975,45.3341 208.4855,40.3585 198.74115,36.5603 C185.57975,22.291675 169.87105,14 153,14 Z" id="path-4"></path>
        <radialGradient cx="0%" cy="15.0282043%" fx="0%" fy="15.0282043%" r="122.361046%" gradientTransform="translate(0.000000,0.150282),scale(1.000000,0.707108),rotate(44.920171),translate(-0.000000,-0.150282)" id="radialGradient-5">
            <stop stop-color="#1F7AFF" offset="0%"></stop>
            <stop stop-color="#1F7AFF" stop-opacity="0" offset="100%"></stop>
        </radialGradient>
        <path d="M113.40198,192.59802 C135.27138,214.46742 170.728655,214.46742 192.598055,192.59802 L242.09558,242.095545 C192.88943,291.30152 113.110605,291.30152 63.904455,242.095545 L113.40198,192.59802 Z M192.59802,113.40198 C170.72862,91.532755 135.271345,91.53258 113.401945,113.40198 C93.182095,93.18213 76.06692,76.06713 63.90442,63.90463 C113.11057,14.69848 192.889395,14.69848 242.095545,63.90463 C228.84612,77.15388 211.862895,94.137105 192.59802,113.40198 Z" id="path-6"></path>
        <filter x="-10.9%" y="-6.5%" width="121.9%" height="115.5%" filterUnits="objectBoundingBox" id="filter-7">
            <feOffset dx="0" dy="3" in="SourceAlpha" result="shadowOffsetOuter1"></feOffset>
            <feGaussianBlur stdDeviation="6" in="shadowOffsetOuter1" result="shadowBlurOuter1"></feGaussianBlur>
            <feColorMatrix values="0 0 0 0 0.0549019608   0 0 0 0 0.0784313725   0 0 0 0 0.101960784  0 0 0 0.06 0" type="matrix" in="shadowBlurOuter1"></feColorMatrix>
        </filter>
    </defs>
    <g id="Workflow" stroke="none" stroke-width="1" fill="none" fill-rule="evenodd">
        <g id="01_landing_page_(home)" transform="translate(-877.000000, -8827.000000)">
            <g id="view_17_(div_2)" transform="translate(840.000000, 8856.000000)">
                <g id="icon" transform="translate(72.000000, 0.000000)">
                    <g id="container_lifebuoy" fill-opacity="1" fill="black">
                        <use filter="url(#filter-2)" xlink:href="#path-1"></use>
                    </g>
                    <g id="rope">
                        <use fill-opacity="0.200000003" fill="#0E141A" xlink:href="#path-4"></use>
                        <use fill="url(#linearGradient-3)" xlink:href="#path-4"></use>
                    </g>
                    <g id="lifebuoy_red">
                        <use fill="black" fill-opacity="1" filter="url(#filter-7)" xlink:href="#path-6"></use>
                        <use fill="#00D46A" fill-rule="evenodd" xlink:href="#path-6"></use>
                        <use fill="url(#radialGradient-5)" fill-rule="evenodd" xlink:href="#path-6"></use>
                    </g>
                    <path d="M242.09551,63.9045775 C291.301485,113.110552 291.301485,192.889377 242.09551,242.095527 L192.597985,192.598002 C214.467385,170.728602 214.467385,135.271327 192.597985,113.401927 C211.86286,94.1370525 228.846085,77.1538275 242.09551,63.9045775 Z M113.40198,113.40198 C91.53258,135.27138 91.53258,170.728655 113.40198,192.598055 L63.904455,242.09558 C14.69848,192.88943 14.69848,113.110605 63.904455,63.90463 C76.066955,76.06713 93.18213,93.18213 113.40198,113.40198 Z" id="lifebuoy_white" fill="#FFFFFF"></path>
                </g>
            </g>
        </g>
    </g>
</svg>
