<?xml version="1.0" encoding="UTF-8"?>
<svg viewBox="0 0 98 30" version="1.1" xmlns="http://www.w3.org/2000/svg" xmlns:xlink="http://www.w3.org/1999/xlink">
    <!-- Generator: Sketch 46.2 (44496) - http://www.bohemiancoding.com/sketch -->
    <title>Artboard Copy 3</title>
    <desc>Created with Sketch.</desc>
    <defs></defs>
    <g id="Resource---Svg" stroke="none" stroke-width="1" fill="none" fill-rule="evenodd">
        <g id="Artboard-Copy-3">
            <g id="cell_bar">
                <rect id="container" x="0" y="0" width="98" height="30"></rect>
                <g id="icon_battery" transform="translate(61.000000, 10.000000)">
                    <path d="M23,3 L23,3 L23,3 C24.1045695,3 25,3.8954305 25,5 L25,7 L25,7 C25,8.1045695 24.1045695,9 23,9 L23,9 L23,3 Z" id="input" fill-opacity="0.4" fill="#FFFFFF"></path>
                    <rect id="battery" stroke-opacity="0.4" stroke="#FFFFFF" x="0.5" y="0.5" width="21" height="11" rx="2"></rect>
                    <rect id="bar_charged" fill="#FFFFFF" x="2" y="2" width="16" height="8"></rect>
                </g>
                <path d="M43.5507255,15.5394848 L40.0004007,11.9800592 L41.0294729,10.9512732 L43.85769,13.780864 L43.85769,7 L49.0013911,12.1432432 L45.6051495,15.5394848 L49.0020207,18.9366422 L43.8580906,24.0799999 L43.8580906,17.298678 L41.0291294,20.1286122 L40,19.0991966 L43.5507255,15.5394848 Z M45.3042522,20.5662498 L46.9465665,18.9242217 L45.3052252,17.2828805 L45.3042522,20.5662498 L45.3042522,20.5662498 Z M45.3042522,10.5126626 L45.3042522,10.5126626 L45.3052252,13.796032 L46.9465665,12.1550341 L45.3042522,10.5126626 Z" id="bluetooth" fill="#FFFFFF" fill-rule="nonzero"></path>
                <path d="M20.0000281,7.99995077 C24.4167103,7.99995077 28.0000563,11.5832967 28.0000563,15.9999789 C28.0000563,20.4166611 24.4167103,24.000007 20.0000281,24.000007 C15.5833459,24.000007 12,20.4166611 12,15.9999789 C12,11.5832967 15.5833459,7.99995077 20.0000281,7.99995077 Z M19.0000246,17.9999859 L22.0000352,17.9999859 C22.5500371,17.9999859 23.0000387,17.5499844 23.0000387,16.9999824 C23.0000387,16.4499805 22.5500371,15.9999789 22.0000352,15.9999789 L20.0000281,15.9999789 L20.0000281,12.9999683 C20.0000281,12.4499664 19.5500266,11.9999648 19.0000246,11.9999648 C18.4500227,11.9999648 18.0000211,12.4499664 18.0000211,12.9999683 L18.0000211,16.9999824 C18.0000211,17.5499844 18.4500227,17.9999859 19.0000246,17.9999859 Z" id="clock" fill="#FFFFFF"></path>
            </g>
        </g>
    </g>
</svg>