<svg xmlns="http://www.w3.org/2000/svg" width="56" height="56" viewBox="0 0 56 56">
  <defs>
    <style>
      .cls-1 {
        fill: #00d46a;
        fill-rule: evenodd;
      }
    </style>
  </defs>
  <path id="icon_users" class="cls-1" d="M1900,3415.94a8.024,8.024,0,0,0-8,8v8a8.024,8.024,0,0,0,8,8h40a8.024,8.024,0,0,0,8-8v-8a8.024,8.024,0,0,0-8-8h-40Zm36,16a4,4,0,1,1,4-4A4.012,4.012,0,0,1,1936,3431.94Zm-36,16a8.024,8.024,0,0,0-8,8v8a8.024,8.024,0,0,0,8,8h40a8.024,8.024,0,0,0,8-8v-8a8.024,8.024,0,0,0-8-8h-40Zm36,16a4,4,0,1,1,4-4A4.012,4.012,0,0,1,1936,3463.94Z" transform="translate(-1892 -3415.94)"/>
</svg>
