<?xml version="1.0" encoding="utf-8"?>
<!-- Generator: Adobe Illustrator 20.0.0, SVG Export Plug-In . SVG Version: 6.00 Build 0)  -->
<svg version="1.1" id="logo" xmlns="http://www.w3.org/2000/svg" xmlns:xlink="http://www.w3.org/1999/xlink" x="0px" y="0px"
	 viewBox="0 0 48 48" style="enable-background:new 0 0 48 48;" xml:space="preserve">
<style type="text/css">
	.st0{fill:#00D46A;}
	.st1{enable-background:new    ;}
	.st2{fill:#FFFFFF;}
</style>
<g id="circle">
	<path class="st0" d="M24,48L24,48C10.8,48,0,37.2,0,24l0,0C0,10.8,10.8,0,24,0l0,0c13.2,0,24,10.8,24,24l0,0C48,37.2,37.2,48,24,48
		z"/>
</g>
<g id="We" class="st1">
	<path class="st2" d="M24.9,30.2H22l-2.6-9l-2.6,9h-2.9L10,16.8h2.8l2.6,9.2l2.7-9.2h2.6l2.7,9.2l2.6-9.2h2.9L24.9,30.2z"/>
	<path class="st2" d="M39,25.9h-7.6c0.3,1.4,1.3,2.3,2.5,2.3c0.8,0,1.8-0.1,2.5-1.3l2.4,0.5c-0.9,2.1-2.7,3.1-4.8,3.1
		c-2.8,0-5.1-2.1-5.1-5.3c0-3.1,2.3-5.3,5.2-5.3c2.7,0,5,2.1,5.1,5.1V25.9z M31.5,24h4.8C36,22.7,35,22.2,34,22.2
		C33,22.2,31.8,22.8,31.5,24z"/>
</g>
</svg>
