<?xml version="1.0" encoding="utf-8"?>
<!-- Generator: Adobe Illustrator 20.0.0, SVG Export Plug-In . SVG Version: 6.00 Build 0)  -->
<svg version="1.1" id="logo" xmlns="http://www.w3.org/2000/svg" xmlns:xlink="http://www.w3.org/1999/xlink" x="0px" y="0px"
	 viewBox="0 0 400.1 168" style="enable-background:new 0 0 400.1 168;" xml:space="preserve">
<style type="text/css">
	.st0{fill:#F0F0F0;}
	.st1{fill:#979A9C;}
	.st2{font-family:'GalanoGrotesque-SemiBold';}
	.st3{font-size:22px;}
	.st4{fill:#B6B8BA;}
	.st5{fill:#0E141A;}
	.st6{font-family:'GalanoGrotesque-Bold';}
	.st7{font-size:44.0119px;}
	.st8{fill:#00D46A;}
	.st9{fill:#FFFFFF;}
</style>
<g>
	<g id="tag_alpha">
		<path id="container" class="st0" d="M11,120h75c4.4,0,8,3.6,8,8v32c0,4.4-3.6,8-8,8H11c-4.4,0-8-3.6-8-8v-32
			C3,123.6,6.6,120,11,120z M37.2,120l11.3-11.3L59.8,120l-11.3,11.3L37.2,120z"/>
		<text id="alpha" transform="matrix(1 0 0 1 17.7076 150.843)" class="st1 st2 st3">alpha</text>
	</g>
	<text id="by_Liferay" transform="matrix(1 0 0 1 291.8143 63.1623)" class="st4 st2 st3">by Liferay</text>
	<text id="Deploy_" transform="matrix(1 0 0 1 103.5164 63.1301)" class="st5 st6 st7">Deploy™</text>
	<path id="circle" class="st8" d="M48.5,96L48.5,96C21.7,96,0,74.3,0,47.5l0,0C-0.1,21.3,21.2,0,47.4,0h0.1l0,0
		C73.9,0.1,95.4,21.1,96,47.5l0,0C96.6,73.7,75.8,95.4,49.7,96C49.3,96,48.9,96,48.5,96z"/>
	<text id="We" transform="matrix(1 0 0 1 16.3266 63.1326)" class="st9 st6 st7">We</text>
</g>
</svg>
