<svg xmlns="http://www.w3.org/2000/svg" width="64" height="56" viewBox="0 0 64 56">
  <defs>
    <style>
      .cls-1 {
        fill: #00d46a;
        fill-rule: evenodd;
      }
    </style>
  </defs>
  <path id="icon_data" class="cls-1" d="M1068,3471.94a12.035,12.035,0,0,1-12-12v-32a12.035,12.035,0,0,1,12-12h40a12.035,12.035,0,0,1,12,12v32a12.035,12.035,0,0,1-12,12h-40Zm0-48a4.012,4.012,0,0,0-4,4v32a4.012,4.012,0,0,0,4,4h40a4.012,4.012,0,0,0,4-4v-32a4.012,4.012,0,0,0-4-4h-40Zm14.8,22.8a3.867,3.867,0,0,0,0-5.6l-8-8a3.96,3.96,0,1,0-5.6,5.6l5.14,5.2-5.14,5.2a3.96,3.96,0,1,0,5.6,5.6Zm25.2,5.2a4.012,4.012,0,0,0-4-4h-12a4,4,0,0,0,0,8h12A4.012,4.012,0,0,0,1108,3451.94Z" transform="translate(-1056 -3415.94)"/>
</svg>
