<svg xmlns="http://www.w3.org/2000/svg" width="64" height="64" viewBox="0 0 64 64">
  <defs>
    <style>
      .cls-1 {
        fill: #00d46a;
        fill-rule: evenodd;
      }
    </style>
  </defs>
  <path id="icon_cloud" class="cls-1" d="M2752,3411.94a32,32,0,1,0,32,32A32.01,32.01,0,0,0,2752,3411.94Zm22.14,41.33a24.33,24.33,0,1,1,1.86-9.33A24.615,24.615,0,0,1,2774.14,3453.27ZM2750,3427.94a2,2,0,1,0-2-2A1.962,1.962,0,0,0,2750,3427.94Zm16.8,1.2a3.867,3.867,0,0,0-5.6,0l-7.13,7.07a7.042,7.042,0,0,0-2.07-.27,8,8,0,1,0,8,8,7.083,7.083,0,0,0-.26-2.07l7.06-7.13A3.867,3.867,0,0,0,2766.8,3429.14Zm-27.33,6.27a2.016,2.016,0,0,0,0-2.87,1.933,1.933,0,0,0-2.8,0,2.016,2.016,0,0,0,0,2.87A2.063,2.063,0,0,0,2739.47,3435.41Zm30.53,4.53a2,2,0,1,0,2,2A1.968,1.968,0,0,0,2770,3439.94Zm-36,4a2,2,0,1,0,2,2A1.968,1.968,0,0,0,2734,3443.94Zm33.34,8.53a2.063,2.063,0,0,0-2.8,0,2.016,2.016,0,0,0,0,2.87,1.933,1.933,0,0,0,2.8,0A2.016,2.016,0,0,0,2767.34,3452.47Zm-23.87,4.2a2.016,2.016,0,0,0-2.87,0,1.933,1.933,0,0,0,0,2.8,2.016,2.016,0,0,0,2.87,0A2.063,2.063,0,0,0,2743.47,3456.67Zm10.53,3.27a2,2,0,1,0,2,2A1.968,1.968,0,0,0,2754,3459.94Z" transform="translate(-2720 -3411.94)"/>
</svg>
