<?xml version="1.0" encoding="utf-8"?>
<!-- Generator: Adobe Illustrator 20.0.0, SVG Export Plug-In . SVG Version: 6.00 Build 0)  -->
<svg version="1.1" id="logo" xmlns="http://www.w3.org/2000/svg" xmlns:xlink="http://www.w3.org/1999/xlink" x="0px" y="0px"
	 viewBox="0 0 284.8 96" style="enable-background:new 0 0 284.8 96;" xml:space="preserve">
<style type="text/css">
	.st0{enable-background:new    ;}
	.st1{fill:#0E141A;}
	.st2{fill:#00D46A;}
	.st3{fill:#FFFFFF;}
</style>
<g id="Deploy_" class="st0">
	<path class="st1" d="M117.7,33.6c9.7,0,16.2,6,16.2,14.7c0,8.8-6.4,14.7-16.2,14.7h-11.7V33.6H117.7z M117.5,56.8
		c5.5,0,9.1-3.3,9.1-8.4s-3.6-8.4-9.1-8.4h-4.1v16.9H117.5z"/>
	<path class="st1" d="M159.6,53.9h-16.2c0.6,2.6,2.4,4.3,4.8,4.3c1.6,0,3.5-0.4,4.7-2.6l6.2,1.3c-1.9,4.7-5.9,6.9-11,6.9
		c-6.4,0-11.7-4.7-11.7-11.7c0-7,5.3-11.7,11.7-11.7c6.2,0,11.3,4.5,11.4,11.7V53.9z M143.6,49.6h9.1c-0.7-2.4-2.4-3.5-4.4-3.5
		C146.2,46.1,144.2,47.3,143.6,49.6z"/>
	<path class="st1" d="M188,52.1c0,7-4.9,11.7-10.8,11.7c-2.9,0-5.1-0.9-6.9-2.4v9.2h-7V41h7v1.8c1.7-1.5,4-2.4,6.9-2.4
		C183,40.4,188,45.1,188,52.1z M181.1,52.1c0-3.4-2.2-5.7-5.3-5.7c-2.9,0-5.4,2.3-5.4,5.7c0,3.4,2.6,5.7,5.4,5.7
		C178.8,57.8,181.1,55.5,181.1,52.1z"/>
	<path class="st1" d="M191.6,63.1V31.4h7v31.7H191.6z"/>
	<path class="st1" d="M226.7,52.1c0,7-5.5,11.7-12.1,11.7c-6.7,0-12.2-4.7-12.2-11.7c0-7,5.5-11.6,12.2-11.6
		C221.1,40.5,226.7,45.1,226.7,52.1z M219.9,52.1c0-3.4-2.6-5.7-5.3-5.7c-2.9,0-5.5,2.3-5.5,5.7c0,3.5,2.6,5.7,5.5,5.7
		C217.3,57.8,219.9,55.6,219.9,52.1z"/>
	<path class="st1" d="M240.5,70.6h-7.6l3.6-8.2L227.3,41h7.6l5.2,12.9l5.6-12.9h7.6L240.5,70.6z"/>
	<path class="st1" d="M263.5,36.9v8.9h-3.9v-8.9H256v-3.3h11.3v3.3H263.5z M279.1,45.8V40l-2.5,5.8h-1.9l-2.5-5.8v5.9h-3.7V33.6h4.1
		l2.9,6.6l2.9-6.6h4.1v12.2H279.1z"/>
</g>
<path id="circle" class="st2" d="M48.5,96L48.5,96C21.7,96,0,74.3,0,47.5l0,0C-0.1,21.3,21.2,0,47.4,0h0.1l0,0
	C73.9,0.1,95.4,21.1,96,47.5l0,0C96.6,73.7,75.8,95.4,49.7,96C49.3,96,48.9,96,48.5,96z"/>
<g id="We" class="st0">
	<path class="st3" d="M50.5,63.1h-7.8l-4.9-18.2l-5,18.2H25l-8.4-29.5h7.4l5.1,18.6l5.1-18.6h6.9l5.1,18.6l5.1-18.6h7.5L50.5,63.1z"
		/>
	<path class="st3" d="M81.4,53.9H65.2c0.6,2.6,2.4,4.3,4.8,4.3c1.6,0,3.5-0.4,4.7-2.6l6.2,1.3c-1.9,4.7-5.9,6.9-11,6.9
		c-6.4,0-11.7-4.7-11.7-11.7c0-7,5.3-11.7,11.7-11.7c6.2,0,11.3,4.5,11.4,11.7V53.9z M65.3,49.6h9.1c-0.7-2.4-2.4-3.5-4.4-3.5
		C68,46.1,66,47.3,65.3,49.6z"/>
</g>
</svg>
