<?xml version="1.0" encoding="UTF-8"?>
<svg width="208px" height="48px" viewBox="0 0 208 48" version="1.1" xmlns="http://www.w3.org/2000/svg" xmlns:xlink="http://www.w3.org/1999/xlink">
    <!-- Generator: Sketch 48.2 (47327) - http://www.bohemiancoding.com/sketch -->
    <title>button</title>
    <desc>Created with Sketch.</desc>
    <defs>
        <rect id="path-1" x="0" y="0" width="208" height="48" rx="4"></rect>
    </defs>
    <g id="button-deploy" stroke="none" stroke-width="1" fill="none" fill-rule="evenodd">
        <g id="button">
            <g id="container">
                <use fill="#00D46A" fill-rule="evenodd" xlink:href="#path-1"></use>
                <rect stroke-opacity="0.12" stroke="#0E141A" stroke-width="1" x="0.5" y="0.5" width="207" height="47" rx="4"></rect>
            </g>
            <g id="Group" transform="translate(40.000000, 18.000000)" fill="#FFFFFF">
                <path d="M88.232,7.936 L90.072,0.656 L92.664,0.656 L89.576,12 L86.968,12 L84.552,4.48 L82.12,12 L79.464,12 L76.376,0.656 L79.064,0.656 L80.936,7.92 L83.288,0.656 L85.88,0.656 L88.232,7.936 Z M99.096,9.136 L101.128,9.712 C100.744,11.088 99.48,12.24 97.464,12.24 C95.272,12.24 93.32,10.672 93.32,8 C93.32,5.44 95.224,3.808 97.288,3.808 C99.752,3.808 101.272,5.328 101.272,7.888 C101.272,8.224 101.24,8.592 101.224,8.64 L95.688,8.64 C95.736,9.536 96.552,10.176 97.496,10.176 C98.376,10.176 98.872,9.76 99.096,9.136 Z M95.736,7.072 L98.92,7.072 C98.888,6.464 98.472,5.728 97.32,5.728 C96.296,5.728 95.784,6.48 95.736,7.072 Z M107.096,12 L103,12 L103,0.656 L107.112,0.656 C110.52,0.656 112.808,2.832 112.808,6.336 C112.808,9.84 110.52,12 107.096,12 Z M105.528,9.616 L107,9.616 C108.744,9.616 110.168,8.608 110.168,6.336 C110.168,4.064 108.744,3.04 107,3.04 L105.528,3.04 L105.528,9.616 Z M119.656,9.136 L121.688,9.712 C121.304,11.088 120.04,12.24 118.024,12.24 C115.832,12.24 113.88,10.672 113.88,8 C113.88,5.44 115.784,3.808 117.848,3.808 C120.312,3.808 121.832,5.328 121.832,7.888 C121.832,8.224 121.8,8.592 121.784,8.64 L116.248,8.64 C116.296,9.536 117.112,10.176 118.056,10.176 C118.936,10.176 119.432,9.76 119.656,9.136 Z M116.296,7.072 L119.48,7.072 C119.448,6.464 119.032,5.728 117.88,5.728 C116.856,5.728 116.344,6.48 116.296,7.072 Z M125.832,15.04 L123.4,15.04 L123.4,4.048 L125.752,4.048 L125.752,4.864 C126.088,4.352 126.952,3.856 128.088,3.856 C130.392,3.856 131.784,5.616 131.784,8 C131.784,10.432 130.216,12.176 127.992,12.176 C126.968,12.176 126.2,11.824 125.832,11.376 L125.832,15.04 Z M129.4,8.016 C129.4,6.688 128.552,6.048 127.592,6.048 C126.648,6.048 125.8,6.688 125.8,8.016 C125.8,9.328 126.648,10 127.592,10 C128.552,10 129.4,9.344 129.4,8.016 Z M135.784,12 L133.352,12 L133.352,0.416 L135.784,0.416 L135.784,12 Z M141.576,3.808 C143.96,3.808 145.8,5.552 145.8,8.016 C145.8,10.48 143.96,12.24 141.576,12.24 C139.208,12.24 137.352,10.48 137.352,8.016 C137.352,5.552 139.208,3.808 141.576,3.808 Z M141.576,10 C142.504,10 143.368,9.36 143.368,8.016 C143.368,6.672 142.504,6.048 141.576,6.048 C140.664,6.048 139.784,6.672 139.784,8.016 C139.784,9.344 140.664,10 141.576,10 Z M150.488,15.056 L147.928,15.056 L149.736,10.928 L146.392,4.048 L149.112,4.048 L151.048,8.304 L152.808,4.048 L155.384,4.048 L150.488,15.056 Z" id="wedeploy" fill-opacity="0.6"></path>
                <path d="M60.696,1.728 L60.696,4.048 L62.248,4.048 L62.248,6.176 L60.696,6.176 L60.696,9.152 C60.696,9.808 61.048,9.984 61.576,9.984 C61.832,9.984 62.072,9.936 62.216,9.904 L62.216,11.92 C62.12,11.968 61.72,12.144 60.952,12.144 C59.304,12.144 58.296,11.168 58.296,9.584 L58.296,6.176 L56.888,6.176 L56.888,4.048 L57.288,4.048 C58.12,4.048 58.52,3.488 58.52,2.752 L58.52,1.728 L60.696,1.728 Z M67.544,3.808 C69.928,3.808 71.768,5.552 71.768,8.016 C71.768,10.48 69.928,12.24 67.544,12.24 C65.176,12.24 63.32,10.48 63.32,8.016 C63.32,5.552 65.176,3.808 67.544,3.808 Z M67.544,10 C68.472,10 69.336,9.36 69.336,8.016 C69.336,6.672 68.472,6.048 67.544,6.048 C66.632,6.048 65.752,6.672 65.752,8.016 C65.752,9.344 66.632,10 67.544,10 Z" id="to" fill-opacity="0.6"></path>
                <path d="M2.76,9.616 L4.232,9.616 C5.976,9.616 7.4,8.608 7.4,6.336 C7.4,4.064 5.976,3.04 4.232,3.04 L2.76,3.04 L2.76,9.616 Z M4.328,12 L0.232,12 L0.232,0.656 L4.344,0.656 C7.752,0.656 10.04,2.832 10.04,6.336 C10.04,9.84 7.752,12 4.328,12 Z M13.528,7.072 L16.712,7.072 C16.68,6.464 16.264,5.728 15.112,5.728 C14.088,5.728 13.576,6.48 13.528,7.072 Z M16.888,9.136 L18.92,9.712 C18.536,11.088 17.272,12.24 15.256,12.24 C13.064,12.24 11.112,10.672 11.112,8 C11.112,5.44 13.016,3.808 15.08,3.808 C17.544,3.808 19.064,5.328 19.064,7.888 C19.064,8.224 19.032,8.592 19.016,8.64 L13.48,8.64 C13.528,9.536 14.344,10.176 15.288,10.176 C16.168,10.176 16.664,9.76 16.888,9.136 Z M23.064,15.04 L20.632,15.04 L20.632,4.048 L22.984,4.048 L22.984,4.864 C23.32,4.352 24.184,3.856 25.32,3.856 C27.624,3.856 29.016,5.616 29.016,8 C29.016,10.432 27.448,12.176 25.224,12.176 C24.2,12.176 23.432,11.824 23.064,11.376 L23.064,15.04 Z M26.632,8.016 C26.632,6.688 25.784,6.048 24.824,6.048 C23.88,6.048 23.032,6.688 23.032,8.016 C23.032,9.328 23.88,10 24.824,10 C25.784,10 26.632,9.344 26.632,8.016 Z M33.016,12 L30.584,12 L30.584,0.416 L33.016,0.416 L33.016,12 Z M38.808,3.808 C41.192,3.808 43.032,5.552 43.032,8.016 C43.032,10.48 41.192,12.24 38.808,12.24 C36.44,12.24 34.584,10.48 34.584,8.016 C34.584,5.552 36.44,3.808 38.808,3.808 Z M38.808,10 C39.736,10 40.6,9.36 40.6,8.016 C40.6,6.672 39.736,6.048 38.808,6.048 C37.896,6.048 37.016,6.672 37.016,8.016 C37.016,9.344 37.896,10 38.808,10 Z M47.72,15.056 L45.16,15.056 L46.968,10.928 L43.624,4.048 L46.344,4.048 L48.28,8.304 L50.04,4.048 L52.616,4.048 L47.72,15.056 Z" id="deploy"></path>
            </g>
            <path d="M12,18.499956 C12,17.6666198 12.666669,16.9999508 13.5000053,16.9999508 L25.5000475,16.9999508 C26.3333837,16.9999508 27.0000528,17.6666198 27.0000528,18.499956 L27.0000528,21.4999666 C27.0000528,22.3333029 26.3333837,22.9999719 25.5000475,22.9999719 C24.6667112,22.9999719 24.0000422,22.3333029 24.0000422,21.4999666 L24.0000422,19.9999613 L15.0000106,19.9999613 L15.0000106,21.4999666 C15.0000106,22.3333029 14.3333415,22.9999719 13.5000053,22.9999719 C12.666669,22.9999719 12,22.3333029 12,21.4999666 L12,18.499956 Z M24.5667109,25.4333138 C24.8333785,25.7166481 25.0000457,26.083316 25.0000457,26.4999842 C25.0000457,27.3333204 24.3333767,27.9999894 23.5000404,27.9999894 C23.0833723,27.9999894 22.7167044,27.8333222 22.43337,27.5666546 C21.8000345,26.9166523 21.3666996,26.4833174 21.0000317,26.1166495 L21.0000317,32.5000053 C21.0000317,33.3333415 20.3333626,34.0000106 19.5000264,34.0000106 C18.6666901,34.0000106 18.0000211,33.3333415 18.0000211,32.5000053 L18.0000211,26.1166495 C17.6333531,26.4833174 17.2000183,26.9166523 16.5666827,27.5666546 C16.2833484,27.8333222 15.9166804,27.9999894 15.5000123,27.9999894 C14.666676,27.9999894 14.000007,27.3333204 14.000007,26.4999842 C14.000007,26.083316 14.1666743,25.7166481 14.4333419,25.4333138 L18.433356,21.4332997 C18.7166903,21.1666321 19.0833582,20.9999648 19.5000264,20.9999648 C19.9166945,20.9999648 20.2833625,21.1666321 20.5666968,21.4332997 L24.5667109,25.4333138 Z" id="icon" fill="#FFFFFF"></path>
        </g>
    </g>
</svg>
