<?xml version="1.0" encoding="UTF-8"?>
<svg width="196px" height="36px" viewBox="0 0 196 36" version="1.1" xmlns="http://www.w3.org/2000/svg" xmlns:xlink="http://www.w3.org/1999/xlink">
    <!-- Generator: Sketch 48.2 (47327) - http://www.bohemiancoding.com/sketch -->
    <title>button-we-deploy-one-click</title>
    <desc>Created with Sketch.</desc>
    <defs>
        <linearGradient x1="50%" y1="100%" x2="50%" y2="0.795200893%" id="linearGradient-1">
            <stop stop-color="#00AE55" offset="0%"></stop>
            <stop stop-color="#00D46A" offset="100%"></stop>
        </linearGradient>
        <rect id="path-2" x="9" y="6" width="24" height="24" rx="12"></rect>
    </defs>
    <g id="Workflow" stroke="none" stroke-width="1" fill="none" fill-rule="evenodd">
        <g id="button-we-deploy-one-click">
            <g id="deploy" transform="translate(41.000000, 0.000000)">
                <path d="M0,0 L151,0 C153.209139,-4.05812251e-16 155,1.790861 155,4 L155,32 C155,34.209139 153.209139,36 151,36 L0,36 L0,0 Z" id="container-install-gradient" fill="url(#linearGradient-1)"></path>
                <path d="M0.5,0.5 L0.5,35.5 L151,35.5 C152.932997,35.5 154.5,33.9329966 154.5,32 L154.5,4 C154.5,2.06700338 152.932997,0.5 151,0.5 L0.5,0.5 Z" id="container-install-border" stroke-opacity="0.12" stroke="#0E141A"></path>
                <path d="M13.29,21.914 L14.578,21.914 C16.104,21.914 17.35,21.032 17.35,19.044 C17.35,17.056 16.104,16.16 14.578,16.16 L13.29,16.16 L13.29,21.914 Z M14.662,24 L11.078,24 L11.078,14.074 L14.676,14.074 C17.658,14.074 19.66,15.978 19.66,19.044 C19.66,22.11 17.658,24 14.662,24 Z M22.712,19.688 L25.498,19.688 C25.47,19.156 25.106,18.512 24.098,18.512 C23.202,18.512 22.754,19.17 22.712,19.688 Z M25.652,21.494 L27.43,21.998 C27.094,23.202 25.988,24.21 24.224,24.21 C22.306,24.21 20.598,22.838 20.598,20.5 C20.598,18.26 22.264,16.832 24.07,16.832 C26.226,16.832 27.556,18.162 27.556,20.402 C27.556,20.696 27.528,21.018 27.514,21.06 L22.67,21.06 C22.712,21.844 23.426,22.404 24.252,22.404 C25.022,22.404 25.456,22.04 25.652,21.494 Z M31.056,26.66 L28.928,26.66 L28.928,17.042 L30.986,17.042 L30.986,17.756 C31.28,17.308 32.036,16.874 33.03,16.874 C35.046,16.874 36.264,18.414 36.264,20.5 C36.264,22.628 34.892,24.154 32.946,24.154 C32.05,24.154 31.378,23.846 31.056,23.454 L31.056,26.66 Z M34.178,20.514 C34.178,19.352 33.436,18.792 32.596,18.792 C31.77,18.792 31.028,19.352 31.028,20.514 C31.028,21.662 31.77,22.25 32.596,22.25 C33.436,22.25 34.178,21.676 34.178,20.514 Z M39.764,24 L37.636,24 L37.636,13.864 L39.764,13.864 L39.764,24 Z M44.832,22.25 C45.644,22.25 46.4,21.69 46.4,20.514 C46.4,19.338 45.644,18.792 44.832,18.792 C44.034,18.792 43.264,19.338 43.264,20.514 C43.264,21.676 44.034,22.25 44.832,22.25 Z M44.832,16.832 C46.918,16.832 48.528,18.358 48.528,20.514 C48.528,22.67 46.918,24.21 44.832,24.21 C42.76,24.21 41.136,22.67 41.136,20.514 C41.136,18.358 42.76,16.832 44.832,16.832 Z M52.63,26.674 L50.39,26.674 L51.972,23.062 L49.046,17.042 L51.426,17.042 L53.12,20.766 L54.66,17.042 L56.914,17.042 L52.63,26.674 Z M63.984,15.012 L63.984,17.042 L65.342,17.042 L65.342,18.904 L63.984,18.904 L63.984,21.508 C63.984,22.082 64.292,22.236 64.754,22.236 C64.978,22.236 65.188,22.194 65.314,22.166 L65.314,23.93 C65.23,23.972 64.88,24.126 64.208,24.126 C62.766,24.126 61.884,23.272 61.884,21.886 L61.884,18.904 L60.652,18.904 L60.652,17.042 L61.002,17.042 C61.73,17.042 62.08,16.552 62.08,15.908 L62.08,15.012 L63.984,15.012 Z M69.976,22.25 C70.788,22.25 71.544,21.69 71.544,20.514 C71.544,19.338 70.788,18.792 69.976,18.792 C69.178,18.792 68.408,19.338 68.408,20.514 C68.408,21.676 69.178,22.25 69.976,22.25 Z M69.976,16.832 C72.062,16.832 73.672,18.358 73.672,20.514 C73.672,22.67 72.062,24.21 69.976,24.21 C67.904,24.21 66.28,22.67 66.28,20.514 C66.28,18.358 67.904,16.832 69.976,16.832 Z M88.078,20.444 L89.688,14.074 L91.956,14.074 L89.254,24 L86.972,24 L84.858,17.42 L82.73,24 L80.406,24 L77.704,14.074 L80.056,14.074 L81.694,20.43 L83.752,14.074 L86.02,14.074 L88.078,20.444 Z M94.644,19.688 L97.43,19.688 C97.402,19.156 97.038,18.512 96.03,18.512 C95.134,18.512 94.686,19.17 94.644,19.688 Z M97.584,21.494 L99.362,21.998 C99.026,23.202 97.92,24.21 96.156,24.21 C94.238,24.21 92.53,22.838 92.53,20.5 C92.53,18.26 94.196,16.832 96.002,16.832 C98.158,16.832 99.488,18.162 99.488,20.402 C99.488,20.696 99.46,21.018 99.446,21.06 L94.602,21.06 C94.644,21.844 95.358,22.404 96.184,22.404 C96.954,22.404 97.388,22.04 97.584,21.494 Z M107.706,13.864 L107.706,22.754 C107.706,23.384 107.748,23.846 107.762,24 L105.718,24 C105.704,23.916 105.662,23.608 105.662,23.328 C105.34,23.804 104.64,24.154 103.8,24.154 C101.84,24.154 100.356,22.642 100.356,20.5 C100.356,18.428 101.756,16.874 103.73,16.874 C104.92,16.874 105.438,17.322 105.606,17.588 L105.606,13.864 L107.706,13.864 Z M102.498,20.514 C102.498,21.662 103.24,22.25 104.066,22.25 C104.892,22.25 105.634,21.662 105.634,20.514 C105.634,19.352 104.892,18.792 104.066,18.792 C103.24,18.792 102.498,19.352 102.498,20.514 Z M111.234,19.688 L114.02,19.688 C113.992,19.156 113.628,18.512 112.62,18.512 C111.724,18.512 111.276,19.17 111.234,19.688 Z M114.174,21.494 L115.952,21.998 C115.616,23.202 114.51,24.21 112.746,24.21 C110.828,24.21 109.12,22.838 109.12,20.5 C109.12,18.26 110.786,16.832 112.592,16.832 C114.748,16.832 116.078,18.162 116.078,20.402 C116.078,20.696 116.05,21.018 116.036,21.06 L111.192,21.06 C111.234,21.844 111.948,22.404 112.774,22.404 C113.544,22.404 113.978,22.04 114.174,21.494 Z M119.578,26.66 L117.45,26.66 L117.45,17.042 L119.508,17.042 L119.508,17.756 C119.802,17.308 120.558,16.874 121.552,16.874 C123.568,16.874 124.786,18.414 124.786,20.5 C124.786,22.628 123.414,24.154 121.468,24.154 C120.572,24.154 119.9,23.846 119.578,23.454 L119.578,26.66 Z M122.7,20.514 C122.7,19.352 121.958,18.792 121.118,18.792 C120.292,18.792 119.55,19.352 119.55,20.514 C119.55,21.662 120.292,22.25 121.118,22.25 C121.958,22.25 122.7,21.676 122.7,20.514 Z M128.286,24 L126.158,24 L126.158,13.864 L128.286,13.864 L128.286,24 Z M133.354,22.25 C134.166,22.25 134.922,21.69 134.922,20.514 C134.922,19.338 134.166,18.792 133.354,18.792 C132.556,18.792 131.786,19.338 131.786,20.514 C131.786,21.676 132.556,22.25 133.354,22.25 Z M133.354,16.832 C135.44,16.832 137.05,18.358 137.05,20.514 C137.05,22.67 135.44,24.21 133.354,24.21 C131.282,24.21 129.658,22.67 129.658,20.514 C129.658,18.358 131.282,16.832 133.354,16.832 Z M141.152,26.674 L138.912,26.674 L140.494,23.062 L137.568,17.042 L139.948,17.042 L141.642,20.766 L143.182,17.042 L145.436,17.042 L141.152,26.674 Z" id="Deploy-to-Wedeploy" fill-opacity="0.2" fill="#0E141A"></path>
                <path d="M13.29,20.914 L14.578,20.914 C16.104,20.914 17.35,20.032 17.35,18.044 C17.35,16.056 16.104,15.16 14.578,15.16 L13.29,15.16 L13.29,20.914 Z M14.662,23 L11.078,23 L11.078,13.074 L14.676,13.074 C17.658,13.074 19.66,14.978 19.66,18.044 C19.66,21.11 17.658,23 14.662,23 Z M22.712,18.688 L25.498,18.688 C25.47,18.156 25.106,17.512 24.098,17.512 C23.202,17.512 22.754,18.17 22.712,18.688 Z M25.652,20.494 L27.43,20.998 C27.094,22.202 25.988,23.21 24.224,23.21 C22.306,23.21 20.598,21.838 20.598,19.5 C20.598,17.26 22.264,15.832 24.07,15.832 C26.226,15.832 27.556,17.162 27.556,19.402 C27.556,19.696 27.528,20.018 27.514,20.06 L22.67,20.06 C22.712,20.844 23.426,21.404 24.252,21.404 C25.022,21.404 25.456,21.04 25.652,20.494 Z M31.056,25.66 L28.928,25.66 L28.928,16.042 L30.986,16.042 L30.986,16.756 C31.28,16.308 32.036,15.874 33.03,15.874 C35.046,15.874 36.264,17.414 36.264,19.5 C36.264,21.628 34.892,23.154 32.946,23.154 C32.05,23.154 31.378,22.846 31.056,22.454 L31.056,25.66 Z M34.178,19.514 C34.178,18.352 33.436,17.792 32.596,17.792 C31.77,17.792 31.028,18.352 31.028,19.514 C31.028,20.662 31.77,21.25 32.596,21.25 C33.436,21.25 34.178,20.676 34.178,19.514 Z M39.764,23 L37.636,23 L37.636,12.864 L39.764,12.864 L39.764,23 Z M44.832,21.25 C45.644,21.25 46.4,20.69 46.4,19.514 C46.4,18.338 45.644,17.792 44.832,17.792 C44.034,17.792 43.264,18.338 43.264,19.514 C43.264,20.676 44.034,21.25 44.832,21.25 Z M44.832,15.832 C46.918,15.832 48.528,17.358 48.528,19.514 C48.528,21.67 46.918,23.21 44.832,23.21 C42.76,23.21 41.136,21.67 41.136,19.514 C41.136,17.358 42.76,15.832 44.832,15.832 Z M52.63,25.674 L50.39,25.674 L51.972,22.062 L49.046,16.042 L51.426,16.042 L53.12,19.766 L54.66,16.042 L56.914,16.042 L52.63,25.674 Z M63.984,14.012 L63.984,16.042 L65.342,16.042 L65.342,17.904 L63.984,17.904 L63.984,20.508 C63.984,21.082 64.292,21.236 64.754,21.236 C64.978,21.236 65.188,21.194 65.314,21.166 L65.314,22.93 C65.23,22.972 64.88,23.126 64.208,23.126 C62.766,23.126 61.884,22.272 61.884,20.886 L61.884,17.904 L60.652,17.904 L60.652,16.042 L61.002,16.042 C61.73,16.042 62.08,15.552 62.08,14.908 L62.08,14.012 L63.984,14.012 Z M69.976,21.25 C70.788,21.25 71.544,20.69 71.544,19.514 C71.544,18.338 70.788,17.792 69.976,17.792 C69.178,17.792 68.408,18.338 68.408,19.514 C68.408,20.676 69.178,21.25 69.976,21.25 Z M69.976,15.832 C72.062,15.832 73.672,17.358 73.672,19.514 C73.672,21.67 72.062,23.21 69.976,23.21 C67.904,23.21 66.28,21.67 66.28,19.514 C66.28,17.358 67.904,15.832 69.976,15.832 Z M88.078,19.444 L89.688,13.074 L91.956,13.074 L89.254,23 L86.972,23 L84.858,16.42 L82.73,23 L80.406,23 L77.704,13.074 L80.056,13.074 L81.694,19.43 L83.752,13.074 L86.02,13.074 L88.078,19.444 Z M94.644,18.688 L97.43,18.688 C97.402,18.156 97.038,17.512 96.03,17.512 C95.134,17.512 94.686,18.17 94.644,18.688 Z M97.584,20.494 L99.362,20.998 C99.026,22.202 97.92,23.21 96.156,23.21 C94.238,23.21 92.53,21.838 92.53,19.5 C92.53,17.26 94.196,15.832 96.002,15.832 C98.158,15.832 99.488,17.162 99.488,19.402 C99.488,19.696 99.46,20.018 99.446,20.06 L94.602,20.06 C94.644,20.844 95.358,21.404 96.184,21.404 C96.954,21.404 97.388,21.04 97.584,20.494 Z M107.706,12.864 L107.706,21.754 C107.706,22.384 107.748,22.846 107.762,23 L105.718,23 C105.704,22.916 105.662,22.608 105.662,22.328 C105.34,22.804 104.64,23.154 103.8,23.154 C101.84,23.154 100.356,21.642 100.356,19.5 C100.356,17.428 101.756,15.874 103.73,15.874 C104.92,15.874 105.438,16.322 105.606,16.588 L105.606,12.864 L107.706,12.864 Z M102.498,19.514 C102.498,20.662 103.24,21.25 104.066,21.25 C104.892,21.25 105.634,20.662 105.634,19.514 C105.634,18.352 104.892,17.792 104.066,17.792 C103.24,17.792 102.498,18.352 102.498,19.514 Z M111.234,18.688 L114.02,18.688 C113.992,18.156 113.628,17.512 112.62,17.512 C111.724,17.512 111.276,18.17 111.234,18.688 Z M114.174,20.494 L115.952,20.998 C115.616,22.202 114.51,23.21 112.746,23.21 C110.828,23.21 109.12,21.838 109.12,19.5 C109.12,17.26 110.786,15.832 112.592,15.832 C114.748,15.832 116.078,17.162 116.078,19.402 C116.078,19.696 116.05,20.018 116.036,20.06 L111.192,20.06 C111.234,20.844 111.948,21.404 112.774,21.404 C113.544,21.404 113.978,21.04 114.174,20.494 Z M119.578,25.66 L117.45,25.66 L117.45,16.042 L119.508,16.042 L119.508,16.756 C119.802,16.308 120.558,15.874 121.552,15.874 C123.568,15.874 124.786,17.414 124.786,19.5 C124.786,21.628 123.414,23.154 121.468,23.154 C120.572,23.154 119.9,22.846 119.578,22.454 L119.578,25.66 Z M122.7,19.514 C122.7,18.352 121.958,17.792 121.118,17.792 C120.292,17.792 119.55,18.352 119.55,19.514 C119.55,20.662 120.292,21.25 121.118,21.25 C121.958,21.25 122.7,20.676 122.7,19.514 Z M128.286,23 L126.158,23 L126.158,12.864 L128.286,12.864 L128.286,23 Z M133.354,21.25 C134.166,21.25 134.922,20.69 134.922,19.514 C134.922,18.338 134.166,17.792 133.354,17.792 C132.556,17.792 131.786,18.338 131.786,19.514 C131.786,20.676 132.556,21.25 133.354,21.25 Z M133.354,15.832 C135.44,15.832 137.05,17.358 137.05,19.514 C137.05,21.67 135.44,23.21 133.354,23.21 C131.282,23.21 129.658,21.67 129.658,19.514 C129.658,17.358 131.282,15.832 133.354,15.832 Z M141.152,25.674 L138.912,25.674 L140.494,22.062 L137.568,16.042 L139.948,16.042 L141.642,19.766 L143.182,16.042 L145.436,16.042 L141.152,25.674 Z" id="Deploy-to-Wedeploy" fill="#FFFFFF"></path>
            </g>
            <g id="we">
                <path d="M4,0 L42,0 L42,36 L4,36 C1.790861,36 2.705415e-16,34.209139 0,32 L0,4 C-2.705415e-16,1.790861 1.790861,4.05812251e-16 4,0 Z" id="container-black" fill="#0E141A"></path>
                <g id="container-we-gradient">
                    <use fill="url(#linearGradient-1)" fill-rule="evenodd" xlink:href="#path-2"></use>
                    <rect stroke-opacity="0.12" stroke="#0E141A" stroke-width="1" x="9.5" y="6.5" width="23" height="23" rx="11.5"></rect>
                </g>
                <path d="M20.272,19.206 L21.537,15.201 L23.319,15.201 L21.196,23 L19.403,23 L17.742,17.83 L16.07,23 L14.244,23 L12.121,15.201 L13.969,15.201 L15.256,20.195 L16.873,15.201 L18.655,15.201 L20.272,19.206 Z M25.431,19.612 L27.62,19.612 C27.598,19.194 27.312,18.688 26.52,18.688 C25.816,18.688 25.464,19.205 25.431,19.612 Z M27.741,21.031 L29.138,21.427 C28.874,22.373 28.005,23.165 26.619,23.165 C25.112,23.165 23.77,22.087 23.77,20.25 C23.77,18.49 25.079,17.368 26.498,17.368 C28.192,17.368 29.237,18.413 29.237,20.173 C29.237,20.404 29.215,20.657 29.204,20.69 L25.398,20.69 C25.431,21.306 25.992,21.746 26.641,21.746 C27.246,21.746 27.587,21.46 27.741,21.031 Z" fill-opacity="0.2" fill="#0E141A"></path>
                <path d="M20.272,19.206 L21.537,14.201 L23.319,14.201 L21.196,22 L19.403,22 L17.742,16.83 L16.07,22 L14.244,22 L12.121,14.201 L13.969,14.201 L15.256,19.195 L16.873,14.201 L18.655,14.201 L20.272,19.206 Z M25.431,18.612 L27.62,18.612 C27.598,18.194 27.312,17.688 26.52,17.688 C25.816,17.688 25.464,18.205 25.431,18.612 Z M27.741,20.031 L29.138,20.427 C28.874,21.373 28.005,22.165 26.619,22.165 C25.112,22.165 23.77,21.087 23.77,19.25 C23.77,17.49 25.079,16.368 26.498,16.368 C28.192,16.368 29.237,17.413 29.237,19.173 C29.237,19.404 29.215,19.657 29.204,19.69 L25.398,19.69 C25.431,20.306 25.992,20.746 26.641,20.746 C27.246,20.746 27.587,20.46 27.741,20.031 Z" fill="#FFFFFF"></path>
            </g>
        </g>
    </g>
</svg>