<svg id="logo.svg" xmlns="http://www.w3.org/2000/svg" width="418.656" height="96" viewBox="0 0 418.656 96">
  <defs>
    <style>
      .cls-1 {
        fill: #b6b8ba;
      }

      .cls-1, .cls-2, .cls-3, .cls-4 {
        fill-rule: evenodd;
      }

      .cls-2 {
        fill: #0e141a;
        opacity: 0.9;
      }

      .cls-3 {
        fill: #00d46a;
      }

      .cls-4 {
        fill: #fff;
      }
    </style>
  </defs>
  <path id="by_Liferay" data-name="by Liferay" class="cls-1" d="M590.713,101.007a5.7,5.7,0,0,0-4.321,1.7V95.967h-2.5v17.281h2.5V111.88a5.708,5.708,0,0,0,4.321,1.7,5.643,5.643,0,0,0,4.164-1.764,6.718,6.718,0,0,0-.012-9.036A5.634,5.634,0,0,0,590.713,101.007ZM590.3,111.376a3.814,3.814,0,0,1-2.737-1.14,4.263,4.263,0,0,1,0-5.88,3.814,3.814,0,0,1,2.737-1.14,3.753,3.753,0,0,1,2.784,1.116,4.531,4.531,0,0,1,0,5.928A3.753,3.753,0,0,1,590.3,111.376Zm19.92-10.057h-2.784l-3.816,8.593-3.721-8.593H597.12l5.136,11.641-1.944,4.369H603.1Zm19.488,9.6h-8.785V97.167H618.36v16.081h11.353V110.92Zm3.628-14.713a1.561,1.561,0,0,0-1.152.456,1.5,1.5,0,0,0-.456,1.1,1.454,1.454,0,0,0,.456,1.1,1.608,1.608,0,0,0,1.152.432,1.567,1.567,0,0,0,1.14-.432,1.474,1.474,0,0,0,.444-1.1,1.5,1.5,0,0,0-.456-1.1A1.532,1.532,0,0,0,633.341,96.207Zm1.248,17.041v-11.9h-2.5v11.905h2.5Zm10.421-9.84v-2.065h-3.96V99.927a1.927,1.927,0,0,1,2.064-2.088,3.516,3.516,0,0,1,1.272.24l0.6-2.04a5.023,5.023,0,0,0-2.04-.432,4.389,4.389,0,0,0-3.192,1.164,4.194,4.194,0,0,0-1.2,3.156v1.416H636.61v2.065h1.944v9.84h2.5v-9.84h3.96Zm12.733,3.624a6.159,6.159,0,0,0-1.812-4.333,5.686,5.686,0,0,0-4.141-1.692,6,6,0,0,0-4.38,1.764,6.115,6.115,0,0,0-1.788,4.549,6.041,6.041,0,0,0,1.788,4.512,5.9,5.9,0,0,0,4.284,1.752,6.441,6.441,0,0,0,3.516-.948,5.583,5.583,0,0,0,2.221-2.8l-2.233-.48a3.608,3.608,0,0,1-3.5,2.064,3.415,3.415,0,0,1-2.4-.96,3.927,3.927,0,0,1-1.2-2.568h9.649v-0.864Zm-5.953-3.816a3.346,3.346,0,0,1,2.184.744,3.6,3.6,0,0,1,1.2,2.16h-7.008a3.31,3.31,0,0,1,1.32-2.136A3.834,3.834,0,0,1,651.79,103.216Zm15.485-2.017a5.061,5.061,0,0,0-4.536,2.689v-2.545h-2.5v11.905h2.5v-4.2a6.123,6.123,0,0,1,1.152-3.948,4.063,4.063,0,0,1,3.36-1.428,6.638,6.638,0,0,1,.7.024l0.168-2.4A2.953,2.953,0,0,0,667.275,101.2Zm14.4,0.144h-2.5v1.369a5.7,5.7,0,0,0-4.32-1.7,5.634,5.634,0,0,0-4.152,1.777,6.718,6.718,0,0,0-.012,9.036,5.643,5.643,0,0,0,4.164,1.764,5.706,5.706,0,0,0,4.32-1.7v1.368h2.5v-11.9Zm-6.409,10.033a3.753,3.753,0,0,1-2.784-1.116,4.531,4.531,0,0,1,0-5.928,3.753,3.753,0,0,1,2.784-1.116,3.81,3.81,0,0,1,2.736,1.14,4.263,4.263,0,0,1,0,5.88A3.81,3.81,0,0,1,675.262,111.376Zm21.4-10.057h-2.784l-3.817,8.593-3.72-8.593h-2.784L688.7,112.96l-1.944,4.369h2.784Z" transform="translate(-278 -48)"/>
  <path id="Deploy_" data-name="Deploy™" class="cls-2" d="M382.245,80.017V112.18h12.721q7.922,0,12.769-4.441A15.04,15.04,0,0,0,412.584,96.1a15.04,15.04,0,0,0-4.849-11.641q-4.848-4.44-12.769-4.441H382.245Zm7.921,25.3V86.882h4.512A10.19,10.19,0,0,1,401.9,89.4a9.624,9.624,0,0,1,0,13.393,10.19,10.19,0,0,1-7.225,2.52h-4.512Zm50.175-5.184a12.748,12.748,0,0,0-3.648-9.265,12.018,12.018,0,0,0-8.785-3.5,12.51,12.51,0,0,0-9.073,3.6,13.252,13.252,0,0,0,0,18.362,12.494,12.494,0,0,0,9.025,3.576,13.743,13.743,0,0,0,7.321-1.9,11.492,11.492,0,0,0,4.632-5.641L433,103.971a5.4,5.4,0,0,1-5.137,2.784,4.8,4.8,0,0,1-3.312-1.248,6.25,6.25,0,0,1-1.872-3.408h17.665v-1.968ZM427.908,93.6a4.943,4.943,0,0,1,3.024.96,5.116,5.116,0,0,1,1.825,2.832H422.82a5.038,5.038,0,0,1,1.968-2.784A5.331,5.331,0,0,1,427.908,93.6Zm31.119-6.241A10.756,10.756,0,0,0,451.538,90V88.081h-7.681V120.34h7.681V110.259a10.753,10.753,0,0,0,7.489,2.641,11.113,11.113,0,0,0,8.328-3.576,13.994,13.994,0,0,0,0-18.362A11.08,11.08,0,0,0,459.027,87.361Zm-1.584,19.01a5.675,5.675,0,0,1-4.153-1.752,6.595,6.595,0,0,1,0-8.953,5.64,5.64,0,0,1,4.153-1.776,5.453,5.453,0,0,1,4.176,1.752,7.021,7.021,0,0,1,0,9A5.491,5.491,0,0,1,457.443,106.371Zm24.618,5.809V77.617H474.38V112.18h7.681Zm16.785-24.723a13.49,13.49,0,0,0-9.48,3.552,12.752,12.752,0,0,0,0,18.29,13.5,13.5,0,0,0,9.48,3.552,13.286,13.286,0,0,0,9.361-3.552,12.807,12.807,0,0,0,0-18.29A13.281,13.281,0,0,0,498.846,87.458Zm0,18.914a5.729,5.729,0,0,1-4.2-1.752,6.592,6.592,0,0,1,.024-8.977,5.753,5.753,0,0,1,4.176-1.752,5.568,5.568,0,0,1,4.057,1.752,6.659,6.659,0,0,1,.024,8.977A5.545,5.545,0,0,1,498.846,106.371Zm41.2-18.337h-8.257l-6.1,14.065-5.713-14.065h-8.256l9.984,23.33-3.888,8.976h8.3Zm12.7-4.465V80.017H540.4v3.552h4.032v9.745h4.225V83.569h4.08Zm16.85,9.745v-13.3h-4.465l-3.216,7.2-3.216-7.2H554.18v13.3h3.985V86.929l2.688,6.337h2.112l2.688-6.337v6.385h3.937Z" transform="translate(-278 -48)"/>
  <path id="circle" class="cls-3" d="M326,144.012h0A48.012,48.012,0,0,1,277.988,96h0A48.012,48.012,0,0,1,326,47.988h0A48.012,48.012,0,0,1,374.012,96h0A48.011,48.011,0,0,1,326,144.012Z" transform="translate(-278 -48)"/>
  <path id="We" class="cls-4" d="M337.262,80.006h-6.869L324.244,102.2,317.76,80.006h-6.293L304.982,102.2l-6.148-22.193h-6.821l9.367,32.184h6.965l6.292-21.712,6.245,21.712H327.9Zm22.726,19.743a12.417,12.417,0,0,0-3.723-8.815,11.666,11.666,0,0,0-8.43-3.434,11.975,11.975,0,0,0-8.814,3.579A13.49,13.49,0,0,0,339,109.356a11.886,11.886,0,0,0,8.742,3.555,13.137,13.137,0,0,0,7.061-1.874,11.533,11.533,0,0,0,4.564-5.524l-5.668-1.2a6.408,6.408,0,0,1-5.957,3.171,5.554,5.554,0,0,1-3.867-1.513,7.1,7.1,0,0,1-2.137-4.059h18.253V99.749Zm-12.153-6.725a5.935,5.935,0,0,1,3.555,1.1,5.663,5.663,0,0,1,2.113,3.315H341.927a5.357,5.357,0,0,1,2.234-3.266A6.429,6.429,0,0,1,347.835,93.025Z" transform="translate(-278 -48)"/>
</svg>
