<?xml version="1.0" encoding="utf-8"?>
<!-- Generator: Adobe Illustrator 20.0.0, SVG Export Plug-In . SVG Version: 6.00 Build 0)  -->
<svg version="1.1" id="logo" xmlns="http://www.w3.org/2000/svg" xmlns:xlink="http://www.w3.org/1999/xlink" x="0px" y="0px"
	 viewBox="0 0 400.1 168" style="enable-background:new 0 0 400.1 168;" xml:space="preserve">
<style type="text/css">
	.st0{fill:#F0F0F0;}
	.st1{enable-background:new    ;}
	.st2{fill:#979A9C;}
	.st3{fill:#B6B8BA;}
	.st4{fill:#0E141A;}
	.st5{fill:#00D46A;}
	.st6{fill:#FFFFFF;}
</style>
<g>
	<g id="tag_alpha">
		<path id="container" class="st0" d="M11,120h75c4.4,0,8,3.6,8,8v32c0,4.4-3.6,8-8,8H11c-4.4,0-8-3.6-8-8v-32
			C3,123.6,6.6,120,11,120z M37.2,120l11.3-11.3L59.8,120l-11.3,11.3L37.2,120z"/>
		<g id="alpha" class="st1">
			<path class="st2" d="M30.3,150.8h-2.9V150c-0.9,0.7-2.1,1.2-3.6,1.2c-2.8,0-5.4-2.4-5.4-5.8c0-3.5,2.6-5.8,5.4-5.8
				c1.5,0,2.7,0.4,3.6,1.2v-0.9h2.9V150.8z M27.4,145.4c0-2-1.6-3.3-3.1-3.3c-1.8,0-3.1,1.3-3.1,3.3s1.3,3.3,3.1,3.3
				C25.8,148.6,27.4,147.4,27.4,145.4z"/>
			<path class="st2" d="M33.4,150.8V135h2.9v15.8H33.4z"/>
			<path class="st2" d="M51.3,145.4c0,3.5-2.6,5.8-5.4,5.8c-1.5,0-2.7-0.4-3.6-1.2v4.6h-2.9v-14.7h2.9v0.9c0.9-0.8,2.1-1.2,3.6-1.2
				C48.7,139.5,51.3,141.9,51.3,145.4z M48.5,145.4c0-2-1.3-3.3-3.1-3.3c-1.6,0-3.1,1.3-3.1,3.3s1.6,3.3,3.1,3.3
				C47.1,148.6,48.5,147.4,48.5,145.4z"/>
			<path class="st2" d="M64.2,144.2v6.7h-2.9v-6.1c0-1.5-0.9-2.6-2.2-2.6c-1.6,0-2.7,1.1-2.7,3.8v4.9h-2.9V135h2.9v5.9
				c0.9-0.9,2-1.3,3.5-1.3C62.5,139.5,64.2,141.4,64.2,144.2z"/>
			<path class="st2" d="M78.1,150.8h-2.9V150c-0.9,0.7-2.1,1.2-3.6,1.2c-2.8,0-5.4-2.4-5.4-5.8c0-3.5,2.6-5.8,5.4-5.8
				c1.5,0,2.7,0.4,3.6,1.2v-0.9h2.9V150.8z M75.2,145.4c0-2-1.6-3.3-3.1-3.3c-1.8,0-3.1,1.3-3.1,3.3s1.3,3.3,3.1,3.3
				C73.6,148.6,75.2,147.4,75.2,145.4z"/>
		</g>
	</g>
	<g id="by_Liferay" class="st1">
		<path class="st3" d="M305.3,57.7c0,3.5-2.6,5.8-5.4,5.8c-1.5,0-2.7-0.4-3.6-1.2v0.9h-2.9V47.3h2.9v5.7c0.9-0.8,2.1-1.2,3.6-1.2
			C302.7,51.9,305.3,54.2,305.3,57.7z M302.5,57.7c0-2-1.3-3.3-3.1-3.3c-1.6,0-3.1,1.3-3.1,3.3s1.6,3.3,3.1,3.3
			C301.1,61,302.5,59.7,302.5,57.7z"/>
		<path class="st3" d="M311.9,66.9h-3.2l1.8-4.1l-4.6-10.7h3.2l2.9,7l3-7h3.2L311.9,66.9z"/>
		<path class="st3" d="M335.9,63.2h-10.6V48.4h3v12h7.6V63.2z"/>
		<path class="st3" d="M341.7,48.9c0,1-0.7,1.7-1.8,1.7c-1,0-1.8-0.7-1.8-1.7c0-0.9,0.7-1.7,1.8-1.7C341,47.2,341.7,48,341.7,48.9z
			 M338.5,63.2v-11h2.9v11H338.5z"/>
		<path class="st3" d="M351.5,52.2v2.4h-3.3v8.6h-2.9v-8.6h-1.7v-2.4h1.7v-1c0-2.6,1.8-4.2,4.3-4.2c0.7,0,1.3,0.1,2,0.4l-0.7,2.4
			c-0.4-0.1-0.8-0.2-1.1-0.2c-0.9,0-1.6,0.5-1.6,1.6v1H351.5z"/>
		<path class="st3" d="M363.1,58.5h-8.4c0.3,1.6,1.4,2.6,2.8,2.6c0.9,0,1.9-0.1,2.7-1.5l2.6,0.5c-1,2.3-2.9,3.4-5.3,3.4
			c-3.1,0-5.6-2.4-5.6-5.8c0-3.5,2.5-5.8,5.7-5.8c2.9,0,5.5,2.3,5.6,5.6V58.5z M354.9,56.4h5.3c-0.4-1.4-1.4-2-2.6-2
			C356.5,54.4,355.2,55,354.9,56.4z"/>
		<path class="st3" d="M373,52.1l-0.2,2.8h-0.6c-2.7,0-3.9,1.7-3.9,4.7v3.5h-2.9v-11h2.9v2c0.9-1.3,2.2-2.2,3.9-2.2
			C372.5,52,372.7,52,373,52.1z"/>
		<path class="st3" d="M385.7,63.2h-2.9v-0.9c-0.9,0.7-2.1,1.2-3.6,1.2c-2.8,0-5.4-2.4-5.4-5.8c0-3.5,2.6-5.8,5.4-5.8
			c1.5,0,2.7,0.4,3.6,1.2v-0.9h2.9V63.2z M382.8,57.7c0-2-1.6-3.3-3.1-3.3c-1.8,0-3.1,1.3-3.1,3.3s1.3,3.3,3.1,3.3
			C381.2,61,382.8,59.7,382.8,57.7z"/>
		<path class="st3" d="M393.5,66.9h-3.2l1.8-4.1l-4.6-10.7h3.2l2.9,7l3-7h3.2L393.5,66.9z"/>
	</g>
	<g id="Deploy_" class="st1">
		<path class="st4" d="M117.7,33.6c9.7,0,16.2,6,16.2,14.7c0,8.8-6.4,14.7-16.2,14.7h-11.7V33.6H117.7z M117.5,56.8
			c5.5,0,9.1-3.3,9.1-8.4s-3.6-8.4-9.1-8.4h-4.1v16.9H117.5z"/>
		<path class="st4" d="M159.6,53.9h-16.2c0.6,2.6,2.4,4.3,4.8,4.3c1.6,0,3.5-0.4,4.7-2.6l6.2,1.3c-1.9,4.7-5.9,6.9-11,6.9
			c-6.4,0-11.7-4.7-11.7-11.7c0-7,5.3-11.7,11.7-11.7c6.2,0,11.3,4.5,11.4,11.7V53.9z M143.6,49.6h9.1c-0.7-2.4-2.4-3.5-4.4-3.5
			C146.3,46.1,144.2,47.3,143.6,49.6z"/>
		<path class="st4" d="M188,52.1c0,7-4.9,11.7-10.8,11.7c-2.9,0-5.1-0.9-6.9-2.4v9.2h-7V41h7v1.8c1.7-1.5,4-2.4,6.9-2.4
			C183,40.4,188,45.1,188,52.1z M181.1,52.1c0-3.4-2.2-5.7-5.3-5.7c-2.9,0-5.4,2.3-5.4,5.7c0,3.4,2.6,5.7,5.4,5.7
			C178.8,57.8,181.1,55.5,181.1,52.1z"/>
		<path class="st4" d="M191.6,63.1V31.4h7v31.7H191.6z"/>
		<path class="st4" d="M226.7,52.1c0,7-5.5,11.7-12.1,11.7c-6.7,0-12.2-4.7-12.2-11.7c0-7,5.5-11.6,12.2-11.6
			C221.1,40.5,226.7,45.1,226.7,52.1z M219.9,52.1c0-3.4-2.6-5.7-5.3-5.7c-2.9,0-5.5,2.3-5.5,5.7c0,3.5,2.6,5.7,5.5,5.7
			C217.3,57.8,219.9,55.6,219.9,52.1z"/>
		<path class="st4" d="M240.5,70.6h-7.6l3.6-8.2L227.3,41h7.6l5.2,12.9l5.6-12.9h7.6L240.5,70.6z"/>
		<path class="st4" d="M263.5,36.9v8.9h-3.9v-8.9H256v-3.3h11.3v3.3H263.5z M279.1,45.8V40l-2.5,5.8h-1.9l-2.5-5.8v5.9h-3.7V33.6
			h4.1l2.9,6.6l2.9-6.6h4.1v12.2H279.1z"/>
	</g>
	<path id="circle" class="st5" d="M48.5,96L48.5,96C21.7,96,0,74.3,0,47.5l0,0C-0.1,21.3,21.2,0,47.4,0h0.1l0,0
		C73.9,0.1,95.4,21.1,96,47.5l0,0C96.6,73.7,75.8,95.4,49.7,96C49.3,96,48.9,96,48.5,96z"/>
	<g id="We" class="st1">
		<path class="st6" d="M50.5,63.1h-7.8l-4.9-18.2l-5,18.2H25l-8.4-29.5h7.4l5.1,18.6l5.1-18.6h6.9l5.1,18.6l5.1-18.6h7.5L50.5,63.1z
			"/>
		<path class="st6" d="M81.4,53.9H65.2c0.6,2.6,2.4,4.3,4.8,4.3c1.6,0,3.5-0.4,4.7-2.6l6.2,1.3c-1.9,4.7-5.9,6.9-11,6.9
			c-6.4,0-11.7-4.7-11.7-11.7c0-7,5.3-11.7,11.7-11.7c6.2,0,11.3,4.5,11.4,11.7V53.9z M65.3,49.6h9.1c-0.7-2.4-2.4-3.5-4.4-3.5
			C68,46.1,66,47.3,65.3,49.6z"/>
	</g>
</g>
</svg>
