<svg xmlns="http://www.w3.org/2000/svg" width="50" height="60" viewBox="0 0 50 60">
  <defs>
    <style>
      .cls-1 {
        fill: #00d46a;
        fill-rule: evenodd;
      }
    </style>
  </defs>
  <path id="icon_data" class="cls-1" d="M1095.82,4064.13a7.457,7.457,0,0,0-5.32-2.19h-20a7.522,7.522,0,0,0-7.5,7.5v45a7.529,7.529,0,0,0,7.5,7.5h35a7.522,7.522,0,0,0,7.5-7.5v-30a7.466,7.466,0,0,0-2.18-5.31Zm-5.32,22.81a2.514,2.514,0,0,1-2.5-2.5v-10a2.507,2.507,0,0,1,2.5-2.5,2.255,2.255,0,0,1,1.75.75c3.57,3.5,6.5,6.44,10,10a2.27,2.27,0,0,1,.75,1.75,2.507,2.507,0,0,1-2.5,2.5h-10Z" transform="translate(-1063 -4061.94)"/>
</svg>
