<?xml version="1.0" encoding="utf-8"?>
<!-- Generator: Adobe Illustrator 19.2.1, SVG Export Plug-In . SVG Version: 6.00 Build 0)  -->
<svg version="1.1" xmlns="http://www.w3.org/2000/svg" xmlns:xlink="http://www.w3.org/1999/xlink" x="0px" y="0px"
	 viewBox="0 0 1040 960" enable-background="new 0 0 1040 960" xml:space="preserve">
	<g id="people">
		<path fill="#0e141a" fill-rule="evenodd" clip-rule="evenodd" d="M240,880H0V600c0-66.3,53.7-120,120-120h0c66.3,0,120,53.7,120,120V880z
			 M1040,600c0-66.3-53.7-120-120-120h0c-66.3,0-120,53.7-120,120v280h240V600z M720,520c0-66.3-53.7-120-120-120H440
			c-66.3,0-120,53.7-120,120v360h400V520z M120,400c66.3,0,120-53.7,120-120s-53.7-120-120-120S0,213.7,0,280S53.7,400,120,400z
			 M920,400c66.3,0,120-53.7,120-120s-53.7-120-120-120s-120,53.7-120,120S853.7,400,920,400z M520-80C409.5-80,320,9.5,320,120
			s89.5,200,200,200s200-89.5,200-200S630.5-80,520-80z"/>
	</g>
</g>
<g id="guides">
</g>
</svg>
