<svg xmlns="http://www.w3.org/2000/svg" style="background:#FFF" viewBox="0 0 150 150"><defs><linearGradient id="a" x1="16.071%" x2="157.014%" y1="64.165%" y2="19.944%"><stop offset="0%" stop-color="#F59824"/><stop offset="31.2%" stop-color="#F69924"/><stop offset="83.8%" stop-color="#E87926"/></linearGradient><linearGradient id="b" x1="-212.128%" x2="76.744%" y1="391.95%" y2="14.099%"><stop offset="32.3%" stop-color="#9E2064"/><stop offset="63%" stop-color="#C82038"/><stop offset="75.1%" stop-color="#CC2135"/><stop offset="100%" stop-color="#E87926"/></linearGradient><linearGradient id="c" x1="-19.657%" x2="125.48%" y1="194%" y2="-136.667%"><stop offset="0%" stop-color="#282661"/><stop offset="9.5%" stop-color="#662F8B"/><stop offset="78.8%" stop-color="#9E2064"/><stop offset="94.9%" stop-color="#CC2032"/></linearGradient><linearGradient id="d" x1="-79.5%" x2="146.345%" y1="170.726%" y2="-44.097%"><stop offset="32.3%" stop-color="#9E2064"/><stop offset="63%" stop-color="#C82038"/><stop offset="75.1%" stop-color="#CC2135"/><stop offset="100%" stop-color="#E87926"/></linearGradient><linearGradient id="e" x1="-18.479%" x2="165.408%" y1="77.413%" y2="-41.732%"><stop offset="0%" stop-color="#282661"/><stop offset="9.5%" stop-color="#662F8B"/><stop offset="78.8%" stop-color="#9E2064"/><stop offset="94.9%" stop-color="#CC2032"/></linearGradient><linearGradient id="f" x1="-66.156%" x2="77.445%" y1="175.289%" y2="-61.493%"><stop offset="32.3%" stop-color="#9E2064"/><stop offset="63%" stop-color="#C82038"/><stop offset="75.1%" stop-color="#CC2135"/><stop offset="100%" stop-color="#E87926"/></linearGradient><linearGradient id="g" x1="-130.532%" x2="66.627%" y1="463.782%" y2="16.05%"><stop offset="32.3%" stop-color="#9E2064"/><stop offset="63%" stop-color="#C82038"/><stop offset="75.1%" stop-color="#CC2135"/><stop offset="100%" stop-color="#E87926"/></linearGradient></defs><g fill="none"><path fill="url(#a)" d="M49.6.6c-1.8 1-4.8 4.2-8.4 8.6l3.4 6.2c2.4-3.4 4.8-6.4 7.2-9 .2-.2.2-.4.2-.4s-.2.2-.2.4c-.8.8-3.2 3.6-6.6 9 3.4-.2 8.6-.8 13-1.6C59.4 6.6 57 3.4 57 3.4s-3.6-5-7.4-2.8" transform="translate(45 16.667)"/><path fill="url(#b)" d="M34.6 31.6c1-1.8 2-3.8 3-5.6 1-1.8 2.2-3.6 3.2-5.4 0-.2.2-.2.2-.4 1-1.8 2.2-3.4 3.2-5L40.8 9c-.2.4-.6.6-.8 1-1 1.2-2 2.4-3 3.8-1.2 1.6-2.4 3.2-3.6 5-1.2 1.6-2.2 3.2-3.4 5-1 1.4-2 3-2.8 4.6 0 0 0 .2-.2.2l4.4 8.6c1.4-2 2.4-3.8 3.2-5.6" transform="translate(45 16.667)"/><path fill="url(#c)" d="M14.8 80L13 84.8c0 .2-.2.4-.2.6-.4 1.2-.8 2.2-1.6 4.4 1.2.6 2.4 2.2 3.2 3.8-.2-1.8-.8-3.4-2.2-4.8 6.4.2 11.8-1.4 14.6-6l.6-1.2c-1.2 1.6-2.8 2.4-5.8 2.2 4.4-2 6.6-3.8 8.6-7 .4-.8 1-1.6 1.4-2.4-3.8 4-8.2 5-13 4.2L15 79c.2.4 0 .6-.2 1" transform="translate(45 16.667)"/><path fill="url(#d)" d="M16.6 72.2l2.4-6c.8-2 1.6-3.8 2.4-5.8.8-2 1.6-3.8 2.4-5.8.8-2 1.8-4 2.6-6s1.8-3.8 2.6-5.8c.4-.6.6-1.4 1-2l1.8-3.6V37l-4.4-8.6c0 .2-.2.2-.2.4-1 1.6-2 3.4-3 5l-3 5.4c-.8 1.6-1.6 3-2.4 4.6-.2.4-.4.6-.4 1-1 2-1.8 3.8-2.6 5.6-.8 2-1.6 4-2.4 5.8l-1.2 3.6c-.4 1-.6 2-.8 2.8-.6 2.2-1.2 4.6-1.6 6.8l4.4 8.6c.6-1.6 1.2-3.2 1.8-4.6l.6-1.2" transform="translate(45 16.667)"/><path fill="url(#e)" d="M9.8 69.8c-.6 2.8-1 5.4-1.2 8.2v.2c-1.2-2-5-4.2-5-4.2 2.6 3.8 4.6 7.6 4.8 11.2-1.4.2-3.4-.2-5.6-1 2.4 2.2 4 2.8 4.8 2.8-2.2.2-4.4 1.6-6.6 3.2 3.2-1.4 5.8-1.8 7.8-1.4C6 97.4 3 106.8 0 116.6c1-.2 1.4-.8 1.8-1.8.6-1.8 4-13.6 9.6-29 .2-.4.4-.8.4-1.4 0-.2 0-.2.2-.4.6-1.6 1.2-3.2 1.8-5 .2 0 .2-.4.4-.8l-4.4-8.6v.2" transform="translate(45 16.667)"/><path fill="url(#f)" d="M32.6 37.8c-.2.2-.2.6-.4.8L31 41c-.4.8-.8 1.8-1.2 2.6-.2.4-.4 1-.6 1.4-.6 1.4-1.4 2.8-2 4.4-.8 1.8-1.6 3.8-2.6 5.8-.8 2-1.6 3.8-2.4 6l-2.4 6c-.8 1.8-1.4 3.8-2.2 5.6 0 0 0 .2-.2.2-.8 2-1.4 3.8-2.2 6v.2l3.6-.4h-.2c4.2-.6 9.8-3.6 13.4-7.6 1.6-1.8 3.2-3.8 4.6-6.4 1-1.8 2-3.8 3-6.2.8-2 1.6-4 2.4-6.4-1 .6-2 .8-3.2 1.2-.2 0-.4 0-.6.2-.2 0-.4 0-.6.2 4-1.6 6.4-4.4 8.2-8-1 .8-2.8 1.6-4.8 2-.2 0-.6.2-.8.2H40c1.4-.6 2.6-1.2 3.4-2 .2-.2.4-.4.6-.4.4-.2.6-.6.8-.8l.6-.6c.4-.4.8-1 1-1.6.2-.2.2-.4.4-.6.2-.2.2-.4.4-.8.6-1 1-2 1.4-3 .2-.4.4-.8.4-1.2 0-.2.2-.2.2-.4.2-.4.2-.8.4-1.2.2-.4.2-.8.2-1.2l-.4.4c-1.2.8-3.2 1.4-4.8 1.6l3.2-.4-3.8.6h-.4l-11 1.4" transform="translate(45 16.667)"/><path fill="url(#g)" d="M45 15.6c-1 1.6-2 3.2-3.2 5.2 0 .2-.2.2-.2.4-1 1.6-2 3.6-3.2 5.6-1 1.8-2 3.6-3 5.6-1 1.8-1.8 3.6-2.8 5.6l11-1.2c3.2-1.4 4.6-2.8 6-4.8.4-.6.8-1 1.2-1.6 1.2-1.8 2.2-3.8 3.2-5.6 1-1.8 1.8-3.8 2.4-5.4.4-1 .8-2 1-3 .2-.8.4-1.4.4-2.2-4.2.4-9.4 1.2-12.8 1.4" transform="translate(45 16.667)"/></g></svg>