<svg xmlns="http://www.w3.org/2000/svg" style="background:#2BA977" viewBox="0 0 150 150"><g fill="#FFF"><path d="M67.696 39h13.32v61.048c-6.823 1.29-11.846 1.798-17.28 1.798C47.468 101.829 39 94.561 39 80.603c0-13.449 8.983-22.177 22.902-22.177 2.16 0 3.806.17 5.794.68V39zm.467 31.107c-1.56-.51-2.846-.68-4.491-.68-6.737 0-10.629 4.11-10.629 11.311 0 7.012 3.72 10.883 10.543 10.883 1.474 0 2.674-.083 4.577-.338V70.107z"/><path d="M102.797 60.065v30.566c0 10.526-.789 15.588-3.103 19.952-2.16 4.196-5.006 6.842-10.885 9.764l-12.36-5.824c5.88-2.733 8.726-5.147 10.543-8.832 1.902-3.768 2.502-8.132 2.502-19.611V60.065h13.303zM88.152 39h13.32v13.534h-13.32z"/></g></svg>