<svg xmlns="http://www.w3.org/2000/svg" style="background:#00B8E8" viewBox="0 0 150 150"><g fill="none"><path fill="#364548" d="M85.016 62.383H96.18v11.44h5.645c2.607 0 5.288-.465 7.757-1.304 1.213-.412 2.575-.986 3.771-1.708-1.576-2.062-2.38-4.667-2.617-7.234-.322-3.492.381-8.037 2.739-10.77l1.173-1.36 1.399 1.127c3.52 2.835 6.482 6.798 7.004 11.315 4.24-1.25 9.218-.955 12.955 1.207l1.533.887-.807 1.579c-3.16 6.182-9.768 8.098-16.228 7.759-9.667 24.133-30.712 35.558-56.23 35.558-13.183 0-25.277-4.94-32.165-16.663l-.113-.191-1.003-2.047c-2.328-5.16-3.102-10.814-2.577-16.463l.157-1.692h9.548v-11.44h11.165V51.19h22.33V40h13.399v22.383z"/><path fill="#22A0C8" d="M121.188 66.615c.749-5.832-3.605-10.412-6.305-12.587-3.112 3.606-3.595 13.057 1.286 17.036-2.724 2.425-8.465 4.624-14.343 4.624H30.27c-.572 6.15.505 11.815 2.966 16.662l.814 1.493a27.675 27.675 0 0 0 1.687 2.537c2.942.19 5.654.255 8.136.2 4.877-.108 8.856-.685 11.872-1.733a.862.862 0 0 1 .563 1.628c-.402.14-.82.27-1.251.394h-.002c-2.374.68-4.92 1.137-8.206 1.34.195.004-.203.03-.204.03-.112.007-.252.023-.365.03-1.293.072-2.688.087-4.115.087-1.56 0-3.097-.03-4.815-.117l-.044.03c5.962 6.716 15.284 10.745 26.97 10.745 24.73 0 45.706-10.99 54.995-35.659 6.59.678 12.924-1.007 15.805-6.644-4.59-2.654-10.49-1.808-13.889-.096"/><path fill="#37B1D9" d="M121.188 66.615c.749-5.832-3.605-10.412-6.305-12.587-3.112 3.606-3.595 13.057 1.286 17.036-2.724 2.425-8.465 4.624-14.343 4.624H34.508c-.292 9.42 3.195 16.57 9.365 20.892h.002c4.876-.108 8.855-.685 11.87-1.733a.862.862 0 0 1 .563 1.628c-.4.14-.819.27-1.25.394h-.002c-2.374.68-5.14 1.196-8.425 1.4l-.08-.077c8.416 4.328 20.62 4.312 34.612-1.075 15.688-6.042 30.287-17.551 40.473-30.715-.153.07-.303.14-.448.213"/><path fill="#1B81A5" d="M30.405 83.16c.444 3.296 1.406 6.38 2.832 9.19l.814 1.493a27.625 27.625 0 0 0 1.687 2.537c2.942.19 5.655.255 8.137.2 4.876-.108 8.855-.685 11.87-1.732a.862.862 0 0 1 .563 1.628c-.4.14-.819.27-1.25.393h-.002c-2.374.68-5.125 1.167-8.41 1.37-.113.007-.31.009-.423.015a73.525 73.525 0 0 1-4.1.117c-1.561 0-3.157-.03-4.874-.118 5.962 6.717 15.342 10.76 27.027 10.76 21.172 0 39.592-8.054 50.283-25.852H30.405"/><path fill="#1D91B4" d="M35.152 83.16c1.265 5.786 4.307 10.327 8.723 13.42 4.876-.108 8.855-.685 11.87-1.732a.862.862 0 0 1 .563 1.628c-.4.14-.819.27-1.25.393h-.002c-2.374.68-5.183 1.167-8.469 1.37 8.416 4.327 20.585 4.265 34.576-1.122 8.463-3.26 16.61-8.112 23.918-13.956H35.15"/><path fill="#23A3C2" d="M39.982 64.248h9.677v9.7h-9.677v-9.7zm.807.808h.763v8.083h-.763v-8.083zm1.435 0h.795v8.083h-.794v-8.083zm1.466 0h.794v8.083h-.794v-8.083zm1.467 0h.794v8.083h-.794v-8.083zm1.466 0h.794v8.083h-.794v-8.083zm1.466 0h.764v8.083h-.764v-8.083zm3.058-12h9.678v9.7h-9.678v-9.7zm.807.81h.763v8.082h-.763v-8.083zm1.436 0h.794v8.082h-.794v-8.083zm1.465 0h.794v8.082h-.794v-8.083zm1.467 0h.794v8.082h-.794v-8.083zm1.466 0h.795v8.082h-.795v-8.083zm1.466 0h.765v8.082h-.765v-8.083z"/><path fill="#34BBDE" d="M51.147 64.248h9.678v9.7h-9.678v-9.7zm.807.808h.763v8.083h-.763v-8.083zm1.436 0h.794v8.083h-.794v-8.083zm1.465 0h.794v8.083h-.794v-8.083zm1.467 0h.794v8.083h-.794v-8.083zm1.466 0h.795v8.083h-.795v-8.083zm1.466 0h.765v8.083h-.765v-8.083z"/><path fill="#23A3C2" d="M62.313 64.248h9.677v9.7h-9.677v-9.7zm.806.808h.763v8.083h-.763v-8.083zm1.436 0h.794v8.083h-.794v-8.083zm1.466 0h.794v8.083h-.794v-8.083zm1.466 0h.794v8.083h-.794v-8.083zm1.466 0h.795v8.083h-.795v-8.083zm1.466 0h.764v8.083h-.764v-8.083z"/><path fill="#34BBDE" d="M62.313 53.057h9.677v9.699h-9.677v-9.7zm.806.808h.763v8.083h-.763v-8.083zm1.436 0h.794v8.083h-.794v-8.083zm1.466 0h.794v8.083h-.794v-8.083zm1.466 0h.794v8.083h-.794v-8.083zm1.466 0h.795v8.083h-.795v-8.083zm1.466 0h.764v8.083h-.764v-8.083zm3.059 10.383h9.677v9.7h-9.677v-9.7zm.807.808h.763v8.083h-.763v-8.083zm1.435 0h.794v8.083h-.794v-8.083zm1.466 0h.794v8.083h-.794v-8.083zm1.466 0h.795v8.083h-.795v-8.083zm1.467 0h.794v8.083h-.794v-8.083zm1.466 0h.764v8.083h-.764v-8.083z"/><path fill="#23A3C2" d="M73.478 53.057h9.677v9.699h-9.677v-9.7zm.807.808h.763v8.083h-.763v-8.083zm1.435 0h.794v8.083h-.794v-8.083zm1.466 0h.794v8.083h-.794v-8.083zm1.466 0h.795v8.083h-.795v-8.083zm1.467 0h.794v8.083h-.794v-8.083zm1.466 0h.764v8.083h-.764v-8.083z"/><path fill="#34BBDE" d="M73.478 41.865h9.677v9.7h-9.677v-9.7zm.807.808h.763v8.083h-.763v-8.084zm1.435 0h.794v8.083h-.794v-8.084zm1.466 0h.794v8.083h-.794v-8.084zm1.466 0h.795v8.083h-.795v-8.084zm1.467 0h.794v8.083h-.794v-8.084zm1.466 0h.764v8.083h-.764v-8.084z"/><path fill="#23A3C2" d="M84.643 64.248h9.677v9.7h-9.677v-9.7zm.806.808h.764v8.083h-.764v-8.083zm1.435 0h.795v8.083h-.794v-8.083zm1.467 0h.795v8.083h-.795v-8.083zm1.466 0h.794v8.083h-.794v-8.083zm1.467 0h.794v8.083h-.794v-8.083zm1.466 0h.763v8.083h-.763v-8.083z"/><path fill="#D3ECEC" d="M60.219 89.673a2.669 2.669 0 0 1 2.342 1.328 2.682 2.682 0 0 1 0 2.697 2.669 2.669 0 0 1-4.977-1.35 2.673 2.673 0 0 1 2.635-2.675"/><path fill="#364548" d="M60.219 90.432a1.9 1.9 0 0 1 .692.13.783.783 0 0 0 .39 1.459.779.779 0 0 0 .684-.407 1.92 1.92 0 0 1-.552 2.215 1.908 1.908 0 0 1-2.275.113 1.918 1.918 0 0 1 1.06-3.51M13 84.128h124.183c-2.704-.687-8.555-1.616-7.59-5.168-4.917 5.702-16.774 4-19.766 1.189-3.332 4.844-22.732 3.003-24.085-.771-4.178 4.914-17.122 4.914-21.3 0-1.354 3.774-20.753 5.615-24.086.77-2.992 2.813-14.848 4.514-19.765-1.188.965 3.552-4.886 4.48-7.591 5.168"/><path fill="#BDD9D7" d="M67.315 108.956c-6.611-3.145-10.24-7.42-12.259-12.086-2.456.702-5.408 1.151-8.838 1.344-1.292.073-2.651.11-4.077.11-1.644 0-3.377-.049-5.197-.145 6.063 6.073 13.522 10.75 27.332 10.835 1.02 0 2.032-.02 3.039-.058"/><path fill="#D3ECEC" d="M57.512 101.176c-.915-1.245-1.802-2.809-2.454-4.307-2.456.703-5.41 1.152-8.84 1.346 2.357 1.282 5.726 2.47 11.294 2.96"/></g></svg>