<svg xmlns="http://www.w3.org/2000/svg" style="background:#5E678F" viewBox="0 0 150 150"><path fill="#FFF" fill-rule="evenodd" d="M124.328 61.72c-3.522-9.89-10.774-16.966-19.407-21.074-10.91-18.658-32.145-12.623-52.003-7.956a57.84 57.84 0 0 0-4.721 1.326c24.924-21.323 83.056-5.046 76.131 27.704m-18.176 48.37c3.062-5.938 5.132-13.454 5.865-22.683a140.694 140.694 0 0 0 6.463-7.232 60.67 60.67 0 0 0 4.163-5.59c.908 17.787-6.761 29.711-16.49 35.505m-4.942 2.377c-7.649 2.817-15.833 2.182-21.813-2.025-.86-.605-1.713-1.228-2.563-1.857 9.211-1.193 19.64-6.369 30.912-16.951-1.054 8.667-3.348 15.545-6.536 20.833m-67.623-12.291c-20.63-29.886-11.053-52.14 8.588-61.583-3.5 5.174-5.638 11.645-5.83 19.542-.654 26.71 14.656 52.496 38.783 50.627a244.936 244.936 0 0 0 3.73 3.017c5.405 4.288 12.71 5.603 19.987 4.136-15.867 20.144-47.635 9.79-65.258-15.74m74.827-20.477c.014 2.548-.088 4.937-.24 7.256-12.572 12.888-24.119 18.701-34.086 19.53-13.751-10.847-24.848-25.122-20.61-44.42 4.865-22.15 29.104-28.355 47.513-20.338 4.572 7.482 7.316 19.435 7.423 37.972m-1.265-34.583c7.464 5.058 13.158 12.917 14.863 23.434-1.615 3.491-3.922 7.127-7.073 10.899a140.835 140.835 0 0 1-2.672 3.096c.024-.912.075-1.791.075-2.734 0-15.631-1.905-26.807-5.193-34.695m-54.826-10.07c17.848-4.146 35.462-9.026 46.06 3.132-18.852-5.448-41.022 1.83-45.772 23.276-4.422 19.964 6.284 33.41 19.914 45.12-22.027.694-35.917-23.223-35.312-47.983.217-8.9 3.053-15.876 7.562-21.153a50.232 50.232 0 0 1 7.548-2.393m73.72 33.42c18.595-40.774-55.61-61.97-81.266-33.195-22.384 9.04-34.354 32.097-11.376 66.062 18.736 27.694 53.745 36.65 70.099 13.25 13.867-5.134 26.089-20.551 22.732-45.089-.048-.352-.133-.681-.189-1.028"/></svg>