<svg xmlns="http://www.w3.org/2000/svg" style="background:#14B5A5" viewBox="0 0 150 150"><g fill="none"><path fill="#FFF" d="M128.983 77.697c0-9.08-5.642-16.924-14.016-20.01.353-1.939.529-3.79.529-5.818 0-16.836-13.663-30.5-30.5-30.5a30.254 30.254 0 0 0-24.681 12.694c-2.821-2.203-6.259-3.35-9.873-3.35-8.903 0-16.22 7.229-16.22 16.22 0 1.94.353 3.879.97 5.642C26.73 55.484 21 63.593 21 72.585c0 9.079 5.642 17.012 14.104 20.098a31.045 31.045 0 0 0-.529 5.817c0 16.749 13.663 30.412 30.411 30.412 9.873 0 18.953-4.76 24.682-12.694a16.243 16.243 0 0 0 9.961 3.438c8.903 0 16.22-7.228 16.22-16.22 0-1.939-.353-3.878-.97-5.64 8.286-2.998 14.104-11.108 14.104-20.099z"/><path fill="#F4BD19" d="M63.223 67.56l24.065 11.019 24.33-21.332c.352-1.763.528-3.526.528-5.378 0-14.985-12.164-27.15-27.15-27.15-8.99 0-17.365 4.408-22.39 11.812l-4.054 20.98 4.671 10.049z"/><path fill="#3CBEB1" d="M38.277 93.035a28.024 28.024 0 0 0-.529 5.465c0 14.986 12.253 27.238 27.238 27.238 9.08 0 17.454-4.495 22.567-11.9l3.966-20.98-5.377-10.224-24.153-11.02-23.712 21.421z"/><path fill="#E9478C" d="M38.1 51.34l16.485 3.88 3.702-18.777c-2.292-1.763-5.024-2.644-7.933-2.644-7.14 0-13.046 5.818-13.046 13.046 0 1.498.264 3.085.793 4.496z"/><path fill="#2C458F" d="M36.69 55.307c-7.404 2.38-12.517 9.52-12.517 17.278 0 7.58 4.672 14.368 11.724 17.012l23.183-20.98-4.23-9.079-18.16-4.23z"/><path fill="#95C63D" d="M91.784 113.75c2.292 1.763 5.024 2.733 7.845 2.733 7.14 0 13.046-5.818 13.046-13.046 0-1.587-.264-3.085-.793-4.496l-16.484-3.878-3.614 18.687z"/><path fill="#176655" d="M95.133 90.743l18.16 4.231c7.404-2.468 12.516-9.52 12.516-17.277 0-7.58-4.671-14.28-11.723-17.013l-23.8 20.804 4.847 9.255z"/></g></svg>