<svg xmlns="http://www.w3.org/2000/svg" style="background:#FFF" viewBox="0 0 150 150"><g fill="none" transform="translate(35 21.667)"><path fill="#F6D2A2" d="M.822 58.146c.171 3.053 3.684 1.63 5.252.681 1.5-.92 1.944-.148 2.081-1.925.142-1.171.2-2.349.171-3.526-2.338-.202-4.682.325-6.614 1.487-.99.596-2.763 2.55-.887 3.292m64.528 40.178c2.445 1.65 6.932 6.635 3.25 9.064-3.53 3.503-5.508-3.876-8.603-4.884 1.33-1.988 3.001-3.808 5.353-4.176v-.004zm-43.686 4.713c-2.883.472-4.495 3.313-6.914 4.753-2.263 1.453-3.131-.472-3.318-.88-.342-.17-.311.17-.868-.437-2.107-3.62 2.179-6.257 4.401-8.05 3.113-.678 5.055 2.265 6.699 4.6v.014zm57.518-44.9c-.172 3.053-3.687 1.63-5.257.681-1.5-.92-1.946-.148-2.083-1.925a24.422 24.422 0 0 1-.171-3.526c2.34-.202 4.686.325 6.62 1.487.956.596 2.765 2.55.887 3.292"/><path fill="#69D7E2" d="M71.276 19.021C82.774 15.067 73.788-.28 63.77 6.494 57.201 1.005 48.15 0 38.65 0c-9.32.725-18.166 2.398-24.352 7.66-9.985-6.277-19.197 8.787-7.472 12.584-3.285 12.43.45 25.108-.065 37.755-.482 11.362-3.557 26.583 2.93 36.783 5.497 8.724 17.36 11.83 27.12 12.177 12.464.438 27.571-2.542 33.627-14.31 5.798-11.205 4.188-25.172 3.447-37.255-.74-12.21.647-24.605-2.61-36.376v.003z"/><path fill="#000" d="M79.793 56.347a5.201 5.201 0 0 0-1.47-1.804 9.52 9.52 0 0 0-5.191-1.647c-.063-1.929-.126-4.04-.126-6.715v-2.424c-.031-7.645-.125-11.002-.562-15.198a61.156 61.156 0 0 0-1.632-9.195c2.533-.965 4.19-2.55 4.847-4.6.628-1.897.314-4.04-.75-5.928a8.273 8.273 0 0 0-4.878-3.822c-2.198-.59-4.565-.156-6.847 1.367a23.892 23.892 0 0 0-7-4.02C51.526.653 46.114 0 38.77 0v.312L38.738 0c-7.848.624-13.665 1.835-18.48 4.165a22.998 22.998 0 0 0-5.16 3.358c-2.314-1.43-4.709-1.773-6.94-1.09a8.518 8.518 0 0 0-4.91 3.979c-1.064 1.897-1.312 4.056-.593 5.928.718 1.872 2.376 3.326 4.846 4.228a44.726 44.726 0 0 0-1.255 10.131c-.063 3.576.094 6.434.656 12.899.405 4.817.562 7.023.627 9.697a9.402 9.402 0 0 0-5.848 1.616 4.639 4.639 0 0 0-1.465 1.813c-.405.87-.252 1.648.561 2.112.126 1.492.97 2.185 2.251 2.05a6.855 6.855 0 0 0 3.032-1.273c.205-.148.425-.273.656-.374.095-.031.157-.062.252-.094 0 0 .188-.062.25-.093a.63.63 0 0 0 .252-.125c-.063 1.46-.189 2.983-.468 6.465-.314 3.916-.468 6.06-.53 8.452-.283 8.89.781 15.355 3.97 20.48a20.232 20.232 0 0 0 3.657 4.354 95.369 95.369 0 0 0-1.845 1.335c-1.312.995-2.22 1.835-2.753 2.767a3.384 3.384 0 0 0 .094 3.698l.031.031.032.031c.345.343.53.434.781.434h.104c.031.062.063.094.094.156.087.14.181.273.283.402.781.902 1.883 1.12 3.346.25.781-.402 1.343-.87 2.533-1.872l.063-.062c1.908-1.617 2.844-2.206 4.253-2.425l.5-.093c.188.093.376.156.593.25 4.438 1.771 9.599 2.736 14.822 2.92 6.755.25 13.26-.59 18.762-2.58a33.577 33.577 0 0 0 4.16-1.835c.812.312 1.5.964 2.824 2.496a.312.312 0 0 1 .094.125c.063.062.063.093.095.124.062.094.157.156.22.25 1.032 1.21 1.72 1.803 2.51 2.144 1.033.433 2.031.218 3.064-.715 1.815-1.12 1.94-2.858.75-4.849a13.348 13.348 0 0 0-3.72-3.79 21.505 21.505 0 0 0 4.128-5.617c3.001-5.969 4.16-12.93 4.081-21.881-.031-3.17-.157-5.929-.499-11.233v-.156c.169.07.326.165.468.28.97.653 2.094 1.183 3.032 1.274 1.28.125 2.125-.559 2.25-2.05.782-.496.943-1.273.531-2.144l.013.004zm-9.945-50.69A7.491 7.491 0 0 1 74.35 9.2a6.76 6.76 0 0 1 .719 5.439c-.594 1.834-2.094 3.295-4.439 4.165a50.335 50.335 0 0 0-1.657-4.911c.907-.777 1.343-1.741.627-3.12-.715-1.38-1.97-1.523-3.252-1.12a23.281 23.281 0 0 0-2.658-2.852c2.062-1.304 4.19-1.679 6.158-1.151v.006zM3.185 16.162c-.656-1.678-.436-3.666.562-5.407a7.86 7.86 0 0 1 4.564-3.67c2.003-.589 4.16-.311 6.278.937a20.487 20.487 0 0 0-3.242 3.694c-1.627-.84-3.284-.995-4.222.702-.97 1.835.156 2.983 1.751 3.854-.22.527-.436 1.088-.628 1.647-.22.683-.436 1.398-.628 2.112-2.278-.855-3.779-2.19-4.435-3.869zm3.783 42.362c-.032 0-.22.063-.22.094-.1.028-.195.07-.283.125a3.12 3.12 0 0 0-.75.434 6.09 6.09 0 0 1-2.753 1.15c-.942.094-1.469-.311-1.57-1.428.657-.219.942-.375 1.19-.746l-.499-.374c-.188.25-.376.343-.941.527-.032 0-.032 0-.063.031-.5-.28-.594-.714-.314-1.335.301-.61.74-1.144 1.28-1.56a8.57 8.57 0 0 1 5.503-1.492c0 .777.032 1.56 0 2.3a.68.68 0 0 1-.031.25c-.031.433-.031.624-.063.839-.094.902-.157 1.026-.499 1.182l.013.003zm9.442 46.9l-.063.062a13.89 13.89 0 0 1-2.44 1.803c-1.189.715-2.002.559-2.564-.125a1.872 1.872 0 0 1-.22-.312c-.03-.03-.062-.093-.094-.125v-.03c.063-.56.283-.965.845-1.835.031-.032.031-.032.031-.063.255-.351.475-.726.656-1.12l-.562-.25a8.5 8.5 0 0 1-.59 1.033c-.031.031-.031.031-.031.063a5.13 5.13 0 0 0-.942 1.872h-.125a1.135 1.135 0 0 1-.283-.219c-1.218-1.928-.251-3.575 2.511-5.616.346-.25 1.5-1.058 1.815-1.304a.448.448 0 0 0 .188-.063 26.308 26.308 0 0 0 5.848 3.698c0 .031.031.062.063.093-1.28.312-2.282.965-4.034 2.456l-.01-.019zm52.5-3.39c.97 1.617.942 2.921-.283 3.823-.094-.187-.157-.403-.282-.715 0-.03 0-.03-.032-.062-.436-1.182-.718-1.679-1.255-2.237l-.436.434c.467.433.687.901 1.126 1.99 0 .031 0 .031.032.063.157.402.25.652.345.87-.813.683-1.532.808-2.282.465-.656-.28-1.28-.87-2.282-1.99a1.723 1.723 0 0 1-.188-.25.43.43 0 0 1-.095-.125.312.312 0 0 1-.094-.125c-1.158-1.335-1.845-2.05-2.596-2.455a25.058 25.058 0 0 0 4.709-3.433c1.312.965 2.784 2.394 3.597 3.745l.016.003zm.436-10.068c-2.69 5.376-7.442 9.17-13.811 11.47-5.44 1.96-11.882 2.767-18.543 2.518-11.476-.403-21.417-4.369-26.079-11.904-3.139-4.992-4.159-11.376-3.876-20.14.094-2.393.22-4.537.53-8.453.345-4.411.436-5.688.53-7.675a69.22 69.22 0 0 0 .032-4.443c-.063-2.737-.22-4.911-.628-9.791-.565-6.48-.725-9.289-.659-12.843.094-4.661.719-8.764 2.031-12.649 2.125-6.309 6.033-10.568 11.661-13.332C25.26 2.434 30.981 1.242 38.77.62c7.286 0 12.6.652 17.199 2.33 5.502 2.02 9.599 5.564 12.415 11.002 1.814 4.412 2.875 9.17 3.452 14.64.437 4.165.53 7.523.562 15.136v2.424c.032 3.76.094 6.403.251 9.048.063 1.027.095 1.46.252 3.916.345 5.283.467 8.019.499 11.19.062 8.92-1.064 15.787-4.034 21.662l-.019-.003zm9.568-34.031c-.031 0-.063-.031-.094-.031a1.786 1.786 0 0 1-.942-.528l-.5.375c.283.374.563.527 1.19.745-.125 1.12-.655 1.523-1.569 1.43-.813-.063-1.883-.56-2.753-1.152a4.671 4.671 0 0 0-.75-.434c-.031 0-.063-.03-.094-.03-.126-1.71-.126-2.144-.189-3.046l-.094-1.679a8.417 8.417 0 0 1 4.784 1.523c.541.416.98.95 1.28 1.56.315.527.252.995-.282 1.273l.013-.006z"/><path fill="#FFF" d="M44.797 32.71c.036 1.437.39 3.015.071 4.526-.492.732-1.416.817-2.223 1.097-1.13-.141-2.088-.738-2.538-1.578-.283-1.72.071-3.352.177-5.072 0-.056 1.342.028 2.538.311a9.716 9.716 0 0 1 1.975.705v.011zm-9.587.123c-.906 3.058 1.2 8.049 4.66 3.953-.26-1.738.032-3.403.13-5.106.032-.145-4.757.953-4.79 1.158v-.005z"/><path fill="#000" d="M43.243 33.394c-.063-.912-.095-1.271-.095-1.727v-.213l-.223-.061-3.989-1.18V30l-.41.091h-.032v.018l-4.504 1.105-.159.03-.064.152c-.696 1.606-.537 4.03.35 5.514 1.014 1.697 2.66 1.727 4.34-.213.473.876 1.355 1.484 2.374 1.636h.095l.095-.03c.127-.06.255-.091.474-.183.032 0 .032 0 .064-.03.918-.304 1.296-.544 1.614-1.122l.032-.03v-.061c.093-.582.136-1.17.127-1.758 0-.454-.031-.88-.095-1.728l.006.003zm-5.067-1.122c-.031.544-.063.757-.095 1.061-.07.938-.06 1.88.032 2.817-1.488 1.824-2.66 1.824-3.452.453-.76-1.271-.919-3.425-.35-4.848l3.99-.97c-.032.392-.064.787-.128 1.484l.003.003zm4.435 4.483c-.223.365-.506.544-1.272.788-.032 0-.032 0-.063.03-.191.06-.318.122-.41.152a2.618 2.618 0 0 1-1.933-1.454 15.937 15.937 0 0 1-.032-2.786c.032-.304.032-.514.095-1.061.064-.697.096-1.122.096-1.52l3.452 1c0 .392.032.757.095 1.545.064.788.096 1.24.096 1.727a8.17 8.17 0 0 1-.127 1.576l.003.003z"/><path fill="#FFF" d="M15.234 18.102c2.826 10.888 20.437 8.09 19.746-2.827-.783-13.077-22.452-10.552-19.746 2.827"/><path fill="#000" d="M36.664 16.076c-.195-3.35-1.682-5.958-4.138-7.6-2.198-1.482-5.109-2.064-7.984-1.708-2.876.356-5.53 1.675-7.29 3.696-1.947 2.263-2.684 5.218-2.005 8.632l.292-.065-.292.065c3.038 11.852 22.111 8.985 21.4-3.026l.017.006zm-20.82 2.962c-.65-3.253.065-6.024 1.876-8.115 1.648-1.901 4.138-3.156 6.887-3.512 2.749-.355 5.494.194 7.565 1.617 2.294 1.545 3.687 3.96 3.894 7.148.66 11.235-17.343 13.941-20.222 2.862z"/><circle cx="21.667" cy="16.667" r="3.333" fill="#000"/><circle cx="22.5" cy="17.5" r="1" fill="#FFF"/><path fill="#FFF" d="M41.689 17.13c2.163 12.496 22.64 9.181 19.687-3.407-2.652-11.312-20.419-8.18-19.687 3.407"/><path fill="#000" d="M61.343 12.69c-2.855-12.308-22.09-8.937-21.32 3.698v.033c1.058 6.233 6.604 9.418 12.73 8.388 2.79-.48 5.291-1.832 6.926-3.823 1.796-2.217 2.437-5.079 1.667-8.292l-.003-.003zm-2.147 7.906c-1.541 1.87-3.881 3.161-6.543 3.6-5.794.968-10.999-2.026-12.022-7.872C39.926 4.43 58.073 1.25 60.767 12.82c.705 3.052.129 5.72-1.57 7.779v-.003z"/><circle cx="46.667" cy="16.667" r="3.333" fill="#000"/><circle cx="47.5" cy="17.5" r="1" fill="#FFF"/><path fill="#F6D2A2" d="M35.375 25.317c-2.553.201-4.62 2.88-3.296 4.99 1.746 2.81 5.655-.26 8.078.028 2.813.058 5.107 2.638 7.335.458 2.489-2.41-1.067-4.762-3.893-5.793l-8.224.317z"/><path fill="#231F20" d="M47.501 27.875c-.84-1.124-2.302-2.146-3.889-2.842L43.55 25h-.062l-7.966.332c-2.77.265-4.76 3.666-3.435 6.243.414.906 1.26 1.5 2.208 1.551.715.033 1.462-.132 2.614-.56.094-.033.219-.066.375-.133 1.562-.56 2.187-.726 2.811-.626h.032c.746 0 1.368.232 2.552.726 1.305.56 1.711.726 2.364.792.918.072 1.812-.335 2.396-1.09 1.212-1.42 1.152-2.941.062-4.36zm-.528 3.895a2.189 2.189 0 0 1-1.899.892c-.559-.033-.937-.199-2.186-.726-1.25-.527-1.93-.76-2.74-.792-.777-.1-1.43.066-3.08.663-.156.066-.28.1-.374.132-2.271.826-3.361.76-4.108-.693-1.121-2.145.59-5.052 2.924-5.285l7.871-.331c1.493.663 2.83 1.618 3.608 2.652.937 1.19.965 2.378-.031 3.502l.015-.014z"/><path fill="#000" d="M43.273 23.797c-.9-3.22-8.448-2.739-8.27 1.1.376 2.853 9.14 2.09 8.27-1.1z"/></g></svg>