<svg xmlns="http://www.w3.org/2000/svg" xmlns:xlink="http://www.w3.org/1999/xlink" style="background:#4591ED" viewBox="0 0 150 150"><defs><path id="a" d="M39.653 1c.637 0 1.275.127 1.912.255l44.498 13.643c2.294.637 4.462 2.932 4.972 5.227l9.69 42.33c.51 2.295-.381 5.356-2.295 6.884L64.387 100.96c-1.147 1.147-3.187 1.912-5.1 1.912-.637 0-1.274-.128-1.912-.255L15.81 89.868c-2.295-.638-4.463-2.932-4.973-5.228L.51 39.377c-.51-2.296.51-5.355 2.168-6.885l31.875-29.58C35.7 1.766 37.74 1 39.653 1zM24.225 53.657a2.451 2.451 0 0 0 1.716.737 2.06 2.06 0 0 0 1.472-.608l26.774-24.865c.893-.891 1.02-2.293.128-3.186L40.928 11.328c-.893-.893-2.297-1.02-3.188-.128L10.965 36.063a2.358 2.358 0 0 0-.127 3.187l13.387 14.407zm32.64-29.452c.632.737 1.874 1.214 3.005 1.214.239 0 .472-.022.693-.065l16.064-3.699c1.148-.255 1.148-.765 0-1.148L46.155 11.2c-1.148-.255-1.403.128-.51.893l11.22 12.112zM68.213 66.28c.221.998 1.119 1.707 2.187 1.707.161 0 .324-.016.49-.05l19.252-4.336c1.148-.254 1.913-1.527 1.658-2.676l-8.16-35.571c-.255-1.149-1.403-1.914-2.677-1.659L61.71 28.03c-1.148.255-1.913 1.402-1.657 2.677l8.16 35.573zm-4.718 1.147c.223.074.432.111.622.111.786 0 1.24-.614 1.035-1.64l-7.65-33.533c-.255-1.148-1.275-1.53-2.167-.638L30.09 55.188c-.892.766-.637 1.785.51 2.17l32.895 10.07zm-46.027 8.16c.13.592.363.879.592.879.217-.001.431-.256.555-.751l4.845-15.684c.383-1.146 0-2.931-.893-3.823l-11.22-12.113c-.892-.892-1.274-.765-1.02.51l7.14 30.983zM56.61 93.565c.223.075.453.11.678.11.932 0 1.818-.613 2.127-1.639l5.738-18.87c.382-1.148-.383-2.422-1.53-2.805L28.815 59.65c-1.148-.383-2.423.381-2.805 1.53l-5.738 18.87c-.382 1.149.383 2.424 1.53 2.805L56.61 93.564zm6.63-4.334c-.237.713-.131 1.13.199 1.13.2 0 .483-.155.821-.492l23.334-21.675c.891-.766.636-1.275-.511-1.02L71.016 70.87c-1.274.255-2.55 1.53-2.932 2.679L63.24 89.23z"/></defs><g fill="none" fill-rule="evenodd" transform="translate(24 23)"><path fill="#FFF" d="M90.143 63.602L70.89 67.937c-1.275.256-2.422-.51-2.677-1.656l-8.16-35.574c-.255-1.275.51-2.423 1.657-2.676l19.253-4.337c1.275-.255 2.422.512 2.677 1.658l8.16 35.572c.255 1.15-.51 2.424-1.657 2.678zm-2.55 4.591L64.26 89.868c-.892.893-1.402.509-1.02-.637l4.845-15.683c.383-1.149 1.658-2.424 2.933-2.679l16.065-3.696c1.147-.255 1.402.254.51 1.02zM56.61 93.564L21.803 82.856c-1.148-.383-1.913-1.658-1.53-2.807l5.737-18.868c.383-1.149 1.658-1.913 2.805-1.532l34.808 10.712c1.147.382 1.912 1.657 1.53 2.803l-5.738 18.872c-.382 1.275-1.657 1.912-2.805 1.528zM17.468 75.587l-7.14-30.981c-.255-1.275.127-1.404 1.02-.512l11.22 12.113c.892.892 1.275 2.679.892 3.825l-4.845 15.682c-.255 1.022-.892 1.022-1.147-.127zm-6.503-39.525L37.74 11.199c.893-.892 2.295-.765 3.188.128l13.387 14.407c.893.893.765 2.297-.127 3.188L27.413 53.786c-.893.891-2.295.763-3.188-.129L10.838 39.249a2.358 2.358 0 0 1 .127-3.187zm54.188 29.836c.255 1.275-.51 1.913-1.658 1.529L30.6 57.356c-1.147-.383-1.402-1.404-.51-2.169l25.245-23.46c.893-.893 1.913-.509 2.168.637l7.65 33.534zM46.155 11.2l30.473 9.308c1.147.382 1.147.892 0 1.149l-16.065 3.696c-1.275.255-2.933-.255-3.698-1.146l-11.22-12.113c-.892-.766-.637-1.149.51-.894zm54.57 51.257l-9.69-42.332c-.51-2.293-2.677-4.59-4.972-5.227L41.565 1.256c-.637-.129-1.275-.257-1.912-.257-1.913 0-3.953.765-5.1 1.913L2.678 32.493C1.02 34.022 0 37.082.51 39.377l10.328 45.262c.51 2.297 2.677 4.592 4.972 5.23l41.565 12.75c.638.125 1.275.254 1.913.254 1.912 0 3.952-.766 5.1-1.912L98.43 69.339c1.913-1.528 2.805-4.59 2.295-6.883z"/><mask id="b" fill="#fff"><use xlink:href="#a"/></mask><path fill="#FFF" d="M59.796 68.192h.292V23.44h-.292zm.294 0h1.456V23.44h-1.457zm1.456 0h1.456V23.44h-1.456z" mask="url(#b)"/><path fill="#FFF" d="M63 68.192h1.458V23.44H63zm1.458 0h1.456V23.44h-1.456zm1.456 0h1.456V23.44h-1.456zm1.456 0h1.457V23.44H67.37zm1.457 0h1.456V23.44h-1.456zm1.456 0h1.456V23.44h-1.456zm1.457 0h1.455V23.44H71.74zm1.455 0h1.458V23.44h-1.458zm1.458 0h1.456V23.44h-1.456zm1.456 0h1.456V23.44h-1.456zm1.456 0h1.457V23.44h-1.457zm1.457 0h1.456V23.44h-1.456zm1.456 0h1.456V23.44h-1.456z" mask="url(#b)"/><path fill="#FFF" d="M81.933 68.192h1.457V23.44h-1.457zm1.457 0h1.456V23.44H83.39zm1.456 0h1.456V23.44h-1.456zm1.456 0h1.458V23.44h-1.458zm1.458 0h1.456V23.44H87.76z" mask="url(#b)"/><path fill="#FFF" d="M89.216 68.192h1.456V23.44h-1.456zm1.456 0h1.383V23.44h-1.383zM62.858 90.76h.144V66.917h-.145z" mask="url(#b)"/><path fill="#FFF" d="M63 90.76h1.458V66.917H63zm1.458 0h1.456V66.917h-1.456zm1.456 0h1.456V66.917h-1.456zm1.456 0h1.457V66.917H67.37zm1.457 0h1.456V66.917h-1.456zm1.456 0h1.456V66.917h-1.456zm1.457 0h1.455V66.917H71.74zm1.455 0h1.458V66.917h-1.458zm1.458 0h1.456V66.917h-1.456zm1.456 0h1.456V66.917h-1.456zm1.456 0h1.457V66.917h-1.457zm1.457 0h1.456V66.917h-1.456zm1.456 0h1.456V66.917h-1.456z" mask="url(#b)"/><path fill="#FFF" d="M81.933 90.76h1.457V66.917h-1.457zm1.457 0h1.456V66.917H83.39zm1.456 0h1.456V66.917h-1.456zm1.456 0h1.458V66.917h-1.458zm1.458 0h.725V66.917h-.725zm-67.87 3.188h.877v-34.68h-.877zm.877 0h1.456v-34.68h-1.456zm1.456 0h1.456v-34.68h-1.456zm1.457 0h1.455v-34.68H23.68zm1.455 0h1.458v-34.68h-1.458zm1.458 0h1.456v-34.68h-1.456zm1.456 0h1.456v-34.68h-1.456zm1.456 0h1.457v-34.68h-1.457zm1.457 0h1.456v-34.68h-1.456zm1.456 0h1.456v-34.68h-1.456z" mask="url(#b)"/><path fill="#FFF" d="M33.873 93.948h1.457v-34.68h-1.457zm1.459 0h1.456v-34.68h-1.456z" mask="url(#b)"/><path fill="#FFF" d="M36.788 93.948h1.456v-34.68h-1.456zm1.456 0H39.7v-34.68h-1.456z" mask="url(#b)"/><path fill="#FFF" d="M39.698 93.948h1.458v-34.68h-1.458zm1.458 0h1.456v-34.68h-1.456zm1.456 0h1.456v-34.68h-1.456z" mask="url(#b)"/><path fill="#FFF" d="M44.068 93.948h1.457v-34.68h-1.457zm1.457 0h1.456v-34.68h-1.456zm1.456 0h1.456v-34.68h-1.456z" mask="url(#b)"/><path fill="#FFF" d="M48.437 93.948h1.458v-34.68h-1.458zm1.458 0h1.456v-34.68h-1.456z" mask="url(#b)"/><path fill="#FFF" d="M51.35 93.948h1.457v-34.68H51.35zm1.457 0h1.457v-34.68h-1.457zm1.457 0h1.456v-34.68h-1.456z" mask="url(#b)"/><path fill="#FFF" d="M55.72 93.948h1.456v-34.68H55.72zm1.456 0h1.456v-34.68h-1.456z" mask="url(#b)"/><path fill="#FFF" d="M58.63 93.948h1.458v-34.68h-1.457zm1.46 0h1.456v-34.68h-1.457z" mask="url(#b)"/><path fill="#FFF" d="M61.546 93.948h1.456v-34.68h-1.456z" mask="url(#b)"/><path fill="#FFF" d="M63 93.948h1.458v-34.68H63zm1.458 0h1.077v-34.68h-1.077zM10.072 76.735h.5V43.203h-.5zm.5 0h1.458V43.203h-1.458zm1.458 0h1.456V43.203H12.03zm1.456 0h1.456V43.203h-1.456z" mask="url(#b)"/><path fill="#FFF" d="M14.94 76.735h1.458V43.203H14.94zm1.458 0h1.456V43.203h-1.456zm1.457 0h1.456V43.203h-1.456z" mask="url(#b)"/><path fill="#FFF" d="M19.31 76.735h1.457V43.203H19.31zm1.457 0h1.456V43.203h-1.456zm1.456 0h1.456V43.203h-1.456zm1.457 0h.163V43.203h-.164zM10.072 54.678h.5v-44.37h-.5zm.5 0h1.458v-44.37h-1.458zm1.458 0h1.456v-44.37H12.03zm1.456 0h1.456v-44.37h-1.456z" mask="url(#b)"/><path fill="#FFF" d="M14.94 54.678h1.458v-44.37H14.94zm1.458 0h1.456v-44.37h-1.456zm1.457 0h1.456v-44.37h-1.456z" mask="url(#b)"/><path fill="#FFF" d="M19.31 54.678h1.457v-44.37H19.31zm1.457 0h1.456v-44.37h-1.456zm1.456 0h1.456v-44.37h-1.456zm1.457 0h1.455v-44.37H23.68zm1.455 0h1.458v-44.37h-1.458zm1.458 0h1.456v-44.37h-1.456zm1.456 0h1.456v-44.37h-1.456zm1.456 0h1.457v-44.37h-1.457zm1.457 0h1.456v-44.37h-1.456zm1.456 0h1.456v-44.37h-1.456z" mask="url(#b)"/><path fill="#FFF" d="M33.873 54.678h1.457v-44.37h-1.457zm1.459 0h1.456v-44.37h-1.456z" mask="url(#b)"/><path fill="#FFF" d="M36.788 54.678h1.456v-44.37h-1.456zm1.456 0H39.7v-44.37h-1.456z" mask="url(#b)"/><path fill="#FFF" d="M39.698 54.678h1.458v-44.37h-1.458zm1.458 0h1.456v-44.37h-1.456zm1.456 0h1.456v-44.37h-1.456z" mask="url(#b)"/><path fill="#FFF" d="M44.068 54.678h1.457v-44.37h-1.457zm1.457 0h1.456v-44.37h-1.456zm1.456 0h1.456v-44.37h-1.456z" mask="url(#b)"/><path fill="#FFF" d="M48.437 54.678h1.458v-44.37h-1.458zm1.458 0h1.456v-44.37h-1.456z" mask="url(#b)"/><path fill="#FFF" d="M51.35 54.678h1.457v-44.37H51.35zm1.457 0h1.457v-44.37h-1.457zm1.457 0h.944v-44.37h-.944zM29.198 67.81h.307V30.835h-.307zm.307 0h1.457V30.835h-1.457zm1.457 0h1.456V30.835h-1.456zm1.456 0h1.456V30.835h-1.456z" mask="url(#b)"/><path fill="#FFF" d="M33.873 67.81h1.457V30.835h-1.457zm1.459 0h1.456V30.835h-1.456z" mask="url(#b)"/><path fill="#FFF" d="M36.788 67.81h1.456V30.835h-1.456zm1.456 0H39.7V30.835h-1.456z" mask="url(#b)"/><path fill="#FFF" d="M39.698 67.81h1.458V30.835h-1.458zm1.458 0h1.456V30.835h-1.456zm1.456 0h1.456V30.835h-1.456z" mask="url(#b)"/><path fill="#FFF" d="M44.068 67.81h1.457V30.835h-1.457zm1.457 0h1.456V30.835h-1.456zm1.456 0h1.456V30.835h-1.456z" mask="url(#b)"/><path fill="#FFF" d="M48.437 67.81h1.458V30.835h-1.458zm1.458 0h1.456V30.835h-1.456z" mask="url(#b)"/><path fill="#FFF" d="M51.35 67.81h1.457V30.835H51.35zm1.457 0h1.457V30.835h-1.457zm1.457 0h1.456V30.835h-1.456z" mask="url(#b)"/><path fill="#FFF" d="M55.72 67.81h1.456V30.835H55.72zm1.456 0h1.456V30.835h-1.456z" mask="url(#b)"/><path fill="#FFF" d="M58.63 67.81h1.458V30.835h-1.457zm1.46 0h1.456V30.835h-1.457z" mask="url(#b)"/><path fill="#FFF" d="M61.546 67.81h1.456V30.835h-1.456z" mask="url(#b)"/><path fill="#FFF" d="M63 67.81h1.458V30.835H63zm1.458 0h.95V30.835h-.95zM44.752 25.608h.773V10.945h-.773z" mask="url(#b)"/><path fill="#FFF" d="M45.525 25.608h1.456V10.945h-1.456zm1.456 0h1.456V10.945h-1.456z" mask="url(#b)"/><path fill="#FFF" d="M48.437 25.608h1.458V10.945h-1.458zm1.458 0h1.456V10.945h-1.456z" mask="url(#b)"/><path fill="#FFF" d="M51.35 25.608h1.457V10.945H51.35zm1.457 0h1.457V10.945h-1.457zm1.457 0h1.456V10.945h-1.456z" mask="url(#b)"/><path fill="#FFF" d="M55.72 25.608h1.456V10.945H55.72zm1.456 0h1.456V10.945h-1.456z" mask="url(#b)"/><path fill="#FFF" d="M58.63 25.608h1.458V10.945h-1.457zm1.46 0h1.456V10.945h-1.457z" mask="url(#b)"/><path fill="#FFF" d="M61.546 25.608h1.456V10.945h-1.456z" mask="url(#b)"/><path fill="#FFF" d="M63 25.608h1.458V10.945H63zm1.458 0h1.456V10.945h-1.456zm1.456 0h1.456V10.945h-1.456zm1.456 0h1.457V10.945H67.37zm1.457 0h1.456V10.945h-1.456zm1.456 0h1.456V10.945h-1.456zm1.457 0h1.455V10.945H71.74zm1.455 0h1.458V10.945h-1.458zm1.458 0h1.456V10.945h-1.456zm1.456 0h1.456V10.945h-1.456zm1.456 0h.21V10.945h-.21zM0 102.873h.377V1H0zm.377 0h1.458V1H.377zm1.458 0H3.29V1H1.835zm1.455 0h1.457V1H3.29zm1.457 0h1.456V1H4.747zm1.456 0H7.66V1H6.203zm1.457 0h1.456V1H7.66zm1.456 0h1.456V1H9.116zm1.456 0h1.458V1h-1.458zm1.458 0h1.456V1H12.03zm1.456 0h1.456V1h-1.456z" mask="url(#b)"/><path fill="#FFF" d="M14.94 102.873h1.458V1H14.94zm1.458 0h1.456V1h-1.456zm1.457 0h1.456V1h-1.456z" mask="url(#b)"/><path fill="#FFF" d="M19.31 102.873h1.457V1H19.31zm1.457 0h1.456V1h-1.456zm1.456 0h1.456V1h-1.456zm1.457 0h1.455V1H23.68zm1.455 0h1.458V1h-1.458zm1.458 0h1.456V1h-1.456zm1.456 0h1.456V1h-1.456zm1.456 0h1.457V1h-1.457zm1.457 0h1.456V1h-1.456zm1.456 0h1.456V1h-1.456z" mask="url(#b)"/><path fill="#FFF" d="M33.873 102.873h1.457V1h-1.457zm1.459 0h1.456V1h-1.456z" mask="url(#b)"/><path fill="#FFF" d="M36.788 102.873h1.456V1h-1.456zm1.456 0H39.7V1h-1.456z" mask="url(#b)"/><path fill="#FFF" d="M39.698 102.873h1.458V1h-1.458zm1.458 0h1.456V1h-1.456zm1.456 0h1.456V1h-1.456z" mask="url(#b)"/><path fill="#FFF" d="M44.068 102.873h1.457V1h-1.457zm1.457 0h1.456V1h-1.456zm1.456 0h1.456V1h-1.456z" mask="url(#b)"/><path fill="#FFF" d="M48.437 102.873h1.458V1h-1.458zm1.458 0h1.456V1h-1.456z" mask="url(#b)"/><path fill="#FFF" d="M51.35 102.873h1.457V1H51.35zm1.457 0h1.457V1h-1.457zm1.457 0h1.456V1h-1.456z" mask="url(#b)"/><path fill="#FFF" d="M55.72 102.873h1.456V1H55.72zm1.456 0h1.456V1h-1.456z" mask="url(#b)"/><path fill="#FFF" d="M58.63 102.873h1.458V1h-1.457zm1.46 0h1.456V1h-1.457z" mask="url(#b)"/><path fill="#FFF" d="M61.546 102.873h1.456V1h-1.456z" mask="url(#b)"/><path fill="#FFF" d="M63 102.873h1.458V1H63zm1.458 0h1.456V1h-1.456zm1.456 0h1.456V1h-1.456zm1.456 0h1.457V1H67.37zm1.457 0h1.456V1h-1.456zm1.456 0h1.456V1h-1.456zm1.457 0h1.455V1H71.74zm1.455 0h1.458V1h-1.458zm1.458 0h1.456V1h-1.456zm1.456 0h1.456V1h-1.456zm1.456 0h1.457V1h-1.457zm1.457 0h1.456V1h-1.456zm1.456 0h1.456V1h-1.456z" mask="url(#b)"/><path fill="#FFF" d="M81.933 102.873h1.457V1h-1.457zm1.457 0h1.456V1H83.39zm1.456 0h1.456V1h-1.456zm1.456 0h1.458V1h-1.458zm1.458 0h1.456V1H87.76z" mask="url(#b)"/><path fill="#FFF" d="M89.216 102.873h1.456V1h-1.456zm1.456 0h1.456V1h-1.456zm1.456 0h1.457V1h-1.457zm1.457 0h1.456V1h-1.456zm1.456 0h1.456V1h-1.456zm1.456 0h1.457V1h-1.457zm1.457 0h1.456V1h-1.456zm1.456 0h1.457V1H99.41zm1.457 0h.368V1h-.368z" mask="url(#b)"/></g></svg>