<svg xmlns="http://www.w3.org/2000/svg" style="background:#E82E2F" viewBox="0 0 150 150"><g fill="#FFF" fill-rule="evenodd"><path d="M81.691 46.968c-3.016 2.256-5.81 5.394-6.227 9.293-.417 3.898 1.618 7.576 4.045 10.47 1.177 1.299 2.182 2.893 2.231 4.707.05 2.427-1.323 4.683-3.089 6.277.417-.05.711-.417 1.054-.613 2.648-1.692 5.198-3.825 6.498-6.743.858-1.986.662-4.34-.466-6.179-1.324-2.157-3.065-4.07-4.094-6.424-.565-1.324-.761-2.868-.295-4.266.613-1.888 1.937-3.433 3.335-4.781 3.85-3.654 8.508-6.253 12.97-9.097-5.639 1.618-11.205 3.85-15.962 7.356m3.63-27.928c2.304 2.624 3.064 6.375 2.402 9.76-.711 3.8-2.82 7.159-5.296 10.052-1.986 2.33-4.266 4.389-6.645 6.301-2.77 2.232-5.492 4.635-7.233 7.773-1.471 2.55-1.814 5.688-.809 8.46 1.643 4.756 5.468 8.287 7.552 12.774-2.305-2.035-4.56-4.144-6.67-6.375-2.206-2.354-4.29-4.855-5.663-7.797-.932-2.06-1.349-4.463-.638-6.645.711-2.231 2.305-4.021 3.899-5.689 4.438-4.438 9.906-7.699 14.245-12.21 2.404-2.477 4.39-5.443 5.076-8.852.564-2.5.294-5.075-.22-7.552"/><path d="M105.401 114.028c-4.61 1.471-9.39 2.28-14.147 2.942-8.214 1.03-16.501 1.349-24.764 1.104-5.027-.197-10.053-.54-15.006-1.374 1.152.785 2.574 1.03 3.898 1.398 5.566 1.177 11.28 1.398 16.943 1.57 8.312.146 16.624-.172 24.814-1.472 3.874-.686 7.772-1.52 11.254-3.335 1.815-.956 3.654-2.427 3.972-4.56-1.84 1.962-4.487 2.869-6.964 3.727M44.3 105.642c-1.937.711-3.923 1.496-5.468 2.918-.613.54-1.177 1.57-.54 2.305.981 1.054 2.501 1.324 3.85 1.643 7.552 1.3 15.202 2.035 22.852 2.305 10.15.294 20.375-.148 30.354-2.11 3.433-.71 6.89-1.52 10.029-3.113.98-.564 2.182-1.177 2.501-2.354.172-1.128-1.006-1.716-1.839-2.182.515.588.858 1.447.343 2.133-.858 1.152-2.33 1.594-3.629 2.035-4.07 1.153-8.287 1.618-12.48 2.084-11.107 1.006-22.288 1.25-33.395.319-3.727-.392-7.527-.81-11.083-2.133-.564-.245-1.422-.49-1.422-1.25.22-.663.858-1.03 1.422-1.35 2.55-1.299 5.395-2.01 8.239-2.181-.834-.49-1.815-.54-2.77-.516-2.38.074-4.709.687-6.964 1.447m13.608-6.939c-.564.442-1.005 1.202-.736 1.913.343.907 1.202 1.447 2.01 1.912 2.11 1.153 4.488 1.692 6.817 2.11 5.272.833 10.69.71 15.938-.222 3.113-.588 6.228-1.422 9.12-2.721-1.887-.785-3.726-1.668-5.491-2.697-3.065.539-6.155 1.103-9.293 1.3-4.144.318-8.337-.026-12.48-.54-.981-.221-2.207-.319-2.87-1.177-.343-.711.442-1.226.883-1.643-1.373.392-2.77.858-3.898 1.765m-2.844-10.69c-.54.417-1.08 1.079-.932 1.814.22.859 1.054 1.374 1.79 1.766 1.814.932 3.85 1.348 5.835 1.716 5.027.81 10.151.834 15.202.49 5.345-.416 10.666-1.3 15.84-2.82-1.471-.661-2.87-1.421-4.046-2.525-4.29.76-8.607 1.472-12.946 1.692-4.757.319-9.514.05-14.221-.441-.908-.123-1.815-.27-2.624-.687-.417-.245-.834-.637-.809-1.152.049-.81.736-1.373 1.226-1.962-1.52.54-3.04 1.104-4.315 2.109m-5.787-10.47c-1.005.49-2.133.883-2.942 1.717-.319.343-.319.931.049 1.226.735.662 1.716.956 2.648 1.226 3.212.858 6.522 1.103 9.808 1.324 2.942.196 5.884.245 8.851.22 7.65-.122 15.349-.637 22.852-2.305.711-.171 1.495-.294 2.133-.735 1.25-.81 2.624-1.447 3.972-2.084-6.105.98-12.235 1.814-18.414 2.207-6.252.392-12.554.637-18.83.22-1.79-.171-3.63-.27-5.297-.956-.392-.172-.931-.515-.735-1.03.368-.662 1.103-.98 1.74-1.324 2.698-1.275 5.64-1.986 8.509-2.82-4.929-.073-9.832 1.177-14.344 3.114m49.284-2.23c1.03-1.251 2.672-1.57 4.168-1.766 2.599-.344 5.37.318 7.331 2.108 1.619 1.447 2.526 3.703 2.182 5.885-.368 2.525-2.06 4.634-3.972 6.228-3.457 2.77-7.723 4.389-11.99 5.468.246-.27.515-.515.834-.711 3.236-1.741 6.448-3.776 8.827-6.62 1.447-1.766 2.574-4.07 2.109-6.4-.49-2.697-3.114-4.659-5.787-4.806-1.275-.123-2.476.368-3.702.613"/></g></svg>