<svg xmlns="http://www.w3.org/2000/svg" style="background:#EA1E11" viewBox="0 0 150 150"><g fill="none" fill-rule="evenodd"><path fill="#D33833" fill-rule="nonzero" d="M114.602 72.573c0 22.29-17.767 40.359-39.685 40.359-21.916 0-39.684-18.07-39.684-40.359 0-22.29 17.768-40.36 39.684-40.36 21.918 0 39.685 18.07 39.685 40.36"/><path fill="#EF3D3A" fill-rule="nonzero" d="M36.85 82.569s-2.872-42.089 36.132-43.29l-2.72-4.51-21.165 7.064-6.048 6.915-5.291 10.071-3.024 11.725.907 7.816"/><path fill="#231F20" fill-rule="nonzero" d="M47.737 45.04c-6.963 7.084-11.272 16.864-11.272 27.684 0 10.816 4.31 20.598 11.272 27.68 6.966 7.082 16.566 11.452 27.18 11.452s20.215-4.37 27.18-11.452c6.963-7.082 11.272-16.863 11.272-27.68 0-10.82-4.31-20.6-11.271-27.683-6.966-7.08-16.567-11.451-27.181-11.452-10.614.001-20.214 4.371-27.18 11.452zm-1.762 57.077C38.575 94.593 34 84.194 34 72.724c0-11.473 4.575-21.87 11.974-29.395 7.399-7.527 17.639-12.192 28.943-12.19 11.303-.002 21.545 4.663 28.942 12.19 7.4 7.524 11.976 17.923 11.975 29.395 0 11.47-4.575 21.869-11.975 29.393-7.397 7.526-17.639 12.19-28.942 12.19-11.304 0-21.545-4.664-28.942-12.19z"/><path fill="#F0D6B7" fill-rule="nonzero" d="M91.623 72.797l-6.048.902-8.164.901-5.291.15-5.14-.15-3.93-1.202-3.478-3.758-2.72-7.666-.606-1.654-3.628-1.202-2.116-3.457-1.513-4.96 1.664-4.36 3.93-1.353 3.175 1.504 1.512 3.307 1.814-.301.605-.751-.605-3.458-.151-4.359.907-6.012-.035-3.435 2.756-4.381 4.838-3.458 8.466-3.607 9.373 1.353 8.164 5.862 3.78 6.012 2.419 4.36.604 10.822-1.814 9.32-3.326 8.267-3.175 4.36"/><path fill="#335061" fill-rule="nonzero" d="M86.482 98.8l-21.619.903v3.607l1.815 12.626-.908 1.053-15.117-5.111-1.058-1.804-1.513-16.985-3.476-10.221-.756-2.405 12.094-8.267 3.78-1.504 3.325 4.059 2.873 2.555 3.326 1.052 1.511.451 1.815 7.816 1.36 1.654 3.477-1.203-2.418 4.66L88.145 97.9l-1.663.902"/><path fill="#6D6B6D" fill-rule="nonzero" d="M50.653 46.341l3.93-1.353 3.175 1.504 1.512 3.307 1.814-.301.454-1.804-.908-3.457.908-8.267-.756-4.51 2.72-3.156 5.897-4.66-1.663-2.255-8.315 4.059-3.477 2.705-1.966 4.21-3.023 4.058-.907 4.81.605 5.11"/><path fill="#DCD9D8" fill-rule="nonzero" d="M56.85 32.212s2.268-5.562 11.34-8.267c9.07-2.706.453-1.955.453-1.955l-9.827 3.759-3.78 3.757-1.663 3.007 3.478-.301M52.315 45.29s-3.174-10.523 8.92-12.026l-.454-1.804-8.315 1.955-2.418 7.816.604 5.11 1.663-1.052"/><path fill="#F7E4CD" fill-rule="nonzero" d="M57.153 59.268l1.98-1.907s.892.104 1.044 1.156c.15 1.052.604 10.522 7.105 15.633.593.466-4.838-.752-4.838-.752l-4.838-7.516m27.365-9.469s.352-4.557 1.587-4.206c1.234.35 1.234 1.577 1.234 1.577s-2.997 1.928-2.82 2.629m12.546-16.685s-2.492.523-2.721 2.705c-.23 2.183 2.721.451 3.175.3m-18.746-2.855s-3.326.451-3.326 2.555c0 2.105 3.78 1.955 4.838 1.053m-22.073 6.162s-5.745-3.457-6.35-.15c-.605 3.307-1.965 5.712.907 9.17l-1.965-.602-1.814-4.66-.605-4.51 3.477-3.607 3.93.3 2.268 1.804.152 2.255m2.721-9.469s2.57-13.228 15.571-15.783c10.705-2.104 16.327.45 18.445 2.856 0 0-9.525-11.274-18.596-7.817-9.07 3.457-15.722 9.77-15.571 13.829.257 6.912.151 6.915.151 6.915M96.46 28.755s-4.384-.15-4.535 3.758c0 0 0 .6.302 1.202 0 0 3.478-3.908 5.594-1.804"/><path fill="#F7E4CD" fill-rule="nonzero" d="M77.262 34.122s-.754-5.999-5.898-2.511c-3.326 2.255-3.024 5.411-2.42 6.012.606.602.441 1.813.902.981.46-.83.308-3.536 1.972-4.288 1.662-.751 4.388-1.59 5.444-.194"/><path fill="#49728B" fill-rule="nonzero" d="M63.049 74.75l-14.211 6.314s5.896 23.299 2.872 30.514l-2.116-.752-.151-8.868-3.93-16.835-1.664-4.66 14.816-9.92 4.384 4.208m1.461 12.886l2.016 2.446V99.1h-2.419s-.302-6.313-.302-7.064c0-.752.302-3.457.302-3.457m.453 11.876l-6.802.3 1.965 1.353 4.838.751"/><path fill="#335061" fill-rule="nonzero" d="M87.843 98.951l5.594-.15 1.36 13.829-5.745.75-1.21-14.429"/><path fill="#335061" fill-rule="nonzero" d="M89.355 98.951l8.465-.45s3.478-8.72 3.478-9.17c0-.451 3.023-12.626 3.023-12.626l-6.803-7.064-1.36-1.203-3.629 3.607v13.98L89.355 98.95"/><path fill="#49728B" fill-rule="nonzero" d="M93.134 97.899l-5.292 1.052.756 4.21c1.966.901 5.292-1.504 5.292-1.504m-.605-30.063l10.583 7.817.302-3.607-8.012-7.366-2.873 3.156"/><path fill="#FFF" fill-rule="nonzero" d="M69.807 128.565l-3.13-12.629-1.556-9.318-.258-6.916 14.167-.75 8.813-.001-.801 15.784 1.36 12.176-.15 2.254-11.49.902-6.955-1.502"/><path fill="#DCD9D8" fill-rule="nonzero" d="M85.877 98.8s-.756 15.633 1.512 26.757c0 0-4.536 2.856-11.188 3.607l12.7-.45 1.512-.902-1.815-24.652-.453-5.261"/><path fill="#FFF" fill-rule="nonzero" d="M95.055 111.429l5.896-1.654 11.187-.6 1.663-5.112-3.024-8.868-3.477-.451-4.838 1.503-4.641 2.253-2.464-.45-1.92.75"/><path fill="#DCD9D8" fill-rule="nonzero" d="M94.948 108.421s3.93-1.803 4.535-1.653L97.82 98.5l1.966-.751s1.36 7.816 1.36 8.718c0 0 8.466.451 9.222.451 0 0 1.815-3.457 1.361-7.064l1.663 4.81.151 2.705-2.419 3.608-2.72.601-4.536-.15-1.512-1.954-5.291.75-1.663.602"/><path fill="#FFF" fill-rule="nonzero" d="M89.007 97.75l-3.326-8.417-3.477-4.96s.756-2.105 1.814-2.105h3.477l3.326 1.203-.302 5.561-1.512 8.718"/><path fill="#DCD9D8" fill-rule="nonzero" d="M89.657 94.893s-4.233-8.117-4.233-9.32c0 0 .756-1.803 1.814-1.352 1.058.45 3.326 1.653 3.326 1.653v-2.856l-5.14-1.052-3.477.45 5.896 13.83 1.21.15"/><path fill="#FFF" fill-rule="nonzero" d="M71.168 75.053L66.98 74.6l-3.93-1.202v1.353l1.92 2.105 6.047 2.706"/><path fill="#DCD9D8" fill-rule="nonzero" d="M64.41 75.504s4.687 1.954 6.199 1.503l.15 1.802-4.232-.9-2.57-1.804.453-.601"/><path fill="#D33833" fill-rule="nonzero" d="M95.038 82.78c-2.565-.075-4.883-.378-6.912-.947.138-.827-.12-1.64.087-2.235.566-.405 1.514-.399 2.368-.494-.739-.361-1.777-.504-2.63-.295-.02-.574-.28-.93-.436-1.38 1.442-.511 4.847-3.867 6.762-2.756.912.529 1.3 3.548 1.37 5.015.06 1.218-.11 2.447-.609 3.092"/><path stroke="#D33833" stroke-width="2.5" d="M95.038 82.78c-2.565-.075-4.883-.378-6.912-.947.138-.827-.12-1.64.087-2.235.566-.405 1.514-.399 2.368-.494-.739-.361-1.777-.504-2.63-.295-.02-.574-.28-.93-.436-1.38 1.442-.511 4.847-3.867 6.762-2.756.912.529 1.3 3.548 1.37 5.015.06 1.218-.11 2.447-.609 3.092z"/><path fill="#D33833" fill-rule="nonzero" d="M82.771 78.61c-.006.193-.015.388-.022.582-.801.523-2.094.517-2.973.957 1.296.056 2.316.366 3.198.804l-.057 1.458c-1.468 1-2.81 2.488-4.538 3.425-.817.443-3.686 1.583-4.555 1.382-.492-.114-.536-.72-.733-1.293-.419-1.225-1.384-3.175-1.468-5.02-.107-2.33-.344-6.233 2.181-5.754 2.037.386 4.407 1.32 5.984 2.177.964.523 1.521 1.17 2.983 1.282"/><path stroke="#D33833" stroke-width="2.5" d="M82.771 78.61c-.006.193-.015.388-.022.582-.801.523-2.094.517-2.973.957 1.296.056 2.316.366 3.198.804l-.057 1.458c-1.468 1-2.81 2.488-4.538 3.425-.817.443-3.686 1.583-4.555 1.382-.492-.114-.536-.72-.733-1.293-.419-1.225-1.384-3.175-1.468-5.02-.107-2.33-.344-6.233 2.181-5.754 2.037.386 4.407 1.32 5.984 2.177.964.523 1.521 1.17 2.983 1.282z"/><path fill="#D33833" fill-rule="nonzero" d="M84.23 81.39c-.225-1.27-.484-1.631-.384-2.739 3.405-2.256 4.044 3.877.384 2.739"/><path stroke="#D33833" stroke-width="2.5" d="M84.23 81.39c-.225-1.27-.484-1.631-.384-2.739 3.405-2.256 4.044 3.877.384 2.739z"/><path fill="#EF3D3A" fill-rule="nonzero" d="M89.158 82.418s-1.058-1.503-.302-1.954c.756-.45 1.512 0 1.966-.751.453-.752 0-1.202.15-2.104.152-.902.909-1.053 1.664-1.203.755-.15 2.873-.451 3.175.3l-.907-2.705-1.815-.601-5.745 3.307-.302 1.653v3.307m-13.758 5.712a514.24 514.24 0 0 0-.588-7.032c-.32-3.5.846-2.889 3.897-2.889.466 0 2.869.552 3.04.902.825 1.674-1.378 1.302.951 2.565 1.965 1.065 5.438-.647 4.644-3.016-.445-.527-2.316-.164-2.987-.51l-3.543-1.826c-1.502-.776-4.975-1.905-6.578-.822-4.059 2.745.257 9.603 1.705 12.467"/><path fill="#231F20" fill-rule="nonzero" d="M77.262 34.122c-4.12-.954-6.167 1.715-7.416 4.482-1.116-.268-.672-1.776-.39-2.545.737-2.016 3.71-4.7 6.138-4.337 1.045.157 2.46 1.107 1.668 2.4m20.078 4.666l.195.007c.93 1.923 1.737 3.96 2.91 5.659-.786 1.822-5.957 3.434-5.878.162 1.118-.486 3.05-.099 4.04-.72-.572-1.564-1.4-2.896-1.268-5.108m-17.967.05c.884 1.61 1.171 3.302 2.427 4.519.566.548 1.665 1.216 1.12 2.74-.127.359-1.058 1.16-1.596 1.318-1.964.575-6.538.119-4.99-2.316 1.625.076 3.807 1.049 5.02-.123-.93-1.481-2.592-4.412-1.98-6.138m17.229 16.366c-2.956 1.889-6.252 3.941-11.096 3.465-1.035-.895-1.43-2.885-.424-4.2.523.894.194 2.54 1.653 2.787 2.748.468 5.947-1.671 7.925-2.42 1.225-2.054-.107-2.81-1.21-4.133-2.261-2.71-5.295-6.068-5.184-10.125.914-.659.992 1.006 1.123 1.309 1.181 2.747 4.152 6.26 6.32 8.612.533.579 1.41 1.134 1.507 1.517.281 1.114-.731 2.448-.614 3.188M57.63 53.216c-.926-.525-1.147-2.842-2.235-2.907-1.554-.095-1.27 3.004-1.265 4.816-1.07-.966-1.258-3.94-.472-5.467-.896-.437-1.296.482-1.793.807.639-4.613 6.788-2.14 5.765 2.751m40.854 3.909c-1.376 2.604-3.322 5.472-7.36 5.556-.082-.841-.145-2.121.004-2.628 3.087-.294 4.993-1.856 7.356-2.928M79.14 58.813c2.575 1.347 7.308 1.492 10.808 1.39.188.762.183 1.704.19 2.634-4.499.223-9.819-.884-10.999-4.024m-.489 2.511c1.78 4.446 7.902 3.934 13.063 3.812-.227.577-.72 1.259-1.332 1.505-1.654.67-6.216 1.177-8.513-.035-1.456-.77-2.391-2.51-3.19-3.529-.384-.492-2.303-1.75-.028-1.753"/><path fill="#81B0C4" fill-rule="nonzero" d="M96.387 85.847c-2.09 3.56-4.089 7.215-6.569 10.354 1.04-3.04 1.484-8.126 1.641-12.003 2.175-1.012 4.037.228 4.928 1.65"/><path fill="#231F20" fill-rule="nonzero" d="M107.633 98.639c-2.34.466-3.984 2.727-6.266 2.581 1.254-1.758 3.452-2.5 6.266-2.581m1.032 3.641c-1.907.2-4.147.507-6.081.349.916-1.391 4.444-.911 6.081-.35m.661 3.14c-2.143.046-4.807.004-6.844-.166 1.204-1.287 5.454-.478 6.844.166"/><path fill="#DCD9D8" fill-rule="nonzero" d="M92.354 114.009c.307 2.676 1.374 5.388 1.241 8.32-1.185.396-1.866.744-3.454.742-.112-2.491-.447-6.3-.347-8.674.781.051 1.933-.555 2.56-.388"/><path fill="#F0D6B7" fill-rule="nonzero" d="M88.899 74.564c-1.077.698-1.993 1.571-3.027 2.317-2.292.113-3.543-.158-5.227-1.467.028-.105.197-.058.203-.187 2.454 1.087 5.573-.443 8.05-.663"/><path fill="#81B0C4" fill-rule="nonzero" d="M76.018 91.194c.674-2.905 3.316-4.41 5.714-6.009 2.476 3.124 3.982 7.142 5.64 11.02-3.918-1.175-7.92-3.08-11.354-5.011"/><path fill="#231F20" fill-rule="nonzero" d="M89.794 114.397c-.1 2.375.235 6.183.347 8.674 1.589.002 2.269-.345 3.455-.743.133-2.931-.934-5.643-1.241-8.32-.628-.166-1.78.44-2.56.389zM65.07 100.892c1.047 9.57 2.564 17.615 5.345 26.09 6.174 1.864 13.615 2.026 19.072.344-1.001-4.783-.564-10.606-1.15-15.711-.441-3.837-.216-7.697-.82-11.61-6.613-1.368-15.958-.32-22.447.887zm24.01-.827c-.057 4.11.184 8.164.5 12.28 1.587-.237 2.664-.395 4.139-.717-.479-3.962-.42-8.42-1.396-11.925-1.127.01-2.12-.013-3.244.362zm8.052-.663c-.753-.171-1.63-.007-2.35.007.338 3.35 1.159 7.049 1.448 10.566 1.132.034 1.737-.497 2.669-.676.05-3.087-.272-7.34-1.767-9.897zm12.193 11.077c2.36-.57 3.844-3.445 3.185-6.397-.444-1.985-1.233-5.72-2.077-6.99-.624-.938-2.316-2.168-3.668-1.308-2.197 1.4-6.07 1.806-7.672 3.5.804 2.66 1.053 6.315 1.385 9.686 2.745.17 6.123-.751 8.407.227-1.594.513-3.663.517-5.04 1.265 1.126.54 3.761.432 5.48.017zM87.372 96.205c-1.658-3.878-3.164-7.896-5.64-11.02-2.398 1.6-5.04 3.104-5.714 6.009 3.433 1.931 7.436 3.836 11.354 5.01zm4.087-12.007c-.157 3.878-.601 8.964-1.64 12.003 2.479-3.139 4.478-6.794 6.568-10.353-.89-1.422-2.753-2.662-4.928-1.65zm-4.633-1.637c-.94-.1-1.737 1.074-2.958.566-.28.308-.534.641-.82.942 2.698 3.232 3.924 7.818 6.008 11.617 1.118-3.649.989-7.647 1.235-11.63-1.536.097-2.388-1.381-3.465-1.495zm-2.98-3.91c-.1 1.108.16 1.47.384 2.74 3.66 1.137 3.02-4.996-.383-2.74zm-4.058-1.324c-1.577-.857-3.947-1.79-5.984-2.176-2.524-.481-2.288 3.424-2.18 5.753.084 1.845 1.048 3.795 1.468 5.02.196.572.24 1.18.732 1.293.87.201 3.738-.939 4.556-1.382 1.728-.937 3.07-2.425 4.537-3.425l.058-1.458c-.883-.437-1.903-.748-3.199-.804.88-.44 2.172-.433 2.973-.957l.023-.582c-1.463-.11-2.02-.758-2.984-1.282zm-15.064-2.72c-1.309 1.32 3.671 3.121 5.257 3.219-.009-.837.48-1.625.381-2.224-1.883-.33-4.358-.112-5.638-.996zm16.124.62c-.006.129-.175.082-.203.187 1.684 1.309 2.935 1.58 5.227 1.466 1.034-.745 1.95-1.618 3.027-2.317-2.478.221-5.597 1.751-8.05.664zm14.8 4.462c-.07-1.468-.458-4.486-1.37-5.015-1.916-1.112-5.32 2.245-6.763 2.757.157.449.416.804.436 1.379.853-.209 1.892-.066 2.63.295-.854.095-1.802.09-2.368.494-.207.595.051 1.407-.087 2.235 2.03.569 4.347.872 6.913.946.498-.645.668-1.874.61-3.091zm-33.127-3.805c-.411-.291-3.192-3.888-3.572-3.739-5.032 1.973-9.736 5.385-13.94 8.61 4.008 8.552 5.626 19.03 5.912 29.128 4.591 2.135 8.625 5.213 14.855 5.534-.72-5.072-1.38-9.597-1.788-14.372-1.566-.657-3.812.03-5.277-.204-.012-1.755 2.238-.77 2.425-1.95.141-.892-1.238-.96-.789-2.366 1.146.414 1.747 1.328 2.968 1.672 1.117-2.428-.015-6.724.146-8.753.03-.381.191-2.11 1.05-1.807.759.268-.044 4.6.039 6.52.076 1.77-.215 3.482.506 4.593a173.018 173.018 0 0 1 18.654-1.52c-1.433-.61-3.136-1.19-5.003-2.235-1.012-.567-4.202-1.748-4.494-2.703-.466-1.523 1.222-2.334 1.511-3.64-3.039 1.648-3.632-1.58-4.351-3.866-.651-2.07-1.022-3.618-1.182-4.813-2.618-1.24-5.417-2.497-7.67-4.089zm30.468-3.304c4.192-2.02 4.948 7.554 3.305 10.638.253.92 1.127 1.272 1.484 2.1-2.34 4.167-4.938 8.056-7.325 12.173 1.776-1.099 4.312-.197 6.401-1.019.764-.3 1.317-2.038 1.895-3.429 1.59-3.826 3.26-8.65 4.004-12.301.167-.832.625-2.645.522-3.385-.183-1.326-1.992-2.31-2.912-3.13-1.695-1.513-2.763-2.845-4.531-4.261-.718 1.051-2.256 1.758-2.843 2.614zM52.933 35.617c-1.997 2.185-1.58 6.28-1.337 9.193 3.61-2.258 8.403.178 8.357 4.02 1.724-.046.644-2.141.333-3.49-1.02-4.41 1.716-9.199.124-13.23-3.093.234-5.633 1.49-7.477 3.507zm14.293-12.683c-4.521 1.275-10.317 4.542-12.175 8.58 1.439-.207 2.437-.929 3.857-1.018.536-.035 1.239.223 1.855.071 1.229-.303 2.266-3.042 3.193-4.06.903-.996 1.99-1.421 2.733-2.329.477-.229 1.183-.213 1.21-.926-.207-.22-.425-.388-.673-.318zm23.54 1.199c-4.693-2.633-12.638-4.613-17.63-2.139-4.03 1.998-9.475 5.302-11.332 9.49 1.735 4.04-.514 7.743-.657 11.845-.076 2.183 1.034 4.09 1.119 6.466-.594.973-2.407 1.093-3.662 1.026-.423-2.102-1.162-4.465-3.34-4.702-3.08-.335-5.333 2.2-5.473 4.85-.166 3.115 2.406 8.279 6.052 7.92 1.409-.138 1.755-1.542 3.29-1.527.83 1.65-1.284 2.168-1.501 3.348-.057.305.175 1.496.31 2.055.662 2.72 2.138 6.241 3.591 8.313 1.845 2.627 5.468 3.023 9.367 3.28.696-1.491 3.26-1.368 4.932-.978-2.003-.789-3.865-2.7-5.408-4.393-1.773-1.942-3.568-4.025-3.659-6.562 3.35 4.62 6.117 8.655 12.208 10.687 4.609 1.538 9.991-.704 13.532-3.177 1.47-1.027 2.347-2.658 3.391-4.15 3.908-5.59 5.732-13.568 5.331-21.3-.165-3.19-.158-6.368-1.234-8.513-1.125-2.244-4.929-4.25-7.156-2.221-.412-2.182 1.852-3.532 4.512-2.746-1.896-2.435-3.887-5.36-6.583-6.872zm8.745 71.955c3.668-1.813 10.52-4.88 12.82.007.849 1.802 1.844 4.846 2.284 6.705.62 2.623-.673 8.137-3.385 9.017-2.395.777-5.19.73-8.075.154-.34-.281-.718-.77-.982-1.281-2.06-.08-3.989.11-5.616.952.154 1.514-.876 1.757-1.843 2.07-.716 2.823 1.433 6.51.919 9.085-.367 1.834-2.637 2.117-4.305 2.46-.054 1.02.073 1.87.187 2.733-.381 1.397-2.092 2.193-3.713 2.387-5.333.637-13.431.924-18.56-.91-1.432-3.492-2.56-7.738-3.752-11.724-5.003.531-9.05-2.147-12.864-3.9-1.321-.61-3.148-.945-3.641-1.99-.479-1.013-.284-2.952-.402-4.784-.302-4.68-.56-9.193-1.804-13.984-.557-2.15-1.53-4.048-2.209-6.12-.627-1.92-1.722-4.292-2.009-6.207-.423-2.838 2.264-2.996 3.983-4.225 2.656-1.902 4.742-2.954 7.619-4.67.852-.508 3.421-1.795 3.714-2.387.58-1.175-.998-2.831-1.42-3.752-.668-1.456-1.015-2.693-1.111-4.13-2.414-.38-4.243-1.807-5.348-3.418-1.829-2.664-3.097-7.595-1.515-11.346.124-.295.743-.876.834-1.33.18-.893-.338-2.08-.37-3.031-.167-4.874.829-9.074 4.13-10.545 1.34-5.307 6.135-7.071 10.653-9.709 1.689-.986 3.55-1.616 5.474-2.32 6.897-2.523 17.48-2.048 23.204 2.257 2.428 1.825 6.308 5.68 7.695 8.47 3.666 7.367 3.406 19.679.842 28.64-.345 1.204-.845 2.972-1.543 4.418-.486 1.009-1.999 3.028-1.815 3.92.189.92 3.449 3.381 4.147 4.051 1.259 1.207 3.65 2.81 3.844 4.333.208 1.621-.719 3.839-1.189 5.404-1.568 5.22-3.099 10.046-4.878 14.7z"/><path fill="#F7E4CD" fill-rule="nonzero" d="M75.041 59.95c.2-.263 1.293-.663 2.824.07 0 0-1.814.3-1.663 3.308l-.756-.15s-.782-2.727-.405-3.227"/><path fill="#1D1919" fill-rule="nonzero" d="M88.296 85.8a.829.829 0 0 1-.83.826.829.829 0 0 1-.832-.827.83.83 0 0 1 .831-.827.83.83 0 0 1 .831.827m.832 3.833a.83.83 0 0 1-.832.827.829.829 0 0 1-.831-.827.83.83 0 0 1 .831-.827c.46 0 .832.37.832.827"/></g></svg>