<svg xmlns="http://www.w3.org/2000/svg" xmlns:xlink="http://www.w3.org/1999/xlink" style="background:#FFF" viewBox="0 0 150 150"><defs><path id="a" d="M16.612 108.472H.052V.1h16.56v108.373z"/></defs><g fill="none" fill-rule="evenodd"><g transform="translate(67.861 28.278)"><mask id="b" fill="#fff"><use xlink:href="#a"/></mask><path fill="#7C7B4D" d="M1.432 89.366c6.079 1.178 5.654 18.005 5.654 18.005l3.331 1.101s-.676-8.782.267-13.028c.943-4.243 5.928-6.742 5.928-6.742-14.564-197.412-19.19-3.974-15.18.664" mask="url(#b)"/></g><path fill="#23A62C" d="M102 61.629c-6.347-28.597-21.332-37.998-22.942-41.587C77.285 17.502 75.5 13 75.5 13l1.196 79.68s-2.475 24.33 3.763 27.264c0 0 28.131-18.953 21.54-58.315"/><path fill="#5CC33F" d="M76.885 72.948c-.18-5.895.102-56.33-1.594-59.948-.187 2.527-.287 3.515-2.706 6.077-3.742 2.902-22.955 18.897-24.52 51.428-1.565 32.53 25.637 50.967 25.637 50.967 1.904-4.332 3.88-25.577 3.183-48.524"/></g></svg>