<svg xmlns="http://www.w3.org/2000/svg" style="background:#FF8A00" viewBox="0 0 150 150"><path fill="#FFF" fill-rule="evenodd" d="M111.216 98.473c-4.626-.118-8.209.35-11.214 1.641-.867.352-2.252.352-2.37 1.467.465.468.52 1.23.928 1.878.692 1.173 1.903 2.753 3.003 3.578 1.214.938 2.428 1.873 3.702 2.694 2.252 1.413 4.796 2.23 6.99 3.639 1.275.82 2.542 1.875 3.818 2.757.634.47 1.035 1.233 1.848 1.522v-.176c-.408-.527-.522-1.29-.924-1.879-.577-.582-1.156-1.114-1.735-1.698-1.677-2.287-3.76-4.28-6.01-5.92-1.85-1.295-5.9-3.055-6.648-5.218l-.117-.12c1.272-.119 2.778-.589 3.99-.945 1.963-.526 3.755-.407 5.778-.933.926-.237 1.85-.532 2.78-.82v-.531c-1.047-1.054-1.795-2.464-2.893-3.46-2.945-2.58-6.186-5.1-9.538-7.214-1.794-1.173-4.106-1.933-6.014-2.933-.69-.352-1.845-.526-2.251-1.115-1.041-1.29-1.622-2.989-2.371-4.516-1.675-3.222-3.296-6.799-4.739-10.206-1.04-2.285-1.676-4.571-2.948-6.684-5.956-9.972-12.427-16.01-22.369-21.935-2.139-1.234-4.682-1.76-7.396-2.406-1.447-.061-2.891-.175-4.336-.233-.926-.412-1.853-1.527-2.66-2.055-3.296-2.11-11.79-6.684-14.218-.644-1.561 3.814 2.311 7.566 3.641 9.502.982 1.347 2.256 2.875 2.946 4.398.405.997.521 2.055.927 3.109.924 2.58 1.79 5.454 3.006 7.86.634 1.232 1.327 2.524 2.136 3.633.466.65 1.273.939 1.447 1.998-.806 1.172-.87 2.93-1.331 4.398-2.08 6.628-1.272 14.839 1.677 19.706.922 1.466 3.122 4.693 6.07 3.459 2.6-1.054 2.023-4.398 2.773-7.329.173-.708.057-1.173.403-1.641v.119c.809 1.639 1.62 3.219 2.371 4.866 1.795 2.87 4.913 5.863 7.516 7.855 1.383 1.06 2.482 2.875 4.216 3.522v-.177h-.113c-.349-.526-.867-.763-1.33-1.172-1.04-1.056-2.194-2.347-3.006-3.518-2.427-3.284-4.568-6.923-6.472-10.676-.927-1.822-1.735-3.814-2.487-5.631-.346-.701-.346-1.76-.925-2.11-.87 1.289-2.137 2.404-2.772 3.983-1.1 2.525-1.214 5.633-1.622 8.86-.23.061-.113 0-.23.116-1.847-.469-2.483-2.403-3.178-4.041-1.734-4.17-2.026-10.855-.52-15.664.402-1.23 2.141-5.1 1.445-6.274-.35-1.119-1.504-1.758-2.14-2.641-.749-1.114-1.563-2.519-2.078-3.753-1.388-3.283-2.086-6.921-3.584-10.205-.694-1.527-1.91-3.111-2.89-4.516-1.1-1.584-2.313-2.698-3.18-4.573-.287-.646-.692-1.703-.232-2.404.114-.47.349-.647.812-.766.747-.644 2.888.175 3.638.528 2.14.877 3.932 1.703 5.722 2.932.81.588 1.677 1.702 2.715 1.997h1.217c1.848.408 3.93.114 5.666.645 3.061.996 5.835 2.462 8.322 4.046 7.57 4.868 13.812 11.79 18.03 20.059.695 1.347.986 2.58 1.621 3.985 1.214 2.88 2.718 5.812 3.93 8.624 1.213 2.757 2.37 5.57 4.107 7.86.865 1.23 4.334 1.875 5.895 2.52 1.153.527 2.948.997 3.989 1.641 1.965 1.23 3.926 2.64 5.778 3.991.923.703 3.814 2.168 3.988 3.344"/></svg>