<svg xmlns="http://www.w3.org/2000/svg" style="background:#FFF" viewBox="0 0 150 150"><g fill="none"><path fill="#008CC1" d="M121.15 69.427c0 26.83-21.748 48.577-48.577 48.577C45.743 118.004 24 96.261 24 69.427c0-26.825 21.748-48.573 48.577-48.573 26.83-.023 48.573 21.743 48.573 48.573z"/><path fill="#66B245" d="M125.268 57.851c0 14.3-11.59 25.89-25.889 25.89-14.3 0-25.89-11.59-25.89-25.89s11.595-25.89 25.895-25.89c14.294 0 25.884 11.59 25.884 25.89zM63.915 89.456c-11.696 0-21.183 9.482-21.183 21.183 0 11.696 9.482 21.183 21.183 21.183 11.696 0 21.183-9.482 21.183-21.183 0-11.7-9.487-21.183-21.183-21.183zM60.6 31.818c0-7.8-6.323-14.119-14.12-14.119-7.8 0-14.118 6.323-14.118 14.12 0 7.795 6.323 14.118 14.119 14.118 7.796 0 14.119-6.318 14.119-14.119z"/><path fill="#FFF" d="M37.767 53.497a3.887 3.887 0 0 1 3.882-3.882 3.87 3.87 0 0 1 3.881 3.859v.023a3.887 3.887 0 0 1-3.881 3.881 3.887 3.887 0 0 1-3.882-3.881zm12.238 28.196a3.887 3.887 0 0 0-3.882 3.881 3.887 3.887 0 0 0 3.882 3.882 3.887 3.887 0 0 0 3.882-3.882c0-2.167-1.742-3.91-3.882-3.881zm17.959-49.097a3.887 3.887 0 0 0 3.882-3.881 3.887 3.887 0 0 0-3.882-3.882 3.88 3.88 0 1 0 0 7.763zm10.214 3.576a3.887 3.887 0 0 0 3.881-3.881 3.887 3.887 0 0 0-3.881-3.882 3.887 3.887 0 0 0-3.882 3.882 3.878 3.878 0 0 0 3.882 3.881zM46.193 64.155v-.023a3.867 3.867 0 0 0-3.882-3.858 3.887 3.887 0 0 0-3.882 3.881 3.887 3.887 0 0 0 3.882 3.882 3.884 3.884 0 0 0 3.882-3.882zm52.459 23.323a3.887 3.887 0 0 0-3.882 3.882 3.887 3.887 0 0 0 3.882 3.882 3.887 3.887 0 0 0 3.882-3.882 3.887 3.887 0 0 0-3.882-3.882zM48.569 75.453c0-2.168-1.742-3.905-3.882-3.882a3.887 3.887 0 0 0-3.882 3.882 3.88 3.88 0 1 0 7.763 0zm43.023 20.382a3.887 3.887 0 0 0-3.881 3.881 3.887 3.887 0 0 0 3.881 3.882 3.887 3.887 0 0 0 3.882-3.882 3.887 3.887 0 0 0-3.882-3.881zm34.37-37.984c0 14.656-11.922 26.58-26.578 26.58-14.656 0-26.584-11.924-26.584-26.58 0-14.656 11.923-26.58 26.584-26.58 14.656-.004 26.579 11.92 26.579 26.58zm-1.384 0c0-13.892-11.303-25.194-25.194-25.194-13.892 0-25.195 11.302-25.195 25.194s11.303 25.194 25.195 25.194c13.891 0 25.194-11.302 25.194-25.194zm-38.79 52.788c0 12.062-9.81 21.873-21.873 21.873-12.062 0-21.873-9.81-21.873-21.873 0-12.062 9.811-21.873 21.873-21.873 12.062-.005 21.873 9.81 21.873 21.873zm-1.385 0c0-11.298-9.19-20.488-20.488-20.488s-20.488 9.19-20.488 20.488 9.19 20.488 20.488 20.488 20.488-9.19 20.488-20.488zM46.475 46.637c-8.166 0-14.813-6.648-14.813-14.814 0-8.167 6.647-14.818 14.813-14.818 8.167 0 14.814 6.647 14.814 14.813 0 8.167-6.643 14.819-14.814 14.819zm0-1.39c7.402 0 13.429-6.022 13.429-13.429 0-7.402-6.022-13.428-13.429-13.428-7.402 0-13.428 6.021-13.428 13.428 0 7.407 6.026 13.429 13.428 13.429z"/></g></svg>