<svg xmlns="http://www.w3.org/2000/svg" style="background:#00AB00" viewBox="0 0 150 150"><g fill="none" fill-rule="evenodd"><path fill="#FFF" d="M77.015 26.176l38.858 22.666a4 4 0 0 1 1.984 3.455v45.406a4 4 0 0 1-1.984 3.455l-38.858 22.666a4 4 0 0 1-4.03 0l-38.858-22.666a4 4 0 0 1-1.984-3.455V52.297a4 4 0 0 1 1.984-3.455l38.858-22.666a4 4 0 0 1 4.03 0z"/><path fill="#090" d="M94.657 99.46c-1.485 0-2.762-.504-3.603-1.2L61.029 68.235v26.422c.375 2.57-1.86 4.804-4.804 4.804-2.567 0-4.803-2.234-4.803-4.804V56.225c0-1.831 1.217-3.65 3.603-4.803 1.344-.394 3.491.034 4.803 1.2l30.025 30.025V56.225c-.374-2.568 1.86-4.802 4.804-4.803 2.57.001 4.804 2.235 4.804 4.803v38.432c-.002 2.569-2.235 4.802-4.804 4.804"/></g></svg>