<svg xmlns="http://www.w3.org/2000/svg" style="background:#75C122" viewBox="0 0 150 150"><path fill="#FFF" fill-rule="evenodd" d="M81.8 58.49c4.733-.306 9.8-.181 14.06 2.172 3.297 1.802 5.125 5.587 5.183 9.284-.092.498-.608.773-1.08.74-1.373-.003-2.747.018-4.12-.01-.583.022-.92-.52-.994-1.04-.395-1.768-1.35-3.52-3-4.373-2.533-1.28-5.47-1.215-8.232-1.189-2.016.108-4.184.285-5.892 1.48-1.311.907-1.71 2.737-1.241 4.21.441 1.058 1.651 1.399 2.641 1.714 5.704 1.505 11.748 1.355 17.343 3.336 2.317.808 4.583 2.378 5.376 4.826 1.037 3.28.582 7.2-1.73 9.834-1.876 2.167-4.607 3.346-7.332 3.987-3.624.815-7.385.836-11.066.474-3.46-.399-7.062-1.316-9.734-3.695-2.285-2.003-3.4-5.121-3.29-8.132.027-.508.528-.863 1.011-.82 1.383-.012 2.766-.016 4.148.001.553-.04.962.442.99.967.256 1.685.884 3.454 2.34 4.453 2.81 1.83 6.337 1.705 9.555 1.756 2.666-.12 5.66-.155 7.835-1.934 1.148-1.014 1.488-2.711 1.178-4.17-.336-1.233-1.614-1.807-2.711-2.183-5.63-1.797-11.743-1.145-17.319-3.178-2.264-.807-4.453-2.333-5.322-4.68-1.214-3.322-.658-7.43 1.897-9.975 2.491-2.531 6.087-3.505 9.507-3.854M71.39 31.943c2.186-1.255 5.033-1.26 7.218 0 10.987 6.228 21.98 12.445 32.965 18.676 2.066 1.168 3.448 3.474 3.428 5.862v37.466c.015 2.487-1.504 4.848-3.684 5.989-10.952 6.193-21.898 12.394-32.848 18.587-2.231 1.28-5.136 1.18-7.297-.204-3.283-1.909-6.572-3.809-9.856-5.716-.67-.4-1.427-.72-1.901-1.373.419-.566 1.167-.636 1.776-.884 1.37-.437 2.63-1.138 3.888-1.82.319-.218.707-.134 1.013.062 2.807 1.614 5.59 3.276 8.408 4.875.6.348 1.209-.114 1.723-.401 10.747-6.093 21.507-12.162 32.252-18.256a1.07 1.07 0 0 0 .586-1.053c.007-12.36.002-24.72.004-37.08a1.16 1.16 0 0 0-.688-1.156C97.464 49.353 86.555 43.18 75.643 37.012a1.134 1.134 0 0 0-1.285-.001c-10.912 6.168-21.818 12.348-32.73 18.512-.446.203-.745.652-.692 1.15.002 12.36 0 24.72 0 37.082a1.05 1.05 0 0 0 .593 1.04c2.912 1.656 5.828 3.3 8.742 4.951 1.641.886 3.657 1.413 5.465.734 1.596-.575 2.715-2.207 2.684-3.908.016-12.286-.007-24.575.012-36.86-.04-.546.476-.996 1.004-.945 1.4-.01 2.8-.02 4.2.003.584-.013.986.575.913 1.124-.005 12.365.016 24.73-.009 37.095.004 3.295-1.346 6.881-4.385 8.493-3.744 1.946-8.372 1.533-12.07-.332-3.202-1.603-6.258-3.495-9.403-5.212-2.186-1.135-3.697-3.506-3.682-5.991V56.48c-.022-2.437 1.414-4.786 3.545-5.936 10.95-6.199 21.898-12.401 32.846-18.602"/></svg>