<svg xmlns="http://www.w3.org/2000/svg" style="background:#3A3C5B" viewBox="0 0 150 150"><g fill="none"><path fill="#3A3C5B" d="M125.904 74.904c0 28.114-22.79 50.904-50.904 50.904-28.114 0-50.904-22.79-50.904-50.904C24.096 46.79 46.886 24 75 24c28.114 0 50.904 22.79 50.904 50.904"/><path fill="#FFF" d="M110.46 78.67c-1.714-10.824-13.069-17.834-21.524-23.121-3.693-2.31-9.682-5.319-10.456-10.176-.32-2.008-.308-4.082-.375-6.108-.027-.797-.04-1.597-.11-2.391-.092-1.024-1.135.238-1.706-.656-1.416-2.212-.87.671-.732 1.834.328 2.738.712 5.466.69 8.229-.042 5.28-.893 10.334-2.21 15.421-3.082 11.913-5.514 24.119-2.464 36.31.632 2.525 1.454 5.017 2.535 7.388.327.717.952 2.718 1.851 2.958 3.238.863 5.686 1.114 8.272 3.522 1.605 1.495 2.809.678 4.708-.082 5.752-2.301 10.737-5.198 14.812-9.939 5.73-6.663 8.093-14.463 6.71-23.19m-6.083 10.897c-.51 4.452-3.303 8.44-6.154 11.745-2.067 2.396-4.863 5.506-7.928 6.598-1.103.392.202-1.815.364-2.058.948-1.426 2.118-2.685 3.203-4.005 1.606-1.951 2.996-4 3.937-6.364 3.12-7.844 2.411-17.352-2.207-24.42-2.514-3.847-5.966-7.099-9.444-10.066-1.68-1.433-3.381-2.789-4.796-4.504-.327-.396-3.215-4.177-2.317-4.737.29-.18 6.603 6.46 7.29 6.979 2.61 1.97 5.296 3.794 7.713 6.013 3.271 3.006 6.63 6.363 8.505 10.45 2.054 4.478 2.388 9.527 1.834 14.37"/><path fill="#FFF" d="M73.125 25.372c.948.632 1.158 4.317 1.158 7.687s.316 17.902-.737 21.798c-1.053 3.896-3.475 8.214-6.108 12.005-2.632 3.79-5.686 11.794-5.58 16.742.105 4.95 2.948 13.058 5.16 16.428 2.219 3.383 5.987 8.097 5.16 9.162-1.475 1.895-7.477-4.634-10.636-8.424-3.16-3.791-6.319-11.48-6.424-17.48-.105-6.003 3.264-11.585 5.686-14.954 2.423-3.37 7.161-9.162 8.425-11.794 1.263-2.632 2.633-5.476 3.054-9.162.42-3.685 0-16.848 0-16.848s-.106-5.792.842-5.16"/><path fill="#FFF" d="M70.598 31.585c.947.421 1.053 1.58 1.053 2.738s-.316 5.897-.632 10.53c-.316 4.633-4.001 8.53-6.74 11.267-2.737 2.739-10.635 11.268-13.584 15.48-2.948 4.212-4.418 9.76-4.106 14.427.315 4.738 1.474 9.372 5.896 14.321 4.423 4.95 7.477 7.266 9.794 8.425 2.317 1.157 4.634 2 4.107 3.053-.527 1.053-2.739.316-5.16-.526-2.422-.843-10.636-4.212-15.375-9.582-4.738-5.371-7.16-12.532-6.95-19.377.21-6.845 2.107-9.688 5.266-14.11 3.159-4.423 11.899-10.952 14.637-12.636 2.738-1.686 6.423-4.529 8.214-6.846 1.79-2.316 2.737-4.212 2.632-7.37-.105-3.16.211-6.003.105-7.056-.105-1.053-.105-3.16.843-2.738m.263 82.543c.429-.017.158 1.838-.598 2.759-.756.92-2.055 1.474-2.213 1.104-.158-.37.938-.584 1.743-1.48.739-.822.543-2.362 1.068-2.383m8.523-.05c-.428-.017-.157 1.839.599 2.76.756.92 2.055 1.474 2.212 1.104.159-.37-.938-.584-1.742-1.48-.74-.822-.544-2.363-1.069-2.383m-3.788 2.013c0 1.62.082 2.934-.271 2.934-.436 0-.272-1.313-.272-2.934 0-1.62-.147-2.934.271-2.934.387 0 .271 1.314.271 2.934"/></g></svg>