<svg xmlns="http://www.w3.org/2000/svg" style="background:#557FCC" viewBox="0 0 150 150"><g fill="none" fill-rule="evenodd"><path fill="#FFF" d="M74.996 46.667C44.623 46.667 20 59.546 20 75.432c0 15.887 24.623 28.766 54.996 28.766s54.996-12.879 54.996-28.766c0-15.886-24.623-28.765-54.996-28.765"/><path fill="#5675AE" d="M36.739 91.54h6.315l1.498-7.664h5.41c2.387 0 4.35-.248 5.892-.748 1.541-.498 2.942-1.334 4.203-2.507a12.879 12.879 0 0 0 2.57-3.201 12.856 12.856 0 0 0 1.396-3.861c.668-3.417.164-6.079-1.511-7.986-1.675-1.906-4.34-2.86-7.994-2.86H42.373L36.74 91.542zm15.387-24.277c2.4 0 3.999.44 4.798 1.32.8.881.99 2.393.572 4.536-.437 2.231-1.278 3.823-2.524 4.778-1.247.954-3.143 1.43-5.69 1.43h-3.84l2.357-12.064h4.327zM68.662 55.05h6.265l-1.498 7.663h5.582c3.513 0 5.935.61 7.269 1.828 1.333 1.218 1.732 3.192 1.2 5.92l-2.622 13.415h-6.366l2.493-12.754c.284-1.451.18-2.441-.313-2.969-.493-.527-1.54-.792-3.144-.792H72.52l-3.227 16.515h-6.266l5.635-28.827zm17.371 36.49h6.315l1.498-7.664h5.41c2.387 0 4.35-.248 5.892-.748 1.542-.498 2.943-1.334 4.204-2.507a12.879 12.879 0 0 0 2.57-3.201 12.85 12.85 0 0 0 1.396-3.861c.668-3.417.164-6.079-1.512-7.986-1.675-1.906-4.34-2.86-7.993-2.86H91.668l-5.635 28.828zm15.388-24.277c2.4 0 3.998.44 4.798 1.32.799.881.989 2.393.57 4.536-.436 2.231-1.276 3.823-2.523 4.778-1.246.954-3.143 1.43-5.689 1.43h-3.842l2.358-12.064h4.328z"/></g></svg>