<svg xmlns="http://www.w3.org/2000/svg" xmlns:xlink="http://www.w3.org/1999/xlink" style="background:#2D72AA" viewBox="0 0 150 150"><defs><path id="a" d="M95.992.146V99.11H0V.146z"/></defs><g fill="none" fill-rule="evenodd"><g transform="translate(27 31.076)"><mask id="b" fill="#fff"><use xlink:href="#a"/></mask><path fill="#000" d="M95.738 59.428c-.577-1.747-2.089-2.964-4.043-3.256-.921-.138-1.977-.08-3.226.178-2.177.45-3.792.62-4.97.653 4.448-7.511 8.066-16.078 10.148-24.141 3.368-13.038 1.568-18.978-.534-21.665C87.547 4.086 79.427.265 69.63.149c-5.228-.062-9.813.968-12.206 1.71-2.228-.394-4.624-.613-7.138-.654-4.712-.075-8.876.952-12.433 3.063a56.758 56.758 0 0 0-8.781-2.204C20.487.654 13.568 1.754 8.506 5.33 2.377 9.658-.464 17.179.062 27.685c.166 3.336 2.032 13.484 4.97 23.109 1.689 5.531 3.489 10.126 5.351 13.655 2.642 5.004 5.468 7.952 8.64 9.01 1.78.593 5.01 1.008 8.408-1.822.43.52 1.005 1.04 1.768 1.52a11.76 11.76 0 0 0 3.335 1.406c4.263 1.066 8.256.8 11.663-.694.02.606.037 1.185.05 1.684.023.811.046 1.606.075 2.35.202 5.027.544 8.935 1.557 11.67.056.15.13.38.21.623.505 1.548 1.35 4.139 3.501 6.168 2.227 2.102 4.921 2.747 7.389 2.747 1.237 0 2.418-.162 3.453-.384 3.691-.791 7.883-1.997 10.916-6.314 2.867-4.082 4.26-10.23 4.513-19.918l.092-.784.06-.512.674.06.175.01c3.76.172 8.357-.625 11.18-1.936 2.23-1.036 9.379-4.81 7.696-9.905" mask="url(#b)"/></g><path fill="#336791" d="M116.31 91.495c-11.179 2.306-11.947-1.478-11.947-1.478 11.802-17.513 16.736-39.743 12.478-45.184-11.615-14.841-31.722-7.822-32.058-7.64l-.108.02c-2.209-.46-4.68-.732-7.458-.778-5.058-.082-8.894 1.326-11.806 3.534 0 0-35.869-14.776-34.2 18.585.354 7.097 10.172 53.701 21.882 39.625a216.11 216.11 0 0 1 8.415-9.5c2.054 1.364 4.513 2.06 7.09 1.81l.201-.17c-.062.64-.034 1.265.08 2.005-3.017 3.37-2.13 3.962-8.16 5.203-6.103 1.258-2.518 3.497-.177 4.082 2.837.71 9.401 1.715 13.837-4.494l-.177.708c1.182.947 2.012 6.158 1.872 10.882-.139 4.724-.232 7.968.7 10.5.931 2.534 1.86 8.234 9.787 6.536 6.624-1.42 10.057-5.099 10.534-11.235.34-4.362 1.106-3.717 1.155-7.617l.615-1.847c.709-5.913.113-7.821 4.193-6.934l.992.087c3.004.137 6.935-.483 9.243-1.556 4.968-2.305 7.915-6.155 3.016-5.144z"/><path fill="#FFF" d="M100.882 61.755c.043.31-.192.786-.598 1.213-.267.28-.829.766-1.594.872-.099.013-.196.02-.293.02-1.147 0-2.115-.916-2.19-1.452-.095-.69 1.031-1.214 2.191-1.375 1.163-.162 2.388.034 2.484.722zm-33.41 3.259c-.104 0-.21-.007-.316-.022-.731-.101-1.47-.562-1.976-1.233-.179-.236-.47-.696-.412-1.111a.872.872 0 0 1 .362-.581c.461-.35 1.374-.48 2.38-.34 1.237.173 2.511.758 2.39 1.636-.099.701-1.208 1.65-2.428 1.65zm45.16 30.232c-1.602.743-4.281 1.3-6.827 1.42-2.812.133-4.242-.315-4.579-.59-.158-3.248 1.051-3.588 2.331-3.947a9.83 9.83 0 0 0 .587-.178c.118.096.246.19.388.284 2.26 1.492 6.29 1.653 11.98.478l.063-.013c-.768.718-2.081 1.681-3.943 2.546zm-14.17.987c-.207 2.617-1.677 14.865-2.424 19.192-.985 5.717-3.09 7.847-9.004 9.115-6.134 1.314-8.304-1.815-9.736-5.392-.923-2.31-1.377-12.724-1.055-24.224a1.381 1.381 0 0 0-.06-.44 5.845 5.845 0 0 0-.171-.813c-.479-1.673-1.646-3.072-3.046-3.653-.556-.23-1.577-.653-2.804-.34.262-1.077.715-2.294 1.207-3.612l.207-.555c.232-.625.523-1.273.832-1.958 1.666-3.702 3.948-8.772 1.471-20.226-.927-4.29-4.026-6.385-8.721-5.899-2.816.292-5.392 1.428-6.676 2.079-.276.14-.53.275-.765.407.358-4.323 1.713-12.4 6.78-17.512 3.191-3.217 7.44-4.806 12.618-4.721 10.201.167 16.743 5.402 20.434 9.765 3.181 3.759 4.904 7.546 5.592 9.588-5.17-.526-8.687.495-10.469 3.043-3.878 5.544 2.122 16.303 5.005 21.473.528.948.985 1.767 1.128 2.115.94 2.276 2.155 3.795 3.043 4.904.272.34.536.67.736.957-1.566.451-4.378 1.494-4.122 6.707zm-25.29-.063c-3.532 4.946-8.678 4.882-12.374 3.956-.76-.19-1.446-.52-1.848-.794.336-.158.933-.373 1.969-.586 5.013-1.032 5.787-1.76 7.478-3.907.387-.492.827-1.05 1.435-1.73h.001c.906-1.015 1.32-.843 2.073-.532.609.253 1.202 1.016 1.443 1.857.114.397.242 1.15-.177 1.736zM60.398 85.88c-2.453-2.559-3.567-6.119-3.057-9.768.715-5.109.45-9.558.309-11.949a74.28 74.28 0 0 1-.048-.859c1.155-1.024 6.509-3.892 10.325-3.017 1.742.4 2.804 1.585 3.245 3.625 2.284 10.563.302 14.966-1.29 18.504-.328.729-.638 1.417-.903 2.13l-.205.552c-.52 1.393-1.003 2.688-1.303 3.918-2.608-.008-5.144-1.122-7.073-3.135zm-8.449 11.275c-2.217 2.665-3.749 2.155-4.253 1.987-3.281-1.095-7.088-8.03-10.446-19.028-2.904-9.516-4.602-19.085-4.736-21.769-.424-8.486 1.633-14.4 6.114-17.579 7.294-5.171 19.285-2.076 24.103-.506-.07.068-.141.132-.21.202-7.906 7.985-7.719 21.627-7.7 22.461 0 .322.027.778.064 1.404.136 2.295.39 6.565-.287 11.402-.629 4.494.756 8.893 3.8 12.068.315.33.644.638.984.928a202.896 202.896 0 0 0-7.433 8.43zm50.96-23.594c.417 3.466.844 7.034-.81 10.554a13.682 13.682 0 0 1-.733-1.507c-.206-.498-.652-1.299-1.27-2.407-2.405-4.313-8.038-14.414-5.154-18.536.858-1.227 3.038-2.488 8.51-1.81-.024 1.372-.213 2.616-.413 3.915-.215 1.397-.437 2.842-.493 4.595-.056 1.707.157 3.48.364 5.196zm-6.09-36.929c8.02.177 14.362 3.177 18.853 8.916 3.445 4.402-.348 24.43-11.329 41.71a57.54 57.54 0 0 0-.472-.594c2.838-4.686 2.283-9.322 1.789-13.433-.203-1.687-.394-3.28-.346-4.776.05-1.587.26-2.948.463-4.263.25-1.621.503-3.299.433-5.276.053-.208.074-.453.046-.744-.178-1.896-2.343-7.571-6.756-12.708-2.413-2.81-5.933-5.953-10.74-8.074 2.068-.428 4.895-.827 8.06-.758zm23.21 54.601c-.426-1.288-1.797-1.704-4.077-1.232-6.768 1.396-9.191.429-9.987-.158 5.26-8.013 9.588-17.7 11.922-26.738 1.106-4.28 1.717-8.256 1.767-11.497.055-3.557-.55-6.17-1.8-7.767-5.038-6.437-12.43-9.89-21.38-9.985-6.153-.06-11.35 1.507-12.359 1.948a30.808 30.808 0 0 0-6.954-.893c-4.62-.073-8.611 1.032-11.917 3.285a53.198 53.198 0 0 0-9.684-2.539c-7.845-1.264-14.08-.306-18.528 2.846-5.309 3.76-7.76 10.483-7.284 19.98.16 3.196 1.98 13.026 4.853 22.44 3.782 12.39 7.893 19.404 12.219 20.846.506.17 1.09.288 1.734.287 1.578 0 3.512-.71 5.525-3.13a199.213 199.213 0 0 1 7.615-8.618 12.26 12.26 0 0 0 5.48 1.474c.003.05.008.1.013.15-.384.454-.698.853-.966 1.193-1.324 1.68-1.6 2.03-5.861 2.908-1.212.25-4.432.913-4.479 3.17-.051 2.465 3.806 3.5 4.245 3.61 1.532.384 3.007.573 4.414.573 3.422 0 6.432-1.124 8.839-3.3-.075 8.79.292 17.451 1.347 20.09.865 2.16 2.976 7.44 9.646 7.44.979 0 2.057-.114 3.242-.368 6.961-1.492 9.984-4.569 11.154-11.352.626-3.625 1.7-12.282 2.204-16.925 1.066.332 2.439.484 3.923.484 3.094 0 6.664-.657 8.903-1.696 2.515-1.168 7.054-4.035 6.231-6.526z"/></g></svg>