<svg xmlns="http://www.w3.org/2000/svg" style="background:#1B71B9" viewBox="0 0 150 150"><g fill="none"><path fill="#FFF" d="M75.284 30.5c-22.936 0-21.504 9.924-21.504 9.924l.026 10.282h21.887v3.087h-30.58s-14.678-1.66-14.678 21.43c0 23.092 12.81 22.273 12.81 22.273h7.646V86.781s-.412-12.782 12.606-12.782h21.709s12.196.197 12.196-11.761V42.466S99.254 30.5 75.284 30.5zm-12.068 6.914c1.044 0 2.046.413 2.785 1.15a3.92 3.92 0 0 1 1.152 2.78 3.92 3.92 0 0 1-1.152 2.778 3.939 3.939 0 0 1-2.785 1.15 3.939 3.939 0 0 1-2.786-1.15 3.92 3.92 0 0 1-1.152-2.779 3.92 3.92 0 0 1 1.152-2.779 3.939 3.939 0 0 1 2.786-1.15z"/><path fill="#FFC331" d="M75.586 120.5c22.937 0 21.505-9.924 21.505-9.924l-.026-10.282H75.177v-3.087h30.581s14.677 1.66 14.677-21.43c0-23.092-12.81-22.273-12.81-22.273H99.98v10.715S100.392 77 87.374 77H65.665s-12.197-.197-12.197 11.761v19.773S51.616 120.5 75.586 120.5zm12.07-6.914a3.939 3.939 0 0 1-2.786-1.15 3.92 3.92 0 0 1-1.152-2.779 3.92 3.92 0 0 1 1.152-2.779 3.939 3.939 0 0 1 2.785-1.15c1.045 0 2.047.413 2.786 1.15a3.92 3.92 0 0 1 1.152 2.78 3.92 3.92 0 0 1-1.152 2.778 3.939 3.939 0 0 1-2.786 1.15z"/></g></svg>