<svg xmlns="http://www.w3.org/2000/svg" style="background:#FF6500" viewBox="0 0 150 150"><path fill="#FFF" d="M111.7 66.846H85.11a2.418 2.418 0 0 1-2.418-2.417V36.717A3.717 3.717 0 0 0 78.977 33h-9.492a3.716 3.716 0 0 0-3.716 3.717v27.545a2.596 2.596 0 0 1-2.584 2.596l-8.714.042a2.597 2.597 0 0 1-2.61-2.602l.054-27.575A3.715 3.715 0 0 0 48.2 33h-9.484A3.716 3.716 0 0 0 35 36.717v77.599c0 1.823 1.477 3.3 3.298 3.3H111.7a3.3 3.3 0 0 0 3.3-3.3v-44.17a3.3 3.3 0 0 0-3.3-3.3zM99.23 95.982a4.326 4.326 0 0 1-4.325 4.326h-7.502a4.326 4.326 0 0 1-4.326-4.326V88.48a4.326 4.326 0 0 1 4.326-4.326h7.502a4.326 4.326 0 0 1 4.326 4.326v7.502z"/></svg>