<svg xmlns="http://www.w3.org/2000/svg" style="background:#D82C20" viewBox="0 0 150 150"><g fill="none" transform="translate(26.468 32.35)"><path fill="#A41E11" d="M94.045 66.289C88.82 69.069 61.762 80.427 56 83.493c-5.76 3.066-8.96 3.036-13.512.815-4.55-2.22-33.346-14.095-38.533-16.626C1.363 66.417 0 65.349 0 64.34v-10.1s37.488-8.333 43.54-10.549c6.053-2.217 8.152-2.297 13.302-.37 5.151 1.925 35.947 7.598 41.038 9.501l-.003 9.957c.001.999-1.173 2.095-3.832 3.509z"/><path fill="#D82C20" d="M94.043 56.321C88.82 59.097 61.76 70.445 56 73.507c-5.76 3.064-8.961 3.034-13.512.815-4.55-2.217-33.345-14.082-38.532-16.61-5.187-2.528-5.296-4.269-.2-6.303 5.095-2.036 33.731-13.495 39.784-15.71 6.052-2.213 8.151-2.294 13.301-.37 5.151 1.925 32.048 12.844 37.138 14.745 5.09 1.903 5.286 3.47.063 6.247z"/><path fill="#A41E11" d="M94.045 50.309C88.82 53.089 61.762 64.446 56 67.513c-5.76 3.066-8.96 3.036-13.512.815-4.55-2.22-33.346-14.096-38.533-16.627C1.363 50.436 0 49.37 0 48.361V38.26s37.488-8.332 43.54-10.549c6.053-2.216 8.152-2.296 13.302-.37 5.151 1.926 35.947 7.597 41.038 9.501l-.003 9.959c.001.998-1.173 2.093-3.832 3.508z"/><path fill="#D82C20" d="M94.043 38.343C88.82 41.12 61.76 52.467 56 55.53c-5.76 3.063-8.961 3.033-13.512.814-4.55-2.217-33.345-14.082-38.532-16.61-5.187-2.528-5.296-4.268-.2-6.304 5.095-2.034 33.731-13.494 39.784-15.708 6.052-2.214 8.151-2.295 13.301-.37 5.151 1.924 32.048 12.842 37.138 14.744 5.09 1.903 5.286 3.47.063 6.247z"/><path fill="#A41E11" d="M94.045 32.33C88.82 35.11 61.762 46.468 56 49.535c-5.76 3.066-8.96 3.036-13.512.815-4.55-2.22-33.346-14.096-38.533-16.627C1.363 32.458 0 31.391 0 30.383V20.281s37.488-8.33 43.54-10.547c6.053-2.217 8.152-2.297 13.302-.37 5.151 1.925 35.947 7.597 41.038 9.5l-.003 9.958c.001.998-1.173 2.093-3.832 3.508z"/><path fill="#D82C20" d="M94.043 22.362C88.82 25.14 61.76 36.487 56 39.55c-5.76 3.063-8.961 3.033-13.512.814-4.55-2.218-33.345-14.082-38.532-16.61-5.187-2.528-5.296-4.269-.2-6.304S37.488 3.956 43.54 1.742c6.052-2.215 8.151-2.295 13.301-.37C61.993 3.296 88.89 14.215 93.98 16.117c5.09 1.901 5.286 3.469.063 6.245z"/><path fill="#FFF" d="M63.921 12.819l-8.747.833-1.959 4.326-3.163-4.827-10.101-.833 7.537-2.496-2.261-3.83 7.056 2.534 6.653-2-1.798 3.961zM51.29 33.958l-15.334-6.527 21.973-3.46z"/><ellipse cx="29.963" cy="20.974" fill="#FFF" rx="11.985" ry="4.994"/><path fill="#7A0C00" d="M73.91 13.983l13.982 4.996-13.97 4.992z"/><path fill="#AD2115" d="M57.929 20.284l15.968-6.301.012 11.374-1.565.611z"/></g></svg>