<svg xmlns="http://www.w3.org/2000/svg" style="background:#204956" viewBox="0 0 150 150"><path fill="#FFF" d="M45.987 109.868v-5.24c0-1.07.534-1.605 1.603-1.605h5.562V47.41H47.59c-1.069 0-1.603-.535-1.603-1.604v-5.349c0-1.069.534-1.603 1.603-1.603 9.127-.429 16.721-.644 22.781-.644 18.538 0 27.807 6.631 27.807 19.893 0 4.635-1.176 8.718-3.53 12.247-2.352 3.53-5.49 6.22-9.412 8.074l12.514 24.6h6.631c1.07 0 1.605.534 1.605 1.603v5.241c0 1.069-.535 1.603-1.604 1.603H90.263c-1.069 0-1.854-.463-2.353-1.39L73.366 81.312h-2.139c-2.282 0-4.314-.107-6.097-.32v22.03h6.738c1.07 0 1.605.536 1.605 1.606v5.24c0 1.069-.535 1.603-1.604 1.603H47.59c-1.068 0-1.603-.534-1.603-1.603v.001zM65.13 47.087v25.775c.572.071 1.391.107 2.46.107 5.776 0 10.268-1.141 13.476-3.423 3.208-2.28 4.813-5.703 4.813-10.267 0-8.128-5.632-12.192-16.899-12.192h-3.85z"/></svg>