<svg xmlns="http://www.w3.org/2000/svg" style="background:#00A4FF" viewBox="0 0 150 150"><g fill="none"><path fill="#C1272D" d="M125.98 74.552c0-5.12-1.532-10.03-4.554-14.595-2.713-4.097-6.515-7.724-11.298-10.78-9.236-5.9-21.375-9.15-34.178-9.15-4.277 0-8.493.362-12.582 1.078a41.629 41.629 0 0 0-8.649-6.2c-16.788-8.136-30.71-.19-30.71-.19s12.944 10.633 10.839 19.953c-5.79 5.745-8.93 12.672-8.93 19.884l.001.07v.068c0 7.212 3.137 14.14 8.929 19.883 2.105 9.322-10.84 19.955-10.84 19.955s13.923 7.944 30.711-.191a41.693 41.693 0 0 0 8.649-6.2 73.053 73.053 0 0 0 12.582 1.077c12.804 0 24.942-3.248 34.178-9.148 4.783-3.056 8.585-6.682 11.298-10.78 3.022-4.565 4.554-9.476 4.554-14.595v-.139z"/><path fill="#FFF" d="M75.95 47.267c23.709 0 42.93 12.278 42.93 27.422s-19.221 27.422-42.93 27.422c-5.28 0-10.336-.61-15.007-1.723-4.747 5.71-15.19 13.65-25.335 11.084 3.3-3.544 8.189-9.533 7.142-19.398-6.08-4.73-9.73-10.786-9.73-17.385-.001-15.145 19.22-27.422 42.93-27.422"/><path fill="#C1272D" d="M75.95 81.275a5.703 5.703 0 1 0 0-11.406 5.703 5.703 0 0 0 0 11.406zm19.827 0a5.703 5.703 0 1 0 0-11.406 5.703 5.703 0 0 0 0 11.406zm-39.656-.001a5.702 5.702 0 1 0 0-11.404 5.702 5.702 0 0 0 0 11.404z"/><path fill="#CCC" d="M75.95 98.503c-5.28 0-10.336-.53-15.007-1.494-4.191 4.37-12.824 10.245-21.771 10.03-1.18 1.786-2.46 3.247-3.564 4.432 10.145 2.566 20.588-5.373 25.335-11.084 4.671 1.114 9.728 1.723 15.007 1.723 23.518 0 42.617-12.083 42.921-27.06-.304 12.982-19.403 23.453-42.921 23.453z"/></g></svg>