<svg xmlns="http://www.w3.org/2000/svg" style="background:#FFF" viewBox="0 0 150 150"><g fill="none" fill-rule="evenodd"><path fill="#930F17" d="M63.467 102.798c7.516-1.922 14.65-5.158 21.578-8.89L57.442 76.055l-17.215 27.852h.004v.001l59.1 11.63.01-.024-35.778-12.677-.096-.039zM36.13 75.322l-.002-.028-7.971 8.387c-3.735 15.657 7.36 18.878 12.076 20.287l-4.065-28.645-.038-.001zm79.148-8.492c-3.285 5.183-7.257 9.669-11.673 13.683l-4.124 34.602-.118.336L85.23 93.907l.02-.016-.1.062.517-32.96 29.358 5.787-17.67-24.698 13.799-3.45c13.892 6.396 9.676 19.603 4.093 28.192l.03.006z"/><path fill="#F36662" d="M111.252 38.642l-21.685-5.917 7.783 9.396 13.902-3.48zM36.211 75.325l-.082-.003-1.014-13.394-6.996 21.89 8.059-8.458 4.046 28.56 17.26-27.738-.452-.023-20.821-.834zm63.151 40.126l-.022.063-35.777-12.677-.307.014c7.593-1.916 14.796-5.177 21.79-8.943l.152.097.001-.084a.235.235 0 0 1 .03-.015l14.133 21.545z"/><path fill="#EC1622" d="M92.272 38.62c-4.05-7.13-20.315-4.394-34.558 3.796-14.242 8.186-23.726 20.724-19.674 27.85 4.046 7.129 20.23 3.98 34.471-4.206 14.242-8.186 23.808-20.312 19.761-27.44zm22.844 28.3L97.49 42.316 85.629 61.012l-.02.03-28.22 15.034 27.81 17.93.429-32.948 29.488 5.862zm4.526-9.232L99.48 115.115l4.124-34.602c4.417-4.015 8.388-8.5 11.673-13.683l-.031-.006c1.743-2.682 3.353-5.814 4.32-9.048l.076-.088z"/></g></svg>