<svg xmlns="http://www.w3.org/2000/svg" style="background:#FFC000" viewBox="0 0 150 150"><g fill="none"><path fill="#D1A41A" d="M39.852 87.458a67.5 67.5 0 0 0 4.078 4.56c-4.355 1.306-7.21 3.731-8.992 5.873-2.817 3.39-4.309 7.868-3.966 11.71h-7.5c1.504-3.253 7.508-12.653 16.38-22.143m86.88 24.182h-9.12c-20.92-10.882-39.287-18.555-58.799-20.232.042-2.707.525-5.77 1.455-9.186l-1.797-.482c-.955 3.51-1.455 6.685-1.513 9.528a91.937 91.937 0 0 0-6.144-.202c-1.748 0-3.343.16-4.797.44a65.282 65.282 0 0 1-4.885-5.4c9-9.342 23.822-17.794 36.722-20.974 3.632 12.036 11.43 20.282 20.891 25.831a40.167 40.167 0 0 0 2.046-1.244l16.507 17.716.723-.062c4.508-.387 7.07 2.052 7.748 2.81.5.551.797 1.058.963 1.458"/><path fill="#FFDC76" d="M118.679 52.384c.334 16.348-8.033 29.36-19.748 36.034-19.883-9.874-23.627-34.893-20.238-48.313.942 5.132 2.657 8.35 6.36 9.927 8.073-2.303 19.184-2.484 27.37-.235 3.409-2.471 4.73-6.248 5.454-9.548.9 3.839.797 12.135.802 12.135"/><path fill="#000" d="M91.89 54.569c.687 0 1.169.278 1.517.874.817 1.4.683 4.163.006 7.053h-5.5v1.201h5.19c-.557 1.972-1.339 3.924-2.22 5.47l-.284.5 6.88 4.317-3.873 2.544.663 1.004 4.33-2.846 4.674 3.04.642-1.016-4.334-2.672s6.48-4.196 6.802-4.401l-.005-.008h.007c-1.428-2.1-1.88-3.892-1.286-5.932h.486l5.226-.005.012-1.196h-5.265c.97-2.275 2.328-4.324 7.175-4.324v-1.2c-4.472 0-7.15 1.77-8.431 5.524h-9.65c.674-3.001.791-5.952-.205-7.658-.56-.961-1.445-1.47-2.558-1.47-3.986 0-5.56 4.06-5.625 4.233l1.128.422c.057-.147 1.356-3.454 4.497-3.454zm6.694 18.689l-5.089-3.195 9.946.003-4.857 3.192zm5.29-9.56c-.428 1.359-.257 3.407.796 5.165H92.41c.745-1.49 1.437-3.306 1.943-5.166h9.521z"/><path fill="#000" d="M87.393 58.023l-.001.001h.001"/><path fill="#000" d="M127.156 108.914c-2.042-2.277-6.042-3.355-9.382-3.275-2.13-2.526-13.428-14.417-15.71-16.815a43.034 43.034 0 0 0 11.953-12.677h6.235v-1.334h-5.446c.348-.611.68-1.236 1-1.869h4.446V71.61h-3.799c2.822-6.075 4.384-13.05 4.232-20.684.005.004.01.006.016.009-.008-2.088-.66-10.915-1.86-13.346-3.251 1.232-9.168 5.223-10.508 9.304-6.418-.955-13.653-.842-19.99.252-1.06-4.392-6.374-7.752-10.384-9.645-1.69 2.845-2.44 9.44-2.25 14.12l-.022.015c.16 4.227.736 8.11 1.662 11.676-13.865 3.425-28.961 12.48-37.405 21.23-3.953-5.317-5.52-9.68-5.986-12.988-.589-4.176.412-8.008 2.892-11.08 3.883-4.808 9.4-5.147 15.072-4.196-.11.893.007 1.747.366 2.275 1.5 2.208 9.563 2.985 14.376.844-3.552-4.961-10.746-7.383-12.74-6.413-.66.321-1.158.912-1.5 1.6-1.96-.349-3.907-.61-5.33-.599-5.004.037-8.828 1.78-11.693 5.327-2.81 3.48-3.946 7.803-3.285 12.5.627 4.449 2.836 9.18 6.54 14.087a126.82 126.82 0 0 0-1.783 1.945c-9.026 10.068-15.623 20.863-15.623 22.652v.927h11.907l-.209-1.099c-.672-3.543.67-7.97 3.421-11.28 1.727-2.078 4.587-4.449 9.077-5.543 3.993 3.884 9.08 8.01 14.743 11.99h8.848v-.927c0-1.045-.52-1.96-1.465-2.577-1.397-.91-3.555-1.036-5.537-.362-1.89-2.098-2.95-4.901-3.178-8.382 19.203 1.696 37.571 9.426 58.297 20.219h11.403l.15-.745c.213-1.061-.367-2.482-1.55-3.802zm-48.464-68.84c.944 5.13 2.655 8.348 6.361 9.927 3.282-.936 7.067-1.516 10.952-1.73l3.223 7.046 2.066-7.107c3.926.127 7.773.634 11.126 1.556 3.411-2.472 4.734-6.248 5.456-9.548.903 3.84.798 12.133.8 12.135a43.964 43.964 0 0 1-.71 8.91l-3.681 1.56 3.243.489a40.736 40.736 0 0 1-.891 3.194l-3.139.909 2.501.897a39.79 39.79 0 0 1-1.416 3.298h-5.175v1.334h4.494a39.794 39.794 0 0 1-1.066 1.87h-3.428v1.333h2.586a38.622 38.622 0 0 1-13.064 12.24c-5.958-2.96-10.466-7.28-13.768-12.24h1.976v-1.334H84.31a40.966 40.966 0 0 1-1.072-1.869h3.899V71.61h-4.59a45.072 45.072 0 0 1-2.065-4.887l2.339-.653-2.949-1.175a50.014 50.014 0 0 1-.803-2.885l4.538-.309-5.189-2.744c-1.272-6.991-1.017-13.776.273-18.883zM34.938 97.86c-2.817 3.389-4.31 7.865-3.968 11.708h-7.5c1.507-3.251 7.51-12.65 16.38-22.144a67.444 67.444 0 0 0 4.08 4.561c-4.355 1.305-7.21 3.732-8.992 5.875zm82.672 13.747c-20.919-10.88-39.287-18.553-58.798-20.23.042-2.706.526-5.77 1.453-9.185l-1.794-.484c-.954 3.51-1.456 6.688-1.513 9.528a93.1 93.1 0 0 0-6.143-.203c-1.75 0-3.345.162-4.8.443a66.007 66.007 0 0 1-4.884-5.4c2.442-2.535 5.315-5.004 8.459-7.32l4.353 2.997-1.421-5.061a88.269 88.269 0 0 1 4.071-2.577l6.452 3.269-3.03-5.207a89.36 89.36 0 0 1 2.669-1.38l9.013 6.027-2.96-8.744c3.077-1.236 6.146-2.247 9.114-2.979a44.405 44.405 0 0 0 2.536 6.509h-4.094v1.334h4.769a42.2 42.2 0 0 0 1.045 1.87h-5.814v1.333h6.643c4.073 6.304 9.578 11.13 15.808 14.783a42.014 42.014 0 0 0 2.044-1.248l1.633 1.752-2.744 4.208 4.68-2.13 2.71 2.908-4.58 3.479 6.306-1.626 8.507 9.129.72-.062c4.509-.384 7.072 2.053 7.75 2.81.498.554.798 1.06.961 1.457h-9.121z"/></g></svg>