<svg xmlns="http://www.w3.org/2000/svg" style="background:#0595C4" viewBox="0 0 150 150"><g fill="#FFF"><path d="M32.08 74.805c0 16.913 9.828 31.528 24.08 38.454L35.78 57.416a42.565 42.565 0 0 0-3.7 17.389zm71.57-2.156c0-5.28-1.896-8.938-3.523-11.784-2.166-3.52-4.196-6.5-4.196-10.02 0-3.927 2.979-7.583 7.175-7.583.19 0 .369.023.553.034C96.058 36.333 85.93 32.08 74.807 32.08c-14.927 0-28.06 7.658-35.699 19.258 1.002.03 1.947.05 2.75.05 4.469 0 11.387-.542 11.387-.542 2.303-.135 2.575 3.247.274 3.52 0 0-2.315.272-4.89.407l15.558 46.281 9.35-28.043-6.657-18.239c-2.3-.135-4.48-.407-4.48-.407-2.303-.135-2.033-3.655.27-3.52 0 0 7.056.543 11.254.543 4.468 0 11.387-.542 11.387-.542 2.305-.136 2.576 3.247.274 3.519 0 0-2.32.272-4.89.407l15.44 45.93 4.262-14.241c1.848-5.91 3.253-10.154 3.253-13.812z"/><path d="M75.556 78.542l-12.82 37.25a42.702 42.702 0 0 0 12.07 1.742c4.975 0 9.747-.86 14.188-2.422a3.752 3.752 0 0 1-.304-.588L75.556 78.542zm36.742-24.236c.184 1.36.287 2.822.287 4.393 0 4.336-.81 9.21-3.248 15.304l-13.052 37.734c12.703-7.407 21.247-21.169 21.247-36.932a42.494 42.494 0 0 0-5.234-20.5z"/><path d="M74.807 25C47.344 25 25 47.342 25 74.805c0 27.466 22.344 49.808 49.807 49.808 27.461 0 49.81-22.341 49.81-49.808C124.614 47.342 102.267 25 74.806 25zm0 97.33c-26.204 0-47.523-21.32-47.523-47.525 0-26.203 21.318-47.52 47.523-47.52 26.202 0 47.519 21.317 47.519 47.52 0 26.205-21.317 47.524-47.52 47.524z"/></g></svg>