<svg xmlns="http://www.w3.org/2000/svg" width="68" height="64" viewBox="0 0 68 64">
  <defs>
    <style>
      .cls-1 {
        fill: #00d46a;
        fill-rule: evenodd;
      }
    </style>
  </defs>
  <path id="icon_users" class="cls-1" d="M1906,2843.94a16,16,0,0,0,14-8.27,16,16,0,1,0,0-15.46A16,16,0,1,0,1906,2843.94Zm28-24a8,8,0,1,1-8,8A8.024,8.024,0,0,1,1934,2819.94Zm-4,32a15.893,15.893,0,0,0-10,3.53,15.872,15.872,0,0,0-10-3.53h-8a15.964,15.964,0,0,0-16,16v4a4.012,4.012,0,0,0,4,4h60a4.012,4.012,0,0,0,4-4v-4a15.957,15.957,0,0,0-16-16h-8Zm-4,16a15.4,15.4,0,0,0-1.2-6.07,7.936,7.936,0,0,1,5.2-1.93h8a8.024,8.024,0,0,1,8,8h-20Z" transform="translate(-1886 -2811.94)"/>
</svg>
